<?xml version="1.0" encoding="utf-8"?>
<!-- Generator: Adobe Illustrator 24.0.0, SVG Export Plug-In . SVG Version: 6.00 Build 0)  -->
<svg version="1.1" id="Laag_1" xmlns="http://www.w3.org/2000/svg" xmlns:xlink="http://www.w3.org/1999/xlink" x="0px" y="0px"
	 viewBox="0 0 603.133 101" enable-background="new 0 0 603.133 101" xml:space="preserve">
<text transform="matrix(1 0 0 1 112.1528 45.3159)" font-family="'Futura-Bold'" font-size="48px" letter-spacing="1">E</text>
<text transform="matrix(1 0 0 1 141.9128 45.3159)" font-family="'Futura-Bold'" font-size="48px" letter-spacing="1">N</text>
<text transform="matrix(1 0 0 1 187.9918 45.3159)" font-family="'Futura-Bold'" font-size="48px" letter-spacing="1">DE</text>
<text transform="matrix(1 0 0 1 257.8798 45.3159)" font-family="'Futura-Bold'" font-size="48px" letter-spacing="1">R</text>
<text transform="matrix(1 0 0 1 294.2638 45.3159)" font-family="'Futura-Bold'" font-size="48px" letter-spacing="1">I</text>
<text transform="matrix(1 0 0 1 313.6548 45.3159)" font-family="'Futura-Bold'" font-size="48px" letter-spacing="1">D</text>
<text transform="matrix(1 0 0 1 353.7358 45.3159)" font-family="'Futura-Bold'" font-size="48px" letter-spacing="1">ENTI</text>
<text transform="matrix(1 0 0 1 477.0458 45.3159)" font-family="'Futura-Bold'" font-size="48px" letter-spacing="1">T</text>
<text transform="matrix(1 0 0 1 505.0288 45.3159)" font-family="'Futura-Bold'" font-size="48px" letter-spacing="1">EI</text>
<text transform="matrix(1 0 0 1 554.1808 45.3159)" font-family="'Futura-Bold'" font-size="48px">T</text>
<path fill="#FAA600" d="M4.046,30.049c-0.479,1.237-0.909,2.499-1.293,3.784h27.838c0.814-1.463,1.73-2.812,2.755-4.037
	c2.156-2.579,4.756-4.567,7.8-5.962s6.425-2.093,10.147-2.093c4.481,0,8.476,1.142,11.986,3.425
	c2.892,1.882,5.339,4.774,7.342,8.667h7.551l17.26-7.145c-1.752-3.605-3.757-6.828-6.006-9.682H11.675
	C8.498,20.786,5.953,25.132,4.046,30.049"/>
<path fill="#F7ED00" d="M51.293,50.66h49.242c0.064-1.833,0.097-3.734,0.097-5.708H51.293V50.66z"/>
<path fill="#F7ED00" d="M71.841,36.454l6.331-2.621h-7.551C71.047,34.662,71.455,35.534,71.841,36.454"/>
<path fill="#F7ED00" d="M28.272,39.118c0.643-1.908,1.418-3.667,2.319-5.285H2.752c-1.546,5.174-2.321,10.741-2.321,16.7
	c0,0.043,0.001,0.085,0.001,0.127h26.012C26.499,46.432,27.104,42.581,28.272,39.118"/>
<path fill="#29B042" d="M51.293,50.66v13.571h20.421c-0.177,1.16-0.422,2.242-0.729,3.256h27.379
	c0.775-2.741,1.321-5.643,1.634-8.71c0.258-2.531,0.437-5.238,0.537-8.117H51.293z"/>
<path fill="#29B042" d="M0.432,50.66c0.011,6.032,0.81,11.64,2.399,16.827h27.198c-0.806-1.516-1.477-3.15-2.011-4.904
	c-1.058-3.467-1.586-7.23-1.586-11.289c0-0.214,0.009-0.422,0.011-0.634H0.432z"/>
<path fill="#00A6E8" d="M70.985,67.487c-0.432,1.425-0.989,2.711-1.681,3.847c-1.185,1.947-2.685,3.532-4.503,4.756
	c-1.819,1.227-3.868,2.115-6.151,2.664c-2.283,0.551-4.651,0.825-7.103,0.825c-4.144,0-7.78-0.698-10.908-2.094
	c-3.129-1.395-5.751-3.361-7.864-5.897c-1.045-1.253-1.959-2.621-2.745-4.101H2.832c0.381,1.243,0.806,2.462,1.278,3.657
	c1.954,4.954,4.53,9.344,7.721,13.17h77.79c0.204-0.246,0.412-0.488,0.611-0.741c3.045-3.846,5.455-8.263,7.23-13.254
	c0.33-0.924,0.63-1.868,0.902-2.832C98.364,67.487,70.985,67.487,70.985,67.487z"/>
<path fill="#BA128F" d="M79.514,93.214c3.832-2.41,7.197-5.381,10.107-8.9H11.83c0.812,0.973,1.661,1.912,2.553,2.812
	c4.396,4.439,9.659,7.885,15.791,10.337c6.13,2.452,12.916,3.679,20.358,3.679c5.41,0,10.569-0.678,15.474-2.03
	C70.909,97.76,75.412,95.795,79.514,93.214"/>
<path fill="#F24712" d="M14.32,14.13c-0.927,0.918-1.807,1.878-2.645,2.876h77.751c-3.395-4.308-7.351-7.765-11.877-10.359
	C70.022,2.335,61.27,0.179,51.293,0.179c-7.695,0-14.671,1.227-20.928,3.677C24.106,6.31,18.759,9.734,14.32,14.13"/>
<text transform="matrix(1 0 0 1 115.1528 78.7676)" font-family="'MyriadPro-Regular'" font-size="18px">Op zoek naar de balans tussen vaste sociale regels en vrije uiting.</text>
</svg>
