<?xml version="1.0" encoding="utf-8"?>
<!-- Generator: Adobe Illustrator 24.0.0, SVG Export Plug-In . SVG Version: 6.00 Build 0)  -->
<svg version="1.1" id="Laag_1" xmlns="http://www.w3.org/2000/svg" xmlns:xlink="http://www.w3.org/1999/xlink" x="0px" y="0px"
	 viewBox="0 0 178.583 277.795" enable-background="new 0 0 178.583 277.795" xml:space="preserve">
<path fill="#A3A0A0" d="M164.409,277.795H14.173C6.346,277.795,0,271.45,0,263.622V14.173C0,6.346,6.346,0,14.173,0h150.236
	c7.828,0,14.173,6.346,14.173,14.173v249.449C178.583,271.45,172.237,277.795,164.409,277.795z"/>
<g>
	
		<line fill="none" stroke="#FFFFFF" stroke-linecap="round" stroke-linejoin="round" stroke-miterlimit="10" x1="91.42" y1="225.517" x2="88.963" y2="225.517"/>
	
		<rect x="83.563" y="215.46" fill="none" stroke="#FFFFFF" stroke-linecap="round" stroke-linejoin="round" stroke-miterlimit="10" width="13.257" height="8.257"/>
	
		<rect x="87.163" y="228.217" fill="none" stroke="#FFFFFF" stroke-linecap="round" stroke-linejoin="round" stroke-miterlimit="10" width="6.057" height="3.757"/>
	
		<rect x="79.963" y="215.46" fill="none" stroke="#FFFFFF" stroke-linecap="round" stroke-linejoin="round" stroke-miterlimit="10" width="1.8" height="1.878"/>
	
		<rect x="79.963" y="219.138" fill="none" stroke="#FFFFFF" stroke-linecap="round" stroke-linejoin="round" stroke-miterlimit="10" width="1.8" height="3.678"/>
	<path fill="none" stroke="#FFFFFF" stroke-linecap="round" stroke-linejoin="round" stroke-miterlimit="10" d="M78.163,214.035
		v21.381h22.257v-21.381c0-0.704-0.571-1.276-1.276-1.276H79.439C78.734,212.76,78.163,213.331,78.163,214.035z"/>
	<path fill="none" stroke="#FFFFFF" stroke-linecap="round" stroke-linejoin="round" stroke-miterlimit="10" d="M89.291,206.019
		c-2.945,0-5.608,1.202-7.528,3.141v0.9H96.82v-0.9C94.899,207.221,92.236,206.019,89.291,206.019z"/>
	
		<circle fill="none" stroke="#FFFFFF" stroke-linecap="round" stroke-linejoin="round" stroke-miterlimit="10" cx="89.291" cy="208.039" r="0.688"/>
</g>
<g>
	<path fill="none" stroke="#FFFFFF" stroke-width="2" stroke-linecap="round" stroke-linejoin="round" stroke-miterlimit="10" d="
		M89.291,165.381L89.291,165.381c-9.183,0-16.628-7.444-16.628-16.628v-41.38c0-9.183,7.444-16.628,16.628-16.628h0
		c9.183,0,16.628,7.444,16.628,16.628v41.38C105.919,157.936,98.475,165.381,89.291,165.381z"/>
	
		<line fill="none" stroke="#FFFFFF" stroke-width="2" stroke-linecap="round" stroke-linejoin="round" stroke-miterlimit="10" x1="112.669" y1="90.745" x2="112.669" y2="165.381"/>
	
		<line fill="none" stroke="#FFFFFF" stroke-width="2" stroke-linecap="round" stroke-linejoin="round" stroke-miterlimit="10" x1="65.914" y1="90.745" x2="65.914" y2="165.381"/>
	
		<rect x="94.117" y="132.704" fill="none" stroke="#FFFFFF" stroke-width="2" stroke-linecap="round" stroke-linejoin="round" stroke-miterlimit="10" width="3.848" height="3.848"/>
	
		<rect x="80.617" y="132.704" fill="none" stroke="#FFFFFF" stroke-width="2" stroke-linecap="round" stroke-linejoin="round" stroke-miterlimit="10" width="3.848" height="3.848"/>
	
		<rect x="94.117" y="146.204" fill="none" stroke="#FFFFFF" stroke-width="2" stroke-linecap="round" stroke-linejoin="round" stroke-miterlimit="10" width="3.848" height="3.848"/>
	
		<rect x="81.258" y="146.845" fill="none" stroke="#FFFFFF" stroke-width="2" stroke-linecap="round" stroke-linejoin="round" stroke-miterlimit="10" width="2.566" height="2.566"/>
	
		<rect x="82.541" y="142.345" fill="none" stroke="#FFFFFF" stroke-width="2" stroke-linecap="round" stroke-linejoin="round" stroke-miterlimit="10" width="1.283" height="1.283"/>
	
		<rect x="84.791" y="140.095" fill="none" stroke="#FFFFFF" stroke-width="2" stroke-linecap="round" stroke-linejoin="round" stroke-miterlimit="10" width="1.283" height="1.283"/>
	
		<rect x="89.291" y="144.595" fill="none" stroke="#FFFFFF" stroke-width="2" stroke-linecap="round" stroke-linejoin="round" stroke-miterlimit="10" width="1.283" height="1.283"/>
	
		<rect x="89.291" y="135.595" fill="none" stroke="#FFFFFF" stroke-width="2" stroke-linecap="round" stroke-linejoin="round" stroke-miterlimit="10" width="1.283" height="1.283"/>
	
		<rect x="93.791" y="140.095" fill="none" stroke="#FFFFFF" stroke-width="2" stroke-linecap="round" stroke-linejoin="round" stroke-miterlimit="10" width="1.283" height="1.283"/>
	
		<rect x="96.041" y="144.595" fill="none" stroke="#FFFFFF" stroke-width="2" stroke-linecap="round" stroke-linejoin="round" stroke-miterlimit="10" width="1.283" height="1.283"/>
	
		<line fill="none" stroke="#FFFFFF" stroke-width="2" stroke-linecap="round" stroke-linejoin="round" stroke-miterlimit="10" x1="84.465" y1="156.403" x2="94.117" y2="156.403"/>
	
		<line fill="none" stroke="#FFFFFF" stroke-width="2" stroke-linecap="round" stroke-linejoin="round" stroke-miterlimit="10" x1="80.617" y1="124.903" x2="97.965" y2="124.903"/>
	
		<circle fill="none" stroke="#FFFFFF" stroke-width="2" stroke-linecap="round" stroke-linejoin="round" stroke-miterlimit="10" cx="89.291" cy="107.373" r="9.977"/>
</g>
<g>
	<text transform="matrix(1 0 0 1 110.8796 252.3286)" fill="#FFFFFF" font-family="'Montserrat-Regular'" font-size="8px">Parkeermeter</text>
</g>
<g>
	<text transform="matrix(1 0 0 1 23.2429 252.3288)" fill="#FFFFFF" font-family="'Montserrat-Regular'" font-size="8px">Laadpaal</text>
</g>
<g>
	<text transform="matrix(1 0 0 1 71.8987 252.3291)" fill="#FFFFFF" font-family="'Montserrat-Regular'" font-size="8px">Afvalbak</text>
</g>
<text transform="matrix(1 0 0 1 23.1642 37.5056)"><tspan x="0" y="0" fill="#FFFFFF" font-family="'Montserrat-ExtraBold'" font-size="14px" letter-spacing="1">SCANNEN</tspan><tspan x="0" y="18" fill="#FFFFFF" font-family="'Montserrat-Regular'" font-size="10px">QR-code</tspan></text>
<g>
	
		<line fill="none" stroke="#FFFFFF" stroke-linecap="round" stroke-linejoin="round" stroke-miterlimit="10" x1="33.622" y1="206.054" x2="45.605" y2="206.054"/>
	
		<circle fill="none" stroke="#FFFFFF" stroke-linecap="round" stroke-linejoin="round" stroke-miterlimit="10" cx="39.613" cy="216.367" r="0.591"/>
	<path fill="none" stroke="#FFFFFF" stroke-linecap="round" stroke-linejoin="round" stroke-miterlimit="10" d="M38.713,214.154
		c-0.873,0.357-1.492,1.213-1.492,2.213c0,1,0.618,1.856,1.492,2.212"/>
	<path fill="none" stroke="#FFFFFF" stroke-linecap="round" stroke-linejoin="round" stroke-miterlimit="10" d="M40.513,218.579
		c0.873-0.357,1.492-1.212,1.492-2.212c0-1-0.618-1.856-1.492-2.213"/>
	<path fill="none" stroke="#FFFFFF" stroke-linecap="round" stroke-linejoin="round" stroke-miterlimit="10" d="M41.254,221.279
		h-3.281c-1.409,0-2.551-1.142-2.551-2.551v-4.722c0-1.409,1.142-2.551,2.551-2.551h3.281c1.409,0,2.551,1.142,2.551,2.551v4.722
		C43.805,220.137,42.663,221.279,41.254,221.279z"/>
	
		<circle fill="none" stroke="#FFFFFF" stroke-linecap="round" stroke-linejoin="round" stroke-miterlimit="10" cx="39.613" cy="225.317" r="1.338"/>
	<path fill="none" stroke="#FFFFFF" stroke-linecap="round" stroke-linejoin="round" stroke-miterlimit="10" d="M43.054,229.354
		h-6.881c-1.409,0-2.551-1.142-2.551-2.551v-15.498c0-1.409,1.142-2.551,2.551-2.551h6.881c1.409,0,2.551,1.142,2.551,2.551v15.498
		C45.605,228.212,44.463,229.354,43.054,229.354z"/>
	<path fill="none" stroke="#FFFFFF" stroke-linecap="round" stroke-linejoin="round" stroke-miterlimit="10" d="M47.172,217.788
		h-1.568v-2.843h1.568c0.704,0,1.276,0.571,1.276,1.276v0.292C48.448,217.217,47.877,217.788,47.172,217.788z"/>
	<path fill="none" stroke="#FFFFFF" stroke-linecap="round" stroke-linejoin="round" stroke-miterlimit="10" d="M48.448,216.513
		h0.072c1.409,0,2.551,1.142,2.551,2.551v16.341c0,2.395,1.942,4.337,4.337,4.337h0.005"/>
	
		<line fill="none" stroke="#FFFFFF" stroke-linecap="round" stroke-linejoin="round" stroke-miterlimit="10" x1="33.622" y1="226.803" x2="33.622" y2="239.742"/>
	
		<line fill="none" stroke="#FFFFFF" stroke-linecap="round" stroke-linejoin="round" stroke-miterlimit="10" x1="45.605" y1="226.803" x2="45.605" y2="239.742"/>
</g>
<g>
	<path fill="none" stroke="#FFFFFF" stroke-linecap="round" stroke-linejoin="round" stroke-miterlimit="10" d="M136.294,203.502
		h0.739c0.627,0,1.135-0.508,1.135-1.135c0-0.627-0.508-1.135-1.135-1.135h-0.739v3.747"/>
	
		<rect x="133.594" y="199.432" fill="none" stroke="#FFFFFF" stroke-linecap="round" stroke-linejoin="round" stroke-miterlimit="10" width="7.274" height="6.906"/>
	
		<line fill="none" stroke="#FFFFFF" stroke-linecap="round" stroke-linejoin="round" stroke-miterlimit="10" x1="137.231" y1="206.338" x2="137.231" y2="209.334"/>
	
		<line fill="none" stroke="#FFFFFF" stroke-linecap="round" stroke-linejoin="round" stroke-miterlimit="10" x1="136.183" y1="209.334" x2="138.279" y2="209.334"/>
	<polyline fill="none" stroke="#FFFFFF" stroke-linecap="round" stroke-linejoin="round" stroke-miterlimit="10" points="
		143.118,240.365 143.118,212.034 131.344,212.034 131.344,240.365 	"/>
	
		<rect x="134.044" y="214.734" fill="none" stroke="#FFFFFF" stroke-linecap="round" stroke-linejoin="round" stroke-miterlimit="10" width="6.375" height="5.4"/>
	
		<rect x="134.044" y="221.934" fill="none" stroke="#FFFFFF" stroke-linecap="round" stroke-linejoin="round" stroke-miterlimit="10" width="6.375" height="7.2"/>
	
		<rect x="135.844" y="223.734" fill="none" stroke="#FFFFFF" stroke-linecap="round" stroke-linejoin="round" stroke-miterlimit="10" width="2.775" height="3.6"/>
	
		<rect x="134.044" y="230.934" fill="none" stroke="#FFFFFF" stroke-linecap="round" stroke-linejoin="round" stroke-miterlimit="10" width="1.334" height="1.136"/>
	
		<rect x="136.564" y="230.934" fill="none" stroke="#FFFFFF" stroke-linecap="round" stroke-linejoin="round" stroke-miterlimit="10" width="1.334" height="1.136"/>
	
		<rect x="139.085" y="230.934" fill="none" stroke="#FFFFFF" stroke-linecap="round" stroke-linejoin="round" stroke-miterlimit="10" width="1.334" height="1.136"/>
</g>
<g>
	
		<circle fill="none" stroke="#FFFFFF" stroke-linecap="round" stroke-linejoin="round" stroke-miterlimit="10" cx="149.275" cy="36.835" r="1.836"/>
	<path fill="none" stroke="#FFFFFF" stroke-linecap="round" stroke-linejoin="round" stroke-miterlimit="10" d="M144.869,34.842
		c0.761-1.675,2.449-2.843,4.406-2.843c1.956,0,3.645,1.168,4.405,2.843"/>
	<path fill="none" stroke="#FFFFFF" stroke-linecap="round" stroke-linejoin="round" stroke-miterlimit="10" d="M142.136,33.606
		c1.233-2.714,3.969-4.607,7.139-4.607c3.17,0,5.906,1.892,7.138,4.607"/>
	<path fill="none" stroke="#FFFFFF" stroke-linecap="round" stroke-linejoin="round" stroke-miterlimit="10" d="M139.402,32.369
		c1.705-3.754,5.489-6.37,9.873-6.37c4.384,0,8.167,2.617,9.872,6.37"/>
</g>
</svg>
