<?xml version="1.0" encoding="utf-8"?>
<!-- Generator: Adobe Illustrator 24.0.0, SVG Export Plug-In . SVG Version: 6.00 Build 0)  -->
<svg version="1.1" id="Laag_1" xmlns="http://www.w3.org/2000/svg" xmlns:xlink="http://www.w3.org/1999/xlink" x="0px" y="0px"
	 viewBox="0 0 178.583 277.795" enable-background="new 0 0 178.583 277.795" xml:space="preserve">
<path fill="#FBBA00" d="M164.409,277.795H14.173C6.346,277.795,0,271.45,0,263.622V14.173C0,6.346,6.346,0,14.173,0h150.236
	c7.828,0,14.173,6.346,14.173,14.173v249.449C178.583,271.45,172.237,277.795,164.409,277.795z"/>
<text transform="matrix(1 0 0 1 23.1643 37.5056)"><tspan x="0" y="0" fill="#FFFFFF" font-family="'Montserrat-ExtraBold'" font-size="14px" letter-spacing="1">FIETS</tspan><tspan x="0" y="18" fill="#FFFFFF" font-family="'Montserrat-Regular'" font-size="10px">Lamp</tspan></text>
<g>
	<circle fill="none" stroke="#FFFFFF" stroke-miterlimit="10" cx="139.048" cy="33.984" r="3.769"/>
	<circle fill="none" stroke="#FFFFFF" stroke-miterlimit="10" cx="151.651" cy="33.984" r="3.769"/>
	<path fill="none" stroke="#FFFFFF" stroke-linecap="round" stroke-miterlimit="10" d="M139.048,33.984l2.39-7.542
		c0.12-0.379,0.471-0.636,0.869-0.636h1.296"/>
	
		<line fill="none" stroke="#FFFFFF" stroke-linecap="round" stroke-miterlimit="10" x1="148.527" y1="25.806" x2="151.079" y2="25.806"/>
	
		<line fill="none" stroke="#FFFFFF" stroke-linecap="round" stroke-linejoin="round" stroke-miterlimit="10" x1="151.651" y1="33.984" x2="145.555" y2="33.984"/>
	<polyline fill="none" stroke="#FFFFFF" stroke-linecap="round" stroke-linejoin="round" stroke-miterlimit="10" points="
		140.828,28.366 148.929,28.366 150.009,30.596 	"/>
</g>
<g>
	<path fill="none" stroke="#FFFFFF" stroke-linecap="round" stroke-linejoin="round" stroke-miterlimit="10" d="M95.986,217.254
		v-2.658c0-0.568-0.46-1.028-1.028-1.028h-9.807c-0.568,0-1.028,0.46-1.028,1.028v2.658c-2.299,1.713-3.838,4.392-4.005,7.432
		c-0.016,0.298,0.215,0.551,0.514,0.551h1.15c0.267,0,0.496-0.203,0.512-0.47c0.244-4.07,3.632-7.306,7.761-7.306
		s7.518,3.236,7.761,7.306c0.016,0.266,0.245,0.47,0.512,0.47h1.15c0.298,0,0.53-0.253,0.514-0.551
		C99.825,221.646,98.286,218.967,95.986,217.254z"/>
	
		<line fill="none" stroke="#FFFFFF" stroke-linecap="round" stroke-linejoin="round" stroke-miterlimit="10" x1="99.817" y1="219.133" x2="101.235" y2="218.246"/>
	
		<line fill="none" stroke="#FFFFFF" stroke-linecap="round" stroke-linejoin="round" stroke-miterlimit="10" x1="82.32" y1="215.784" x2="80.954" y2="215.784"/>
	<path fill="none" stroke="#FFFFFF" stroke-linecap="round" stroke-linejoin="round" stroke-miterlimit="10" d="M80.954,217.224
		h-2.417c-0.657,0-1.19-0.533-1.19-1.19v-0.502c0-0.657,0.533-1.19,1.19-1.19h2.417V217.224z"/>
	<path fill="none" stroke="#FFFFFF" stroke-linecap="round" stroke-linejoin="round" stroke-miterlimit="10" d="M98.52,227.873
		c-1.122,3.608-4.488,6.228-8.465,6.228c-2.937,0-5.54-1.428-7.153-3.627"/>
</g>
<g>
	<path fill="none" stroke="#FFFFFF" stroke-linecap="round" stroke-linejoin="round" stroke-miterlimit="10" d="M44.613,214.745
		h-6.487c-2.136,0-3.868,1.732-3.868,3.868v4.215h14.223v-4.215C48.481,216.477,46.749,214.745,44.613,214.745z"/>
	
		<line fill="none" stroke="#FFFFFF" stroke-linecap="round" stroke-linejoin="round" stroke-miterlimit="10" x1="39.491" y1="212.699" x2="43.249" y2="212.699"/>
	<path fill="none" stroke="#FFFFFF" stroke-linecap="round" stroke-linejoin="round" stroke-miterlimit="10" d="M48.481,228.152
		c0,1.068-0.866,1.934-1.934,1.934H36.192c-1.068,0-1.934-0.866-1.934-1.934"/>
	
		<line fill="none" stroke="#FFFFFF" stroke-linecap="round" stroke-linejoin="round" stroke-miterlimit="10" x1="31.555" y1="225.531" x2="51.21" y2="225.531"/>
	<polyline fill="none" stroke="#FFFFFF" stroke-linecap="round" stroke-linejoin="round" stroke-miterlimit="10" points="
		27.116,221.62 31.529,221.62 31.529,222.828 	"/>
	
		<line fill="none" stroke="#FFFFFF" stroke-linecap="round" stroke-linejoin="round" stroke-miterlimit="10" x1="39.567" y1="231.888" x2="39.567" y2="234.97"/>
	
		<line fill="none" stroke="#FFFFFF" stroke-linecap="round" stroke-linejoin="round" stroke-miterlimit="10" x1="43.172" y1="231.888" x2="43.172" y2="234.97"/>
</g>
<g>
	<text transform="matrix(1 0 0 1 115.9509 252.3286)" fill="#FFFFFF" font-family="'Montserrat-Regular'" font-size="8px">Versnelling</text>
</g>
<g>
	<text transform="matrix(1 0 0 1 35.0265 252.3287)" fill="#FFFFFF" font-family="'Montserrat-Regular'" font-size="8px">Bel</text>
</g>
<g>
	<text transform="matrix(1 0 0 1 81.4955 252.3291)" fill="#FFFFFF" font-family="'Montserrat-Regular'" font-size="8px">Slot</text>
</g>
<g>
	<g>
		<g>
			<path fill="none" stroke="#FFFFFF" stroke-linecap="round" stroke-linejoin="round" stroke-miterlimit="10" d="M138.787,234.384
				h-4.728c-2.822,0-5.109-2.287-5.109-5.109v-8.177c0-2.822,2.287-5.109,5.109-5.109h4.728c0.705,0,1.277,0.572,1.277,1.277v15.84
				C140.064,233.812,139.492,234.384,138.787,234.384z"/>
		</g>
		<g>
			
				<line fill="none" stroke="#FFFFFF" stroke-linecap="round" stroke-linejoin="round" stroke-miterlimit="10" x1="133.606" y1="219.315" x2="135.898" y2="219.315"/>
		</g>
		<g>
			<g>
				
					<line fill="none" stroke="#FFFFFF" stroke-linecap="round" stroke-linejoin="round" stroke-miterlimit="10" x1="133.503" y1="230.716" x2="136.001" y2="230.716"/>
				
					<line fill="none" stroke="#FFFFFF" stroke-linecap="round" stroke-linejoin="round" stroke-miterlimit="10" x1="134.752" y1="231.965" x2="134.752" y2="229.466"/>
			</g>
		</g>
		<g>
			<polyline fill="none" stroke="#FFFFFF" stroke-linecap="round" stroke-linejoin="round" stroke-miterlimit="10" points="
				137.533,223.325 131.97,223.325 131.97,227.048 137.533,227.048 			"/>
		</g>
		<g>
			<path fill="none" stroke="#FFFFFF" stroke-linecap="round" stroke-linejoin="round" stroke-miterlimit="10" d="M142.768,218.37
				v13.632h4.916c0.917,0,1.661-0.744,1.661-1.661v-10.309c0-0.917-0.744-1.661-1.661-1.661H142.768z"/>
		</g>
		<g>
			
				<line fill="none" stroke="#FFFFFF" stroke-linecap="round" stroke-linejoin="round" stroke-miterlimit="10" x1="152.048" y1="230.341" x2="152.048" y2="220.032"/>
		</g>
		<g>
			<g>
				
					<line fill="none" stroke="#FFFFFF" stroke-linecap="round" stroke-linejoin="round" stroke-miterlimit="10" x1="145.214" y1="220.685" x2="146.899" y2="220.685"/>
				
					<line fill="none" stroke="#FFFFFF" stroke-linecap="round" stroke-linejoin="round" stroke-miterlimit="10" x1="145.214" y1="225.186" x2="146.899" y2="225.186"/>
				
					<line fill="none" stroke="#FFFFFF" stroke-linecap="round" stroke-linejoin="round" stroke-miterlimit="10" x1="145.214" y1="229.688" x2="146.899" y2="229.688"/>
			</g>
		</g>
		<g>
			
				<line fill="none" stroke="#FFFFFF" stroke-linecap="round" stroke-linejoin="round" stroke-miterlimit="10" x1="126.247" y1="229.496" x2="126.247" y2="220.876"/>
		</g>
		<g>
			
				<line fill="none" stroke="#FFFFFF" stroke-linecap="round" stroke-linejoin="round" stroke-miterlimit="10" x1="133.837" y1="213.285" x2="137.04" y2="213.285"/>
		</g>
	</g>
</g>
<g>
	<path fill="none" stroke="#FFFFFF" stroke-width="2" stroke-linecap="round" stroke-linejoin="round" stroke-miterlimit="10" d="
		M89.291,150.402c-12.733,0-23.091-10.359-23.091-23.091s10.358-23.091,23.091-23.091s23.092,10.358,23.092,23.091
		S102.023,150.402,89.291,150.402z"/>
	<path fill="none" stroke="#FFFFFF" stroke-width="2" stroke-linecap="round" stroke-linejoin="round" stroke-miterlimit="10" d="
		M89.29,109.671c-9.726,0-17.64,7.913-17.64,17.64s7.913,17.64,17.64,17.64c9.728,0,17.641-7.913,17.641-17.64
		S99.018,109.671,89.29,109.671z"/>
	<g>
		<g>
			<path fill="none" stroke="#FFFFFF" stroke-width="2" stroke-linecap="round" stroke-linejoin="round" stroke-miterlimit="10" d="
				M89.29,139.196c6.554,0,11.887-5.332,11.887-11.885"/>
		</g>
	</g>
	
		<line fill="none" stroke="#FFFFFF" stroke-width="2" stroke-linecap="round" stroke-linejoin="round" stroke-miterlimit="10" x1="93.79" y1="156.706" x2="93.79" y2="164.325"/>
	
		<line fill="none" stroke="#FFFFFF" stroke-width="2" stroke-linecap="round" stroke-linejoin="round" stroke-miterlimit="10" x1="84.794" y1="164.325" x2="84.794" y2="156.706"/>
	
		<line fill="none" stroke="#FFFFFF" stroke-width="2" stroke-linecap="round" stroke-linejoin="round" stroke-miterlimit="10" x1="87.042" y1="97.47" x2="91.54" y2="97.47"/>
</g>
</svg>
