<?xml version="1.0" encoding="utf-8"?>
<!-- Generator: Adobe Illustrator 24.0.0, SVG Export Plug-In . SVG Version: 6.00 Build 0)  -->
<svg version="1.1" id="Laag_1" xmlns="http://www.w3.org/2000/svg" xmlns:xlink="http://www.w3.org/1999/xlink" x="0px" y="0px"
	 viewBox="0 0 178.583 277.795" enable-background="new 0 0 178.583 277.795" xml:space="preserve">
<path fill="#BE8646" d="M164.409,277.795H14.173C6.346,277.795,0,271.45,0,263.622V14.173C0,6.346,6.346,0,14.173,0h150.236
	c7.828,0,14.173,6.346,14.173,14.173v249.449C178.583,271.45,172.237,277.795,164.409,277.795z"/>
<g>
	
		<rect x="81.632" y="211.388" fill="none" stroke="#FFFFFF" stroke-linecap="round" stroke-linejoin="round" stroke-miterlimit="10" width="12.6" height="25.827"/>
	<polyline fill="none" stroke="#FFFFFF" stroke-linecap="round" stroke-linejoin="round" stroke-miterlimit="10" points="
		102.351,237.215 102.351,205.645 94.232,205.645 	"/>
	
		<line fill="none" stroke="#FFFFFF" stroke-linecap="round" stroke-linejoin="round" stroke-miterlimit="10" x1="87.932" y1="211.388" x2="87.932" y2="237.215"/>
	
		<rect x="85.493" y="206.545" fill="none" stroke="#FFFFFF" stroke-linecap="round" stroke-linejoin="round" stroke-miterlimit="10" width="4.878" height="2.144"/>
	<polygon fill="none" stroke="#FFFFFF" stroke-linecap="round" stroke-linejoin="round" stroke-miterlimit="10" points="
		99.651,222.794 98.291,220.964 96.932,222.794 	"/>
	<polygon fill="none" stroke="#FFFFFF" stroke-linecap="round" stroke-linejoin="round" stroke-miterlimit="10" points="
		96.932,225.494 98.291,227.324 99.651,225.494 	"/>
	
		<line fill="none" stroke="#FFFFFF" stroke-linecap="round" stroke-linejoin="round" stroke-miterlimit="10" x1="76.232" y1="237.215" x2="76.232" y2="205.645"/>
</g>
<g>
	<path fill="none" stroke="#FFFFFF" stroke-linecap="round" stroke-linejoin="round" stroke-miterlimit="10" d="M139.225,221.378
		c-2.3,0-4.171-1.871-4.171-4.171s1.871-4.171,4.171-4.171c2.3,0,4.171,1.871,4.171,4.171S141.525,221.378,139.225,221.378z"/>
	<path fill="none" stroke="#FFFFFF" stroke-linecap="round" stroke-linejoin="round" stroke-miterlimit="10" d="M139.225,215.285
		c-1.059,0-1.921,0.862-1.921,1.921"/>
	<path fill="none" stroke="#FFFFFF" stroke-linecap="round" stroke-linejoin="round" stroke-miterlimit="10" d="M143.545,234.878
		h-8.64c-1.409,0-2.551-1.142-2.551-2.551v-19.44c0-1.409,1.142-2.551,2.551-2.551h8.64c1.409,0,2.551,1.142,2.551,2.551v19.44
		C146.096,233.736,144.954,234.878,143.545,234.878z"/>
	
		<line fill="none" stroke="#FFFFFF" stroke-linecap="round" stroke-linejoin="round" stroke-miterlimit="10" x1="129.654" y1="237.578" x2="129.654" y2="207.635"/>
	
		<line fill="none" stroke="#FFFFFF" stroke-linecap="round" stroke-linejoin="round" stroke-miterlimit="10" x1="148.796" y1="207.635" x2="148.796" y2="237.578"/>
	<path fill="none" stroke="#FFFFFF" stroke-linecap="round" stroke-linejoin="round" stroke-miterlimit="10" d="M141.772,226.664
		c0-1.405-1.143-2.548-2.548-2.548c-1.405,0-2.548,1.143-2.548,2.548c0,0.774,0.354,1.459,0.9,1.927v2.687h3.295v-2.687
		C141.418,228.123,141.772,227.437,141.772,226.664z"/>
	
		<line fill="none" stroke="#FFFFFF" stroke-linecap="round" stroke-linejoin="round" stroke-miterlimit="10" x1="139.225" y1="226.316" x2="139.225" y2="227.498"/>
</g>
<g>
	<text transform="matrix(1 0 0 1 121.4031 252.3286)" fill="#FFFFFF" font-family="'Montserrat-Regular'" font-size="8px">Deurslot</text>
</g>
<g>
	<text transform="matrix(1 0 0 1 19.575 252.3288)" fill="#FFFFFF" font-family="'Montserrat-Regular'" font-size="8px">Schuifdeur</text>
</g>
<g>
	<text transform="matrix(1 0 0 1 73.7504 252.3291)" fill="#FFFFFF" font-family="'Montserrat-Regular'" font-size="8px">Liftdeur</text>
</g>
<text transform="matrix(1 0 0 1 23.1643 37.5056)"><tspan x="0" y="0" fill="#FFFFFF" font-family="'Montserrat-ExtraBold'" font-size="14px" letter-spacing="1">DEUREN</tspan><tspan x="0" y="18" fill="#FFFFFF" font-family="'Montserrat-Regular'" font-size="10px">Liftdeur</tspan></text>
<g>
	
		<rect x="139.225" y="19.842" fill="none" stroke="#FFFFFF" stroke-linecap="round" stroke-linejoin="round" stroke-miterlimit="10" width="13.497" height="24.915"/>
	
		<circle fill="none" stroke="#FFFFFF" stroke-linecap="round" stroke-linejoin="round" stroke-miterlimit="10" cx="149.304" cy="34.041" r="0.645"/>
	
		<line fill="none" stroke="#FFFFFF" stroke-linecap="round" stroke-linejoin="round" stroke-miterlimit="10" x1="149.304" y1="37.836" x2="142.643" y2="37.836"/>
	
		<rect x="142.643" y="23.176" fill="none" stroke="#FFFFFF" stroke-linecap="round" stroke-linejoin="round" stroke-miterlimit="10" width="6.662" height="7.07"/>
</g>
<g>
	
		<rect x="43.183" y="212.017" fill="none" stroke="#FFFFFF" stroke-linecap="round" stroke-linejoin="round" stroke-miterlimit="10" width="7.036" height="27.627"/>
	<polygon fill="none" stroke="#FFFFFF" stroke-linecap="round" stroke-linejoin="round" stroke-miterlimit="10" points="
		45.883,226.512 47.713,225.152 45.883,223.792 	"/>
	
		<rect x="32.547" y="212.017" fill="none" stroke="#FFFFFF" stroke-linecap="round" stroke-linejoin="round" stroke-miterlimit="10" width="7.036" height="27.627"/>
	<polygon fill="none" stroke="#FFFFFF" stroke-linecap="round" stroke-linejoin="round" stroke-miterlimit="10" points="
		36.883,223.792 35.052,225.152 36.883,226.512 	"/>
	<polyline fill="none" stroke="#FFFFFF" stroke-linecap="round" stroke-linejoin="round" stroke-miterlimit="10" points="
		52.018,212.017 53.736,212.017 53.736,239.644 52.018,239.644 	"/>
	<polyline fill="none" stroke="#FFFFFF" stroke-linecap="round" stroke-linejoin="round" stroke-miterlimit="10" points="
		56.436,239.644 56.436,209.317 45.883,209.317 	"/>
	<polyline fill="none" stroke="#FFFFFF" stroke-linecap="round" stroke-linejoin="round" stroke-miterlimit="10" points="
		30.747,212.017 29.029,212.017 29.029,239.644 30.747,239.644 	"/>
	<polyline fill="none" stroke="#FFFFFF" stroke-linecap="round" stroke-linejoin="round" stroke-miterlimit="10" points="
		26.329,239.644 26.329,209.317 36.883,209.317 	"/>
	<path fill="none" stroke="#FFFFFF" stroke-linecap="round" stroke-linejoin="round" stroke-miterlimit="10" d="M41.907,210.389
		h-1.049c-0.704,0-1.276-0.571-1.276-1.276v-0.868h3.6v0.868C43.183,209.818,42.611,210.389,41.907,210.389z"/>
</g>
<g>
	
		<polygon fill="none" stroke="#FFFFFF" stroke-width="2" stroke-linecap="round" stroke-linejoin="round" stroke-miterlimit="10" points="
		108.98,146.129 107.953,153.098 114.921,152.07 	"/>
	
		<line fill="none" stroke="#FFFFFF" stroke-width="2" stroke-linecap="round" stroke-linejoin="round" stroke-miterlimit="10" x1="111.951" y1="149.1" x2="114.921" y2="146.129"/>
	<path fill="none" stroke="#FFFFFF" stroke-width="2" stroke-linecap="round" stroke-linejoin="round" stroke-miterlimit="10" d="
		M101.717,169.585v-52.236c0-3.522,2.856-6.378,6.378-6.378h7.713c3.522,0,6.378,2.856,6.378,6.378v52.236"/>
	
		<line fill="none" stroke="#FFFFFF" stroke-width="2" stroke-linecap="round" stroke-linejoin="round" stroke-miterlimit="10" x1="56.397" y1="169.585" x2="56.397" y2="110.971"/>
	<path fill="none" stroke="#FFFFFF" stroke-width="2" stroke-linecap="round" stroke-linejoin="round" stroke-miterlimit="10" d="
		M88.73,100.392h6.077v46.264H88.73c-3.522,0-6.378-2.855-6.378-6.378V106.77C82.352,103.247,85.208,100.392,88.73,100.392z"/>
	<path fill="none" stroke="#FFFFFF" stroke-width="2" stroke-linecap="round" stroke-linejoin="round" stroke-miterlimit="10" d="
		M69.224,146.656h-6.077v-46.264h6.077c3.522,0,6.378,2.856,6.378,6.378v33.508C75.602,143.801,72.747,146.656,69.224,146.656z"/>
	
		<rect x="107.147" y="117.721" fill="none" stroke="#FFFFFF" stroke-width="2" stroke-linecap="round" stroke-linejoin="round" stroke-miterlimit="10" width="9.608" height="6.871"/>
	<path fill="none" stroke="#FFFFFF" stroke-width="2" stroke-linecap="round" stroke-linejoin="round" stroke-miterlimit="10" d="
		M113.319,129.092h-2.737c-1.897,0-3.435,1.538-3.435,3.435l0,0c0,1.897,1.538,3.435,3.435,3.435h2.737
		c1.897,0,3.435-1.538,3.435-3.435l0,0C116.755,130.63,115.217,129.092,113.319,129.092z"/>
</g>
</svg>
