<?xml version="1.0" encoding="utf-8"?>
<!-- Generator: Adobe Illustrator 24.0.0, SVG Export Plug-In . SVG Version: 6.00 Build 0)  -->
<svg version="1.1" id="Laag_1" xmlns="http://www.w3.org/2000/svg" xmlns:xlink="http://www.w3.org/1999/xlink" x="0px" y="0px"
	 viewBox="0 0 178.583 277.795" enable-background="new 0 0 178.583 277.795" xml:space="preserve">
<path fill="#D9328A" d="M164.409,277.795H14.173C6.346,277.795,0,271.45,0,263.622V14.173C0,6.346,6.346,0,14.173,0h150.236
	c7.828,0,14.173,6.346,14.173,14.173v249.449C178.583,271.45,172.237,277.795,164.409,277.795z"/>
<g>
	<text transform="matrix(1 0 0 1 116.0955 252.3286)" fill="#FFFFFF" font-family="'Montserrat-Regular'" font-size="8px">Fietssensor</text>
</g>
<g>
	<text transform="matrix(1 0 0 1 26.9866 252.3288)" fill="#FFFFFF" font-family="'Montserrat-Regular'" font-size="8px">Poortje</text>
</g>
<g>
	<text transform="matrix(1 0 0 1 72.5785 252.3291)" fill="#FFFFFF" font-family="'Montserrat-Regular'" font-size="8px">Flitspaal</text>
</g>
<text transform="matrix(1 0 0 1 23.1643 37.5056)"><tspan x="0" y="0" fill="#FFFFFF" font-family="'Montserrat-ExtraBold'" font-size="14px" letter-spacing="1">MOTION</tspan><tspan x="0" y="18" fill="#FFFFFF" font-family="'Montserrat-Regular'" font-size="10px">Waaklamp</tspan></text>
<g>
	<path fill="none" stroke="#FFFFFF" stroke-linecap="round" stroke-linejoin="round" stroke-miterlimit="10" d="M150.719,39.775
		c-0.278-3.269,2.614-4.316,2.614-4.316l0.371-1.995c0.106-0.947,0.96-1.628,1.907-1.521s1.628,0.96,1.521,1.907l-0.541,2.909
		c0,0-0.728,5.383-3.532,7.022c-2.299,1.343-5.251,0.568-6.594-1.731l-4.084-6.99c-1.195-2.045-0.505-4.672,1.54-5.867
		c2.045-1.195,4.672-0.505,5.867,1.54l0.918,1.571"/>
	<path fill="none" stroke="#FFFFFF" stroke-linecap="round" stroke-linejoin="round" stroke-miterlimit="10" d="M141.897,25.725
		c1.914-1.117,4.148-1.425,6.295-0.861c2.146,0.563,3.944,1.928,5.062,3.844"/>
	<path fill="none" stroke="#FFFFFF" stroke-linecap="round" stroke-linejoin="round" stroke-miterlimit="10" d="M139.875,22.258
		c2.841-1.659,6.158-2.11,9.336-1.277c3.183,0.836,5.85,2.861,7.509,5.702l0.915,1.567"/>
</g>
<g>
	
		<rect x="36.65" y="217.752" fill="none" stroke="#FFFFFF" stroke-linecap="round" stroke-linejoin="round" stroke-miterlimit="10" width="9.44" height="10.322"/>
	<polygon fill="none" stroke="#FFFFFF" stroke-linecap="round" stroke-linejoin="round" stroke-miterlimit="10" points="
		43.85,223.036 41.37,219.698 38.889,223.036 	"/>
	
		<line fill="none" stroke="#FFFFFF" stroke-linecap="round" stroke-linejoin="round" stroke-miterlimit="10" x1="41.37" y1="224.836" x2="41.37" y2="226.208"/>
	<path fill="none" stroke="#FFFFFF" stroke-linecap="round" stroke-linejoin="round" stroke-miterlimit="10" d="M48.79,217.752
		h2.183c1.169,0,2.116,0.947,2.116,2.116v6.09c0,1.169-0.947,2.116-2.116,2.116H48.79"/>
	<polyline fill="none" stroke="#FFFFFF" stroke-linecap="round" stroke-linejoin="round" stroke-miterlimit="10" points="
		33.95,228.074 29.65,228.074 29.65,217.752 33.95,217.752 	"/>
	
		<line fill="none" stroke="#FFFFFF" stroke-linecap="round" stroke-linejoin="round" stroke-miterlimit="10" x1="55.815" y1="237.586" x2="55.815" y2="216.852"/>
	
		<rect x="54.72" y="211.964" fill="none" stroke="#FFFFFF" stroke-linecap="round" stroke-linejoin="round" stroke-miterlimit="10" width="2.189" height="2.189"/>
	
		<line fill="none" stroke="#FFFFFF" stroke-linecap="round" stroke-linejoin="round" stroke-miterlimit="10" x1="26.95" y1="237.586" x2="26.95" y2="216.852"/>
	
		<rect x="25.856" y="211.964" fill="none" stroke="#FFFFFF" stroke-linecap="round" stroke-linejoin="round" stroke-miterlimit="10" width="2.189" height="2.189"/>
</g>
<g>
	
		<circle fill="none" stroke="#FFFFFF" stroke-linecap="round" stroke-linejoin="round" stroke-miterlimit="10" cx="89.284" cy="218.056" r="4.188"/>
	<path fill="none" stroke="#FFFFFF" stroke-linecap="round" stroke-linejoin="round" stroke-miterlimit="10" d="M89.284,216.117
		c-1.069,0-1.938,0.87-1.938,1.938"/>
	<polygon fill="none" stroke="#FFFFFF" stroke-linecap="round" stroke-linejoin="round" stroke-miterlimit="10" points="
		98.901,224.944 79.71,224.944 79.682,211.167 98.873,211.167 	"/>
	<path fill="none" stroke="#FFFFFF" stroke-linecap="round" stroke-linejoin="round" stroke-miterlimit="10" d="M77.91,218.059
		l-0.028-6.888c-0.001-0.478,0.188-0.936,0.526-1.275c0.338-0.338,0.796-0.529,1.274-0.529h19.191c0.993,0,1.798,0.804,1.8,1.796
		l0.028,6.889"/>
	
		<line fill="none" stroke="#FFFFFF" stroke-linecap="round" stroke-linejoin="round" stroke-miterlimit="10" x1="92.601" y1="227.644" x2="86.01" y2="227.644"/>
	
		<rect x="86.91" y="230.344" fill="none" stroke="#FFFFFF" stroke-linecap="round" stroke-linejoin="round" stroke-miterlimit="10" width="4.791" height="6.084"/>
</g>
<g>
	
		<line fill="none" stroke="#FFFFFF" stroke-linecap="round" stroke-linejoin="round" stroke-miterlimit="10" x1="128.875" y1="211.018" x2="128.875" y2="238.532"/>
	
		<line fill="none" stroke="#FFFFFF" stroke-linecap="round" stroke-linejoin="round" stroke-miterlimit="10" x1="145.708" y1="211.018" x2="145.708" y2="238.532"/>
	<path fill="none" stroke="#FFFFFF" stroke-linecap="round" stroke-linejoin="round" stroke-miterlimit="10" d="M139.181,212.461
		h-3.78c-2.113,0-3.827,1.713-3.827,3.827v13.232c0,1.409,1.142,2.551,2.551,2.551h6.331c1.409,0,2.551-1.142,2.551-2.551v-13.232
		C143.008,214.174,141.295,212.461,139.181,212.461z"/>
	<path fill="none" stroke="#FFFFFF" stroke-linecap="round" stroke-linejoin="round" stroke-miterlimit="10" d="M145.708,211.018
		c-2.077-2.3-5.073-3.754-8.417-3.754c-3.343,0-6.339,1.454-8.417,3.754"/>
	<g>
		
			<circle fill="none" stroke="#FFFFFF" stroke-linecap="round" stroke-linejoin="round" stroke-miterlimit="10" cx="134.974" cy="225.688" r="1.474"/>
		
			<circle fill="none" stroke="#FFFFFF" stroke-linecap="round" stroke-linejoin="round" stroke-miterlimit="10" cx="139.903" cy="225.688" r="1.474"/>
		<path fill="none" stroke="#FFFFFF" stroke-linecap="round" stroke-linejoin="round" stroke-miterlimit="10" d="M134.974,225.688
			l1.051-3.204c0.047-0.148,0.184-0.249,0.34-0.249h0.507"/>
		
			<line fill="none" stroke="#FFFFFF" stroke-linecap="round" stroke-linejoin="round" stroke-miterlimit="10" x1="138.679" y1="222.359" x2="139.677" y2="222.359"/>
		
			<line fill="none" stroke="#FFFFFF" stroke-linecap="round" stroke-linejoin="round" stroke-miterlimit="10" x1="139.903" y1="225.688" x2="137.706" y2="225.688"/>
		<polyline fill="none" stroke="#FFFFFF" stroke-linecap="round" stroke-linejoin="round" stroke-miterlimit="10" points="
			135.695,223.491 138.838,223.491 139.261,224.363 		"/>
	</g>
	
		<line fill="none" stroke="#FFFFFF" stroke-linecap="round" stroke-linejoin="round" stroke-miterlimit="10" x1="131.575" y1="219.208" x2="143.008" y2="219.208"/>
	
		<circle fill="none" stroke="#FFFFFF" stroke-linecap="round" stroke-linejoin="round" stroke-miterlimit="10" cx="134.778" cy="215.91" r="0.192"/>
	
		<circle fill="none" stroke="#FFFFFF" stroke-linecap="round" stroke-linejoin="round" stroke-miterlimit="10" cx="137.478" cy="215.91" r="0.192"/>
	
		<circle fill="none" stroke="#FFFFFF" stroke-linecap="round" stroke-linejoin="round" stroke-miterlimit="10" cx="140.178" cy="215.91" r="0.192"/>
</g>
<g>
	<path fill="none" stroke="#FFFFFF" stroke-width="2" stroke-linecap="round" stroke-linejoin="round" stroke-miterlimit="10" d="
		M100.019,160.5H78.564c-3.522,0-6.378-2.855-6.378-6.378v-30.016c0-3.522,2.856-6.378,6.378-6.378h21.455
		c3.522,0,6.378,2.856,6.378,6.378v30.016C106.397,157.645,103.541,160.5,100.019,160.5z"/>
	
		<line fill="none" stroke="#FFFFFF" stroke-width="2" stroke-linecap="round" stroke-linejoin="round" stroke-miterlimit="10" x1="108.647" y1="110.978" x2="69.936" y2="110.978"/>
	
		<line fill="none" stroke="#FFFFFF" stroke-width="2" stroke-linecap="round" stroke-linejoin="round" stroke-miterlimit="10" x1="95.147" y1="153.75" x2="83.436" y2="153.75"/>
	
		<line fill="none" stroke="#FFFFFF" stroke-width="2" stroke-linecap="round" stroke-linejoin="round" stroke-miterlimit="10" x1="95.147" y1="167.25" x2="83.436" y2="167.25"/>
	<path fill="none" stroke="#FFFFFF" stroke-width="2" stroke-linecap="round" stroke-linejoin="round" stroke-miterlimit="10" d="
		M93.779,143.377V147h-8.976v-3.618c0-1.57-0.521-3.14-1.629-4.253c-2.014-2.025-3.032-5.031-2.219-8.262
		c0.759-3.013,3.227-5.436,6.252-6.145c5.662-1.326,10.699,2.935,10.699,8.372c0,2.323-0.928,4.418-2.427,5.961
		C94.363,140.206,93.779,141.772,93.779,143.377z"/>
	<path fill="none" stroke="#FFFFFF" stroke-width="2" stroke-linecap="round" stroke-linejoin="round" stroke-miterlimit="10" d="
		M91.844,129.865c-0.584-0.464-1.827-1.18-3.611-0.762c-1.392,0.327-2.564,1.479-2.914,2.863c-0.376,1.492,0.005,2.944,1.044,3.988"
		/>
	<path fill="none" stroke="#FFFFFF" stroke-width="2" stroke-linecap="round" stroke-linejoin="round" stroke-miterlimit="10" d="
		M102.883,104.228c-2.809-4.567-7.837-7.622-13.591-7.622s-10.783,3.055-13.591,7.622H102.883z"/>
</g>
</svg>
