<?xml version="1.0" encoding="utf-8"?>
<!-- Generator: Adobe Illustrator 24.0.0, SVG Export Plug-In . SVG Version: 6.00 Build 0)  -->
<svg version="1.1" id="Laag_1" xmlns="http://www.w3.org/2000/svg" xmlns:xlink="http://www.w3.org/1999/xlink" x="0px" y="0px"
	 viewBox="0 0 178.583 277.795" enable-background="new 0 0 178.583 277.795" xml:space="preserve">
<path fill="#F07D17" d="M164.409,277.795H14.173C6.346,277.795,0,271.45,0,263.622V14.173C0,6.346,6.346,0,14.173,0h150.236
	c7.828,0,14.173,6.346,14.173,14.173v249.449C178.583,271.45,172.237,277.795,164.409,277.795z"/>
<g>
	<text transform="matrix(1 0 0 1 120.9675 252.3286)" fill="#FFFFFF" font-family="'Montserrat-Regular'" font-size="8px">Trompet</text>
</g>
<g>
	<text transform="matrix(1 0 0 1 29.3586 252.3288)" fill="#FFFFFF" font-family="'Montserrat-Regular'" font-size="8px">Gitaar</text>
</g>
<g>
	<text transform="matrix(1 0 0 1 67.5189 252.3291)" fill="#FFFFFF" font-family="'Montserrat-Regular'" font-size="8px">Accordeon</text>
</g>
<g>
	
		<circle fill="none" stroke="#FFFFFF" stroke-linecap="round" stroke-linejoin="round" stroke-miterlimit="10" cx="156.427" cy="40.364" r="1.74"/>
	
		<circle fill="none" stroke="#FFFFFF" stroke-linecap="round" stroke-linejoin="round" stroke-miterlimit="10" cx="149.275" cy="36.835" r="1.836"/>
	
		<circle fill="none" stroke="#FFFFFF" stroke-linecap="round" stroke-linejoin="round" stroke-miterlimit="10" cx="143.198" cy="36.835" r="1.836"/>
	<polyline fill="none" stroke="#FFFFFF" stroke-linecap="round" stroke-linejoin="round" stroke-miterlimit="10" points="
		158.043,39.72 155.262,32.744 157.893,33.215 	"/>
	
		<circle fill="none" stroke="#FFFFFF" stroke-linecap="round" stroke-linejoin="round" stroke-miterlimit="10" cx="140.569" cy="26.759" r="1.681"/>
	<polyline fill="none" stroke="#FFFFFF" stroke-linecap="round" stroke-linejoin="round" stroke-miterlimit="10" points="
		142.131,27.38 144.814,20.64 146.347,22.717 	"/>
	<polyline fill="none" stroke="#FFFFFF" stroke-linecap="round" stroke-linejoin="round" stroke-miterlimit="10" points="
		145.033,36.835 145.033,28.182 151.11,28.182 151.11,36.835 	"/>
</g>
<text transform="matrix(1 0 0 1 23.1642 37.5056)"><tspan x="0" y="0" fill="#FFFFFF" font-family="'Montserrat-ExtraBold'" font-size="14px" letter-spacing="1">INSTRUMENT</tspan><tspan x="0" y="18" fill="#FFFFFF" font-family="'Montserrat-Regular'" font-size="10px">Piano</tspan></text>
<g>
	
		<circle fill="none" stroke="#FFFFFF" stroke-linecap="round" stroke-linejoin="round" stroke-miterlimit="10" cx="39.654" cy="224.898" r="2.328"/>
	<path fill="none" stroke="#FFFFFF" stroke-linecap="round" stroke-linejoin="round" stroke-miterlimit="10" d="M42.945,228.997
		l0.125-0.125c0.472-0.472,1.045-0.853,1.692-1.018c0.643-0.163,1.223-0.475,1.693-0.945c1.81-1.81,1.304-5.25-1.129-7.683
		c-2.434-2.433-5.873-2.939-7.683-1.129c-0.47,0.47-0.781,1.049-0.945,1.693c-0.165,0.647-0.545,1.22-1.018,1.692l-0.125,0.125
		c-0.843,0.843-2.009,1.231-3.2,1.185c-1.726-0.066-3.336,0.461-4.506,1.631c-2.641,2.641-2.033,7.531,1.358,10.922
		c3.391,3.391,8.281,3.999,10.922,1.358c1.169-1.169,1.697-2.78,1.631-4.506C41.714,231.007,42.102,229.84,42.945,228.997z"/>
	<path fill="none" stroke="#FFFFFF" stroke-linecap="round" stroke-linejoin="round" stroke-miterlimit="10" d="M29.44,226.014
		c-1.73,1.73-1.108,5.275,1.358,7.741"/>
	
		<line fill="none" stroke="#FFFFFF" stroke-linecap="round" stroke-linejoin="round" stroke-miterlimit="10" x1="31.889" y1="228.061" x2="36.491" y2="232.663"/>
	<polyline fill="none" stroke="#FFFFFF" stroke-linecap="round" stroke-linejoin="round" stroke-miterlimit="10" points="
		35.537,231.709 34.264,232.982 31.571,230.288 32.843,229.016 	"/>
	<polygon fill="none" stroke="#FFFFFF" stroke-linecap="round" stroke-linejoin="round" stroke-miterlimit="10" points="
		53.924,213.784 50.768,210.628 56.403,206.081 58.471,208.149 	"/>
	
		<line fill="none" stroke="#FFFFFF" stroke-linecap="round" stroke-linejoin="round" stroke-miterlimit="10" x1="57.802" y1="211.829" x2="57.147" y2="212.659"/>
	
		<line fill="none" stroke="#FFFFFF" stroke-linecap="round" stroke-linejoin="round" stroke-miterlimit="10" x1="59.744" y1="209.422" x2="59.081" y2="210.243"/>
	
		<line fill="none" stroke="#FFFFFF" stroke-linecap="round" stroke-linejoin="round" stroke-miterlimit="10" x1="55.859" y1="214.236" x2="55.197" y2="215.057"/>
	
		<line fill="none" stroke="#FFFFFF" stroke-linecap="round" stroke-linejoin="round" stroke-miterlimit="10" x1="52.723" y1="206.751" x2="51.894" y2="207.405"/>
	
		<line fill="none" stroke="#FFFFFF" stroke-linecap="round" stroke-linejoin="round" stroke-miterlimit="10" x1="55.13" y1="204.808" x2="54.309" y2="205.471"/>
	
		<line fill="none" stroke="#FFFFFF" stroke-linecap="round" stroke-linejoin="round" stroke-miterlimit="10" x1="50.317" y1="208.693" x2="49.495" y2="209.356"/>
	
		<line fill="none" stroke="#FFFFFF" stroke-linecap="round" stroke-linejoin="round" stroke-miterlimit="10" x1="34.19" y1="230.362" x2="54.892" y2="209.661"/>
	
		<line fill="none" stroke="#FFFFFF" stroke-linecap="round" stroke-linejoin="round" stroke-miterlimit="10" x1="35.463" y1="231.635" x2="53.619" y2="213.479"/>
	
		<line fill="none" stroke="#FFFFFF" stroke-linecap="round" stroke-linejoin="round" stroke-miterlimit="10" x1="32.917" y1="229.089" x2="51.073" y2="210.934"/>
</g>
<g>
	
		<line fill="none" stroke="#FFFFFF" stroke-linecap="round" stroke-linejoin="round" stroke-miterlimit="10" x1="82.274" y1="209.918" x2="90.113" y2="231.458"/>
	<path fill="none" stroke="#FFFFFF" stroke-linecap="round" stroke-linejoin="round" stroke-miterlimit="10" d="M95.808,233.85
		l-3.919-1.426l7.84-21.539l3.919,1.426c1.324,0.482,2.007,1.946,1.525,3.27l-6.094,16.744
		C98.596,233.649,97.132,234.332,95.808,233.85z"/>
	
		<line fill="none" stroke="#FFFFFF" stroke-linecap="round" stroke-linejoin="round" stroke-miterlimit="10" x1="90.113" y1="231.458" x2="97.953" y2="209.918"/>
	
		<line fill="none" stroke="#FFFFFF" stroke-linecap="round" stroke-linejoin="round" stroke-miterlimit="10" x1="90.113" y1="231.458" x2="90.113" y2="208.536"/>
	
		<line fill="none" stroke="#FFFFFF" stroke-linecap="round" stroke-linejoin="round" stroke-miterlimit="10" x1="90.113" y1="231.458" x2="94.093" y2="208.884"/>
	
		<line fill="none" stroke="#FFFFFF" stroke-linecap="round" stroke-linejoin="round" stroke-miterlimit="10" x1="90.113" y1="231.458" x2="86.133" y2="208.884"/>
	<polygon fill="none" stroke="#FFFFFF" stroke-linecap="round" stroke-linejoin="round" stroke-miterlimit="10" points="
		78.464,214.423 75.927,215.347 75.003,212.81 80.474,210.818 88.313,232.358 82.843,234.349 81.919,231.811 84.456,230.888 	"/>
	
		<circle fill="none" stroke="#FFFFFF" stroke-linecap="round" stroke-linejoin="round" stroke-miterlimit="10" cx="95.043" cy="230.953" r="0.661"/>
	
		<circle fill="none" stroke="#FFFFFF" stroke-linecap="round" stroke-linejoin="round" stroke-miterlimit="10" cx="97.35" cy="229.877" r="0.661"/>
	
		<circle fill="none" stroke="#FFFFFF" stroke-linecap="round" stroke-linejoin="round" stroke-miterlimit="10" cx="96.274" cy="227.57" r="0.661"/>
	
		<circle fill="none" stroke="#FFFFFF" stroke-linecap="round" stroke-linejoin="round" stroke-miterlimit="10" cx="98.581" cy="226.494" r="0.661"/>
	
		<circle fill="none" stroke="#FFFFFF" stroke-linecap="round" stroke-linejoin="round" stroke-miterlimit="10" cx="97.505" cy="224.187" r="0.661"/>
	
		<circle fill="none" stroke="#FFFFFF" stroke-linecap="round" stroke-linejoin="round" stroke-miterlimit="10" cx="99.813" cy="223.111" r="0.661"/>
	
		<circle fill="none" stroke="#FFFFFF" stroke-linecap="round" stroke-linejoin="round" stroke-miterlimit="10" cx="98.737" cy="220.804" r="0.661"/>
	
		<circle fill="none" stroke="#FFFFFF" stroke-linecap="round" stroke-linejoin="round" stroke-miterlimit="10" cx="101.044" cy="219.728" r="0.661"/>
	
		<circle fill="none" stroke="#FFFFFF" stroke-linecap="round" stroke-linejoin="round" stroke-miterlimit="10" cx="99.968" cy="217.421" r="0.661"/>
	
		<circle fill="none" stroke="#FFFFFF" stroke-linecap="round" stroke-linejoin="round" stroke-miterlimit="10" cx="102.275" cy="216.345" r="0.661"/>
	
		<circle fill="none" stroke="#FFFFFF" stroke-linecap="round" stroke-linejoin="round" stroke-miterlimit="10" cx="101.199" cy="214.038" r="0.661"/>
	
		<line fill="none" stroke="#FFFFFF" stroke-linecap="round" stroke-linejoin="round" stroke-miterlimit="10" x1="75.927" y1="215.347" x2="75.003" y2="212.81"/>
	<polyline fill="none" stroke="#FFFFFF" stroke-linecap="round" stroke-linejoin="round" stroke-miterlimit="10" points="
		82.381,233.08 80.172,233.884 73.256,214.882 75.465,214.078 	"/>
	
		<line fill="none" stroke="#FFFFFF" stroke-linecap="round" stroke-linejoin="round" stroke-miterlimit="10" x1="83.746" y1="229.007" x2="79.023" y2="230.726"/>
	
		<line fill="none" stroke="#FFFFFF" stroke-linecap="round" stroke-linejoin="round" stroke-miterlimit="10" x1="82.823" y1="226.47" x2="78.099" y2="228.189"/>
	
		<line fill="none" stroke="#FFFFFF" stroke-linecap="round" stroke-linejoin="round" stroke-miterlimit="10" x1="81.899" y1="223.932" x2="77.176" y2="225.652"/>
	
		<line fill="none" stroke="#FFFFFF" stroke-linecap="round" stroke-linejoin="round" stroke-miterlimit="10" x1="80.976" y1="221.395" x2="76.252" y2="223.114"/>
	
		<line fill="none" stroke="#FFFFFF" stroke-linecap="round" stroke-linejoin="round" stroke-miterlimit="10" x1="80.053" y1="218.858" x2="75.329" y2="220.577"/>
	
		<line fill="none" stroke="#FFFFFF" stroke-linecap="round" stroke-linejoin="round" stroke-miterlimit="10" x1="79.129" y1="216.321" x2="74.405" y2="218.04"/>
</g>
<g>
	
		<line fill="none" stroke="#FFFFFF" stroke-linecap="round" stroke-linejoin="round" stroke-miterlimit="10" x1="138.767" y1="220.428" x2="138.767" y2="218.369"/>
	
		<line fill="none" stroke="#FFFFFF" stroke-linecap="round" stroke-linejoin="round" stroke-miterlimit="10" x1="136.067" y1="220.428" x2="136.067" y2="218.369"/>
	
		<line fill="none" stroke="#FFFFFF" stroke-linecap="round" stroke-linejoin="round" stroke-miterlimit="10" x1="133.367" y1="220.428" x2="133.367" y2="218.369"/>
	
		<line fill="none" stroke="#FFFFFF" stroke-linecap="round" stroke-linejoin="round" stroke-miterlimit="10" x1="133.946" y1="218.369" x2="132.787" y2="218.369"/>
	
		<line fill="none" stroke="#FFFFFF" stroke-linecap="round" stroke-linejoin="round" stroke-miterlimit="10" x1="136.646" y1="218.369" x2="135.487" y2="218.369"/>
	
		<line fill="none" stroke="#FFFFFF" stroke-linecap="round" stroke-linejoin="round" stroke-miterlimit="10" x1="139.346" y1="218.369" x2="138.187" y2="218.369"/>
	
		<rect x="120.698" y="221.328" fill="none" stroke="#FFFFFF" stroke-linecap="round" stroke-linejoin="round" stroke-miterlimit="10" width="1.8" height="3.6"/>
	<polyline fill="none" stroke="#FFFFFF" stroke-linecap="round" stroke-linejoin="round" stroke-miterlimit="10" points="
		132.017,222.228 132.017,220.428 134.717,220.428 134.717,222.217 	"/>
	<polyline fill="none" stroke="#FFFFFF" stroke-linecap="round" stroke-linejoin="round" stroke-miterlimit="10" points="
		134.717,231.562 132.017,231.562 132.017,224.028 	"/>
	<polyline fill="none" stroke="#FFFFFF" stroke-linecap="round" stroke-linejoin="round" stroke-miterlimit="10" points="
		137.417,231.562 134.717,231.562 134.717,224.028 	"/>
	
		<line fill="none" stroke="#FFFFFF" stroke-linecap="round" stroke-linejoin="round" stroke-miterlimit="10" x1="134.717" y1="220.428" x2="137.417" y2="220.428"/>
	<polyline fill="none" stroke="#FFFFFF" stroke-linecap="round" stroke-linejoin="round" stroke-miterlimit="10" points="
		140.117,224.028 140.117,231.562 137.417,231.562 137.417,224.028 	"/>
	<polyline fill="none" stroke="#FFFFFF" stroke-linecap="round" stroke-linejoin="round" stroke-miterlimit="10" points="
		137.417,222.228 137.417,220.428 140.117,220.428 140.117,222.228 	"/>
	<path fill="none" stroke="#FFFFFF" stroke-linecap="round" stroke-linejoin="round" stroke-miterlimit="10" d="M122.498,224.028
		h24.986c2.706,0,5.302,1.075,7.216,2.989l2.378,2.378v-12.535l-2.378,2.378c-1.914,1.914-4.509,2.989-7.216,2.989h-24.986"/>
	<path fill="none" stroke="#FFFFFF" stroke-linecap="round" stroke-linejoin="round" stroke-miterlimit="10" d="M143.261,228.84
		h-14.388c-1.324,0-2.398-1.074-2.398-2.398v-0.016c0-1.324,1.074-2.398,2.398-2.398h14.388c1.324,0,2.398,1.074,2.398,2.398v0.016
		C145.659,227.766,144.585,228.84,143.261,228.84z"/>
</g>
<g>
	
		<polyline fill="none" stroke="#FFFFFF" stroke-width="2" stroke-linecap="round" stroke-linejoin="round" stroke-miterlimit="10" points="
		87.041,141.394 87.041,152.644 91.541,152.644 91.541,141.394 	"/>
	
		<polyline fill="none" stroke="#FFFFFF" stroke-width="2" stroke-linecap="round" stroke-linejoin="round" stroke-miterlimit="10" points="
		114.041,141.394 114.041,152.644 118.541,152.644 118.541,141.394 	"/>
	
		<polyline fill="none" stroke="#FFFFFF" stroke-width="2" stroke-linecap="round" stroke-linejoin="round" stroke-miterlimit="10" points="
		60.041,140.683 60.041,152.644 64.541,152.644 64.541,140.683 	"/>
	
		<polyline fill="none" stroke="#FFFFFF" stroke-width="2" stroke-linecap="round" stroke-linejoin="round" stroke-miterlimit="10" points="
		60.041,129.433 60.041,118.183 53.291,118.183 53.291,136.183 125.291,136.183 125.291,118.183 118.541,118.183 118.541,129.433 	
		"/>
	
		<line fill="none" stroke="#FFFFFF" stroke-width="2" stroke-linecap="round" stroke-linejoin="round" stroke-miterlimit="10" x1="68.745" y1="129.433" x2="68.745" y2="122.683"/>
	
		<line fill="none" stroke="#FFFFFF" stroke-width="2" stroke-linecap="round" stroke-linejoin="round" stroke-miterlimit="10" x1="75.495" y1="129.433" x2="75.495" y2="122.683"/>
	
		<line fill="none" stroke="#FFFFFF" stroke-width="2" stroke-linecap="round" stroke-linejoin="round" stroke-miterlimit="10" x1="82.245" y1="129.433" x2="82.245" y2="122.683"/>
	
		<line fill="none" stroke="#FFFFFF" stroke-width="2" stroke-linecap="round" stroke-linejoin="round" stroke-miterlimit="10" x1="88.995" y1="129.433" x2="88.995" y2="122.683"/>
	
		<line fill="none" stroke="#FFFFFF" stroke-width="2" stroke-linecap="round" stroke-linejoin="round" stroke-miterlimit="10" x1="95.745" y1="129.433" x2="95.745" y2="122.683"/>
	
		<line fill="none" stroke="#FFFFFF" stroke-width="2" stroke-linecap="round" stroke-linejoin="round" stroke-miterlimit="10" x1="102.495" y1="129.433" x2="102.495" y2="122.683"/>
	
		<line fill="none" stroke="#FFFFFF" stroke-width="2" stroke-linecap="round" stroke-linejoin="round" stroke-miterlimit="10" x1="109.245" y1="129.433" x2="109.245" y2="122.683"/>
	
		<line fill="none" stroke="#FFFFFF" stroke-width="2" stroke-linecap="round" stroke-linejoin="round" stroke-miterlimit="10" x1="60.041" y1="120.433" x2="60.041" y2="104.683"/>
	
		<line fill="none" stroke="#FFFFFF" stroke-width="2" stroke-linecap="round" stroke-linejoin="round" stroke-miterlimit="10" x1="60.041" y1="129.433" x2="118.541" y2="129.433"/>
	
		<line fill="none" stroke="#FFFFFF" stroke-width="2" stroke-linecap="round" stroke-linejoin="round" stroke-miterlimit="10" x1="60.041" y1="122.683" x2="118.541" y2="122.683"/>
	
		<line fill="none" stroke="#FFFFFF" stroke-width="2" stroke-linecap="round" stroke-linejoin="round" stroke-miterlimit="10" x1="118.541" y1="120.433" x2="118.541" y2="104.683"/>
	
		<line fill="none" stroke="#FFFFFF" stroke-width="2" stroke-linecap="round" stroke-linejoin="round" stroke-miterlimit="10" x1="57.198" y1="111.433" x2="120.791" y2="111.433"/>
	
		<line fill="none" stroke="#FFFFFF" stroke-width="2" stroke-linecap="round" stroke-linejoin="round" stroke-miterlimit="10" x1="57.198" y1="104.683" x2="120.791" y2="104.683"/>
</g>
</svg>
