<?xml version="1.0" encoding="utf-8"?>
<!-- Generator: Adobe Illustrator 24.0.0, SVG Export Plug-In . SVG Version: 6.00 Build 0)  -->
<svg version="1.1" id="Laag_1" xmlns="http://www.w3.org/2000/svg" xmlns:xlink="http://www.w3.org/1999/xlink" x="0px" y="0px"
	 viewBox="0 0 178.583 277.795" enable-background="new 0 0 178.583 277.795" xml:space="preserve">
<path fill="#A3A0A0" d="M164.409,277.795H14.173C6.346,277.795,0,271.45,0,263.622V14.173C0,6.346,6.346,0,14.173,0h150.236
	c7.828,0,14.173,6.346,14.173,14.173v249.449C178.583,271.45,172.237,277.795,164.409,277.795z"/>
<g>
	<text transform="matrix(1 0 0 1 110.8796 252.3286)" fill="#FFFFFF" font-family="'Montserrat-Regular'" font-size="8px">Parkeermeter</text>
</g>
<g>
	<text transform="matrix(1 0 0 1 23.2429 252.3288)" fill="#FFFFFF" font-family="'Montserrat-Regular'" font-size="8px">Laadpaal</text>
</g>
<g>
	<text transform="matrix(1 0 0 1 71.7904 252.3291)" fill="#FFFFFF" font-family="'Montserrat-Regular'" font-size="8px">QR-code</text>
</g>
<text transform="matrix(1 0 0 1 23.1642 37.5056)"><tspan x="0" y="0" fill="#FFFFFF" font-family="'Montserrat-ExtraBold'" font-size="14px" letter-spacing="1">SCANNEN</tspan><tspan x="0" y="18" fill="#FFFFFF" font-family="'Montserrat-Regular'" font-size="10px">Afvalbak</tspan></text>
<g>
	
		<line fill="none" stroke="#FFFFFF" stroke-width="2" stroke-linecap="round" stroke-linejoin="round" stroke-miterlimit="10" x1="94.612" y1="140.895" x2="88.47" y2="140.895"/>
	
		<rect x="74.97" y="115.753" fill="none" stroke="#FFFFFF" stroke-width="2" stroke-linecap="round" stroke-linejoin="round" stroke-miterlimit="10" width="33.142" height="20.642"/>
	
		<rect x="83.97" y="147.645" fill="none" stroke="#FFFFFF" stroke-width="2" stroke-linecap="round" stroke-linejoin="round" stroke-miterlimit="10" width="15.142" height="9.392"/>
	
		<rect x="65.97" y="115.753" fill="none" stroke="#FFFFFF" stroke-width="2" stroke-linecap="round" stroke-linejoin="round" stroke-miterlimit="10" width="4.5" height="4.696"/>
	
		<rect x="65.97" y="124.949" fill="none" stroke="#FFFFFF" stroke-width="2" stroke-linecap="round" stroke-linejoin="round" stroke-miterlimit="10" width="4.5" height="9.196"/>
	<path fill="none" stroke="#FFFFFF" stroke-width="2" stroke-linecap="round" stroke-linejoin="round" stroke-miterlimit="10" d="
		M61.47,112.192v53.453h55.642v-53.453c0-1.761-1.428-3.189-3.189-3.189H64.659C62.898,109.003,61.47,110.431,61.47,112.192z"/>
	<path fill="none" stroke="#FFFFFF" stroke-width="2" stroke-linecap="round" stroke-linejoin="round" stroke-miterlimit="10" d="
		M89.291,92.15c-7.362,0-14.019,3.006-18.821,7.853v2.25h37.642v-2.25C103.31,95.156,96.653,92.15,89.291,92.15z"/>
	
		<circle fill="none" stroke="#FFFFFF" stroke-width="2" stroke-linecap="round" stroke-linejoin="round" stroke-miterlimit="10" cx="89.291" cy="97.202" r="1.719"/>
</g>
<g>
	
		<line fill="none" stroke="#FFFFFF" stroke-linecap="round" stroke-linejoin="round" stroke-miterlimit="10" x1="33.622" y1="206.054" x2="45.605" y2="206.054"/>
	
		<circle fill="none" stroke="#FFFFFF" stroke-linecap="round" stroke-linejoin="round" stroke-miterlimit="10" cx="39.613" cy="216.367" r="0.591"/>
	<path fill="none" stroke="#FFFFFF" stroke-linecap="round" stroke-linejoin="round" stroke-miterlimit="10" d="M38.713,214.154
		c-0.873,0.357-1.492,1.213-1.492,2.213c0,1,0.618,1.856,1.492,2.212"/>
	<path fill="none" stroke="#FFFFFF" stroke-linecap="round" stroke-linejoin="round" stroke-miterlimit="10" d="M40.513,218.579
		c0.873-0.357,1.492-1.212,1.492-2.212c0-1-0.618-1.856-1.492-2.213"/>
	<path fill="none" stroke="#FFFFFF" stroke-linecap="round" stroke-linejoin="round" stroke-miterlimit="10" d="M41.254,221.279
		h-3.281c-1.409,0-2.551-1.142-2.551-2.551v-4.722c0-1.409,1.142-2.551,2.551-2.551h3.281c1.409,0,2.551,1.142,2.551,2.551v4.722
		C43.805,220.137,42.663,221.279,41.254,221.279z"/>
	
		<circle fill="none" stroke="#FFFFFF" stroke-linecap="round" stroke-linejoin="round" stroke-miterlimit="10" cx="39.613" cy="225.317" r="1.338"/>
	<path fill="none" stroke="#FFFFFF" stroke-linecap="round" stroke-linejoin="round" stroke-miterlimit="10" d="M43.054,229.354
		h-6.881c-1.409,0-2.551-1.142-2.551-2.551v-15.498c0-1.409,1.142-2.551,2.551-2.551h6.881c1.409,0,2.551,1.142,2.551,2.551v15.498
		C45.605,228.212,44.463,229.354,43.054,229.354z"/>
	<path fill="none" stroke="#FFFFFF" stroke-linecap="round" stroke-linejoin="round" stroke-miterlimit="10" d="M47.172,217.788
		h-1.568v-2.843h1.568c0.704,0,1.276,0.571,1.276,1.276v0.292C48.448,217.217,47.877,217.788,47.172,217.788z"/>
	<path fill="none" stroke="#FFFFFF" stroke-linecap="round" stroke-linejoin="round" stroke-miterlimit="10" d="M48.448,216.513
		h0.072c1.409,0,2.551,1.142,2.551,2.551v16.341c0,2.395,1.942,4.337,4.337,4.337h0.005"/>
	
		<line fill="none" stroke="#FFFFFF" stroke-linecap="round" stroke-linejoin="round" stroke-miterlimit="10" x1="33.622" y1="226.803" x2="33.622" y2="239.742"/>
	
		<line fill="none" stroke="#FFFFFF" stroke-linecap="round" stroke-linejoin="round" stroke-miterlimit="10" x1="45.605" y1="226.803" x2="45.605" y2="239.742"/>
</g>
<g>
	<path fill="none" stroke="#FFFFFF" stroke-linecap="round" stroke-linejoin="round" stroke-miterlimit="10" d="M89.291,237.825
		L89.291,237.825c-3.673,0-6.651-2.978-6.651-6.651v-16.552c0-3.673,2.978-6.651,6.651-6.651h0c3.673,0,6.651,2.978,6.651,6.651
		v16.552C95.942,234.847,92.965,237.825,89.291,237.825z"/>
	
		<line fill="none" stroke="#FFFFFF" stroke-linecap="round" stroke-linejoin="round" stroke-miterlimit="10" x1="98.642" y1="207.971" x2="98.642" y2="237.825"/>
	
		<line fill="none" stroke="#FFFFFF" stroke-linecap="round" stroke-linejoin="round" stroke-miterlimit="10" x1="79.94" y1="207.971" x2="79.94" y2="237.825"/>
	
		<rect x="91.222" y="224.755" fill="none" stroke="#FFFFFF" stroke-linecap="round" stroke-linejoin="round" stroke-miterlimit="10" width="1.539" height="1.539"/>
	
		<rect x="85.822" y="224.755" fill="none" stroke="#FFFFFF" stroke-linecap="round" stroke-linejoin="round" stroke-miterlimit="10" width="1.539" height="1.539"/>
	
		<rect x="91.222" y="230.155" fill="none" stroke="#FFFFFF" stroke-linecap="round" stroke-linejoin="round" stroke-miterlimit="10" width="1.539" height="1.539"/>
	
		<rect x="86.078" y="230.411" fill="none" stroke="#FFFFFF" stroke-linecap="round" stroke-linejoin="round" stroke-miterlimit="10" width="1.026" height="1.026"/>
	
		<rect x="86.591" y="228.611" fill="none" stroke="#FFFFFF" stroke-linecap="round" stroke-linejoin="round" stroke-miterlimit="10" width="0.513" height="0.513"/>
	
		<rect x="87.491" y="227.711" fill="none" stroke="#FFFFFF" stroke-linecap="round" stroke-linejoin="round" stroke-miterlimit="10" width="0.513" height="0.513"/>
	
		<rect x="89.291" y="229.511" fill="none" stroke="#FFFFFF" stroke-linecap="round" stroke-linejoin="round" stroke-miterlimit="10" width="0.513" height="0.513"/>
	
		<rect x="89.291" y="225.911" fill="none" stroke="#FFFFFF" stroke-linecap="round" stroke-linejoin="round" stroke-miterlimit="10" width="0.513" height="0.513"/>
	
		<rect x="91.091" y="227.711" fill="none" stroke="#FFFFFF" stroke-linecap="round" stroke-linejoin="round" stroke-miterlimit="10" width="0.513" height="0.513"/>
	
		<rect x="91.991" y="229.511" fill="none" stroke="#FFFFFF" stroke-linecap="round" stroke-linejoin="round" stroke-miterlimit="10" width="0.513" height="0.513"/>
	
		<line fill="none" stroke="#FFFFFF" stroke-linecap="round" stroke-linejoin="round" stroke-miterlimit="10" x1="87.361" y1="234.234" x2="91.222" y2="234.234"/>
	
		<line fill="none" stroke="#FFFFFF" stroke-linecap="round" stroke-linejoin="round" stroke-miterlimit="10" x1="85.822" y1="221.634" x2="92.761" y2="221.634"/>
	
		<circle fill="none" stroke="#FFFFFF" stroke-linecap="round" stroke-linejoin="round" stroke-miterlimit="10" cx="89.291" cy="214.622" r="3.991"/>
</g>
<g>
	<path fill="none" stroke="#FFFFFF" stroke-linecap="round" stroke-linejoin="round" stroke-miterlimit="10" d="M136.294,203.502
		h0.739c0.627,0,1.135-0.508,1.135-1.135c0-0.627-0.508-1.135-1.135-1.135h-0.739v3.747"/>
	
		<rect x="133.594" y="199.432" fill="none" stroke="#FFFFFF" stroke-linecap="round" stroke-linejoin="round" stroke-miterlimit="10" width="7.274" height="6.906"/>
	
		<line fill="none" stroke="#FFFFFF" stroke-linecap="round" stroke-linejoin="round" stroke-miterlimit="10" x1="137.231" y1="206.338" x2="137.231" y2="209.334"/>
	
		<line fill="none" stroke="#FFFFFF" stroke-linecap="round" stroke-linejoin="round" stroke-miterlimit="10" x1="136.183" y1="209.334" x2="138.279" y2="209.334"/>
	<polyline fill="none" stroke="#FFFFFF" stroke-linecap="round" stroke-linejoin="round" stroke-miterlimit="10" points="
		143.118,240.365 143.118,212.034 131.344,212.034 131.344,240.365 	"/>
	
		<rect x="134.044" y="214.734" fill="none" stroke="#FFFFFF" stroke-linecap="round" stroke-linejoin="round" stroke-miterlimit="10" width="6.375" height="5.4"/>
	
		<rect x="134.044" y="221.934" fill="none" stroke="#FFFFFF" stroke-linecap="round" stroke-linejoin="round" stroke-miterlimit="10" width="6.375" height="7.2"/>
	
		<rect x="135.844" y="223.734" fill="none" stroke="#FFFFFF" stroke-linecap="round" stroke-linejoin="round" stroke-miterlimit="10" width="2.775" height="3.6"/>
	
		<rect x="134.044" y="230.934" fill="none" stroke="#FFFFFF" stroke-linecap="round" stroke-linejoin="round" stroke-miterlimit="10" width="1.334" height="1.136"/>
	
		<rect x="136.564" y="230.934" fill="none" stroke="#FFFFFF" stroke-linecap="round" stroke-linejoin="round" stroke-miterlimit="10" width="1.334" height="1.136"/>
	
		<rect x="139.085" y="230.934" fill="none" stroke="#FFFFFF" stroke-linecap="round" stroke-linejoin="round" stroke-miterlimit="10" width="1.334" height="1.136"/>
</g>
<g>
	
		<circle fill="none" stroke="#FFFFFF" stroke-linecap="round" stroke-linejoin="round" stroke-miterlimit="10" cx="149.275" cy="36.835" r="1.836"/>
	<path fill="none" stroke="#FFFFFF" stroke-linecap="round" stroke-linejoin="round" stroke-miterlimit="10" d="M144.869,34.842
		c0.761-1.675,2.449-2.843,4.406-2.843c1.956,0,3.645,1.168,4.405,2.843"/>
	<path fill="none" stroke="#FFFFFF" stroke-linecap="round" stroke-linejoin="round" stroke-miterlimit="10" d="M142.136,33.606
		c1.233-2.714,3.969-4.607,7.139-4.607c3.17,0,5.906,1.892,7.138,4.607"/>
	<path fill="none" stroke="#FFFFFF" stroke-linecap="round" stroke-linejoin="round" stroke-miterlimit="10" d="M139.402,32.369
		c1.705-3.754,5.489-6.37,9.873-6.37c4.384,0,8.167,2.617,9.872,6.37"/>
</g>
</svg>
