<?xml version="1.0" encoding="utf-8"?>
<!-- Generator: Adobe Illustrator 24.0.0, SVG Export Plug-In . SVG Version: 6.00 Build 0)  -->
<svg version="1.1" id="Laag_1" xmlns="http://www.w3.org/2000/svg" xmlns:xlink="http://www.w3.org/1999/xlink" x="0px" y="0px"
	 viewBox="0 0 178.583 277.795" enable-background="new 0 0 178.583 277.795" xml:space="preserve">
<path fill="#D73534" d="M164.409,277.795H14.173C6.346,277.795,0,271.45,0,263.622V14.173C0,6.346,6.346,0,14.173,0h150.236
	c7.828,0,14.173,6.346,14.173,14.173v249.449C178.583,271.45,172.237,277.795,164.409,277.795z"/>
<g>
	<path fill="none" stroke="#FFFFFF" stroke-linecap="round" stroke-linejoin="round" stroke-miterlimit="10" d="M145.199,216.979
		c0.611-1.398,3.233-1.048,3.233,1.049c0,2.098-3.233,3.845-3.233,3.845s-3.235-1.747-3.235-3.845
		C141.965,215.93,144.587,215.581,145.199,216.979z"/>
	<path fill="none" stroke="#FFFFFF" stroke-linecap="round" stroke-linejoin="round" stroke-miterlimit="10" d="M150.791,233.467
		h-22.999c-1.409,0-2.551-1.142-2.551-2.551v-14.391c0-2.818,2.284-5.102,5.102-5.102h17.896c2.818,0,5.102,2.284,5.102,5.102
		v14.391C153.342,232.324,152.2,233.467,150.791,233.467z"/>
	
		<rect x="129.027" y="215.022" fill="none" stroke="#FFFFFF" stroke-linecap="round" stroke-linejoin="round" stroke-miterlimit="10" width="7.585" height="14.845"/>
	
		<circle fill="none" stroke="#FFFFFF" stroke-linecap="round" stroke-linejoin="round" stroke-miterlimit="10" cx="132.819" cy="226.039" r="1.633"/>
	
		<circle fill="none" stroke="#FFFFFF" stroke-linecap="round" stroke-linejoin="round" stroke-miterlimit="10" cx="132.819" cy="222.414" r="0.192"/>
	
		<circle fill="none" stroke="#FFFFFF" stroke-linecap="round" stroke-linejoin="round" stroke-miterlimit="10" cx="134.619" cy="222.414" r="0.192"/>
	
		<circle fill="none" stroke="#FFFFFF" stroke-linecap="round" stroke-linejoin="round" stroke-miterlimit="10" cx="131.019" cy="222.414" r="0.192"/>
	
		<circle fill="none" stroke="#FFFFFF" stroke-linecap="round" stroke-linejoin="round" stroke-miterlimit="10" cx="132.819" cy="220.614" r="0.192"/>
	
		<circle fill="none" stroke="#FFFFFF" stroke-linecap="round" stroke-linejoin="round" stroke-miterlimit="10" cx="134.619" cy="220.614" r="0.192"/>
	
		<circle fill="none" stroke="#FFFFFF" stroke-linecap="round" stroke-linejoin="round" stroke-miterlimit="10" cx="131.019" cy="220.614" r="0.192"/>
	
		<circle fill="none" stroke="#FFFFFF" stroke-linecap="round" stroke-linejoin="round" stroke-miterlimit="10" cx="132.819" cy="218.814" r="0.192"/>
	
		<circle fill="none" stroke="#FFFFFF" stroke-linecap="round" stroke-linejoin="round" stroke-miterlimit="10" cx="134.619" cy="218.814" r="0.192"/>
	
		<circle fill="none" stroke="#FFFFFF" stroke-linecap="round" stroke-linejoin="round" stroke-miterlimit="10" cx="131.019" cy="218.814" r="0.192"/>
	
		<circle fill="none" stroke="#FFFFFF" stroke-linecap="round" stroke-linejoin="round" stroke-miterlimit="10" cx="132.819" cy="217.014" r="0.192"/>
	
		<circle fill="none" stroke="#FFFFFF" stroke-linecap="round" stroke-linejoin="round" stroke-miterlimit="10" cx="134.619" cy="217.014" r="0.192"/>
	
		<circle fill="none" stroke="#FFFFFF" stroke-linecap="round" stroke-linejoin="round" stroke-miterlimit="10" cx="131.019" cy="217.014" r="0.192"/>
	
		<line fill="none" stroke="#FFFFFF" stroke-linecap="round" stroke-linejoin="round" stroke-miterlimit="10" x1="141.965" y1="224.944" x2="148.432" y2="224.944"/>
	
		<line fill="none" stroke="#FFFFFF" stroke-linecap="round" stroke-linejoin="round" stroke-miterlimit="10" x1="141.965" y1="227.644" x2="148.432" y2="227.644"/>
</g>
<g>
	
		<circle fill="none" stroke="#FFFFFF" stroke-linecap="round" stroke-linejoin="round" stroke-miterlimit="10" cx="89.291" cy="226.002" r="4.397"/>
	
		<circle fill="none" stroke="#FFFFFF" stroke-linecap="round" stroke-linejoin="round" stroke-miterlimit="10" cx="89.273" cy="216.013" r="0.192"/>
	
		<circle fill="none" stroke="#FFFFFF" stroke-linecap="round" stroke-linejoin="round" stroke-miterlimit="10" cx="91.973" cy="216.013" r="0.192"/>
	
		<circle fill="none" stroke="#FFFFFF" stroke-linecap="round" stroke-linejoin="round" stroke-miterlimit="10" cx="87.923" cy="213.313" r="0.192"/>
	
		<circle fill="none" stroke="#FFFFFF" stroke-linecap="round" stroke-linejoin="round" stroke-miterlimit="10" cx="90.623" cy="213.313" r="0.192"/>
	
		<circle fill="none" stroke="#FFFFFF" stroke-linecap="round" stroke-linejoin="round" stroke-miterlimit="10" cx="87.923" cy="218.713" r="0.192"/>
	
		<circle fill="none" stroke="#FFFFFF" stroke-linecap="round" stroke-linejoin="round" stroke-miterlimit="10" cx="90.623" cy="218.713" r="0.192"/>
	
		<circle fill="none" stroke="#FFFFFF" stroke-linecap="round" stroke-linejoin="round" stroke-miterlimit="10" cx="89.273" cy="227.785" r="0.192"/>
	
		<circle fill="none" stroke="#FFFFFF" stroke-linecap="round" stroke-linejoin="round" stroke-miterlimit="10" cx="86.573" cy="216.013" r="0.192"/>
	<path fill="none" stroke="#FFFFFF" stroke-linecap="round" stroke-linejoin="round" stroke-miterlimit="10" d="M91.286,233.1h-3.99
		c-2.818,0-5.102-2.284-5.102-5.102v-12.475c0-2.818,2.284-5.102,5.102-5.102h3.99c2.818,0,5.102,2.284,5.102,5.102v12.475
		C96.389,230.815,94.104,233.1,91.286,233.1z"/>
	
		<line fill="none" stroke="#FFFFFF" stroke-linecap="round" stroke-linejoin="round" stroke-miterlimit="10" x1="79.494" y1="237.168" x2="79.494" y2="207.72"/>
	
		<line fill="none" stroke="#FFFFFF" stroke-linecap="round" stroke-linejoin="round" stroke-miterlimit="10" x1="99.089" y1="207.72" x2="99.089" y2="237.168"/>
	
		<line fill="none" stroke="#FFFFFF" stroke-linecap="round" stroke-linejoin="round" stroke-miterlimit="10" x1="89.291" y1="225.793" x2="89.291" y2="224.027"/>
</g>
<g>
	<text transform="matrix(1 0 0 1 119.8513 252.3286)" fill="#FFFFFF" font-family="'Montserrat-Regular'" font-size="8px">AED-kast</text>
</g>
<g>
	<text transform="matrix(1 0 0 1 18.6428 252.3288)" fill="#FFFFFF" font-family="'Montserrat-Regular'" font-size="8px">Brandslang</text>
</g>
<g>
	<text transform="matrix(1 0 0 1 69.3509 252.3291)" fill="#FFFFFF" font-family="'Montserrat-Regular'" font-size="8px">SOS-knop</text>
</g>
<g>
	<polyline fill="none" stroke="#FFFFFF" stroke-linecap="round" stroke-linejoin="round" stroke-miterlimit="10" points="
		44.901,234.227 44.901,238.193 36.623,238.193 36.623,234.227 	"/>
	<path fill="none" stroke="#FFFFFF" stroke-linecap="round" stroke-linejoin="round" stroke-miterlimit="10" d="M42.982,210.566
		h-4.44c-1.409,0-2.551,1.142-2.551,2.551v18.41h9.543v-18.41C45.533,211.708,44.391,210.566,42.982,210.566z"/>
	
		<line fill="none" stroke="#FFFFFF" stroke-linecap="round" stroke-linejoin="round" stroke-miterlimit="10" x1="33.291" y1="227.702" x2="33.291" y2="231.527"/>
	<polyline fill="none" stroke="#FFFFFF" stroke-linecap="round" stroke-linejoin="round" stroke-miterlimit="10" points="
		45.533,217.862 39.408,217.862 39.408,227.027 45.533,227.027 	"/>
	<path fill="none" stroke="#FFFFFF" stroke-linecap="round" stroke-linejoin="round" stroke-miterlimit="10" d="M33.291,229.615
		c-6.353,0-11.502-5.15-11.502-11.502c0-6.353,5.15-11.502,11.502-11.502h3.515"/>
	
		<circle fill="none" stroke="#FFFFFF" stroke-linecap="round" stroke-linejoin="round" stroke-miterlimit="10" cx="40.762" cy="206.61" r="1.256"/>
	
		<line fill="none" stroke="#FFFFFF" stroke-linecap="round" stroke-linejoin="round" stroke-miterlimit="10" x1="44.362" y1="205.678" x2="48.851" y2="203.572"/>
	
		<line fill="none" stroke="#FFFFFF" stroke-linecap="round" stroke-linejoin="round" stroke-miterlimit="10" x1="44.362" y1="207.926" x2="49.131" y2="209.648"/>
</g>
<g>
	
		<circle fill="none" stroke="#FFFFFF" stroke-width="2" stroke-linecap="round" stroke-linejoin="round" stroke-miterlimit="10" cx="89.291" cy="138.185" r="3.377"/>
	
		<polygon fill="none" stroke="#FFFFFF" stroke-width="2" stroke-linecap="round" stroke-linejoin="round" stroke-miterlimit="10" points="
		104.515,134.277 98.861,138.478 104.515,142.678 	"/>
	
		<line fill="none" stroke="#FFFFFF" stroke-width="2" stroke-linecap="round" stroke-linejoin="round" stroke-miterlimit="10" x1="108.643" y1="138.478" x2="110.966" y2="138.478"/>
	
		<polygon fill="none" stroke="#FFFFFF" stroke-width="2" stroke-linecap="round" stroke-linejoin="round" stroke-miterlimit="10" points="
		74.068,142.678 79.722,138.478 74.068,134.277 	"/>
	
		<line fill="none" stroke="#FFFFFF" stroke-width="2" stroke-linecap="round" stroke-linejoin="round" stroke-miterlimit="10" x1="69.94" y1="138.478" x2="67.617" y2="138.478"/>
	
		<rect x="61.983" y="127.527" fill="none" stroke="#FFFFFF" stroke-width="2" stroke-linecap="round" stroke-linejoin="round" stroke-miterlimit="10" width="54.617" height="20.786"/>
	
		<polygon fill="none" stroke="#FFFFFF" stroke-width="2" stroke-linecap="round" stroke-linejoin="round" stroke-miterlimit="10" points="
		92.884,115.656 89.291,111.528 85.699,115.656 85.699,120.777 92.884,120.777 	"/>
	<path fill="none" stroke="#FFFFFF" stroke-width="2" stroke-linecap="round" stroke-linejoin="round" stroke-miterlimit="10" d="
		M92.221,159.01h-5.859c-1.09,0-1.974-0.884-1.974-1.974l0,0c0-1.09,0.884-1.974,1.974-1.974h5.859c1.09,0,1.974,0.884,1.974,1.974
		l0,0C94.194,158.126,93.311,159.01,92.221,159.01z"/>
	<path fill="none" stroke="#FFFFFF" stroke-width="2" stroke-linecap="round" stroke-linejoin="round" stroke-miterlimit="10" d="
		M117.499,165.76H61.084c-3.231,0-5.851-2.619-5.851-5.851v-49.28c0-3.231,2.619-5.851,5.851-5.851h56.416
		c3.231,0,5.851,2.619,5.851,5.851v49.28C123.35,163.14,120.73,165.76,117.499,165.76z"/>
	
		<line fill="none" stroke="#FFFFFF" stroke-width="2" stroke-linecap="round" stroke-linejoin="round" stroke-miterlimit="10" x1="61.425" y1="116.152" x2="74.068" y2="116.152"/>
</g>
<text transform="matrix(1 0 0 1 23.1643 37.5056)"><tspan x="0" y="0" fill="#FFFFFF" font-family="'Montserrat-ExtraBold'" font-size="14px" letter-spacing="1">NOOD</tspan><tspan x="0" y="18" fill="#FFFFFF" font-family="'Montserrat-Regular'" font-size="10px">Brandalarm</tspan></text>
<g>
	<path fill="none" stroke="#FFFFFF" stroke-linecap="round" stroke-linejoin="round" stroke-miterlimit="10" d="M148.328,23.338
		l-9.87,16.316c-0.626,1.034,0.119,2.355,1.328,2.355h19.741c1.209,0,1.954-1.321,1.328-2.355l-9.87-16.316
		C150.38,22.34,148.932,22.34,148.328,23.338z"/>
	<polygon fill="none" stroke="#FFFFFF" stroke-linecap="round" stroke-linejoin="round" stroke-miterlimit="10" points="
		148.081,29.076 149.656,34.631 151.231,29.076 	"/>
	
		<circle fill="none" stroke="#FFFFFF" stroke-linecap="round" stroke-linejoin="round" stroke-miterlimit="10" cx="149.656" cy="37.87" r="1.125"/>
</g>
</svg>
