<?xml version="1.0" encoding="utf-8"?>
<!-- Generator: Adobe Illustrator 24.0.0, SVG Export Plug-In . SVG Version: 6.00 Build 0)  -->
<svg version="1.1" id="Laag_1" xmlns="http://www.w3.org/2000/svg" xmlns:xlink="http://www.w3.org/1999/xlink" x="0px" y="0px"
	 viewBox="0 0 178.583 277.795" enable-background="new 0 0 178.583 277.795" xml:space="preserve">
<path fill="#90BA1E" d="M164.409,277.795H14.173C6.346,277.795,0,271.45,0,263.622V14.173C0,6.346,6.346,0,14.173,0h150.236
	c7.828,0,14.173,6.346,14.173,14.173v249.449C178.583,271.45,172.237,277.795,164.409,277.795z"/>
<g>
	
		<line fill="none" stroke="#FFFFFF" stroke-linecap="round" stroke-linejoin="round" stroke-miterlimit="10" x1="144.228" y1="213.704" x2="144.228" y2="237.524"/>
	
		<line fill="none" stroke="#FFFFFF" stroke-linecap="round" stroke-linejoin="round" stroke-miterlimit="10" x1="132.355" y1="213.704" x2="132.355" y2="237.524"/>
	
		<rect x="132.355" y="209.055" fill="none" stroke="#FFFFFF" stroke-linecap="round" stroke-linejoin="round" stroke-miterlimit="10" width="11.873" height="4.65"/>
	<path fill="none" stroke="#FFFFFF" stroke-linecap="round" stroke-linejoin="round" stroke-miterlimit="10" d="M140.197,230.326
		h-3.811v-5.506c0-1.052,0.853-1.906,1.906-1.906l0,0c1.052,0,1.906,0.853,1.906,1.906V230.326z"/>
	
		<circle fill="none" stroke="#FFFFFF" stroke-linecap="round" stroke-linejoin="round" stroke-miterlimit="10" cx="138.291" cy="218.31" r="1.906"/>
	<path fill="none" stroke="#FFFFFF" stroke-linecap="round" stroke-linejoin="round" stroke-miterlimit="10" d="M139.64,236.175
		c0,0.745-0.604,1.349-1.349,1.349s-1.349-0.604-1.349-1.349s1.349-3.149,1.349-3.149S139.64,235.43,139.64,236.175z"/>
	
		<line fill="none" stroke="#FFFFFF" stroke-linecap="round" stroke-linejoin="round" stroke-miterlimit="10" x1="138.291" y1="233.026" x2="138.291" y2="230.326"/>
</g>
<g>
	
		<circle fill="none" stroke="#FFFFFF" stroke-linecap="round" stroke-linejoin="round" stroke-miterlimit="10" cx="90.755" cy="224.53" r="1.79"/>
	
		<circle fill="none" stroke="#FFFFFF" stroke-linecap="round" stroke-linejoin="round" stroke-miterlimit="10" cx="90.755" cy="230.81" r="1.79"/>
	
		<circle fill="none" stroke="#FFFFFF" stroke-linecap="round" stroke-linejoin="round" stroke-miterlimit="10" cx="90.755" cy="218.25" r="1.79"/>
	
		<circle fill="none" stroke="#FFFFFF" stroke-linecap="round" stroke-linejoin="round" stroke-miterlimit="10" cx="74.902" cy="224.53" r="0.563"/>
	
		<circle fill="none" stroke="#FFFFFF" stroke-linecap="round" stroke-linejoin="round" stroke-miterlimit="10" cx="78.052" cy="224.53" r="0.563"/>
	
		<circle fill="none" stroke="#FFFFFF" stroke-linecap="round" stroke-linejoin="round" stroke-miterlimit="10" cx="82.552" cy="224.53" r="0.563"/>
	
		<circle fill="none" stroke="#FFFFFF" stroke-linecap="round" stroke-linejoin="round" stroke-miterlimit="10" cx="80.302" cy="226.78" r="0.563"/>
	
		<circle fill="none" stroke="#FFFFFF" stroke-linecap="round" stroke-linejoin="round" stroke-miterlimit="10" cx="80.302" cy="222.28" r="0.563"/>
	
		<circle fill="none" stroke="#FFFFFF" stroke-linecap="round" stroke-linejoin="round" stroke-miterlimit="10" cx="85.702" cy="224.53" r="0.563"/>
	
		<circle fill="none" stroke="#FFFFFF" stroke-linecap="round" stroke-linejoin="round" stroke-miterlimit="10" cx="76.483" cy="228.349" r="0.563"/>
	
		<circle fill="none" stroke="#FFFFFF" stroke-linecap="round" stroke-linejoin="round" stroke-miterlimit="10" cx="84.12" cy="220.712" r="0.563"/>
	
		<circle fill="none" stroke="#FFFFFF" stroke-linecap="round" stroke-linejoin="round" stroke-miterlimit="10" cx="80.302" cy="229.93" r="0.563"/>
	
		<circle fill="none" stroke="#FFFFFF" stroke-linecap="round" stroke-linejoin="round" stroke-miterlimit="10" cx="80.302" cy="219.13" r="0.563"/>
	
		<circle fill="none" stroke="#FFFFFF" stroke-linecap="round" stroke-linejoin="round" stroke-miterlimit="10" cx="84.12" cy="228.349" r="0.563"/>
	
		<circle fill="none" stroke="#FFFFFF" stroke-linecap="round" stroke-linejoin="round" stroke-miterlimit="10" cx="76.483" cy="220.712" r="0.563"/>
	
		<rect x="95.245" y="216.46" fill="none" stroke="#FFFFFF" stroke-linecap="round" stroke-linejoin="round" stroke-miterlimit="10" width="7.2" height="3.579"/>
	
		<line fill="none" stroke="#FFFFFF" stroke-linecap="round" stroke-linejoin="round" stroke-miterlimit="10" x1="74.338" y1="213.76" x2="104.245" y2="213.76"/>
	
		<line fill="none" stroke="#FFFFFF" stroke-linecap="round" stroke-linejoin="round" stroke-miterlimit="10" x1="74.338" y1="235.3" x2="104.245" y2="235.3"/>
	
		<rect x="95.245" y="222.741" fill="none" stroke="#FFFFFF" stroke-linecap="round" stroke-linejoin="round" stroke-miterlimit="10" width="7.2" height="3.579"/>
	
		<rect x="95.245" y="229.02" fill="none" stroke="#FFFFFF" stroke-linecap="round" stroke-linejoin="round" stroke-miterlimit="10" width="7.2" height="3.579"/>
</g>
<g>
	<text transform="matrix(1 0 0 1 121.239 252.3286)" fill="#FFFFFF" font-family="'Montserrat-Regular'" font-size="8px">Tappunt</text>
</g>
<g>
	<text transform="matrix(1 0 0 1 25.4905 252.3288)" fill="#FFFFFF" font-family="'Montserrat-Regular'" font-size="8px">Deurbel</text>
</g>
<g>
	<text transform="matrix(1 0 0 1 70.9466 252.3291)" fill="#FFFFFF" font-family="'Montserrat-Regular'" font-size="8px">Intercom</text>
</g>
<text transform="matrix(1 0 0 1 23.1643 37.5056)"><tspan x="0" y="0" fill="#FFFFFF" font-family="'Montserrat-ExtraBold'" font-size="14px" letter-spacing="1">BUTTONS</tspan><tspan x="0" y="18" fill="#FFFFFF" font-family="'Montserrat-Regular'" font-size="10px">WC-review</tspan></text>
<g>
	
		<circle fill="none" stroke="#FFFFFF" stroke-linecap="round" stroke-linejoin="round" stroke-miterlimit="10" cx="41.383" cy="231.649" r="3.223"/>
	
		<rect x="38.16" y="213.234" fill="none" stroke="#FFFFFF" stroke-linecap="round" stroke-linejoin="round" stroke-miterlimit="10" width="6.446" height="12.492"/>
	
		<line fill="none" stroke="#FFFFFF" stroke-linecap="round" stroke-linejoin="round" stroke-miterlimit="10" x1="39.96" y1="210.534" x2="42.806" y2="210.534"/>
	<path fill="none" stroke="#FFFFFF" stroke-linecap="round" stroke-linejoin="round" stroke-miterlimit="10" d="M35.46,210.385
		v24.635c0,1.409,1.142,2.551,2.551,2.551h6.744c1.409,0,2.551-1.142,2.551-2.551v-24.635c0-1.409-1.142-2.551-2.551-2.551h-6.744
		C36.602,207.834,35.46,208.976,35.46,210.385z"/>
	
		<line fill="none" stroke="#FFFFFF" stroke-linecap="round" stroke-linejoin="round" stroke-miterlimit="10" x1="50.006" y1="233.22" x2="50.006" y2="212.185"/>
	
		<line fill="none" stroke="#FFFFFF" stroke-linecap="round" stroke-linejoin="round" stroke-miterlimit="10" x1="32.76" y1="233.22" x2="32.76" y2="212.185"/>
</g>
<g>
	<path fill="none" stroke="#FFFFFF" stroke-linecap="round" stroke-linejoin="round" stroke-miterlimit="10" d="M153.795,43.828
		L153.795,43.828c1.746-1.746,2.727-4.114,2.727-6.582v-1.948c0-0.809-0.321-1.584-0.893-2.156l0,0
		c-0.416-0.416-0.98-0.649-1.568-0.649h-0.265l-0.111-0.111c-0.416-0.416-0.98-0.649-1.568-0.649h-1.047l-0.111-0.111
		c-0.416-0.416-0.98-0.649-1.568-0.649h-1.047v-4.305c0-0.849-0.611-1.622-1.455-1.707c-0.971-0.097-1.79,0.663-1.79,1.614v7.488
		l-1.035,1.035c-0.638,0.638-0.826,1.599-0.475,2.431l0.667,1.58c0.556,1.317,1.362,2.514,2.373,3.525l1.164,1.164"/>
	<path fill="none" stroke="#FFFFFF" stroke-linecap="round" stroke-linejoin="round" stroke-miterlimit="10" d="M150.23,29.149
		c0.713-0.822,1.16-1.881,1.16-3.054c0-2.586-2.096-4.682-4.681-4.682c-2.586,0-4.681,2.096-4.681,4.682
		c0,1.173,0.447,2.233,1.16,3.054"/>
</g>
<g>
	
		<circle fill="none" stroke="#FFFFFF" stroke-width="2" stroke-linecap="round" stroke-linejoin="round" stroke-miterlimit="10" cx="89.291" cy="109.995" r="7.597"/>
	
		<circle fill="none" stroke="#FFFFFF" stroke-width="2" stroke-linecap="round" stroke-linejoin="round" stroke-miterlimit="10" cx="89.291" cy="150.855" r="4.666"/>
	
		<circle fill="none" stroke="#FFFFFF" stroke-width="2" stroke-linecap="round" stroke-linejoin="round" stroke-miterlimit="10" cx="105.373" cy="150.855" r="4.666"/>
	
		<circle fill="none" stroke="#FFFFFF" stroke-width="2" stroke-linecap="round" stroke-linejoin="round" stroke-miterlimit="10" cx="73.21" cy="150.855" r="4.666"/>
	
		<circle fill="none" stroke="#FFFFFF" stroke-width="2" stroke-linecap="round" stroke-linejoin="round" stroke-miterlimit="10" cx="69.598" cy="109.995" r="7.597"/>
	
		<circle fill="none" stroke="#FFFFFF" stroke-width="2" stroke-linecap="round" stroke-linejoin="round" stroke-miterlimit="10" cx="108.985" cy="109.995" r="7.597"/>
	
		<circle fill="none" stroke="#FFFFFF" stroke-width="2" stroke-linecap="round" stroke-linejoin="round" stroke-miterlimit="10" cx="86.852" cy="108.403" r="0.658"/>
	
		<circle fill="none" stroke="#FFFFFF" stroke-width="2" stroke-linecap="round" stroke-linejoin="round" stroke-miterlimit="10" cx="91.73" cy="108.403" r="0.658"/>
	
		<circle fill="none" stroke="#FFFFFF" stroke-width="2" stroke-linecap="round" stroke-linejoin="round" stroke-miterlimit="10" cx="106.546" cy="108.403" r="0.658"/>
	
		<circle fill="none" stroke="#FFFFFF" stroke-width="2" stroke-linecap="round" stroke-linejoin="round" stroke-miterlimit="10" cx="111.424" cy="108.403" r="0.658"/>
	<path fill="none" stroke="#FFFFFF" stroke-width="2" stroke-linecap="round" stroke-linejoin="round" stroke-miterlimit="10" d="
		M112.11,114.097c-0.658-1.037-1.809-1.731-3.125-1.731c-1.316,0-2.466,0.694-3.124,1.731"/>
	
		<circle fill="none" stroke="#FFFFFF" stroke-width="2" stroke-linecap="round" stroke-linejoin="round" stroke-miterlimit="10" cx="67.159" cy="108.403" r="0.658"/>
	
		<circle fill="none" stroke="#FFFFFF" stroke-width="2" stroke-linecap="round" stroke-linejoin="round" stroke-miterlimit="10" cx="72.037" cy="108.403" r="0.658"/>
	<path fill="none" stroke="#FFFFFF" stroke-width="2" stroke-linecap="round" stroke-linejoin="round" stroke-miterlimit="10" d="
		M66.038,112.245c0.749,1.181,2.06,1.972,3.56,1.972c1.499,0,2.809-0.791,3.558-1.972"/>
	
		<line fill="none" stroke="#FFFFFF" stroke-width="2" stroke-linecap="round" stroke-linejoin="round" stroke-miterlimit="10" x1="86.857" y1="113.231" x2="91.726" y2="113.231"/>
	
		<polygon fill="none" stroke="#FFFFFF" stroke-width="2" stroke-linecap="round" stroke-linejoin="round" stroke-miterlimit="10" points="
		83.09,124.342 89.291,132.689 95.493,124.342 	"/>
	
		<line fill="none" stroke="#FFFFFF" stroke-width="2" stroke-linecap="round" stroke-linejoin="round" stroke-miterlimit="10" x1="58.626" y1="95.648" x2="119.957" y2="95.648"/>
	
		<line fill="none" stroke="#FFFFFF" stroke-width="2" stroke-linecap="round" stroke-linejoin="round" stroke-miterlimit="10" x1="58.626" y1="169.02" x2="119.957" y2="169.02"/>
	<path fill="none" stroke="#FFFFFF" stroke-width="2" stroke-linecap="round" stroke-linejoin="round" stroke-miterlimit="10" d="
		M61.794,145.817v10.075c0,3.522,2.856,6.378,6.378,6.378h42.238c3.522,0,6.378-2.855,6.378-6.378v-10.075
		c0-3.522-2.856-6.378-6.378-6.378H68.172C64.65,139.439,61.794,142.295,61.794,145.817z"/>
</g>
</svg>
