<?xml version="1.0" encoding="utf-8"?>
<!-- Generator: Adobe Illustrator 24.0.0, SVG Export Plug-In . SVG Version: 6.00 Build 0)  -->
<svg version="1.1" id="Laag_1" xmlns="http://www.w3.org/2000/svg" xmlns:xlink="http://www.w3.org/1999/xlink" x="0px" y="0px"
	 viewBox="0 0 178.583 277.795" enable-background="new 0 0 178.583 277.795" xml:space="preserve">
<path fill="#2F52A0" d="M164.409,277.795H14.173C6.346,277.795,0,271.45,0,263.622V14.173C0,6.346,6.346,0,14.173,0h150.236
	c7.828,0,14.173,6.346,14.173,14.173v249.449C178.583,271.45,172.237,277.795,164.409,277.795z"/>
<circle fill="none" stroke="#FFFFFF" stroke-linecap="round" stroke-linejoin="round" stroke-miterlimit="10" cx="137.732" cy="223.583" r="2.734"/>
<path fill="none" stroke="#FFFFFF" stroke-linecap="round" stroke-linejoin="round" stroke-miterlimit="10" d="M142.715,223.582
	c0-1.274-0.485-2.466-1.348-3.391V215.9h-7.269v4.292c-0.863,0.924-1.348,2.116-1.348,3.39c0,1.274,0.485,2.466,1.348,3.39v3.392
	h7.269v-3.392C142.23,226.049,142.715,224.857,142.715,223.582z"/>
<polyline fill="none" stroke="#FFFFFF" stroke-linecap="round" stroke-linejoin="round" stroke-miterlimit="10" points="
	140.466,230.365 140.466,236.222 134.998,236.222 134.998,230.365 "/>
<polyline fill="none" stroke="#FFFFFF" stroke-linecap="round" stroke-linejoin="round" stroke-miterlimit="10" points="
	134.998,215.9 134.998,211.882 140.466,211.882 140.466,215.9 "/>
<path fill="none" stroke="#FFFFFF" stroke-linecap="round" stroke-linejoin="round" stroke-miterlimit="10" d="M139.567,211.882
	v-4.124c0-0.704-0.571-1.276-1.276-1.276h-1.118c-0.704,0-1.276,0.571-1.276,1.276v4.124"/>
<path fill="none" stroke="#FFFFFF" stroke-linecap="round" stroke-linejoin="round" stroke-miterlimit="10" d="M130.05,234.422
	v-28.988c0-1.409,1.142-2.551,2.551-2.551h10.263c1.409,0,2.551,1.142,2.551,2.551v28.988"/>
<line fill="none" stroke="#FFFFFF" stroke-linecap="round" stroke-linejoin="round" stroke-miterlimit="10" x1="135.932" y1="239.433" x2="135.932" y2="236.222"/>
<line fill="none" stroke="#FFFFFF" stroke-linecap="round" stroke-linejoin="round" stroke-miterlimit="10" x1="139.532" y1="236.222" x2="139.532" y2="239.433"/>
<g>
	<g>
		<path fill="none" stroke="#FFFFFF" stroke-linecap="round" stroke-linejoin="round" stroke-miterlimit="10" d="M155.322,37.706
			h-17.237c-1.096,0-1.984-0.888-1.984-1.984v-4.069c0-1.096,0.888-1.984,1.984-1.984h17.237c1.096,0,1.984,0.888,1.984,1.984v4.069
			C157.306,36.817,156.418,37.706,155.322,37.706z"/>
		<path fill="none" stroke="#FFFFFF" stroke-linecap="round" stroke-linejoin="round" stroke-miterlimit="10" d="M151.706,34.452
			v0.453h2.8v-2.437h-0.816C152.595,32.468,151.706,33.357,151.706,34.452z"/>
		<path fill="none" stroke="#FFFFFF" stroke-linecap="round" stroke-linejoin="round" stroke-miterlimit="10" d="M141.701,34.452
			v0.453h-2.8v-2.437h0.816C140.813,32.468,141.701,33.357,141.701,34.452z"/>
		
			<line fill="none" stroke="#FFFFFF" stroke-linecap="round" stroke-linejoin="round" stroke-miterlimit="10" x1="157.306" y1="28.268" x2="159.143" y2="28.268"/>
		
			<line fill="none" stroke="#FFFFFF" stroke-linecap="round" stroke-linejoin="round" stroke-miterlimit="10" x1="134.264" y1="28.268" x2="136.101" y2="28.268"/>
		<polyline fill="none" stroke="#FFFFFF" stroke-linecap="round" stroke-linejoin="round" stroke-miterlimit="10" points="
			152.085,40.506 155.322,40.506 155.322,37.706 		"/>
		<polyline fill="none" stroke="#FFFFFF" stroke-linecap="round" stroke-linejoin="round" stroke-miterlimit="10" points="
			141.322,40.506 138.085,40.506 138.085,37.706 		"/>
		<path fill="none" stroke="#FFFFFF" stroke-linecap="round" stroke-linejoin="round" stroke-miterlimit="10" d="M154.775,29.668
			l-1.623-3.713c-0.316-0.723-1.03-1.19-1.818-1.19h-9.261c-0.789,0-1.502,0.467-1.818,1.19l-1.623,3.713"/>
	</g>
</g>
<text transform="matrix(1 0 0 1 23.1643 37.5056)"><tspan x="0" y="0" fill="#FFFFFF" font-family="'Montserrat-ExtraBold'" font-size="14px" letter-spacing="1">VERKEER</tspan><tspan x="0" y="18" fill="#FFFFFF" font-family="'Montserrat-Regular'" font-size="10px">Stopknop</tspan></text>
<g>
	<text transform="matrix(1 0 0 1 21.1707 252.3287)" fill="#FFFFFF" font-family="'Montserrat-Regular'" font-size="8px">Stoplicht</text>
</g>
<g>
	<text transform="matrix(1 0 0 1 68.8273 252.3291)" fill="#FFFFFF" font-family="'Montserrat-Regular'" font-size="8px">Slagboom</text>
</g>
<g>
	<text transform="matrix(1 0 0 1 122.115 252.3286)" fill="#FFFFFF" font-family="'Montserrat-Regular'" font-size="8px">Benzine</text>
</g>
<g>
	
		<line fill="none" stroke="#FFFFFF" stroke-linecap="round" stroke-linejoin="round" stroke-miterlimit="10" x1="102.696" y1="234.341" x2="102.696" y2="221.592"/>
	
		<rect x="101.346" y="216.192" fill="none" stroke="#FFFFFF" stroke-linecap="round" stroke-linejoin="round" stroke-miterlimit="10" width="2.7" height="5.4"/>
	
		<rect x="74.537" y="216.192" fill="none" stroke="#FFFFFF" stroke-linecap="round" stroke-linejoin="round" stroke-miterlimit="10" width="1.8" height="5.4"/>
	
		<rect x="104.046" y="217.542" fill="none" stroke="#FFFFFF" stroke-linecap="round" stroke-linejoin="round" stroke-miterlimit="10" width="2.7" height="2.7"/>
	
		<rect x="80.646" y="217.542" fill="none" stroke="#FFFFFF" stroke-linecap="round" stroke-linejoin="round" stroke-miterlimit="10" width="20.7" height="2.7"/>
	
		<line fill="none" stroke="#FFFFFF" stroke-linecap="round" stroke-linejoin="round" stroke-miterlimit="10" x1="86.046" y1="217.542" x2="86.046" y2="220.242"/>
	
		<line fill="none" stroke="#FFFFFF" stroke-linecap="round" stroke-linejoin="round" stroke-miterlimit="10" x1="91.446" y1="217.542" x2="91.446" y2="220.242"/>
	
		<line fill="none" stroke="#FFFFFF" stroke-linecap="round" stroke-linejoin="round" stroke-miterlimit="10" x1="96.846" y1="217.542" x2="96.846" y2="220.242"/>
	
		<line fill="none" stroke="#FFFFFF" stroke-linecap="round" stroke-linejoin="round" stroke-miterlimit="10" x1="72.737" y1="234.341" x2="72.737" y2="213.942"/>
	
		<line fill="none" stroke="#FFFFFF" stroke-linecap="round" stroke-linejoin="round" stroke-miterlimit="10" x1="78.137" y1="234.341" x2="78.137" y2="213.942"/>
	
		<rect x="71.837" y="211.242" fill="none" stroke="#FFFFFF" stroke-linecap="round" stroke-linejoin="round" stroke-miterlimit="10" width="7.2" height="2.7"/>
</g>
<g>
	
		<circle fill="none" stroke="#FFFFFF" stroke-linecap="round" stroke-linejoin="round" stroke-miterlimit="10" cx="39.383" cy="219.871" r="2.328"/>
	
		<circle fill="none" stroke="#FFFFFF" stroke-linecap="round" stroke-linejoin="round" stroke-miterlimit="10" cx="39.383" cy="226.328" r="2.328"/>
	
		<circle fill="none" stroke="#FFFFFF" stroke-linecap="round" stroke-linejoin="round" stroke-miterlimit="10" cx="39.383" cy="213.415" r="2.328"/>
	
		<rect x="35.254" y="209.286" fill="none" stroke="#FFFFFF" stroke-linecap="round" stroke-linejoin="round" stroke-miterlimit="10" width="8.257" height="21.17"/>
	<path fill="none" stroke="#FFFFFF" stroke-linecap="round" stroke-linejoin="round" stroke-miterlimit="10" d="M39.383,234.056
		L39.383,234.056c-4.268,0-7.728-3.46-7.728-7.728v-12.913c0-4.268,3.46-7.728,7.728-7.728h0c4.268,0,7.728,3.46,7.728,7.728v12.913
		C47.111,230.596,43.651,234.056,39.383,234.056z"/>
	
		<line fill="none" stroke="#FFFFFF" stroke-linecap="round" stroke-linejoin="round" stroke-miterlimit="10" x1="37.054" y1="202.986" x2="41.711" y2="202.986"/>
	
		<line fill="none" stroke="#FFFFFF" stroke-linecap="round" stroke-linejoin="round" stroke-miterlimit="10" x1="37.054" y1="234.056" x2="37.054" y2="237.497"/>
	
		<line fill="none" stroke="#FFFFFF" stroke-linecap="round" stroke-linejoin="round" stroke-miterlimit="10" x1="41.711" y1="233.698" x2="41.711" y2="237.497"/>
</g>
<g>
	
		<circle fill="none" stroke="#FFFFFF" stroke-width="2" stroke-linecap="round" stroke-linejoin="round" stroke-miterlimit="10" cx="89.432" cy="124.272" r="8.009"/>
	
		<circle fill="none" stroke="#FFFFFF" stroke-width="2" stroke-linecap="round" stroke-linejoin="round" stroke-miterlimit="10" cx="89.432" cy="155.534" r="3.859"/>
	<path fill="none" stroke="#FFFFFF" stroke-width="2" stroke-linecap="round" stroke-linejoin="round" stroke-miterlimit="10" d="
		M95.806,109.505h-13.03c-1.39,0-2.757,0.436-3.861,1.282c-4.065,3.117-6.69,8.015-6.69,13.534c0,5.435,2.548,10.266,6.509,13.388
		c1.109,0.875,2.499,1.322,3.912,1.322h13.289c1.413,0,2.803-0.447,3.912-1.322c3.961-3.122,6.509-7.953,6.509-13.388
		c0-5.519-2.625-10.417-6.69-13.534C98.564,109.941,97.197,109.505,95.806,109.505z"/>
	
		<polyline fill="none" stroke="#FFFFFF" stroke-width="2" stroke-linecap="round" stroke-linejoin="round" stroke-miterlimit="10" points="
		100.436,170.531 100.436,145.781 78.147,145.781 78.147,170.531 	"/>
	
		<line fill="none" stroke="#FFFFFF" stroke-width="2" stroke-linecap="round" stroke-linejoin="round" stroke-miterlimit="10" x1="89.432" y1="170.531" x2="89.432" y2="162.27"/>
	
		<polyline fill="none" stroke="#FFFFFF" stroke-width="2" stroke-linecap="round" stroke-linejoin="round" stroke-miterlimit="10" points="
		89.432,162.27 94.023,166.401 94.023,170.531 	"/>
	
		<line fill="none" stroke="#FFFFFF" stroke-width="2" stroke-linecap="round" stroke-linejoin="round" stroke-miterlimit="10" x1="84.221" y1="170.531" x2="89.432" y2="162.27"/>
	
		<line fill="none" stroke="#FFFFFF" stroke-width="2" stroke-linecap="round" stroke-linejoin="round" stroke-miterlimit="10" x1="100.436" y1="155.534" x2="110.857" y2="155.534"/>
	
		<line fill="none" stroke="#FFFFFF" stroke-width="2" stroke-linecap="round" stroke-linejoin="round" stroke-miterlimit="10" x1="67.726" y1="155.534" x2="78.147" y2="155.534"/>
	<path fill="none" stroke="#FFFFFF" stroke-width="2" stroke-linecap="round" stroke-linejoin="round" stroke-miterlimit="10" d="
		M110.857,170.531v-65.553c0-1.547-0.557-3.046-1.571-4.214c-4.858-5.591-12.006-9.136-19.995-9.136
		c-7.989,0-15.137,3.545-19.995,9.136c-1.015,1.168-1.571,2.667-1.571,4.214v65.553"/>
</g>
</svg>
