<?xml version="1.0" encoding="utf-8"?>
<!-- Generator: Adobe Illustrator 24.0.0, SVG Export Plug-In . SVG Version: 6.00 Build 0)  -->
<svg version="1.1" id="Laag_1" xmlns="http://www.w3.org/2000/svg" xmlns:xlink="http://www.w3.org/1999/xlink" x="0px" y="0px"
	 viewBox="0 0 178.583 277.795" enable-background="new 0 0 178.583 277.795" xml:space="preserve">
<path fill="#90BA1E" d="M164.409,277.795H14.173C6.346,277.795,0,271.45,0,263.622V14.173C0,6.346,6.346,0,14.173,0h150.236
	c7.828,0,14.173,6.346,14.173,14.173v249.449C178.583,271.45,172.237,277.795,164.409,277.795z"/>
<g>
	
		<circle fill="none" stroke="#FFFFFF" stroke-linecap="round" stroke-linejoin="round" stroke-miterlimit="10" cx="90.755" cy="224.53" r="1.79"/>
	
		<circle fill="none" stroke="#FFFFFF" stroke-linecap="round" stroke-linejoin="round" stroke-miterlimit="10" cx="90.755" cy="230.81" r="1.79"/>
	
		<circle fill="none" stroke="#FFFFFF" stroke-linecap="round" stroke-linejoin="round" stroke-miterlimit="10" cx="90.755" cy="218.25" r="1.79"/>
	
		<circle fill="none" stroke="#FFFFFF" stroke-linecap="round" stroke-linejoin="round" stroke-miterlimit="10" cx="74.902" cy="224.53" r="0.563"/>
	
		<circle fill="none" stroke="#FFFFFF" stroke-linecap="round" stroke-linejoin="round" stroke-miterlimit="10" cx="78.052" cy="224.53" r="0.563"/>
	
		<circle fill="none" stroke="#FFFFFF" stroke-linecap="round" stroke-linejoin="round" stroke-miterlimit="10" cx="82.552" cy="224.53" r="0.563"/>
	
		<circle fill="none" stroke="#FFFFFF" stroke-linecap="round" stroke-linejoin="round" stroke-miterlimit="10" cx="80.302" cy="226.78" r="0.563"/>
	
		<circle fill="none" stroke="#FFFFFF" stroke-linecap="round" stroke-linejoin="round" stroke-miterlimit="10" cx="80.302" cy="222.28" r="0.563"/>
	
		<circle fill="none" stroke="#FFFFFF" stroke-linecap="round" stroke-linejoin="round" stroke-miterlimit="10" cx="85.702" cy="224.53" r="0.563"/>
	
		<circle fill="none" stroke="#FFFFFF" stroke-linecap="round" stroke-linejoin="round" stroke-miterlimit="10" cx="76.483" cy="228.349" r="0.563"/>
	
		<circle fill="none" stroke="#FFFFFF" stroke-linecap="round" stroke-linejoin="round" stroke-miterlimit="10" cx="84.12" cy="220.712" r="0.563"/>
	
		<circle fill="none" stroke="#FFFFFF" stroke-linecap="round" stroke-linejoin="round" stroke-miterlimit="10" cx="80.302" cy="229.93" r="0.563"/>
	
		<circle fill="none" stroke="#FFFFFF" stroke-linecap="round" stroke-linejoin="round" stroke-miterlimit="10" cx="80.302" cy="219.13" r="0.563"/>
	
		<circle fill="none" stroke="#FFFFFF" stroke-linecap="round" stroke-linejoin="round" stroke-miterlimit="10" cx="84.12" cy="228.349" r="0.563"/>
	
		<circle fill="none" stroke="#FFFFFF" stroke-linecap="round" stroke-linejoin="round" stroke-miterlimit="10" cx="76.483" cy="220.712" r="0.563"/>
	
		<rect x="95.245" y="216.46" fill="none" stroke="#FFFFFF" stroke-linecap="round" stroke-linejoin="round" stroke-miterlimit="10" width="7.2" height="3.579"/>
	
		<line fill="none" stroke="#FFFFFF" stroke-linecap="round" stroke-linejoin="round" stroke-miterlimit="10" x1="74.338" y1="213.76" x2="104.245" y2="213.76"/>
	
		<line fill="none" stroke="#FFFFFF" stroke-linecap="round" stroke-linejoin="round" stroke-miterlimit="10" x1="74.338" y1="235.3" x2="104.245" y2="235.3"/>
	
		<rect x="95.245" y="222.741" fill="none" stroke="#FFFFFF" stroke-linecap="round" stroke-linejoin="round" stroke-miterlimit="10" width="7.2" height="3.579"/>
	
		<rect x="95.245" y="229.02" fill="none" stroke="#FFFFFF" stroke-linecap="round" stroke-linejoin="round" stroke-miterlimit="10" width="7.2" height="3.579"/>
</g>
<g>
	<text transform="matrix(1 0 0 1 116.739 252.3286)" fill="#FFFFFF" font-family="'Montserrat-Regular'" font-size="8px">WC-review</text>
</g>
<g>
	<text transform="matrix(1 0 0 1 25.4905 252.3288)" fill="#FFFFFF" font-family="'Montserrat-Regular'" font-size="8px">Deurbel</text>
</g>
<g>
	<text transform="matrix(1 0 0 1 70.9467 252.3291)" fill="#FFFFFF" font-family="'Montserrat-Regular'" font-size="8px">Intercom</text>
</g>
<text transform="matrix(1 0 0 1 23.1643 37.5056)"><tspan x="0" y="0" fill="#FFFFFF" font-family="'Montserrat-ExtraBold'" font-size="14px" letter-spacing="1">BUTTONS</tspan><tspan x="0" y="18" fill="#FFFFFF" font-family="'Montserrat-Regular'" font-size="10px">Tappunt</tspan></text>
<g>
	
		<circle fill="none" stroke="#FFFFFF" stroke-linecap="round" stroke-linejoin="round" stroke-miterlimit="10" cx="41.383" cy="231.649" r="3.223"/>
	
		<rect x="38.16" y="213.234" fill="none" stroke="#FFFFFF" stroke-linecap="round" stroke-linejoin="round" stroke-miterlimit="10" width="6.446" height="12.492"/>
	
		<line fill="none" stroke="#FFFFFF" stroke-linecap="round" stroke-linejoin="round" stroke-miterlimit="10" x1="39.96" y1="210.534" x2="42.806" y2="210.534"/>
	<path fill="none" stroke="#FFFFFF" stroke-linecap="round" stroke-linejoin="round" stroke-miterlimit="10" d="M35.46,210.385
		v24.635c0,1.409,1.142,2.551,2.551,2.551h6.744c1.409,0,2.551-1.142,2.551-2.551v-24.635c0-1.409-1.142-2.551-2.551-2.551h-6.744
		C36.602,207.834,35.46,208.976,35.46,210.385z"/>
	
		<line fill="none" stroke="#FFFFFF" stroke-linecap="round" stroke-linejoin="round" stroke-miterlimit="10" x1="50.006" y1="233.22" x2="50.006" y2="212.185"/>
	
		<line fill="none" stroke="#FFFFFF" stroke-linecap="round" stroke-linejoin="round" stroke-miterlimit="10" x1="32.76" y1="233.22" x2="32.76" y2="212.185"/>
</g>
<g>
	
		<circle fill="none" stroke="#FFFFFF" stroke-linecap="round" stroke-linejoin="round" stroke-miterlimit="10" cx="138.323" cy="214.625" r="3.039"/>
	
		<circle fill="none" stroke="#FFFFFF" stroke-linecap="round" stroke-linejoin="round" stroke-miterlimit="10" cx="138.323" cy="230.969" r="1.866"/>
	
		<circle fill="none" stroke="#FFFFFF" stroke-linecap="round" stroke-linejoin="round" stroke-miterlimit="10" cx="144.756" cy="230.969" r="1.866"/>
	
		<circle fill="none" stroke="#FFFFFF" stroke-linecap="round" stroke-linejoin="round" stroke-miterlimit="10" cx="131.891" cy="230.969" r="1.866"/>
	
		<circle fill="none" stroke="#FFFFFF" stroke-linecap="round" stroke-linejoin="round" stroke-miterlimit="10" cx="130.446" cy="214.625" r="3.039"/>
	
		<circle fill="none" stroke="#FFFFFF" stroke-linecap="round" stroke-linejoin="round" stroke-miterlimit="10" cx="146.201" cy="214.625" r="3.039"/>
	
		<circle fill="none" stroke="#FFFFFF" stroke-linecap="round" stroke-linejoin="round" stroke-miterlimit="10" cx="137.348" cy="213.988" r="0.263"/>
	
		<circle fill="none" stroke="#FFFFFF" stroke-linecap="round" stroke-linejoin="round" stroke-miterlimit="10" cx="139.299" cy="213.988" r="0.263"/>
	
		<circle fill="none" stroke="#FFFFFF" stroke-linecap="round" stroke-linejoin="round" stroke-miterlimit="10" cx="145.225" cy="213.988" r="0.263"/>
	
		<circle fill="none" stroke="#FFFFFF" stroke-linecap="round" stroke-linejoin="round" stroke-miterlimit="10" cx="147.177" cy="213.988" r="0.263"/>
	<path fill="none" stroke="#FFFFFF" stroke-linecap="round" stroke-linejoin="round" stroke-miterlimit="10" d="M147.451,216.266
		c-0.263-0.415-0.723-0.692-1.25-0.692c-0.526,0-0.986,0.278-1.249,0.692"/>
	
		<circle fill="none" stroke="#FFFFFF" stroke-linecap="round" stroke-linejoin="round" stroke-miterlimit="10" cx="129.47" cy="213.988" r="0.263"/>
	
		<circle fill="none" stroke="#FFFFFF" stroke-linecap="round" stroke-linejoin="round" stroke-miterlimit="10" cx="131.422" cy="213.988" r="0.263"/>
	<path fill="none" stroke="#FFFFFF" stroke-linecap="round" stroke-linejoin="round" stroke-miterlimit="10" d="M129.022,215.525
		c0.3,0.472,0.824,0.789,1.424,0.789c0.599,0,1.124-0.316,1.423-0.789"/>
	
		<line fill="none" stroke="#FFFFFF" stroke-linecap="round" stroke-linejoin="round" stroke-miterlimit="10" x1="137.35" y1="215.92" x2="139.297" y2="215.92"/>
	<polygon fill="none" stroke="#FFFFFF" stroke-linecap="round" stroke-linejoin="round" stroke-miterlimit="10" points="
		135.843,220.364 138.324,223.703 140.804,220.364 	"/>
	
		<line fill="none" stroke="#FFFFFF" stroke-linecap="round" stroke-linejoin="round" stroke-miterlimit="10" x1="126.057" y1="208.886" x2="150.59" y2="208.886"/>
	
		<line fill="none" stroke="#FFFFFF" stroke-linecap="round" stroke-linejoin="round" stroke-miterlimit="10" x1="126.057" y1="238.235" x2="150.59" y2="238.235"/>
	<path fill="none" stroke="#FFFFFF" stroke-linecap="round" stroke-linejoin="round" stroke-miterlimit="10" d="M127.325,228.954
		v4.03c0,1.409,1.142,2.551,2.551,2.551h16.895c1.409,0,2.551-1.142,2.551-2.551v-4.03c0-1.409-1.142-2.551-2.551-2.551h-16.895
		C128.467,226.403,127.325,227.545,127.325,228.954z"/>
</g>
<g>
	<path fill="none" stroke="#FFFFFF" stroke-linecap="round" stroke-linejoin="round" stroke-miterlimit="10" d="M153.795,43.828
		L153.795,43.828c1.746-1.746,2.727-4.114,2.727-6.582v-1.948c0-0.809-0.321-1.584-0.893-2.156l0,0
		c-0.416-0.416-0.98-0.649-1.568-0.649h-0.265l-0.111-0.111c-0.416-0.416-0.98-0.649-1.568-0.649h-1.047l-0.111-0.111
		c-0.416-0.416-0.98-0.649-1.568-0.649h-1.047v-4.305c0-0.849-0.611-1.622-1.455-1.707c-0.971-0.097-1.79,0.663-1.79,1.614v7.488
		l-1.035,1.035c-0.638,0.638-0.826,1.599-0.475,2.431l0.667,1.58c0.556,1.317,1.362,2.514,2.373,3.525l1.164,1.164"/>
	<path fill="none" stroke="#FFFFFF" stroke-linecap="round" stroke-linejoin="round" stroke-miterlimit="10" d="M150.23,29.149
		c0.713-0.822,1.16-1.881,1.16-3.054c0-2.586-2.096-4.682-4.681-4.682c-2.586,0-4.681,2.096-4.681,4.682
		c0,1.173,0.447,2.233,1.16,3.054"/>
</g>
<g>
	
		<line fill="none" stroke="#FFFFFF" stroke-width="2" stroke-linecap="round" stroke-linejoin="round" stroke-miterlimit="10" x1="104.133" y1="103.309" x2="104.133" y2="162.858"/>
	
		<line fill="none" stroke="#FFFFFF" stroke-width="2" stroke-linecap="round" stroke-linejoin="round" stroke-miterlimit="10" x1="74.45" y1="103.309" x2="74.45" y2="162.858"/>
	
		<rect x="74.45" y="91.685" fill="none" stroke="#FFFFFF" stroke-width="2" stroke-linecap="round" stroke-linejoin="round" stroke-miterlimit="10" width="29.683" height="11.624"/>
	<path fill="none" stroke="#FFFFFF" stroke-width="2" stroke-linecap="round" stroke-linejoin="round" stroke-miterlimit="10" d="
		M94.055,144.865h-9.528v-13.764c0-2.631,2.133-4.764,4.764-4.764h0c2.631,0,4.764,2.133,4.764,4.764V144.865z"/>
	
		<circle fill="none" stroke="#FFFFFF" stroke-width="2" stroke-linecap="round" stroke-linejoin="round" stroke-miterlimit="10" cx="89.291" cy="114.823" r="4.764"/>
	<path fill="none" stroke="#FFFFFF" stroke-width="2" stroke-linecap="round" stroke-linejoin="round" stroke-miterlimit="10" d="
		M92.663,159.486c0,1.862-1.509,3.372-3.372,3.372c-1.862,0-3.372-1.509-3.372-3.372c0-1.862,3.372-7.872,3.372-7.872
		S92.663,157.624,92.663,159.486z"/>
	
		<line fill="none" stroke="#FFFFFF" stroke-width="2" stroke-linecap="round" stroke-linejoin="round" stroke-miterlimit="10" x1="89.291" y1="151.615" x2="89.291" y2="144.865"/>
</g>
</svg>
