<?xml version="1.0" encoding="utf-8"?>
<!-- Generator: Adobe Illustrator 24.0.0, SVG Export Plug-In . SVG Version: 6.00 Build 0)  -->
<svg version="1.1" id="Laag_1" xmlns="http://www.w3.org/2000/svg" xmlns:xlink="http://www.w3.org/1999/xlink" x="0px" y="0px"
	 viewBox="0 0 178.583 277.795" enable-background="new 0 0 178.583 277.795" xml:space="preserve">
<path fill="#8C368C" d="M164.409,277.795H14.173C6.346,277.795,0,271.45,0,263.622V14.173C0,6.346,6.346,0,14.173,0h150.236
	c7.828,0,14.173,6.346,14.173,14.173v249.449C178.583,271.45,172.237,277.795,164.409,277.795z"/>
<g>
	<text transform="matrix(1 0 0 1 124.2233 252.3286)" fill="#FFFFFF" font-family="'Montserrat-Regular'" font-size="8px">iPhone</text>
</g>
<g>
	<text transform="matrix(1 0 0 1 30.6188 252.3288)" fill="#FFFFFF" font-family="'Montserrat-Regular'" font-size="8px">Kaart</text>
</g>
<g>
	<text transform="matrix(1 0 0 1 65.387 252.3291)" fill="#FFFFFF" font-family="'Montserrat-Regular'" font-size="8px">Parkeerplek</text>
</g>
<text transform="matrix(1 0 0 1 23.1642 37.5056)"><tspan x="0" y="0" fill="#FFFFFF" font-family="'Montserrat-ExtraBold'" font-size="14px" letter-spacing="1">SCHERMEN</tspan><tspan x="0" y="18" fill="#FFFFFF" font-family="'Montserrat-Regular'" font-size="10px">Billboard</tspan></text>
<g>
	<path fill="none" stroke="#FFFFFF" stroke-linecap="round" stroke-linejoin="round" stroke-miterlimit="10" d="M29.759,207.918
		v26.36c0,1.409,1.142,2.551,2.551,2.551h18.145c1.409,0,2.551-1.142,2.551-2.551v-26.36c0-1.409-1.142-2.551-2.551-2.551H32.31
		C30.901,205.367,29.759,206.51,29.759,207.918z"/>
	
		<line fill="none" stroke="#FFFFFF" stroke-linecap="round" stroke-linejoin="round" stroke-miterlimit="10" x1="53.006" y1="208.067" x2="29.759" y2="208.067"/>
	
		<line fill="none" stroke="#FFFFFF" stroke-linecap="round" stroke-linejoin="round" stroke-miterlimit="10" x1="29.759" y1="234.129" x2="53.006" y2="234.129"/>
	<path fill="none" stroke="#FFFFFF" stroke-linecap="round" stroke-linejoin="round" stroke-miterlimit="10" d="M46.874,220.198
		c0,1.361-2.464,4.264-2.464,4.264s-2.464-2.903-2.464-4.264c0-1.361,1.103-2.464,2.464-2.464S46.874,218.837,46.874,220.198z"/>
	
		<circle fill="none" stroke="#FFFFFF" stroke-linecap="round" stroke-linejoin="round" stroke-miterlimit="10" cx="44.41" cy="220.198" r="0.591"/>
	
		<line fill="none" stroke="#FFFFFF" stroke-linecap="round" stroke-linejoin="round" stroke-miterlimit="10" x1="40.145" y1="236.829" x2="40.145" y2="240.429"/>
	
		<line fill="none" stroke="#FFFFFF" stroke-linecap="round" stroke-linejoin="round" stroke-miterlimit="10" x1="43.745" y1="236.829" x2="43.745" y2="240.429"/>
	
		<line fill="none" stroke="#FFFFFF" stroke-linecap="round" stroke-linejoin="round" stroke-miterlimit="10" x1="29.759" y1="225.839" x2="36.489" y2="219.108"/>
	
		<line fill="none" stroke="#FFFFFF" stroke-linecap="round" stroke-linejoin="round" stroke-miterlimit="10" x1="36.489" y1="219.108" x2="47.455" y2="208.142"/>
	
		<line fill="none" stroke="#FFFFFF" stroke-linecap="round" stroke-linejoin="round" stroke-miterlimit="10" x1="29.759" y1="229.439" x2="34.539" y2="224.658"/>
	
		<line fill="none" stroke="#FFFFFF" stroke-linecap="round" stroke-linejoin="round" stroke-miterlimit="10" x1="32.739" y1="222.858" x2="38.139" y2="228.258"/>
	
		<line fill="none" stroke="#FFFFFF" stroke-linecap="round" stroke-linejoin="round" stroke-miterlimit="10" x1="32.268" y1="234.129" x2="43.334" y2="223.064"/>
	
		<line fill="none" stroke="#FFFFFF" stroke-linecap="round" stroke-linejoin="round" stroke-miterlimit="10" x1="46.874" y1="219.523" x2="53.006" y2="213.391"/>
	
		<line fill="none" stroke="#FFFFFF" stroke-linecap="round" stroke-linejoin="round" stroke-miterlimit="10" x1="53.006" y1="230.497" x2="45.522" y2="223.013"/>
	
		<line fill="none" stroke="#FFFFFF" stroke-linecap="round" stroke-linejoin="round" stroke-miterlimit="10" x1="53.006" y1="226.613" x2="45.49" y2="234.129"/>
	
		<line fill="none" stroke="#FFFFFF" stroke-linecap="round" stroke-linejoin="round" stroke-miterlimit="10" x1="53.006" y1="223.297" x2="42.653" y2="212.944"/>
	
		<line fill="none" stroke="#FFFFFF" stroke-linecap="round" stroke-linejoin="round" stroke-miterlimit="10" x1="36.489" y1="219.108" x2="29.759" y2="212.378"/>
	
		<line fill="none" stroke="#FFFFFF" stroke-linecap="round" stroke-linejoin="round" stroke-miterlimit="10" x1="29.759" y1="218.639" x2="32.889" y2="215.508"/>
</g>
<g>
	
		<line fill="none" stroke="#FFFFFF" stroke-linecap="round" stroke-linejoin="round" stroke-miterlimit="10" x1="85.194" y1="215.649" x2="82.313" y2="215.649"/>
	
		<rect x="73.168" y="210.708" fill="none" stroke="#FFFFFF" stroke-linecap="round" stroke-linejoin="round" stroke-miterlimit="10" width="32.248" height="19.762"/>
	
		<line fill="none" stroke="#FFFFFF" stroke-linecap="round" stroke-linejoin="round" stroke-miterlimit="10" x1="92.815" y1="208.108" x2="85.768" y2="208.108"/>
	
		<line fill="none" stroke="#FFFFFF" stroke-linecap="round" stroke-linejoin="round" stroke-miterlimit="10" x1="92.815" y1="233.17" x2="85.768" y2="233.17"/>
	
		<line fill="none" stroke="#FFFFFF" stroke-linecap="round" stroke-linejoin="round" stroke-miterlimit="10" x1="91.091" y1="233.17" x2="91.091" y2="237.688"/>
	
		<line fill="none" stroke="#FFFFFF" stroke-linecap="round" stroke-linejoin="round" stroke-miterlimit="10" x1="87.491" y1="233.17" x2="87.491" y2="237.688"/>
	
		<line fill="none" stroke="#FFFFFF" stroke-linecap="round" stroke-linejoin="round" stroke-miterlimit="10" x1="75.868" y1="220.589" x2="102.715" y2="220.589"/>
	<polygon fill="none" stroke="#FFFFFF" stroke-linecap="round" stroke-linejoin="round" stroke-miterlimit="10" points="
		79.274,223.511 77.064,225.153 79.274,226.794 	"/>
	<polygon fill="none" stroke="#FFFFFF" stroke-linecap="round" stroke-linejoin="round" stroke-miterlimit="10" points="
		79.811,216.504 78.169,214.294 76.527,216.504 	"/>
	<path fill="none" stroke="#FFFFFF" stroke-linecap="round" stroke-linejoin="round" stroke-miterlimit="10" d="M82.38,225.636
		h0.901c0.764,0,1.384-0.62,1.384-1.384c0-0.764-0.62-1.384-1.384-1.384H82.38v4.569"/>
	
		<rect x="87.754" y="223.289" fill="none" stroke="#FFFFFF" stroke-linecap="round" stroke-linejoin="round" stroke-miterlimit="10" width="14.961" height="4.481"/>
	
		<rect x="87.754" y="213.408" fill="none" stroke="#FFFFFF" stroke-linecap="round" stroke-linejoin="round" stroke-miterlimit="10" width="14.961" height="4.481"/>
</g>
<g>
	<path fill="none" stroke="#FFFFFF" stroke-linecap="round" stroke-linejoin="round" stroke-miterlimit="10" d="M144.214,235.67
		h-9.623c-1.409,0-2.551-1.142-2.551-2.551v-22.969c0-1.409,1.142-2.551,2.551-2.551h9.623c1.409,0,2.551,1.142,2.551,2.551v22.969
		C146.765,234.528,145.623,235.67,144.214,235.67z"/>
	
		<line fill="none" stroke="#FFFFFF" stroke-linecap="round" stroke-linejoin="round" stroke-miterlimit="10" x1="146.765" y1="210.149" x2="132.04" y2="210.149"/>
	
		<line fill="none" stroke="#FFFFFF" stroke-linecap="round" stroke-linejoin="round" stroke-miterlimit="10" x1="146.765" y1="233.119" x2="132.04" y2="233.119"/>
	
		<line fill="none" stroke="#FFFFFF" stroke-linecap="round" stroke-linejoin="round" stroke-miterlimit="10" x1="134.615" y1="226.216" x2="140.054" y2="220.777"/>
	
		<line fill="none" stroke="#FFFFFF" stroke-linecap="round" stroke-linejoin="round" stroke-miterlimit="10" x1="142.917" y1="217.914" x2="141.582" y2="219.249"/>
	
		<line fill="none" stroke="#FFFFFF" stroke-linecap="round" stroke-linejoin="round" stroke-miterlimit="10" x1="136.859" y1="220.372" x2="142.979" y2="214.252"/>
	
		<line fill="none" stroke="#FFFFFF" stroke-linecap="round" stroke-linejoin="round" stroke-miterlimit="10" x1="140.059" y1="228.372" x2="143.412" y2="225.019"/>
</g>
<g>
	
		<rect x="48.982" y="95.105" fill="none" stroke="#FFFFFF" stroke-width="2" stroke-linecap="round" stroke-linejoin="round" stroke-miterlimit="10" width="80.619" height="56.155"/>
	
		<line fill="none" stroke="#FFFFFF" stroke-width="2" stroke-linecap="round" stroke-linejoin="round" stroke-miterlimit="10" x1="75.982" y1="158.01" x2="102.601" y2="158.01"/>
	
		<line fill="none" stroke="#FFFFFF" stroke-width="2" stroke-linecap="round" stroke-linejoin="round" stroke-miterlimit="10" x1="42.232" y1="131.01" x2="42.232" y2="144.51"/>
	
		<line fill="none" stroke="#FFFFFF" stroke-width="2" stroke-linecap="round" stroke-linejoin="round" stroke-miterlimit="10" x1="84.791" y1="158.01" x2="84.791" y2="167.01"/>
	
		<line fill="none" stroke="#FFFFFF" stroke-width="2" stroke-linecap="round" stroke-linejoin="round" stroke-miterlimit="10" x1="93.791" y1="158.01" x2="93.791" y2="167.01"/>
	
		<rect x="55.732" y="101.855" fill="none" stroke="#FFFFFF" stroke-width="2" stroke-linecap="round" stroke-linejoin="round" stroke-miterlimit="10" width="67.119" height="35.905"/>
	
		<line fill="none" stroke="#FFFFFF" stroke-width="2" stroke-linecap="round" stroke-linejoin="round" stroke-miterlimit="10" x1="136.351" y1="131.01" x2="136.351" y2="144.51"/>
	<path fill="none" stroke="#FFFFFF" stroke-width="2" stroke-linecap="round" stroke-linejoin="round" stroke-miterlimit="10" d="
		M91.543,137.76l-12.052-13.927c-1.272-1.47-3.551-1.47-4.823,0L62.616,137.76"/>
	<path fill="none" stroke="#FFFFFF" stroke-width="2" stroke-linecap="round" stroke-linejoin="round" stroke-miterlimit="10" d="
		M115.967,137.76l-16.226-18.75c-1.272-1.47-3.551-1.47-4.823,0l-9.801,11.325"/>
	
		<circle fill="none" stroke="#FFFFFF" stroke-width="2" stroke-linecap="round" stroke-linejoin="round" stroke-miterlimit="10" cx="67.498" cy="113.621" r="5.016"/>
</g>
<g>
	
		<rect x="141.167" y="26.193" fill="none" stroke="#FFFFFF" stroke-linecap="round" stroke-linejoin="round" stroke-miterlimit="10" width="16.216" height="11.418"/>
	
		<line fill="none" stroke="#FFFFFF" stroke-linecap="round" stroke-linejoin="round" stroke-miterlimit="10" x1="152.738" y1="40.411" x2="145.811" y2="40.411"/>
	
		<line fill="none" stroke="#FFFFFF" stroke-linecap="round" stroke-linejoin="round" stroke-miterlimit="10" x1="157.383" y1="35.106" x2="141.167" y2="35.106"/>
	
		<line fill="none" stroke="#FFFFFF" stroke-linecap="round" stroke-linejoin="round" stroke-miterlimit="10" x1="144.7" y1="35.106" x2="149.672" y2="30.134"/>
	
		<line fill="none" stroke="#FFFFFF" stroke-linecap="round" stroke-linejoin="round" stroke-miterlimit="10" x1="150.704" y1="31.902" x2="153.872" y2="28.734"/>
</g>
</svg>
