<?xml version="1.0" encoding="utf-8"?>
<!-- Generator: Adobe Illustrator 24.0.0, SVG Export Plug-In . SVG Version: 6.00 Build 0)  -->
<svg version="1.1" id="Laag_1" xmlns="http://www.w3.org/2000/svg" xmlns:xlink="http://www.w3.org/1999/xlink" x="0px" y="0px"
	 viewBox="0 0 178.583 277.795" enable-background="new 0 0 178.583 277.795" xml:space="preserve">
<path fill="#0080BB" d="M164.409,277.795H14.173C6.346,277.795,0,271.45,0,263.622V14.173C0,6.346,6.346,0,14.173,0h150.236
	c7.828,0,14.173,6.346,14.173,14.173v249.449C178.583,271.45,172.237,277.795,164.409,277.795z"/>
<g>
	<text transform="matrix(1 0 0 1 126.9119 252.3286)" fill="#FFFFFF" font-family="'Montserrat-Regular'" font-size="8px">Kassa</text>
</g>
<g>
	<text transform="matrix(1 0 0 1 15.2947 252.3287)" fill="#FFFFFF" font-family="'Montserrat-Regular'" font-size="8px">Weegschaal</text>
</g>
<g>
	<text transform="matrix(1 0 0 1 70.112 252.3291)" fill="#FFFFFF" font-family="'Montserrat-Regular'" font-size="8px">Wagentje</text>
</g>
<text transform="matrix(1 0 0 1 23.1643 37.5056)"><tspan x="0" y="0" fill="#FFFFFF" font-family="'Montserrat-ExtraBold'" font-size="14px" letter-spacing="1">SUPERMARKT</tspan><tspan x="0" y="18" fill="#FFFFFF" font-family="'Montserrat-Regular'" font-size="10px">Scanner</tspan></text>
<g>
	<path fill="none" stroke="#FFFFFF" stroke-linecap="round" stroke-linejoin="round" stroke-miterlimit="10" d="M145.687,36.984"/>
	
		<line fill="none" stroke="#FFFFFF" stroke-linecap="round" stroke-linejoin="round" stroke-miterlimit="10" x1="158.679" y1="24.384" x2="161.129" y2="24.384"/>
	
		<circle fill="none" stroke="#FFFFFF" stroke-linecap="round" stroke-linejoin="round" stroke-miterlimit="10" cx="152.671" cy="40.916" r="0.782"/>
	
		<circle fill="none" stroke="#FFFFFF" stroke-linecap="round" stroke-linejoin="round" stroke-miterlimit="10" cx="144.97" cy="40.916" r="0.782"/>
	<polyline fill="none" stroke="#FFFFFF" stroke-linecap="round" stroke-linejoin="round" stroke-miterlimit="10" points="
		152.257,33.834 142.234,33.834 140.052,27.534 157.588,27.534 154.316,36.984 143.324,36.984 	"/>
</g>
<g>
	
		<circle fill="none" stroke="#FFFFFF" stroke-linecap="round" stroke-linejoin="round" stroke-miterlimit="10" cx="83.441" cy="224.521" r="3.518"/>
	<path fill="none" stroke="#FFFFFF" stroke-linecap="round" stroke-linejoin="round" stroke-miterlimit="10" d="M84.024,223.253
		c-0.699,0-1.268,0.569-1.268,1.268c0,0.7,0.569,1.268,1.268,1.268"/>
	<path fill="none" stroke="#FFFFFF" stroke-linecap="round" stroke-linejoin="round" stroke-miterlimit="10" d="M92.373,218.303
		h5.386v-0.9h2.324c0.704,0,1.276,0.571,1.276,1.276v15.285c0,0.704-0.571,1.276-1.276,1.276H84.717
		c-0.704,0-1.276-0.571-1.276-1.276v-4.125c2.932,0,5.318-2.385,5.318-5.317c0-2.933-2.385-5.318-5.318-5.318v-0.524
		c0-0.704,0.571-1.276,1.276-1.276H92.4L92.373,218.303z"/>
	
		<line fill="none" stroke="#FFFFFF" stroke-linecap="round" stroke-linejoin="round" stroke-miterlimit="10" x1="77.223" y1="224.521" x2="77.223" y2="232.539"/>
	
		<line fill="none" stroke="#FFFFFF" stroke-linecap="round" stroke-linejoin="round" stroke-miterlimit="10" x1="80.46" y1="230.739" x2="83.441" y2="230.739"/>
	<path fill="none" stroke="#FFFFFF" stroke-linecap="round" stroke-linejoin="round" stroke-miterlimit="10" d="M96.108,228.039
		h-2.084c-1.409,0-2.551-1.142-2.551-2.551v-1.934c0-1.409,1.142-2.551,2.551-2.551h2.084c1.409,0,2.551,1.142,2.551,2.551v1.934
		C98.659,226.897,97.517,228.039,96.108,228.039z"/>
	<path fill="none" stroke="#FFFFFF" stroke-linecap="round" stroke-linejoin="round" stroke-miterlimit="10" d="M93.148,205.482
		L93.148,205.482c-0.426,0.426-0.426,1.116,0,1.542l1.004,1.004c0.426,0.426,1.116,0.426,1.542,0l0,0
		c0.426-0.426,0.426-1.116,0-1.542l-1.004-1.004C94.264,205.056,93.573,205.056,93.148,205.482z"/>
	<path fill="none" stroke="#FFFFFF" stroke-linecap="round" stroke-linejoin="round" stroke-miterlimit="10" d="M88.123,208.027
		L88.123,208.027c0.426,0.426,1.116,0.426,1.542,0l1.004-1.004c0.426-0.426,0.426-1.116,0-1.542l0,0
		c-0.426-0.426-1.116-0.426-1.542,0l-1.004,1.004C87.697,206.911,87.697,207.601,88.123,208.027z"/>
	
		<line fill="none" stroke="#FFFFFF" stroke-linecap="round" stroke-linejoin="round" stroke-miterlimit="10" x1="93.273" y1="218.303" x2="93.273" y2="215.603"/>
	
		<line fill="none" stroke="#FFFFFF" stroke-linecap="round" stroke-linejoin="round" stroke-miterlimit="10" x1="96.859" y1="218.303" x2="96.859" y2="215.603"/>
	<path fill="none" stroke="#FFFFFF" stroke-linecap="round" stroke-linejoin="round" stroke-miterlimit="10" d="M96.484,210.217
		h-2.835c-0.704,0-1.276,0.571-1.276,1.276v4.11h5.386v-4.11C97.759,210.788,97.188,210.217,96.484,210.217z"/>
	
		<line fill="none" stroke="#FFFFFF" stroke-linecap="round" stroke-linejoin="round" stroke-miterlimit="10" x1="95.066" y1="211.117" x2="95.066" y2="207.517"/>
	
		<line fill="none" stroke="#FFFFFF" stroke-linecap="round" stroke-linejoin="round" stroke-miterlimit="10" x1="93.754" y1="206.152" x2="90.154" y2="206.152"/>
	
		<line fill="none" stroke="#FFFFFF" stroke-linecap="round" stroke-linejoin="round" stroke-miterlimit="10" x1="83.39" y1="224.521" x2="82.122" y2="224.521"/>
</g>
<g>
	
		<circle fill="none" stroke="#FFFFFF" stroke-linecap="round" stroke-linejoin="round" stroke-miterlimit="10" cx="123.962" cy="234.414" r="0.156"/>
	
		<circle fill="none" stroke="#FFFFFF" stroke-linecap="round" stroke-linejoin="round" stroke-miterlimit="10" cx="125.762" cy="234.414" r="0.156"/>
	
		<circle fill="none" stroke="#FFFFFF" stroke-linecap="round" stroke-linejoin="round" stroke-miterlimit="10" cx="127.562" cy="234.414" r="0.156"/>
	
		<circle fill="none" stroke="#FFFFFF" stroke-linecap="round" stroke-linejoin="round" stroke-miterlimit="10" cx="123.962" cy="236.214" r="0.156"/>
	
		<circle fill="none" stroke="#FFFFFF" stroke-linecap="round" stroke-linejoin="round" stroke-miterlimit="10" cx="125.762" cy="236.214" r="0.156"/>
	
		<circle fill="none" stroke="#FFFFFF" stroke-linecap="round" stroke-linejoin="round" stroke-miterlimit="10" cx="127.562" cy="236.214" r="0.156"/>
	
		<circle fill="none" stroke="#FFFFFF" stroke-linecap="round" stroke-linejoin="round" stroke-miterlimit="10" cx="123.962" cy="238.014" r="0.156"/>
	
		<circle fill="none" stroke="#FFFFFF" stroke-linecap="round" stroke-linejoin="round" stroke-miterlimit="10" cx="125.762" cy="238.014" r="0.156"/>
	
		<circle fill="none" stroke="#FFFFFF" stroke-linecap="round" stroke-linejoin="round" stroke-miterlimit="10" cx="127.562" cy="238.014" r="0.156"/>
	
		<rect x="123.65" y="229.758" fill="none" stroke="#FFFFFF" stroke-linecap="round" stroke-linejoin="round" stroke-miterlimit="10" width="4.225" height="2.7"/>
	<path fill="none" stroke="#FFFFFF" stroke-linecap="round" stroke-linejoin="round" stroke-miterlimit="10" d="M120.95,229.609
		v8.705c0,1.409,1.142,2.551,2.551,2.551h4.523c1.409,0,2.551-1.142,2.551-2.551v-8.705c0-1.409-1.142-2.551-2.551-2.551h-4.522
		C122.092,227.058,120.95,228.2,120.95,229.609z"/>
	<path fill="none" stroke="#FFFFFF" stroke-linecap="round" stroke-linejoin="round" stroke-miterlimit="10" d="M147.299,224.358
		h-19.573c-1.409,0-2.551-1.142-2.551-2.551v-15.185c0-1.409,1.142-2.551,2.551-2.551h19.573c1.409,0,2.551,1.142,2.551,2.551
		v15.185C149.85,223.216,148.708,224.358,147.299,224.358z"/>
	
		<rect x="127.875" y="206.771" fill="none" stroke="#FFFFFF" stroke-linecap="round" stroke-linejoin="round" stroke-miterlimit="10" width="19.276" height="14.887"/>
	
		<rect x="135.975" y="227.058" fill="none" stroke="#FFFFFF" stroke-linecap="round" stroke-linejoin="round" stroke-miterlimit="10" width="3.076" height="2.7"/>
	
		<rect x="145.35" y="227.058" fill="none" stroke="#FFFFFF" stroke-linecap="round" stroke-linejoin="round" stroke-miterlimit="10" width="9.376" height="6.3"/>
	
		<rect x="148.05" y="228.858" fill="none" stroke="#FFFFFF" stroke-linecap="round" stroke-linejoin="round" stroke-miterlimit="10" width="3.976" height="1.8"/>
	
		<line fill="none" stroke="#FFFFFF" stroke-linecap="round" stroke-linejoin="round" stroke-miterlimit="10" x1="133.275" y1="236.058" x2="133.275" y2="227.058"/>
	
		<line fill="none" stroke="#FFFFFF" stroke-linecap="round" stroke-linejoin="round" stroke-miterlimit="10" x1="141.75" y1="227.058" x2="141.75" y2="236.058"/>
	
		<line fill="none" stroke="#FFFFFF" stroke-linecap="round" stroke-linejoin="round" stroke-miterlimit="10" x1="145.35" y1="229.758" x2="141.75" y2="229.758"/>
</g>
<g>
	
		<rect x="26.729" y="229.877" fill="none" stroke="#FFFFFF" stroke-linecap="round" stroke-linejoin="round" stroke-miterlimit="10" width="23.636" height="6.121"/>
	<path fill="none" stroke="#FFFFFF" stroke-linecap="round" stroke-linejoin="round" stroke-miterlimit="10" d="M30.329,208.56
		v7.498c0,1.409,1.142,2.551,2.551,2.551h11.334c1.409,0,2.551-1.142,2.551-2.551v-7.498c0-1.409-1.142-2.551-2.551-2.551H32.88
		C31.471,206.009,30.329,207.151,30.329,208.56z"/>
	
		<line fill="none" stroke="#FFFFFF" stroke-linecap="round" stroke-linejoin="round" stroke-miterlimit="10" x1="47.665" y1="234.198" x2="47.665" y2="231.677"/>
	
		<line fill="none" stroke="#FFFFFF" stroke-linecap="round" stroke-linejoin="round" stroke-miterlimit="10" x1="45.865" y1="227.177" x2="31.229" y2="227.177"/>
	
		<rect x="33.029" y="208.709" fill="none" stroke="#FFFFFF" stroke-linecap="round" stroke-linejoin="round" stroke-miterlimit="10" width="11.036" height="7.2"/>
	
		<line fill="none" stroke="#FFFFFF" stroke-linecap="round" stroke-linejoin="round" stroke-miterlimit="10" x1="48.565" y1="224.477" x2="28.529" y2="224.477"/>
	<path fill="none" stroke="#FFFFFF" stroke-linecap="round" stroke-linejoin="round" stroke-miterlimit="10" d="M38.547,218.609"/>
	
		<line fill="none" stroke="#FFFFFF" stroke-linecap="round" stroke-linejoin="round" stroke-miterlimit="10" x1="40.347" y1="218.609" x2="40.347" y2="221.777"/>
	
		<line fill="none" stroke="#FFFFFF" stroke-linecap="round" stroke-linejoin="round" stroke-miterlimit="10" x1="36.747" y1="218.609" x2="36.747" y2="221.777"/>
</g>
<g>
	
		<rect x="75.128" y="92.92" fill="none" stroke="#FFFFFF" stroke-width="2" stroke-linecap="round" stroke-linejoin="round" stroke-miterlimit="10" width="28.327" height="50.691"/>
	
		<rect x="81.878" y="130.111" fill="none" stroke="#FFFFFF" stroke-width="2" stroke-linecap="round" stroke-linejoin="round" stroke-miterlimit="10" width="14.827" height="6.75"/>
	
		<line fill="none" stroke="#FFFFFF" stroke-width="2" stroke-linecap="round" stroke-linejoin="round" stroke-miterlimit="10" x1="81.878" y1="101.77" x2="94.455" y2="101.77"/>
	
		<line fill="none" stroke="#FFFFFF" stroke-width="2" stroke-linecap="round" stroke-linejoin="round" stroke-miterlimit="10" x1="81.878" y1="108.52" x2="94.455" y2="108.52"/>
	
		<line fill="none" stroke="#FFFFFF" stroke-width="2" stroke-linecap="round" stroke-linejoin="round" stroke-miterlimit="10" x1="81.878" y1="115.27" x2="94.455" y2="115.27"/>
	
		<line fill="none" stroke="#FFFFFF" stroke-width="2" stroke-linecap="round" stroke-linejoin="round" stroke-miterlimit="10" x1="81.878" y1="122.02" x2="89.955" y2="122.02"/>
	<path fill="none" stroke="#FFFFFF" stroke-width="2" stroke-linecap="round" stroke-linejoin="round" stroke-miterlimit="10" d="
		M91.742,152.355H86.84c-0.881,0-1.594-0.714-1.594-1.594v-1.055c0-0.881,0.714-1.594,1.594-1.594h4.902
		c0.881,0,1.594,0.714,1.594,1.594v1.055C93.337,151.641,92.623,152.355,91.742,152.355z"/>
	<path fill="none" stroke="#FFFFFF" stroke-width="2" stroke-linecap="round" stroke-linejoin="round" stroke-miterlimit="10" d="
		M103.827,83.92H74.756c-3.522,0-6.378,2.855-6.378,6.378v56.932c0,3.523,2.856,6.378,6.378,6.378h5.051
		c1.761,0,3.189,1.428,3.189,3.189v14.528c0,2.642,2.142,4.783,4.783,4.783h3.024c2.642,0,4.783-2.142,4.783-4.783v-14.528
		c0-1.761,1.428-3.189,3.189-3.189h5.051c3.522,0,6.378-2.855,6.378-6.378V90.298C110.205,86.776,107.349,83.92,103.827,83.92z"/>
</g>
</svg>
