<?xml version="1.0" encoding="utf-8"?>
<!-- Generator: Adobe Illustrator 24.0.0, SVG Export Plug-In . SVG Version: 6.00 Build 0)  -->
<svg version="1.1" id="Laag_1" xmlns="http://www.w3.org/2000/svg" xmlns:xlink="http://www.w3.org/1999/xlink" x="0px" y="0px"
	 viewBox="0 0 178.583 277.795" enable-background="new 0 0 178.583 277.795" xml:space="preserve">
<path fill="#009E4D" d="M164.409,277.795H14.173C6.346,277.795,0,271.45,0,263.622V14.173C0,6.346,6.346,0,14.173,0h150.236
	c7.828,0,14.173,6.346,14.173,14.173v249.449C178.583,271.45,172.237,277.795,164.409,277.795z"/>
<g>
	<path fill="none" stroke="#FFFFFF" stroke-linecap="round" stroke-linejoin="round" stroke-miterlimit="10" d="M97.11,239.777
		H81.473c-1.409,0-2.551-1.142-2.551-2.551v-30.851c0-1.409,1.142-2.551,2.551-2.551H97.11c1.409,0,2.551,1.142,2.551,2.551v30.851
		C99.661,238.635,98.519,239.777,97.11,239.777z"/>
	
		<line fill="none" stroke="#FFFFFF" stroke-linecap="round" stroke-linejoin="round" stroke-miterlimit="10" x1="84.322" y1="233.477" x2="84.322" y2="213.175"/>
	
		<line fill="none" stroke="#FFFFFF" stroke-linecap="round" stroke-linejoin="round" stroke-miterlimit="10" x1="99.661" y1="236.177" x2="78.922" y2="236.177"/>
	
		<rect x="80.722" y="213.175" fill="none" stroke="#FFFFFF" stroke-linecap="round" stroke-linejoin="round" stroke-miterlimit="10" width="1.8" height="1.814"/>
	
		<rect x="80.681" y="231.076" fill="none" stroke="#FFFFFF" stroke-linecap="round" stroke-linejoin="round" stroke-miterlimit="10" width="1.8" height="1.814"/>
	
		<rect x="80.98" y="226.965" transform="matrix(0.7071 0.7071 -0.7071 0.7071 184.8108 8.9674)" fill="none" stroke="#FFFFFF" stroke-linecap="round" stroke-linejoin="round" stroke-miterlimit="10" width="1.201" height="1.21"/>
	<polygon fill="none" stroke="#FFFFFF" stroke-linecap="round" stroke-linejoin="round" stroke-miterlimit="10" points="
		81.622,222.245 80.722,224.059 82.522,224.059 	"/>
	
		<rect x="80.722" y="206.847" fill="none" stroke="#FFFFFF" stroke-linecap="round" stroke-linejoin="round" stroke-miterlimit="10" width="3.6" height="3.628"/>
	
		<line fill="none" stroke="#FFFFFF" stroke-linecap="round" stroke-linejoin="round" stroke-miterlimit="10" x1="87.022" y1="208.661" x2="94.529" y2="208.661"/>
	
		<circle fill="none" stroke="#FFFFFF" stroke-linecap="round" stroke-linejoin="round" stroke-miterlimit="10" cx="81.622" cy="218.589" r="0.9"/>
	<g>
		<path fill="none" stroke="#FFFFFF" stroke-linecap="round" stroke-linejoin="round" stroke-miterlimit="10" d="M94.345,219.794
			h-4.706c-0.451,0-0.816-0.366-0.816-0.816v-0.016c0-0.451,0.366-0.816,0.816-0.816h4.706c0.451,0,0.816,0.366,0.816,0.816v0.016
			C95.161,219.428,94.795,219.794,94.345,219.794z"/>
		<path fill="none" stroke="#FFFFFF" stroke-linecap="round" stroke-linejoin="round" stroke-miterlimit="10" d="M95.161,223.394
			v0.016c0,0.451-0.366,0.816-0.816,0.816h-4.706c-0.451,0-0.816-0.366-0.816-0.816v-0.016"/>
		
			<line fill="none" stroke="#FFFFFF" stroke-linecap="round" stroke-linejoin="round" stroke-miterlimit="10" x1="96.061" y1="221.594" x2="87.922" y2="221.594"/>
		<path fill="none" stroke="#FFFFFF" stroke-linecap="round" stroke-linejoin="round" stroke-miterlimit="10" d="M91.991,213.175
			c-1.751,0-3.17,1.419-3.17,3.17h6.339C95.161,214.594,93.742,213.175,91.991,213.175z"/>
	</g>
	
		<line fill="none" stroke="#FFFFFF" stroke-linecap="round" stroke-linejoin="round" stroke-miterlimit="10" x1="92.33" y1="229.647" x2="92.33" y2="232.505"/>
	
		<line fill="none" stroke="#FFFFFF" stroke-linecap="round" stroke-linejoin="round" stroke-miterlimit="10" x1="96.009" y1="230.097" x2="96.009" y2="232.055"/>
	
		<line fill="none" stroke="#FFFFFF" stroke-linecap="round" stroke-linejoin="round" stroke-miterlimit="10" x1="95.03" y1="231.076" x2="96.988" y2="231.076"/>
	
		<line fill="none" stroke="#FFFFFF" stroke-linecap="round" stroke-linejoin="round" stroke-miterlimit="10" x1="87.672" y1="231.076" x2="89.63" y2="231.076"/>
</g>
<g>
	
		<line fill="none" stroke="#FFFFFF" stroke-linecap="round" stroke-linejoin="round" stroke-miterlimit="10" x1="149.042" y1="230.641" x2="149.042" y2="232.15"/>
	
		<line fill="none" stroke="#FFFFFF" stroke-linecap="round" stroke-linejoin="round" stroke-miterlimit="10" x1="149.042" y1="226.21" x2="149.042" y2="227.764"/>
	
		<line fill="none" stroke="#FFFFFF" stroke-linecap="round" stroke-linejoin="round" stroke-miterlimit="10" x1="149.042" y1="221.824" x2="149.042" y2="223.379"/>
	<polyline fill="none" stroke="#FFFFFF" stroke-linecap="round" stroke-linejoin="round" stroke-miterlimit="10" points="
		149.042,234.981 149.042,237.313 130.147,237.313 130.147,216.662 149.042,216.662 149.042,218.994 	"/>
	
		<rect x="133.256" y="221.326" fill="none" stroke="#FFFFFF" stroke-linecap="round" stroke-linejoin="round" stroke-miterlimit="10" width="3.109" height="11.323"/>
	
		<line fill="none" stroke="#FFFFFF" stroke-linecap="round" stroke-linejoin="round" stroke-miterlimit="10" x1="127.815" y1="237.313" x2="127.815" y2="216.662"/>
	
		<rect x="143.145" y="218.994" fill="none" stroke="#FFFFFF" stroke-linecap="round" stroke-linejoin="round" stroke-miterlimit="10" width="8.229" height="2.831"/>
	
		<rect x="143.145" y="223.379" fill="none" stroke="#FFFFFF" stroke-linecap="round" stroke-linejoin="round" stroke-miterlimit="10" width="8.229" height="2.831"/>
	
		<rect x="143.145" y="227.764" fill="none" stroke="#FFFFFF" stroke-linecap="round" stroke-linejoin="round" stroke-miterlimit="10" width="8.229" height="2.831"/>
	
		<line fill="none" stroke="#FFFFFF" stroke-linecap="round" stroke-linejoin="round" stroke-miterlimit="10" x1="140.813" y1="221.825" x2="140.813" y2="218.994"/>
	
		<line fill="none" stroke="#FFFFFF" stroke-linecap="round" stroke-linejoin="round" stroke-miterlimit="10" x1="140.813" y1="226.21" x2="140.813" y2="223.379"/>
	
		<line fill="none" stroke="#FFFFFF" stroke-linecap="round" stroke-linejoin="round" stroke-miterlimit="10" x1="140.813" y1="230.595" x2="140.813" y2="227.764"/>
	
		<rect x="143.145" y="232.15" fill="none" stroke="#FFFFFF" stroke-linecap="round" stroke-linejoin="round" stroke-miterlimit="10" width="8.229" height="2.831"/>
	
		<line fill="none" stroke="#FFFFFF" stroke-linecap="round" stroke-linejoin="round" stroke-miterlimit="10" x1="140.813" y1="234.981" x2="140.813" y2="232.15"/>
	<path fill="none" stroke="#FFFFFF" stroke-linecap="round" stroke-linejoin="round" stroke-miterlimit="10" d="M130.147,214.486
		c0-4.725,3.831-8.556,8.556-8.556c4.725,0,8.556,3.831,8.556,8.556"/>
</g>
<g>
	<path fill="none" stroke="#FFFFFF" stroke-linecap="round" stroke-linejoin="round" stroke-miterlimit="10" d="M48.12,212.9
		c0,0-0.627-2.663-1.929-3.097c-1.302-0.434-3.714-0.579-5.74-0.579c-2.026,0-4.438,0.145-5.74,0.579
		c-1.302,0.434-1.929,3.097-1.929,3.097"/>
	<path fill="none" stroke="#FFFFFF" stroke-linecap="round" stroke-linejoin="round" stroke-miterlimit="10" d="M36.331,214.7
		h-2.837c-0.394,0-0.714-0.319-0.714-0.714V212.9h4.264v1.086C37.044,214.381,36.725,214.7,36.331,214.7z"/>
	<path fill="none" stroke="#FFFFFF" stroke-linecap="round" stroke-linejoin="round" stroke-miterlimit="10" d="M47.406,214.7H44.57
		c-0.394,0-0.714-0.319-0.714-0.714V212.9h4.264v1.086C48.12,214.381,47.8,214.7,47.406,214.7z"/>
	<path fill="none" stroke="#FFFFFF" stroke-linecap="round" stroke-linejoin="round" stroke-miterlimit="10" d="M37.044,212.9
		c0,0,0.129-1.838,3.406-1.838c3.276,0,3.406,1.838,3.406,1.838"/>
	
		<circle fill="none" stroke="#FFFFFF" stroke-linecap="round" stroke-linejoin="round" stroke-miterlimit="10" cx="42.146" cy="218.782" r="0.481"/>
	
		<circle fill="none" stroke="#FFFFFF" stroke-linecap="round" stroke-linejoin="round" stroke-miterlimit="10" cx="44.875" cy="218.782" r="0.481"/>
	
		<circle fill="none" stroke="#FFFFFF" stroke-linecap="round" stroke-linejoin="round" stroke-miterlimit="10" cx="47.638" cy="218.782" r="0.481"/>
	
		<circle fill="none" stroke="#FFFFFF" stroke-linecap="round" stroke-linejoin="round" stroke-miterlimit="10" cx="42.146" cy="221.544" r="0.481"/>
	
		<circle fill="none" stroke="#FFFFFF" stroke-linecap="round" stroke-linejoin="round" stroke-miterlimit="10" cx="44.875" cy="221.544" r="0.481"/>
	
		<circle fill="none" stroke="#FFFFFF" stroke-linecap="round" stroke-linejoin="round" stroke-miterlimit="10" cx="47.638" cy="221.544" r="0.481"/>
	
		<circle fill="none" stroke="#FFFFFF" stroke-linecap="round" stroke-linejoin="round" stroke-miterlimit="10" cx="42.146" cy="224.307" r="0.481"/>
	
		<circle fill="none" stroke="#FFFFFF" stroke-linecap="round" stroke-linejoin="round" stroke-miterlimit="10" cx="44.875" cy="224.307" r="0.481"/>
	
		<circle fill="none" stroke="#FFFFFF" stroke-linecap="round" stroke-linejoin="round" stroke-miterlimit="10" cx="44.875" cy="227.07" r="0.481"/>
	
		<circle fill="none" stroke="#FFFFFF" stroke-linecap="round" stroke-linejoin="round" stroke-miterlimit="10" cx="47.638" cy="224.307" r="0.481"/>
	
		<line fill="none" stroke="#FFFFFF" stroke-linecap="round" stroke-linejoin="round" stroke-miterlimit="10" x1="47.157" y1="227.07" x2="48.12" y2="227.07"/>
	
		<line fill="none" stroke="#FFFFFF" stroke-linecap="round" stroke-linejoin="round" stroke-miterlimit="10" x1="41.665" y1="227.07" x2="42.628" y2="227.07"/>
	
		<rect x="32.78" y="219.263" fill="none" stroke="#FFFFFF" stroke-linecap="round" stroke-linejoin="round" stroke-miterlimit="10" width="6.185" height="6.454"/>
	
		<line fill="none" stroke="#FFFFFF" stroke-linecap="round" stroke-linejoin="round" stroke-miterlimit="10" x1="33.68" y1="230.763" x2="38.065" y2="230.763"/>
	<path fill="none" stroke="#FFFFFF" stroke-linecap="round" stroke-linejoin="round" stroke-miterlimit="10" d="M40.615,235.002
		h-7.983c-1.409,0-2.551-1.142-2.551-2.551v-15.199c0-1.409,1.142-2.551,2.551-2.551h15.637c1.409,0,2.551,1.142,2.551,2.551v7.546
		C50.82,230.433,46.251,235.002,40.615,235.002z"/>
	<path fill="none" stroke="#FFFFFF" stroke-linecap="round" stroke-linejoin="round" stroke-miterlimit="10" d="M30.08,221.544
		h-4.745c-1.807,0-3.369,1.465-3.28,3.27c0.078,1.597,1.359,2.878,2.956,2.956c1.805,0.088,3.27-1.473,3.27-3.28l0-8.041
		c0-2.691,2.182-4.873,4.873-4.873h0.011"/>
	<path fill="none" stroke="#FFFFFF" stroke-linecap="round" stroke-linejoin="round" stroke-miterlimit="10" d="M44.875,234.102
		h2.493c1.409,0,2.551-1.142,2.551-2.551v-2.56"/>
	
		<circle fill="none" stroke="#FFFFFF" stroke-linecap="round" stroke-linejoin="round" stroke-miterlimit="10" cx="35.873" cy="230.763" r="1.539"/>
</g>
<g>
	<text transform="matrix(1 0 0 1 120.6716 252.3286)" fill="#FFFFFF" font-family="'Montserrat-Regular'" font-size="8px">Cijferslot</text>
</g>
<g>
	<text transform="matrix(1 0 0 1 22.159 252.3288)" fill="#FFFFFF" font-family="'Montserrat-Regular'" font-size="8px">Telefoon</text>
</g>
<g>
	<text transform="matrix(1 0 0 1 66.9514 252.3291)" fill="#FFFFFF" font-family="'Montserrat-Regular'" font-size="8px">McDonalds</text>
</g>
<g>
	
		<circle fill="none" stroke="#FFFFFF" stroke-width="1.2405" stroke-linecap="round" stroke-linejoin="round" stroke-miterlimit="10" cx="140.594" cy="23.792" r="1.667"/>
	
		<circle fill="none" stroke="#FFFFFF" stroke-width="1.2405" stroke-linecap="round" stroke-linejoin="round" stroke-miterlimit="10" cx="146.728" cy="23.792" r="1.667"/>
	
		<circle fill="none" stroke="#FFFFFF" stroke-width="1.2405" stroke-linecap="round" stroke-linejoin="round" stroke-miterlimit="10" cx="152.862" cy="23.792" r="1.667"/>
	
		<circle fill="none" stroke="#FFFFFF" stroke-width="1.2405" stroke-linecap="round" stroke-linejoin="round" stroke-miterlimit="10" cx="140.594" cy="29.925" r="1.667"/>
	
		<circle fill="none" stroke="#FFFFFF" stroke-width="1.2405" stroke-linecap="round" stroke-linejoin="round" stroke-miterlimit="10" cx="146.728" cy="29.925" r="1.667"/>
	
		<circle fill="none" stroke="#FFFFFF" stroke-width="1.2405" stroke-linecap="round" stroke-linejoin="round" stroke-miterlimit="10" cx="152.862" cy="29.925" r="1.667"/>
	
		<circle fill="none" stroke="#FFFFFF" stroke-width="1.2405" stroke-linecap="round" stroke-linejoin="round" stroke-miterlimit="10" cx="140.594" cy="36.059" r="1.667"/>
	
		<circle fill="none" stroke="#FFFFFF" stroke-width="1.2405" stroke-linecap="round" stroke-linejoin="round" stroke-miterlimit="10" cx="146.728" cy="36.059" r="1.667"/>
	
		<circle fill="none" stroke="#FFFFFF" stroke-width="1.2405" stroke-linecap="round" stroke-linejoin="round" stroke-miterlimit="10" cx="146.728" cy="42.193" r="1.667"/>
	
		<circle fill="none" stroke="#FFFFFF" stroke-width="1.2405" stroke-linecap="round" stroke-linejoin="round" stroke-miterlimit="10" cx="152.862" cy="36.059" r="1.667"/>
	
		<line fill="none" stroke="#FFFFFF" stroke-width="1.2405" stroke-linecap="round" stroke-linejoin="round" stroke-miterlimit="10" x1="151.195" y1="42.193" x2="154.529" y2="42.193"/>
	
		<line fill="none" stroke="#FFFFFF" stroke-width="1.2405" stroke-linecap="round" stroke-linejoin="round" stroke-miterlimit="10" x1="138.928" y1="42.193" x2="142.261" y2="42.193"/>
</g>
<text transform="matrix(1 0 0 1 23.1643 37.5056)"><tspan x="0" y="0" fill="#FFFFFF" font-family="'Montserrat-ExtraBold'" font-size="14px" letter-spacing="1">CIJFERINPUT</tspan><tspan x="0" y="18" fill="#FFFFFF" font-family="'Montserrat-Regular'" font-size="10px">Pinnen</tspan></text>
<g>
	
		<circle fill="none" stroke="#FFFFFF" stroke-width="2" stroke-linecap="round" stroke-linejoin="round" stroke-miterlimit="10" cx="90.416" cy="132.317" r="1.652"/>
	
		<circle fill="none" stroke="#FFFFFF" stroke-width="2" stroke-linecap="round" stroke-linejoin="round" stroke-miterlimit="10" cx="100.47" cy="132.317" r="1.652"/>
	
		<circle fill="none" stroke="#FFFFFF" stroke-width="2" stroke-linecap="round" stroke-linejoin="round" stroke-miterlimit="10" cx="80.363" cy="132.317" r="1.652"/>
	
		<circle fill="none" stroke="#FFFFFF" stroke-width="2" stroke-linecap="round" stroke-linejoin="round" stroke-miterlimit="10" cx="90.416" cy="142.371" r="1.652"/>
	
		<circle fill="none" stroke="#FFFFFF" stroke-width="2" stroke-linecap="round" stroke-linejoin="round" stroke-miterlimit="10" cx="100.47" cy="142.371" r="1.652"/>
	
		<circle fill="none" stroke="#FFFFFF" stroke-width="2" stroke-linecap="round" stroke-linejoin="round" stroke-miterlimit="10" cx="80.363" cy="142.371" r="1.652"/>
	
		<circle fill="none" stroke="#FFFFFF" stroke-width="2" stroke-linecap="round" stroke-linejoin="round" stroke-miterlimit="10" cx="90.416" cy="152.425" r="1.652"/>
	
		<circle fill="none" stroke="#FFFFFF" stroke-width="2" stroke-linecap="round" stroke-linejoin="round" stroke-miterlimit="10" cx="90.416" cy="162.478" r="1.652"/>
	
		<circle fill="none" stroke="#FFFFFF" stroke-width="2" stroke-linecap="round" stroke-linejoin="round" stroke-miterlimit="10" cx="100.47" cy="152.425" r="1.652"/>
	
		<circle fill="none" stroke="#FFFFFF" stroke-width="2" stroke-linecap="round" stroke-linejoin="round" stroke-miterlimit="10" cx="80.363" cy="152.425" r="1.652"/>
	
		<line fill="none" stroke="#FFFFFF" stroke-width="2" stroke-linecap="round" stroke-linejoin="round" stroke-miterlimit="10" x1="98.818" y1="162.478" x2="102.122" y2="162.478"/>
	
		<line fill="none" stroke="#FFFFFF" stroke-width="2" stroke-linecap="round" stroke-linejoin="round" stroke-miterlimit="10" x1="78.711" y1="162.478" x2="82.014" y2="162.478"/>
	
		<rect x="78.711" y="105.915" fill="none" stroke="#FFFFFF" stroke-width="2" stroke-linecap="round" stroke-linejoin="round" stroke-miterlimit="10" width="23.411" height="18"/>
	
		<line fill="none" stroke="#FFFFFF" stroke-width="2" stroke-linecap="round" stroke-linejoin="round" stroke-miterlimit="10" x1="99.872" y1="101.415" x2="80.961" y2="101.415"/>
	<path fill="none" stroke="#FFFFFF" stroke-width="2" stroke-linecap="round" stroke-linejoin="round" stroke-miterlimit="10" d="
		M71.961,103.293v61.209c0,3.522,2.856,6.378,6.378,6.378h24.155c3.522,0,6.378-2.856,6.378-6.378v-61.209
		c0-3.522-2.855-6.378-6.378-6.378H78.339C74.816,96.915,71.961,99.771,71.961,103.293z"/>
	<path fill="none" stroke="#FFFFFF" stroke-width="2" stroke-linecap="round" stroke-linejoin="round" stroke-miterlimit="10" d="
		M71.961,108.165h-0.372c-3.522,0-6.378,2.856-6.378,6.378v38.709c0,3.522,2.856,6.378,6.378,6.378h0.372"/>
	
		<line fill="none" stroke="#FFFFFF" stroke-width="2" stroke-linecap="round" stroke-linejoin="round" stroke-miterlimit="10" x1="113.372" y1="166.38" x2="113.372" y2="101.415"/>
</g>
</svg>
