<?xml version="1.0" encoding="utf-8"?>
<!-- Generator: Adobe Illustrator 24.0.0, SVG Export Plug-In . SVG Version: 6.00 Build 0)  -->
<svg version="1.1" id="Laag_1" xmlns="http://www.w3.org/2000/svg" xmlns:xlink="http://www.w3.org/1999/xlink" x="0px" y="0px"
	 viewBox="0 0 178.583 277.795" enable-background="new 0 0 178.583 277.795" xml:space="preserve">
<path fill="#90BA1E" d="M164.409,277.795H14.173C6.346,277.795,0,271.45,0,263.622V14.173C0,6.346,6.346,0,14.173,0h150.236
	c7.828,0,14.173,6.346,14.173,14.173v249.449C178.583,271.45,172.237,277.795,164.409,277.795z"/>
<g>
	<text transform="matrix(1 0 0 1 116.739 252.3286)" fill="#FFFFFF" font-family="'Montserrat-Regular'" font-size="8px">WC-review</text>
</g>
<g>
	<text transform="matrix(1 0 0 1 25.4905 252.3288)" fill="#FFFFFF" font-family="'Montserrat-Regular'" font-size="8px">Deurbel</text>
</g>
<g>
	<text transform="matrix(1 0 0 1 72.2982 252.3291)" fill="#FFFFFF" font-family="'Montserrat-Regular'" font-size="8px">Tappunt</text>
</g>
<text transform="matrix(1 0 0 1 23.1643 37.5056)"><tspan x="0" y="0" fill="#FFFFFF" font-family="'Montserrat-ExtraBold'" font-size="14px" letter-spacing="1">BUTTONS</tspan><tspan x="0" y="18" fill="#FFFFFF" font-family="'Montserrat-Regular'" font-size="10px">Intercom</tspan></text>
<g>
	
		<circle fill="none" stroke="#FFFFFF" stroke-linecap="round" stroke-linejoin="round" stroke-miterlimit="10" cx="41.383" cy="231.649" r="3.223"/>
	
		<rect x="38.16" y="213.234" fill="none" stroke="#FFFFFF" stroke-linecap="round" stroke-linejoin="round" stroke-miterlimit="10" width="6.446" height="12.492"/>
	
		<line fill="none" stroke="#FFFFFF" stroke-linecap="round" stroke-linejoin="round" stroke-miterlimit="10" x1="39.96" y1="210.534" x2="42.806" y2="210.534"/>
	<path fill="none" stroke="#FFFFFF" stroke-linecap="round" stroke-linejoin="round" stroke-miterlimit="10" d="M35.46,210.385
		v24.635c0,1.409,1.142,2.551,2.551,2.551h6.744c1.409,0,2.551-1.142,2.551-2.551v-24.635c0-1.409-1.142-2.551-2.551-2.551h-6.744
		C36.602,207.834,35.46,208.976,35.46,210.385z"/>
	
		<line fill="none" stroke="#FFFFFF" stroke-linecap="round" stroke-linejoin="round" stroke-miterlimit="10" x1="50.006" y1="233.22" x2="50.006" y2="212.185"/>
	
		<line fill="none" stroke="#FFFFFF" stroke-linecap="round" stroke-linejoin="round" stroke-miterlimit="10" x1="32.76" y1="233.22" x2="32.76" y2="212.185"/>
</g>
<g>
	
		<circle fill="none" stroke="#FFFFFF" stroke-linecap="round" stroke-linejoin="round" stroke-miterlimit="10" cx="138.323" cy="214.625" r="3.039"/>
	
		<circle fill="none" stroke="#FFFFFF" stroke-linecap="round" stroke-linejoin="round" stroke-miterlimit="10" cx="138.323" cy="230.969" r="1.866"/>
	
		<circle fill="none" stroke="#FFFFFF" stroke-linecap="round" stroke-linejoin="round" stroke-miterlimit="10" cx="144.756" cy="230.969" r="1.866"/>
	
		<circle fill="none" stroke="#FFFFFF" stroke-linecap="round" stroke-linejoin="round" stroke-miterlimit="10" cx="131.891" cy="230.969" r="1.866"/>
	
		<circle fill="none" stroke="#FFFFFF" stroke-linecap="round" stroke-linejoin="round" stroke-miterlimit="10" cx="130.446" cy="214.625" r="3.039"/>
	
		<circle fill="none" stroke="#FFFFFF" stroke-linecap="round" stroke-linejoin="round" stroke-miterlimit="10" cx="146.201" cy="214.625" r="3.039"/>
	
		<circle fill="none" stroke="#FFFFFF" stroke-linecap="round" stroke-linejoin="round" stroke-miterlimit="10" cx="137.348" cy="213.988" r="0.263"/>
	
		<circle fill="none" stroke="#FFFFFF" stroke-linecap="round" stroke-linejoin="round" stroke-miterlimit="10" cx="139.299" cy="213.988" r="0.263"/>
	
		<circle fill="none" stroke="#FFFFFF" stroke-linecap="round" stroke-linejoin="round" stroke-miterlimit="10" cx="145.225" cy="213.988" r="0.263"/>
	
		<circle fill="none" stroke="#FFFFFF" stroke-linecap="round" stroke-linejoin="round" stroke-miterlimit="10" cx="147.177" cy="213.988" r="0.263"/>
	<path fill="none" stroke="#FFFFFF" stroke-linecap="round" stroke-linejoin="round" stroke-miterlimit="10" d="M147.451,216.266
		c-0.263-0.415-0.723-0.692-1.25-0.692c-0.526,0-0.986,0.278-1.249,0.692"/>
	
		<circle fill="none" stroke="#FFFFFF" stroke-linecap="round" stroke-linejoin="round" stroke-miterlimit="10" cx="129.47" cy="213.988" r="0.263"/>
	
		<circle fill="none" stroke="#FFFFFF" stroke-linecap="round" stroke-linejoin="round" stroke-miterlimit="10" cx="131.422" cy="213.988" r="0.263"/>
	<path fill="none" stroke="#FFFFFF" stroke-linecap="round" stroke-linejoin="round" stroke-miterlimit="10" d="M129.022,215.525
		c0.3,0.472,0.824,0.789,1.424,0.789c0.599,0,1.124-0.316,1.423-0.789"/>
	
		<line fill="none" stroke="#FFFFFF" stroke-linecap="round" stroke-linejoin="round" stroke-miterlimit="10" x1="137.35" y1="215.92" x2="139.297" y2="215.92"/>
	<polygon fill="none" stroke="#FFFFFF" stroke-linecap="round" stroke-linejoin="round" stroke-miterlimit="10" points="
		135.843,220.364 138.324,223.703 140.804,220.364 	"/>
	
		<line fill="none" stroke="#FFFFFF" stroke-linecap="round" stroke-linejoin="round" stroke-miterlimit="10" x1="126.057" y1="208.886" x2="150.59" y2="208.886"/>
	
		<line fill="none" stroke="#FFFFFF" stroke-linecap="round" stroke-linejoin="round" stroke-miterlimit="10" x1="126.057" y1="238.235" x2="150.59" y2="238.235"/>
	<path fill="none" stroke="#FFFFFF" stroke-linecap="round" stroke-linejoin="round" stroke-miterlimit="10" d="M127.325,228.954
		v4.03c0,1.409,1.142,2.551,2.551,2.551h16.895c1.409,0,2.551-1.142,2.551-2.551v-4.03c0-1.409-1.142-2.551-2.551-2.551h-16.895
		C128.467,226.403,127.325,227.545,127.325,228.954z"/>
</g>
<g>
	
		<line fill="none" stroke="#FFFFFF" stroke-linecap="round" stroke-linejoin="round" stroke-miterlimit="10" x1="95.228" y1="213.704" x2="95.228" y2="237.524"/>
	
		<line fill="none" stroke="#FFFFFF" stroke-linecap="round" stroke-linejoin="round" stroke-miterlimit="10" x1="83.355" y1="213.704" x2="83.355" y2="237.524"/>
	
		<rect x="83.355" y="209.055" fill="none" stroke="#FFFFFF" stroke-linecap="round" stroke-linejoin="round" stroke-miterlimit="10" width="11.873" height="4.65"/>
	<path fill="none" stroke="#FFFFFF" stroke-linecap="round" stroke-linejoin="round" stroke-miterlimit="10" d="M91.197,230.326
		h-3.811v-5.506c0-1.052,0.853-1.906,1.906-1.906h0c1.052,0,1.906,0.853,1.906,1.906V230.326z"/>
	
		<circle fill="none" stroke="#FFFFFF" stroke-linecap="round" stroke-linejoin="round" stroke-miterlimit="10" cx="89.291" cy="218.31" r="1.906"/>
	<path fill="none" stroke="#FFFFFF" stroke-linecap="round" stroke-linejoin="round" stroke-miterlimit="10" d="M90.64,236.175
		c0,0.745-0.604,1.349-1.349,1.349c-0.745,0-1.349-0.604-1.349-1.349s1.349-3.149,1.349-3.149S90.64,235.43,90.64,236.175z"/>
	
		<line fill="none" stroke="#FFFFFF" stroke-linecap="round" stroke-linejoin="round" stroke-miterlimit="10" x1="89.291" y1="233.026" x2="89.291" y2="230.326"/>
</g>
<g>
	<path fill="none" stroke="#FFFFFF" stroke-linecap="round" stroke-linejoin="round" stroke-miterlimit="10" d="M153.795,43.828
		L153.795,43.828c1.746-1.746,2.727-4.114,2.727-6.582v-1.948c0-0.809-0.321-1.584-0.893-2.156l0,0
		c-0.416-0.416-0.98-0.649-1.568-0.649h-0.265l-0.111-0.111c-0.416-0.416-0.98-0.649-1.568-0.649h-1.047l-0.111-0.111
		c-0.416-0.416-0.98-0.649-1.568-0.649h-1.047v-4.305c0-0.849-0.611-1.622-1.455-1.707c-0.971-0.097-1.79,0.663-1.79,1.614v7.488
		l-1.035,1.035c-0.638,0.638-0.826,1.599-0.475,2.431l0.667,1.58c0.556,1.317,1.362,2.514,2.373,3.525l1.164,1.164"/>
	<path fill="none" stroke="#FFFFFF" stroke-linecap="round" stroke-linejoin="round" stroke-miterlimit="10" d="M150.23,29.149
		c0.713-0.822,1.16-1.881,1.16-3.054c0-2.586-2.096-4.682-4.681-4.682c-2.586,0-4.681,2.096-4.681,4.682
		c0,1.173,0.447,2.233,1.16,3.054"/>
</g>
<g>
	
		<circle fill="none" stroke="#FFFFFF" stroke-width="2" stroke-linecap="round" stroke-linejoin="round" stroke-miterlimit="10" cx="92.95" cy="129.899" r="4.474"/>
	
		<circle fill="none" stroke="#FFFFFF" stroke-width="2" stroke-linecap="round" stroke-linejoin="round" stroke-miterlimit="10" cx="92.95" cy="145.598" r="4.474"/>
	
		<circle fill="none" stroke="#FFFFFF" stroke-width="2" stroke-linecap="round" stroke-linejoin="round" stroke-miterlimit="10" cx="92.95" cy="114.197" r="4.474"/>
	
		<circle fill="none" stroke="#FFFFFF" stroke-width="2" stroke-linecap="round" stroke-linejoin="round" stroke-miterlimit="10" cx="53.317" cy="129.899" r="1.409"/>
	
		<circle fill="none" stroke="#FFFFFF" stroke-width="2" stroke-linecap="round" stroke-linejoin="round" stroke-miterlimit="10" cx="61.192" cy="129.899" r="1.409"/>
	
		<circle fill="none" stroke="#FFFFFF" stroke-width="2" stroke-linecap="round" stroke-linejoin="round" stroke-miterlimit="10" cx="72.442" cy="129.899" r="1.409"/>
	
		<circle fill="none" stroke="#FFFFFF" stroke-width="2" stroke-linecap="round" stroke-linejoin="round" stroke-miterlimit="10" cx="66.817" cy="135.524" r="1.409"/>
	
		<circle fill="none" stroke="#FFFFFF" stroke-width="2" stroke-linecap="round" stroke-linejoin="round" stroke-miterlimit="10" cx="66.817" cy="124.274" r="1.409"/>
	
		<circle fill="none" stroke="#FFFFFF" stroke-width="2" stroke-linecap="round" stroke-linejoin="round" stroke-miterlimit="10" cx="80.317" cy="129.899" r="1.409"/>
	
		<circle fill="none" stroke="#FFFFFF" stroke-width="2" stroke-linecap="round" stroke-linejoin="round" stroke-miterlimit="10" cx="57.271" cy="139.445" r="1.409"/>
	
		<circle fill="none" stroke="#FFFFFF" stroke-width="2" stroke-linecap="round" stroke-linejoin="round" stroke-miterlimit="10" cx="76.363" cy="120.353" r="1.409"/>
	
		<circle fill="none" stroke="#FFFFFF" stroke-width="2" stroke-linecap="round" stroke-linejoin="round" stroke-miterlimit="10" cx="66.817" cy="143.399" r="1.409"/>
	
		<circle fill="none" stroke="#FFFFFF" stroke-width="2" stroke-linecap="round" stroke-linejoin="round" stroke-miterlimit="10" cx="66.817" cy="116.399" r="1.409"/>
	
		<circle fill="none" stroke="#FFFFFF" stroke-width="2" stroke-linecap="round" stroke-linejoin="round" stroke-miterlimit="10" cx="76.363" cy="139.445" r="1.409"/>
	
		<circle fill="none" stroke="#FFFFFF" stroke-width="2" stroke-linecap="round" stroke-linejoin="round" stroke-miterlimit="10" cx="57.271" cy="120.353" r="1.409"/>
	
		<rect x="104.175" y="109.723" fill="none" stroke="#FFFFFF" stroke-width="2" stroke-linecap="round" stroke-linejoin="round" stroke-miterlimit="10" width="18" height="8.949"/>
	
		<line fill="none" stroke="#FFFFFF" stroke-width="2" stroke-linecap="round" stroke-linejoin="round" stroke-miterlimit="10" x1="51.908" y1="102.973" x2="126.675" y2="102.973"/>
	
		<line fill="none" stroke="#FFFFFF" stroke-width="2" stroke-linecap="round" stroke-linejoin="round" stroke-miterlimit="10" x1="51.908" y1="156.822" x2="126.675" y2="156.822"/>
	
		<rect x="104.175" y="125.425" fill="none" stroke="#FFFFFF" stroke-width="2" stroke-linecap="round" stroke-linejoin="round" stroke-miterlimit="10" width="18" height="8.949"/>
	
		<rect x="104.175" y="141.124" fill="none" stroke="#FFFFFF" stroke-width="2" stroke-linecap="round" stroke-linejoin="round" stroke-miterlimit="10" width="18" height="8.949"/>
</g>
</svg>
