<?xml version="1.0" encoding="utf-8"?>
<!-- Generator: Adobe Illustrator 24.0.0, SVG Export Plug-In . SVG Version: 6.00 Build 0)  -->
<svg version="1.1" id="Laag_1" xmlns="http://www.w3.org/2000/svg" xmlns:xlink="http://www.w3.org/1999/xlink" x="0px" y="0px"
	 viewBox="0 0 178.583 277.795" enable-background="new 0 0 178.583 277.795" xml:space="preserve">
<path fill="#31B7BC" d="M164.409,277.795H14.173C6.346,277.795,0,271.45,0,263.622V14.173C0,6.346,6.346,0,14.173,0h150.236
	c7.828,0,14.173,6.346,14.173,14.173v249.449C178.583,271.45,172.237,277.795,164.409,277.795z"/>
<g>
	
		<circle fill="none" stroke="#FFFFFF" stroke-linecap="round" stroke-linejoin="round" stroke-miterlimit="10" cx="86.19" cy="222.863" r="0.661"/>
	
		<circle fill="none" stroke="#FFFFFF" stroke-linecap="round" stroke-linejoin="round" stroke-miterlimit="10" cx="89.291" cy="229.636" r="0.661"/>
	<path fill="none" stroke="#FFFFFF" stroke-linecap="round" stroke-linejoin="round" stroke-miterlimit="10" d="M92.196,225.986
		c0.487-0.935,0.767-1.995,0.767-3.123c0-3.74-3.032-6.773-6.773-6.773c-3.74,0-6.773,3.032-6.773,6.773
		c0,3.201,2.223,5.876,5.207,6.583c-0.003,0.064-0.019,0.124-0.019,0.189c0,2.588,2.098,4.686,4.686,4.686s4.686-2.098,4.686-4.686
		C93.977,228.151,93.273,226.844,92.196,225.986z"/>
	
		<circle fill="none" stroke="#FFFFFF" stroke-linecap="round" stroke-linejoin="round" stroke-miterlimit="10" cx="94.905" cy="215.183" r="2.4"/>
	
		<circle fill="none" stroke="#FFFFFF" stroke-linecap="round" stroke-linejoin="round" stroke-miterlimit="10" cx="98.3" cy="221.953" r="2.4"/>
	<path fill="none" stroke="#FFFFFF" stroke-linecap="round" stroke-linejoin="round" stroke-miterlimit="10" d="M103.68,218.16
		c0-5.25-6.442-9.506-14.389-9.506s-14.389,4.256-14.389,9.506c0,7.947,6.442,20.712,14.389,20.712S103.68,226.107,103.68,218.16z"
		/>
	
		<line fill="none" stroke="#FFFFFF" stroke-linecap="round" stroke-linejoin="round" stroke-miterlimit="10" x1="86.19" y1="222.863" x2="81.95" y2="221.159"/>
	
		<line fill="none" stroke="#FFFFFF" stroke-linecap="round" stroke-linejoin="round" stroke-miterlimit="10" x1="90.237" y1="222.863" x2="91.144" y2="222.863"/>
	
		<line fill="none" stroke="#FFFFFF" stroke-linecap="round" stroke-linejoin="round" stroke-miterlimit="10" x1="81.237" y1="222.863" x2="82.144" y2="222.863"/>
	
		<line fill="none" stroke="#FFFFFF" stroke-linecap="round" stroke-linejoin="round" stroke-miterlimit="10" x1="89.052" y1="220.002" x2="89.693" y2="219.36"/>
	
		<line fill="none" stroke="#FFFFFF" stroke-linecap="round" stroke-linejoin="round" stroke-miterlimit="10" x1="86.19" y1="218.817" x2="86.19" y2="217.91"/>
	
		<line fill="none" stroke="#FFFFFF" stroke-linecap="round" stroke-linejoin="round" stroke-miterlimit="10" x1="83.329" y1="220.002" x2="82.688" y2="219.36"/>
	
		<line fill="none" stroke="#FFFFFF" stroke-linecap="round" stroke-linejoin="round" stroke-miterlimit="10" x1="91.89" y1="229.636" x2="92.54" y2="229.636"/>
	
		<line fill="none" stroke="#FFFFFF" stroke-linecap="round" stroke-linejoin="round" stroke-miterlimit="10" x1="86.043" y1="229.636" x2="86.693" y2="229.636"/>
	
		<line fill="none" stroke="#FFFFFF" stroke-linecap="round" stroke-linejoin="round" stroke-miterlimit="10" x1="91.129" y1="227.798" x2="91.589" y2="227.339"/>
	
		<line fill="none" stroke="#FFFFFF" stroke-linecap="round" stroke-linejoin="round" stroke-miterlimit="10" x1="89.291" y1="227.037" x2="89.291" y2="226.387"/>
	
		<line fill="none" stroke="#FFFFFF" stroke-linecap="round" stroke-linejoin="round" stroke-miterlimit="10" x1="87.454" y1="227.798" x2="86.994" y2="227.339"/>
	
		<line fill="none" stroke="#FFFFFF" stroke-linecap="round" stroke-linejoin="round" stroke-miterlimit="10" x1="89.291" y1="229.636" x2="86.851" y2="228.589"/>
</g>
<g>
	<text transform="matrix(1 0 0 1 128.5388 252.3286)" fill="#FFFFFF" font-family="'Montserrat-Regular'" font-size="8px">Auto</text>
</g>
<g>
	<text transform="matrix(1 0 0 1 28.6989 252.3287)" fill="#FFFFFF" font-family="'Montserrat-Regular'" font-size="8px">E-bike</text>
</g>
<g>
	<text transform="matrix(1 0 0 1 73.9912 252.3291)" fill="#FFFFFF" font-family="'Montserrat-Regular'" font-size="8px">Scooter</text>
</g>
<text transform="matrix(1 0 0 1 23.1643 37.5056)"><tspan x="0" y="0" fill="#FFFFFF" font-family="'Montserrat-ExtraBold'" font-size="14px" letter-spacing="1">DASHBOARD</tspan><tspan x="0" y="18" fill="#FFFFFF" font-family="'Montserrat-Regular'" font-size="10px">Bus</tspan></text>
<g>
	<g>
		<path fill="none" stroke="#FFFFFF" stroke-linecap="round" stroke-linejoin="round" stroke-miterlimit="10" d="M47.626,236.056
			H35.139c-1.409,0-2.551-1.142-2.551-2.551v-22.161c0-1.409,1.142-2.551,2.551-2.551h12.487c1.409,0,2.551,1.142,2.551,2.551
			v22.161C50.177,234.913,49.035,236.056,47.626,236.056z"/>
		
			<rect x="35.288" y="211.492" fill="none" stroke="#FFFFFF" stroke-linecap="round" stroke-linejoin="round" stroke-miterlimit="10" width="12.19" height="21.864"/>
		
			<line fill="none" stroke="#FFFFFF" stroke-linecap="round" stroke-linejoin="round" stroke-miterlimit="10" x1="43.388" y1="214.192" x2="44.777" y2="214.192"/>
		
			<line fill="none" stroke="#FFFFFF" stroke-linecap="round" stroke-linejoin="round" stroke-miterlimit="10" x1="37.988" y1="214.192" x2="39.377" y2="214.192"/>
		
			<line fill="none" stroke="#FFFFFF" stroke-linecap="round" stroke-linejoin="round" stroke-miterlimit="10" x1="37.988" y1="240.556" x2="37.988" y2="236.056"/>
		
			<line fill="none" stroke="#FFFFFF" stroke-linecap="round" stroke-linejoin="round" stroke-miterlimit="10" x1="44.777" y1="236.056" x2="44.777" y2="240.556"/>
		<path fill="none" stroke="#FFFFFF" stroke-linecap="round" stroke-linejoin="round" stroke-miterlimit="10" d="M50.177,217.792
			h1.424c0.704,0,1.276,0.571,1.276,1.276v6.712c0,0.704-0.571,1.276-1.276,1.276h-1.424"/>
		
			<line fill="none" stroke="#FFFFFF" stroke-linecap="round" stroke-linejoin="round" stroke-miterlimit="10" x1="52.877" y1="219.592" x2="54.302" y2="219.592"/>
		
			<line fill="none" stroke="#FFFFFF" stroke-linecap="round" stroke-linejoin="round" stroke-miterlimit="10" x1="54.302" y1="225.256" x2="52.877" y2="225.256"/>
		
			<line fill="none" stroke="#FFFFFF" stroke-linecap="round" stroke-linejoin="round" stroke-miterlimit="10" x1="28.463" y1="219.592" x2="29.888" y2="219.592"/>
		
			<line fill="none" stroke="#FFFFFF" stroke-linecap="round" stroke-linejoin="round" stroke-miterlimit="10" x1="29.888" y1="225.256" x2="28.463" y2="225.256"/>
		<path fill="none" stroke="#FFFFFF" stroke-linecap="round" stroke-linejoin="round" stroke-miterlimit="10" d="M32.588,217.792
			h-1.424c-0.704,0-1.276,0.571-1.276,1.276v6.712c0,0.704,0.571,1.276,1.276,1.276h1.424"/>
		
			<rect x="39.257" y="228.443" fill="none" stroke="#FFFFFF" stroke-linecap="round" stroke-linejoin="round" stroke-miterlimit="10" width="4.251" height="2.183"/>
		
			<line fill="none" stroke="#FFFFFF" stroke-linecap="round" stroke-linejoin="round" stroke-miterlimit="10" x1="43.508" y1="221.939" x2="44.415" y2="221.939"/>
		
			<line fill="none" stroke="#FFFFFF" stroke-linecap="round" stroke-linejoin="round" stroke-miterlimit="10" x1="38.35" y1="221.939" x2="39.257" y2="221.939"/>
		
			<line fill="none" stroke="#FFFFFF" stroke-linecap="round" stroke-linejoin="round" stroke-miterlimit="10" x1="42.885" y1="220.437" x2="43.527" y2="219.795"/>
		
			<line fill="none" stroke="#FFFFFF" stroke-linecap="round" stroke-linejoin="round" stroke-miterlimit="10" x1="39.238" y1="224.084" x2="39.88" y2="223.442"/>
		
			<line fill="none" stroke="#FFFFFF" stroke-linecap="round" stroke-linejoin="round" stroke-miterlimit="10" x1="41.383" y1="219.814" x2="41.383" y2="218.907"/>
		
			<line fill="none" stroke="#FFFFFF" stroke-linecap="round" stroke-linejoin="round" stroke-miterlimit="10" x1="41.383" y1="224.972" x2="41.383" y2="224.065"/>
		
			<line fill="none" stroke="#FFFFFF" stroke-linecap="round" stroke-linejoin="round" stroke-miterlimit="10" x1="39.88" y1="220.437" x2="39.238" y2="219.795"/>
		
			<line fill="none" stroke="#FFFFFF" stroke-linecap="round" stroke-linejoin="round" stroke-miterlimit="10" x1="43.527" y1="224.084" x2="42.885" y2="223.442"/>
	</g>
</g>
<g>
	<path fill="none" stroke="#FFFFFF" stroke-width="2" stroke-linecap="round" stroke-linejoin="round" stroke-miterlimit="10" d="
		M67.993,161.059c-6.852,0-12.425-5.574-12.425-12.425s5.574-12.425,12.425-12.425s12.425,5.574,12.425,12.425
		S74.844,161.059,67.993,161.059z"/>
	<path fill="none" stroke="#FFFFFF" stroke-width="2" stroke-linecap="round" stroke-linejoin="round" stroke-miterlimit="10" d="
		M110.674,161.059c-6.852,0-12.425-5.574-12.425-12.425s5.574-12.425,12.425-12.425s12.425,5.574,12.425,12.425
		S117.526,161.059,110.674,161.059z"/>
	<path fill="none" stroke="#FFFFFF" stroke-width="2" stroke-linecap="round" stroke-linejoin="round" stroke-miterlimit="10" d="
		M105.604,129.459c-4.056,0-7.355-3.299-7.355-7.355s3.299-7.355,7.355-7.355s7.355,3.299,7.355,7.355
		S109.659,129.459,105.604,129.459z"/>
	<path fill="none" stroke="#FFFFFF" stroke-width="2" stroke-linecap="round" stroke-linejoin="round" stroke-miterlimit="10" d="
		M73.063,129.459c-4.056,0-7.355-3.299-7.355-7.355s3.299-7.355,7.355-7.355s7.355,3.299,7.355,7.355S77.119,129.459,73.063,129.459
		z"/>
	<path fill="none" stroke="#FFFFFF" stroke-width="2" stroke-linecap="round" stroke-linejoin="round" stroke-miterlimit="10" d="
		M47.39,152.312c-2.028,0-3.677-1.65-3.677-3.677s1.65-3.677,3.677-3.677s3.677,1.65,3.677,3.677S49.418,152.312,47.39,152.312z"/>
	<path fill="none" stroke="#FFFFFF" stroke-width="2" stroke-linecap="round" stroke-linejoin="round" stroke-miterlimit="10" d="
		M50.781,140.457c-2.028,0-3.677-1.65-3.677-3.677s1.65-3.677,3.677-3.677s3.677,1.65,3.677,3.677S52.809,140.457,50.781,140.457z"
		/>
	<path fill="none" stroke="#FFFFFF" stroke-width="2" stroke-linecap="round" stroke-linejoin="round" stroke-miterlimit="10" d="
		M127.599,148.634c0-2.028,1.65-3.677,3.677-3.677s3.677,1.65,3.677,3.677s-1.65,3.677-3.677,3.677S127.599,150.662,127.599,148.634
		z"/>
	<path fill="none" stroke="#FFFFFF" stroke-width="2" stroke-linecap="round" stroke-linejoin="round" stroke-miterlimit="10" d="
		M124.085,136.779c0-2.028,1.65-3.677,3.677-3.677s3.677,1.65,3.677,3.677s-1.65,3.677-3.677,3.677S124.085,138.807,124.085,136.779
		z"/>
	<path fill="none" stroke="#FFFFFF" stroke-width="2" stroke-linecap="round" stroke-linejoin="round" stroke-miterlimit="10" d="
		M90.56,127.972h-2.453c-1.761,0-3.189,1.428-3.189,3.189v9.784c0,1.761,1.428,3.189,3.189,3.189h2.453
		c1.761,0,3.189-1.428,3.189-3.189v-9.784C93.749,129.4,92.321,127.972,90.56,127.972z"/>
	
		<rect x="52.293" y="108.35" fill="none" stroke="#FFFFFF" stroke-width="2" stroke-linecap="round" stroke-linejoin="round" stroke-miterlimit="10" width="4.331" height="7.162"/>
	
		<rect x="43.293" y="108.35" fill="none" stroke="#FFFFFF" stroke-width="2" stroke-linecap="round" stroke-linejoin="round" stroke-miterlimit="10" width="4.331" height="7.162"/>
	
		<rect x="52.293" y="120.013" fill="none" stroke="#FFFFFF" stroke-width="2" stroke-linecap="round" stroke-linejoin="round" stroke-miterlimit="10" width="4.331" height="7.162"/>
	
		<rect x="43.293" y="120.013" fill="none" stroke="#FFFFFF" stroke-width="2" stroke-linecap="round" stroke-linejoin="round" stroke-miterlimit="10" width="4.331" height="7.162"/>
	
		<rect x="130.958" y="108.35" fill="none" stroke="#FFFFFF" stroke-width="2" stroke-linecap="round" stroke-linejoin="round" stroke-miterlimit="10" width="4.331" height="7.162"/>
	
		<rect x="121.958" y="108.35" fill="none" stroke="#FFFFFF" stroke-width="2" stroke-linecap="round" stroke-linejoin="round" stroke-miterlimit="10" width="4.331" height="7.162"/>
	
		<rect x="130.958" y="120.013" fill="none" stroke="#FFFFFF" stroke-width="2" stroke-linecap="round" stroke-linejoin="round" stroke-miterlimit="10" width="4.331" height="7.162"/>
	
		<rect x="121.958" y="120.013" fill="none" stroke="#FFFFFF" stroke-width="2" stroke-linecap="round" stroke-linejoin="round" stroke-miterlimit="10" width="4.331" height="7.162"/>
	
		<line fill="none" stroke="#FFFFFF" stroke-width="2" stroke-linecap="round" stroke-linejoin="round" stroke-miterlimit="10" x1="88.293" y1="133.803" x2="90.374" y2="133.803"/>
	
		<line fill="none" stroke="#FFFFFF" stroke-width="2" stroke-linecap="round" stroke-linejoin="round" stroke-miterlimit="10" x1="88.293" y1="138.303" x2="90.374" y2="138.303"/>
	
		<circle fill="none" stroke="#FFFFFF" stroke-width="2" stroke-linecap="round" stroke-linejoin="round" stroke-miterlimit="10" cx="110.674" cy="148.634" r="1.652"/>
	
		<circle fill="none" stroke="#FFFFFF" stroke-width="2" stroke-linecap="round" stroke-linejoin="round" stroke-miterlimit="10" cx="67.993" cy="148.634" r="1.652"/>
	
		<line fill="none" stroke="#FFFFFF" stroke-width="2" stroke-linecap="round" stroke-linejoin="round" stroke-miterlimit="10" x1="75.918" y1="148.634" x2="74.292" y2="148.634"/>
	
		<line fill="none" stroke="#FFFFFF" stroke-width="2" stroke-linecap="round" stroke-linejoin="round" stroke-miterlimit="10" x1="61.694" y1="148.634" x2="60.068" y2="148.634"/>
	
		<line fill="none" stroke="#FFFFFF" stroke-width="2" stroke-linecap="round" stroke-linejoin="round" stroke-miterlimit="10" x1="73.597" y1="143.03" x2="72.447" y2="144.18"/>
	
		<line fill="none" stroke="#FFFFFF" stroke-width="2" stroke-linecap="round" stroke-linejoin="round" stroke-miterlimit="10" x1="63.539" y1="153.088" x2="62.389" y2="154.238"/>
	
		<line fill="none" stroke="#FFFFFF" stroke-width="2" stroke-linecap="round" stroke-linejoin="round" stroke-miterlimit="10" x1="67.993" y1="140.709" x2="67.993" y2="142.335"/>
	
		<line fill="none" stroke="#FFFFFF" stroke-width="2" stroke-linecap="round" stroke-linejoin="round" stroke-miterlimit="10" x1="67.993" y1="154.933" x2="67.993" y2="156.559"/>
	
		<line fill="none" stroke="#FFFFFF" stroke-width="2" stroke-linecap="round" stroke-linejoin="round" stroke-miterlimit="10" x1="62.389" y1="143.03" x2="67.993" y2="148.634"/>
	
		<line fill="none" stroke="#FFFFFF" stroke-width="2" stroke-linecap="round" stroke-linejoin="round" stroke-miterlimit="10" x1="118.599" y1="148.634" x2="116.973" y2="148.634"/>
	
		<line fill="none" stroke="#FFFFFF" stroke-width="2" stroke-linecap="round" stroke-linejoin="round" stroke-miterlimit="10" x1="104.375" y1="148.634" x2="102.749" y2="148.634"/>
	
		<line fill="none" stroke="#FFFFFF" stroke-width="2" stroke-linecap="round" stroke-linejoin="round" stroke-miterlimit="10" x1="116.278" y1="143.03" x2="115.128" y2="144.18"/>
	
		<line fill="none" stroke="#FFFFFF" stroke-width="2" stroke-linecap="round" stroke-linejoin="round" stroke-miterlimit="10" x1="110.674" y1="140.709" x2="110.674" y2="148.634"/>
	
		<line fill="none" stroke="#FFFFFF" stroke-width="2" stroke-linecap="round" stroke-linejoin="round" stroke-miterlimit="10" x1="105.07" y1="143.03" x2="106.22" y2="144.18"/>
	
		<line fill="none" stroke="#FFFFFF" stroke-width="2" stroke-linecap="round" stroke-linejoin="round" stroke-miterlimit="10" x1="72.447" y1="153.088" x2="73.597" y2="154.238"/>
</g>
<g>
	<g>
		<path fill="none" stroke="#FFFFFF" stroke-linecap="round" stroke-linejoin="round" stroke-miterlimit="10" d="M130.381,230.163
			c-3.244,0-5.884-2.639-5.884-5.884c0-3.244,2.639-5.884,5.884-5.884c3.244,0,5.884,2.639,5.884,5.884
			C136.265,227.524,133.625,230.163,130.381,230.163z"/>
		<path fill="none" stroke="#FFFFFF" stroke-linecap="round" stroke-linejoin="round" stroke-miterlimit="10" d="M149.583,230.163
			c-3.244,0-5.884-2.639-5.884-5.884c0-3.244,2.639-5.884,5.884-5.884c3.244,0,5.884,2.639,5.884,5.884
			C155.467,227.524,152.827,230.163,149.583,230.163z"/>
		<path fill="none" stroke="#FFFFFF" stroke-linecap="round" stroke-linejoin="round" stroke-miterlimit="10" d="M149.583,233.279
			h-19.202c-3.44,0-6.579-1.961-8.088-5.052c-1.509-3.091-1.124-6.772,0.992-9.484c2.742-3.514,8.76-7.618,16.697-7.618
			c7.937,0,13.955,4.104,16.697,7.618c2.116,2.712,2.501,6.393,0.992,9.484S153.022,233.279,149.583,233.279z M142.739,230.119
			h0.009H142.739z"/>
		<polygon fill="none" stroke="#FFFFFF" stroke-linecap="round" stroke-linejoin="round" stroke-miterlimit="10" points="
			141.988,217.557 143.885,216.147 141.988,214.738 		"/>
		<polygon fill="none" stroke="#FFFFFF" stroke-linecap="round" stroke-linejoin="round" stroke-miterlimit="10" points="
			137.976,214.738 136.078,216.147 137.976,217.557 		"/>
		
			<line fill="none" stroke="#FFFFFF" stroke-linecap="round" stroke-linejoin="round" stroke-miterlimit="10" x1="137.076" y1="230.163" x2="142.888" y2="230.163"/>
		
			<line fill="none" stroke="#FFFFFF" stroke-linecap="round" stroke-linejoin="round" stroke-miterlimit="10" x1="139.326" y1="224.763" x2="140.638" y2="224.763"/>
		
			<line fill="none" stroke="#FFFFFF" stroke-linecap="round" stroke-linejoin="round" stroke-miterlimit="10" x1="138.876" y1="226.563" x2="141.088" y2="226.563"/>
		
			<line fill="none" stroke="#FFFFFF" stroke-linecap="round" stroke-linejoin="round" stroke-miterlimit="10" x1="137.976" y1="228.363" x2="141.988" y2="228.363"/>
		
			<circle fill="none" stroke="#FFFFFF" stroke-linecap="round" stroke-linejoin="round" stroke-miterlimit="10" cx="130.381" cy="224.279" r="0.661"/>
		
			<circle fill="none" stroke="#FFFFFF" stroke-linecap="round" stroke-linejoin="round" stroke-miterlimit="10" cx="149.583" cy="224.279" r="0.661"/>
		
			<line fill="none" stroke="#FFFFFF" stroke-linecap="round" stroke-linejoin="round" stroke-miterlimit="10" x1="149.583" y1="224.279" x2="148.363" y2="221.701"/>
		
			<line fill="none" stroke="#FFFFFF" stroke-linecap="round" stroke-linejoin="round" stroke-miterlimit="10" x1="152.804" y1="224.094" x2="153.455" y2="224.094"/>
		
			<line fill="none" stroke="#FFFFFF" stroke-linecap="round" stroke-linejoin="round" stroke-miterlimit="10" x1="144.816" y1="224.094" x2="145.467" y2="224.094"/>
		
			<line fill="none" stroke="#FFFFFF" stroke-linecap="round" stroke-linejoin="round" stroke-miterlimit="10" x1="151.73" y1="221.5" x2="152.19" y2="221.04"/>
		
			<line fill="none" stroke="#FFFFFF" stroke-linecap="round" stroke-linejoin="round" stroke-miterlimit="10" x1="149.135" y1="220.425" x2="149.135" y2="219.775"/>
		
			<line fill="none" stroke="#FFFFFF" stroke-linecap="round" stroke-linejoin="round" stroke-miterlimit="10" x1="149.135" y1="228.413" x2="149.135" y2="227.763"/>
		
			<line fill="none" stroke="#FFFFFF" stroke-linecap="round" stroke-linejoin="round" stroke-miterlimit="10" x1="146.541" y1="221.5" x2="146.081" y2="221.04"/>
		
			<line fill="none" stroke="#FFFFFF" stroke-linecap="round" stroke-linejoin="round" stroke-miterlimit="10" x1="152.19" y1="227.148" x2="151.73" y2="226.688"/>
		
			<line fill="none" stroke="#FFFFFF" stroke-linecap="round" stroke-linejoin="round" stroke-miterlimit="10" x1="130.381" y1="220.611" x2="130.381" y2="219.96"/>
		
			<line fill="none" stroke="#FFFFFF" stroke-linecap="round" stroke-linejoin="round" stroke-miterlimit="10" x1="130.381" y1="228.599" x2="130.381" y2="227.948"/>
		
			<line fill="none" stroke="#FFFFFF" stroke-linecap="round" stroke-linejoin="round" stroke-miterlimit="10" x1="127.786" y1="221.685" x2="127.327" y2="221.225"/>
		
			<line fill="none" stroke="#FFFFFF" stroke-linecap="round" stroke-linejoin="round" stroke-miterlimit="10" x1="126.712" y1="224.279" x2="126.061" y2="224.279"/>
		
			<line fill="none" stroke="#FFFFFF" stroke-linecap="round" stroke-linejoin="round" stroke-miterlimit="10" x1="134.7" y1="224.279" x2="134.05" y2="224.279"/>
		
			<line fill="none" stroke="#FFFFFF" stroke-linecap="round" stroke-linejoin="round" stroke-miterlimit="10" x1="127.786" y1="226.874" x2="127.327" y2="227.334"/>
		
			<line fill="none" stroke="#FFFFFF" stroke-linecap="round" stroke-linejoin="round" stroke-miterlimit="10" x1="133.435" y1="221.225" x2="132.975" y2="221.685"/>
		
			<line fill="none" stroke="#FFFFFF" stroke-linecap="round" stroke-linejoin="round" stroke-miterlimit="10" x1="130.381" y1="224.279" x2="131.708" y2="220.801"/>
	</g>
</g>
<g>
	<path fill="none" stroke="#FFFFFF" stroke-linecap="round" stroke-linejoin="round" stroke-miterlimit="10" d="M150.181,36.567
		h5.763c0-5.738-4.652-10.39-10.39-10.39s-10.39,4.652-10.39,10.39h5.763"/>
	
		<line fill="none" stroke="#FFFFFF" stroke-linecap="round" stroke-linejoin="round" stroke-miterlimit="10" x1="149.94" y1="32.182" x2="150.674" y2="31.448"/>
	
		<line fill="none" stroke="#FFFFFF" stroke-linecap="round" stroke-linejoin="round" stroke-miterlimit="10" x1="145.555" y1="30.365" x2="145.555" y2="29.327"/>
	
		<circle fill="none" stroke="#FFFFFF" stroke-linecap="round" stroke-linejoin="round" stroke-miterlimit="10" cx="145.555" cy="36.567" r="1.477"/>
	
		<line fill="none" stroke="#FFFFFF" stroke-linecap="round" stroke-linejoin="round" stroke-miterlimit="10" x1="146.195" y1="35.241" x2="148.705" y2="30.044"/>
	
		<line fill="none" stroke="#FFFFFF" stroke-linecap="round" stroke-linejoin="round" stroke-miterlimit="10" x1="141.169" y1="32.182" x2="140.435" y2="31.448"/>
</g>
</svg>
