<?xml version="1.0" encoding="utf-8"?>
<!-- Generator: Adobe Illustrator 24.0.0, SVG Export Plug-In . SVG Version: 6.00 Build 0)  -->
<svg version="1.1" id="Laag_1" xmlns="http://www.w3.org/2000/svg" xmlns:xlink="http://www.w3.org/1999/xlink" x="0px" y="0px"
	 viewBox="0 0 178.583 277.795" enable-background="new 0 0 178.583 277.795" xml:space="preserve">
<path fill="#2F52A0" d="M164.409,277.795H14.173C6.346,277.795,0,271.45,0,263.622V14.173C0,6.346,6.346,0,14.173,0h150.236
	c7.828,0,14.173,6.346,14.173,14.173v249.449C178.583,271.45,172.237,277.795,164.409,277.795z"/>
<text transform="matrix(1 0 0 1 23.1642 37.5056)"><tspan x="0" y="0" fill="#FFFFFF" font-family="'Montserrat-ExtraBold'" font-size="14px" letter-spacing="1">VERKEER</tspan><tspan x="0" y="18" fill="#FFFFFF" font-family="'Montserrat-Regular'" font-size="10px">Stoplicht</tspan></text>
<g>
	<text transform="matrix(1 0 0 1 19.7948 252.3287)" fill="#FFFFFF" font-family="'Montserrat-Regular'" font-size="8px">Stopknop</text>
</g>
<g>
	<text transform="matrix(1 0 0 1 68.8274 252.3291)" fill="#FFFFFF" font-family="'Montserrat-Regular'" font-size="8px">Slagboom</text>
</g>
<g>
	<text transform="matrix(1 0 0 1 122.115 252.3286)" fill="#FFFFFF" font-family="'Montserrat-Regular'" font-size="8px">Benzine</text>
</g>
<g>
	
		<line fill="none" stroke="#FFFFFF" stroke-linecap="round" stroke-linejoin="round" stroke-miterlimit="10" x1="102.696" y1="234.341" x2="102.696" y2="221.592"/>
	
		<rect x="101.346" y="216.192" fill="none" stroke="#FFFFFF" stroke-linecap="round" stroke-linejoin="round" stroke-miterlimit="10" width="2.7" height="5.4"/>
	
		<rect x="74.537" y="216.192" fill="none" stroke="#FFFFFF" stroke-linecap="round" stroke-linejoin="round" stroke-miterlimit="10" width="1.8" height="5.4"/>
	
		<rect x="104.046" y="217.542" fill="none" stroke="#FFFFFF" stroke-linecap="round" stroke-linejoin="round" stroke-miterlimit="10" width="2.7" height="2.7"/>
	
		<rect x="80.646" y="217.542" fill="none" stroke="#FFFFFF" stroke-linecap="round" stroke-linejoin="round" stroke-miterlimit="10" width="20.7" height="2.7"/>
	
		<line fill="none" stroke="#FFFFFF" stroke-linecap="round" stroke-linejoin="round" stroke-miterlimit="10" x1="86.046" y1="217.542" x2="86.046" y2="220.242"/>
	
		<line fill="none" stroke="#FFFFFF" stroke-linecap="round" stroke-linejoin="round" stroke-miterlimit="10" x1="91.446" y1="217.542" x2="91.446" y2="220.242"/>
	
		<line fill="none" stroke="#FFFFFF" stroke-linecap="round" stroke-linejoin="round" stroke-miterlimit="10" x1="96.846" y1="217.542" x2="96.846" y2="220.242"/>
	
		<line fill="none" stroke="#FFFFFF" stroke-linecap="round" stroke-linejoin="round" stroke-miterlimit="10" x1="72.737" y1="234.341" x2="72.737" y2="213.942"/>
	
		<line fill="none" stroke="#FFFFFF" stroke-linecap="round" stroke-linejoin="round" stroke-miterlimit="10" x1="78.137" y1="234.341" x2="78.137" y2="213.942"/>
	
		<rect x="71.837" y="211.242" fill="none" stroke="#FFFFFF" stroke-linecap="round" stroke-linejoin="round" stroke-miterlimit="10" width="7.2" height="2.7"/>
</g>
<g>
	
		<circle fill="none" stroke="#FFFFFF" stroke-linecap="round" stroke-linejoin="round" stroke-miterlimit="10" cx="39.639" cy="219.094" r="3.204"/>
	
		<circle fill="none" stroke="#FFFFFF" stroke-linecap="round" stroke-linejoin="round" stroke-miterlimit="10" cx="39.639" cy="231.598" r="1.543"/>
	<path fill="none" stroke="#FFFFFF" stroke-linecap="round" stroke-linejoin="round" stroke-miterlimit="10" d="M42.188,213.187
		h-5.212c-0.556,0-1.103,0.174-1.544,0.513c-1.626,1.247-2.676,3.206-2.676,5.414c0,2.174,1.019,4.106,2.604,5.355
		c0.444,0.35,1,0.529,1.565,0.529h5.316c0.565,0,1.121-0.179,1.565-0.529c1.584-1.249,2.604-3.181,2.604-5.355
		c0-2.207-1.05-4.167-2.676-5.414C43.291,213.361,42.745,213.187,42.188,213.187z"/>
	<polyline fill="none" stroke="#FFFFFF" stroke-linecap="round" stroke-linejoin="round" stroke-miterlimit="10" points="
		44.04,237.597 44.04,227.697 35.125,227.697 35.125,237.597 	"/>
	
		<line fill="none" stroke="#FFFFFF" stroke-linecap="round" stroke-linejoin="round" stroke-miterlimit="10" x1="39.639" y1="237.597" x2="39.639" y2="234.293"/>
	<polyline fill="none" stroke="#FFFFFF" stroke-linecap="round" stroke-linejoin="round" stroke-miterlimit="10" points="
		39.639,234.293 41.475,235.945 41.475,237.597 	"/>
	
		<line fill="none" stroke="#FFFFFF" stroke-linecap="round" stroke-linejoin="round" stroke-miterlimit="10" x1="37.554" y1="237.597" x2="39.639" y2="234.293"/>
	
		<line fill="none" stroke="#FFFFFF" stroke-linecap="round" stroke-linejoin="round" stroke-miterlimit="10" x1="44.04" y1="231.598" x2="48.209" y2="231.598"/>
	
		<line fill="none" stroke="#FFFFFF" stroke-linecap="round" stroke-linejoin="round" stroke-miterlimit="10" x1="30.956" y1="231.598" x2="35.125" y2="231.598"/>
	<path fill="none" stroke="#FFFFFF" stroke-linecap="round" stroke-linejoin="round" stroke-miterlimit="10" d="M48.209,237.597
		v-26.221c0-0.619-0.223-1.218-0.628-1.686c-1.943-2.236-4.802-3.654-7.998-3.654c-3.195,0-6.055,1.418-7.998,3.654
		c-0.406,0.467-0.628,1.067-0.628,1.686v26.221"/>
</g>
<g>
	<g>
		<path fill="none" stroke="#FFFFFF" stroke-linecap="round" stroke-linejoin="round" stroke-miterlimit="10" d="M155.322,37.706
			h-17.237c-1.096,0-1.984-0.888-1.984-1.984v-4.069c0-1.096,0.888-1.984,1.984-1.984h17.237c1.096,0,1.984,0.888,1.984,1.984v4.069
			C157.306,36.817,156.418,37.706,155.322,37.706z"/>
		<path fill="none" stroke="#FFFFFF" stroke-linecap="round" stroke-linejoin="round" stroke-miterlimit="10" d="M151.706,34.452
			v0.453h2.8v-2.437h-0.816C152.595,32.468,151.706,33.357,151.706,34.452z"/>
		<path fill="none" stroke="#FFFFFF" stroke-linecap="round" stroke-linejoin="round" stroke-miterlimit="10" d="M141.701,34.452
			v0.453h-2.8v-2.437h0.816C140.813,32.468,141.701,33.357,141.701,34.452z"/>
		
			<line fill="none" stroke="#FFFFFF" stroke-linecap="round" stroke-linejoin="round" stroke-miterlimit="10" x1="157.306" y1="28.268" x2="159.143" y2="28.268"/>
		
			<line fill="none" stroke="#FFFFFF" stroke-linecap="round" stroke-linejoin="round" stroke-miterlimit="10" x1="134.264" y1="28.268" x2="136.101" y2="28.268"/>
		<polyline fill="none" stroke="#FFFFFF" stroke-linecap="round" stroke-linejoin="round" stroke-miterlimit="10" points="
			152.085,40.506 155.322,40.506 155.322,37.706 		"/>
		<polyline fill="none" stroke="#FFFFFF" stroke-linecap="round" stroke-linejoin="round" stroke-miterlimit="10" points="
			141.322,40.506 138.085,40.506 138.085,37.706 		"/>
		<path fill="none" stroke="#FFFFFF" stroke-linecap="round" stroke-linejoin="round" stroke-miterlimit="10" d="M154.775,29.668
			l-1.623-3.713c-0.316-0.723-1.03-1.19-1.818-1.19h-9.261c-0.789,0-1.502,0.467-1.818,1.19l-1.623,3.713"/>
	</g>
</g>
<g>
	
		<circle fill="none" stroke="#FFFFFF" stroke-width="2" stroke-linecap="round" stroke-linejoin="round" stroke-miterlimit="10" cx="89.291" cy="129.903" r="5.821"/>
	
		<circle fill="none" stroke="#FFFFFF" stroke-width="2" stroke-linecap="round" stroke-linejoin="round" stroke-miterlimit="10" cx="89.291" cy="146.045" r="5.821"/>
	
		<circle fill="none" stroke="#FFFFFF" stroke-width="2" stroke-linecap="round" stroke-linejoin="round" stroke-miterlimit="10" cx="89.291" cy="113.761" r="5.821"/>
	
		<rect x="78.971" y="103.441" fill="none" stroke="#FFFFFF" stroke-width="2" stroke-linecap="round" stroke-linejoin="round" stroke-miterlimit="10" width="20.642" height="52.925"/>
	<path fill="none" stroke="#FFFFFF" stroke-width="2" stroke-linecap="round" stroke-linejoin="round" stroke-miterlimit="10" d="
		M89.291,165.365L89.291,165.365c-10.671,0-19.321-8.65-19.321-19.321v-32.283c0-10.671,8.65-19.321,19.321-19.321h0
		c10.671,0,19.321,8.65,19.321,19.321v32.283C108.612,156.715,99.962,165.365,89.291,165.365z"/>
	
		<line fill="none" stroke="#FFFFFF" stroke-width="2" stroke-linecap="round" stroke-linejoin="round" stroke-miterlimit="10" x1="83.471" y1="87.691" x2="95.112" y2="87.691"/>
	
		<line fill="none" stroke="#FFFFFF" stroke-width="2" stroke-linecap="round" stroke-linejoin="round" stroke-miterlimit="10" x1="83.471" y1="165.365" x2="83.471" y2="173.968"/>
	
		<line fill="none" stroke="#FFFFFF" stroke-width="2" stroke-linecap="round" stroke-linejoin="round" stroke-miterlimit="10" x1="95.112" y1="164.47" x2="95.112" y2="173.968"/>
</g>
<circle fill="none" stroke="#FFFFFF" stroke-linecap="round" stroke-linejoin="round" stroke-miterlimit="10" cx="137.732" cy="223.583" r="2.734"/>
<path fill="none" stroke="#FFFFFF" stroke-linecap="round" stroke-linejoin="round" stroke-miterlimit="10" d="M142.715,223.582
	c0-1.274-0.485-2.466-1.348-3.391V215.9h-7.269v4.292c-0.863,0.924-1.348,2.116-1.348,3.39c0,1.274,0.485,2.466,1.348,3.39v3.392
	h7.269v-3.392C142.23,226.049,142.715,224.857,142.715,223.582z"/>
<polyline fill="none" stroke="#FFFFFF" stroke-linecap="round" stroke-linejoin="round" stroke-miterlimit="10" points="
	140.466,230.365 140.466,236.222 134.998,236.222 134.998,230.365 "/>
<polyline fill="none" stroke="#FFFFFF" stroke-linecap="round" stroke-linejoin="round" stroke-miterlimit="10" points="
	134.998,215.9 134.998,211.882 140.466,211.882 140.466,215.9 "/>
<path fill="none" stroke="#FFFFFF" stroke-linecap="round" stroke-linejoin="round" stroke-miterlimit="10" d="M139.567,211.882
	v-4.124c0-0.704-0.571-1.276-1.276-1.276h-1.118c-0.704,0-1.276,0.571-1.276,1.276v4.124"/>
<path fill="none" stroke="#FFFFFF" stroke-linecap="round" stroke-linejoin="round" stroke-miterlimit="10" d="M130.05,234.422
	v-28.988c0-1.409,1.142-2.551,2.551-2.551h10.263c1.409,0,2.551,1.142,2.551,2.551v28.988"/>
<line fill="none" stroke="#FFFFFF" stroke-linecap="round" stroke-linejoin="round" stroke-miterlimit="10" x1="135.932" y1="239.433" x2="135.932" y2="236.222"/>
<line fill="none" stroke="#FFFFFF" stroke-linecap="round" stroke-linejoin="round" stroke-miterlimit="10" x1="139.532" y1="236.222" x2="139.532" y2="239.433"/>
</svg>
