<?xml version="1.0" encoding="utf-8"?>
<!-- Generator: Adobe Illustrator 24.0.0, SVG Export Plug-In . SVG Version: 6.00 Build 0)  -->
<svg version="1.1" id="Laag_1" xmlns="http://www.w3.org/2000/svg" xmlns:xlink="http://www.w3.org/1999/xlink" x="0px" y="0px"
	 viewBox="0 0 178.583 277.795" enable-background="new 0 0 178.583 277.795" xml:space="preserve">
<path fill="#0080BB" d="M164.409,277.795H14.173C6.346,277.795,0,271.45,0,263.622V14.173C0,6.346,6.346,0,14.173,0h150.236
	c7.828,0,14.173,6.346,14.173,14.173v249.449C178.583,271.45,172.237,277.795,164.409,277.795z"/>
<g>
	
		<circle fill="none" stroke="#FFFFFF" stroke-linecap="round" stroke-linejoin="round" stroke-miterlimit="10" cx="130.441" cy="224.521" r="3.518"/>
	<path fill="none" stroke="#FFFFFF" stroke-linecap="round" stroke-linejoin="round" stroke-miterlimit="10" d="M131.024,223.253
		c-0.699,0-1.268,0.569-1.268,1.268c0,0.7,0.569,1.268,1.268,1.268"/>
	<path fill="none" stroke="#FFFFFF" stroke-linecap="round" stroke-linejoin="round" stroke-miterlimit="10" d="M139.373,218.303
		h5.386v-0.9h2.324c0.704,0,1.276,0.571,1.276,1.276v15.285c0,0.704-0.571,1.276-1.276,1.276h-15.367
		c-0.704,0-1.276-0.571-1.276-1.276v-4.125c2.932,0,5.318-2.385,5.318-5.317c0-2.933-2.385-5.318-5.318-5.318v-0.524
		c0-0.704,0.571-1.276,1.276-1.276h7.683L139.373,218.303z"/>
	
		<line fill="none" stroke="#FFFFFF" stroke-linecap="round" stroke-linejoin="round" stroke-miterlimit="10" x1="124.223" y1="224.521" x2="124.223" y2="232.539"/>
	
		<line fill="none" stroke="#FFFFFF" stroke-linecap="round" stroke-linejoin="round" stroke-miterlimit="10" x1="127.46" y1="230.739" x2="130.441" y2="230.739"/>
	<path fill="none" stroke="#FFFFFF" stroke-linecap="round" stroke-linejoin="round" stroke-miterlimit="10" d="M143.108,228.039
		h-2.084c-1.409,0-2.551-1.142-2.551-2.551v-1.934c0-1.409,1.142-2.551,2.551-2.551h2.084c1.409,0,2.551,1.142,2.551,2.551v1.934
		C145.659,226.897,144.517,228.039,143.108,228.039z"/>
	<path fill="none" stroke="#FFFFFF" stroke-linecap="round" stroke-linejoin="round" stroke-miterlimit="10" d="M140.148,205.482
		L140.148,205.482c-0.426,0.426-0.426,1.116,0,1.542l1.004,1.004c0.426,0.426,1.116,0.426,1.542,0l0,0
		c0.426-0.426,0.426-1.116,0-1.542l-1.004-1.004C141.264,205.056,140.573,205.056,140.148,205.482z"/>
	<path fill="none" stroke="#FFFFFF" stroke-linecap="round" stroke-linejoin="round" stroke-miterlimit="10" d="M135.123,208.027
		L135.123,208.027c0.426,0.426,1.116,0.426,1.542,0l1.004-1.004c0.426-0.426,0.426-1.116,0-1.542l0,0
		c-0.426-0.426-1.116-0.426-1.542,0l-1.004,1.004C134.697,206.911,134.697,207.601,135.123,208.027z"/>
	
		<line fill="none" stroke="#FFFFFF" stroke-linecap="round" stroke-linejoin="round" stroke-miterlimit="10" x1="140.273" y1="218.303" x2="140.273" y2="215.603"/>
	
		<line fill="none" stroke="#FFFFFF" stroke-linecap="round" stroke-linejoin="round" stroke-miterlimit="10" x1="143.859" y1="218.303" x2="143.859" y2="215.603"/>
	<path fill="none" stroke="#FFFFFF" stroke-linecap="round" stroke-linejoin="round" stroke-miterlimit="10" d="M143.484,210.217
		h-2.835c-0.704,0-1.276,0.571-1.276,1.276v4.11h5.386v-4.11C144.759,210.788,144.188,210.217,143.484,210.217z"/>
	
		<line fill="none" stroke="#FFFFFF" stroke-linecap="round" stroke-linejoin="round" stroke-miterlimit="10" x1="142.066" y1="211.117" x2="142.066" y2="207.517"/>
	
		<line fill="none" stroke="#FFFFFF" stroke-linecap="round" stroke-linejoin="round" stroke-miterlimit="10" x1="140.754" y1="206.152" x2="137.154" y2="206.152"/>
	
		<line fill="none" stroke="#FFFFFF" stroke-linecap="round" stroke-linejoin="round" stroke-miterlimit="10" x1="130.39" y1="224.521" x2="129.122" y2="224.521"/>
</g>
<g>
	
		<rect x="83.626" y="206.936" fill="none" stroke="#FFFFFF" stroke-linecap="round" stroke-linejoin="round" stroke-miterlimit="10" width="11.331" height="21.236"/>
	
		<rect x="86.326" y="222.772" fill="none" stroke="#FFFFFF" stroke-linecap="round" stroke-linejoin="round" stroke-miterlimit="10" width="5.931" height="2.7"/>
	
		<line fill="none" stroke="#FFFFFF" stroke-linecap="round" stroke-linejoin="round" stroke-miterlimit="10" x1="86.326" y1="211.436" x2="91.357" y2="211.436"/>
	
		<line fill="none" stroke="#FFFFFF" stroke-linecap="round" stroke-linejoin="round" stroke-miterlimit="10" x1="86.326" y1="214.136" x2="91.357" y2="214.136"/>
	
		<line fill="none" stroke="#FFFFFF" stroke-linecap="round" stroke-linejoin="round" stroke-miterlimit="10" x1="86.326" y1="216.836" x2="91.357" y2="216.836"/>
	
		<line fill="none" stroke="#FFFFFF" stroke-linecap="round" stroke-linejoin="round" stroke-miterlimit="10" x1="86.326" y1="219.536" x2="89.557" y2="219.536"/>
	<path fill="none" stroke="#FFFFFF" stroke-linecap="round" stroke-linejoin="round" stroke-miterlimit="10" d="M90.272,231.669
		h-1.961c-0.352,0-0.638-0.286-0.638-0.638v-0.422c0-0.352,0.286-0.638,0.638-0.638h1.961c0.352,0,0.638,0.286,0.638,0.638v0.422
		C90.91,231.384,90.624,231.669,90.272,231.669z"/>
	<path fill="none" stroke="#FFFFFF" stroke-linecap="round" stroke-linejoin="round" stroke-miterlimit="10" d="M95.106,203.335
		H83.477c-1.409,0-2.551,1.142-2.551,2.551v23.733c0,1.409,1.142,2.551,2.551,2.551h2.02c0.704,0,1.276,0.571,1.276,1.276v5.811
		c0,1.057,0.857,1.913,1.913,1.913h1.21c1.057,0,1.913-0.857,1.913-1.913v-5.811c0-0.704,0.571-1.276,1.276-1.276h2.02
		c1.409,0,2.551-1.142,2.551-2.551v-23.733C97.657,204.478,96.514,203.335,95.106,203.335z"/>
</g>
<g>
	
		<rect x="26.729" y="229.877" fill="none" stroke="#FFFFFF" stroke-linecap="round" stroke-linejoin="round" stroke-miterlimit="10" width="23.636" height="6.121"/>
	<path fill="none" stroke="#FFFFFF" stroke-linecap="round" stroke-linejoin="round" stroke-miterlimit="10" d="M30.329,208.56
		v7.498c0,1.409,1.142,2.551,2.551,2.551h11.334c1.409,0,2.551-1.142,2.551-2.551v-7.498c0-1.409-1.142-2.551-2.551-2.551H32.88
		C31.471,206.009,30.329,207.151,30.329,208.56z"/>
	
		<line fill="none" stroke="#FFFFFF" stroke-linecap="round" stroke-linejoin="round" stroke-miterlimit="10" x1="47.665" y1="234.198" x2="47.665" y2="231.677"/>
	
		<line fill="none" stroke="#FFFFFF" stroke-linecap="round" stroke-linejoin="round" stroke-miterlimit="10" x1="45.865" y1="227.177" x2="31.229" y2="227.177"/>
	
		<rect x="33.029" y="208.709" fill="none" stroke="#FFFFFF" stroke-linecap="round" stroke-linejoin="round" stroke-miterlimit="10" width="11.036" height="7.2"/>
	
		<line fill="none" stroke="#FFFFFF" stroke-linecap="round" stroke-linejoin="round" stroke-miterlimit="10" x1="48.565" y1="224.477" x2="28.529" y2="224.477"/>
	<path fill="none" stroke="#FFFFFF" stroke-linecap="round" stroke-linejoin="round" stroke-miterlimit="10" d="M38.547,218.609"/>
	
		<line fill="none" stroke="#FFFFFF" stroke-linecap="round" stroke-linejoin="round" stroke-miterlimit="10" x1="40.347" y1="218.609" x2="40.347" y2="221.777"/>
	
		<line fill="none" stroke="#FFFFFF" stroke-linecap="round" stroke-linejoin="round" stroke-miterlimit="10" x1="36.747" y1="218.609" x2="36.747" y2="221.777"/>
</g>
<g>
	<text transform="matrix(1 0 0 1 15.2947 252.3287)" fill="#FFFFFF" font-family="'Montserrat-Regular'" font-size="8px">Weegschaal</text>
</g>
<g>
	<text transform="matrix(1 0 0 1 72.9708 252.3291)" fill="#FFFFFF" font-family="'Montserrat-Regular'" font-size="8px">Scanner</text>
</g>
<text transform="matrix(1 0 0 1 23.1642 37.5056)"><tspan x="0" y="0" fill="#FFFFFF" font-family="'Montserrat-ExtraBold'" font-size="14px" letter-spacing="1">SUPERMARKT</tspan><tspan x="0" y="18" fill="#FFFFFF" font-family="'Montserrat-Regular'" font-size="10px">Kassa</tspan></text>
<g>
	
		<circle fill="none" stroke="#FFFFFF" stroke-width="2" stroke-linecap="round" stroke-linejoin="round" stroke-miterlimit="10" cx="54.602" cy="156.22" r="0.391"/>
	
		<circle fill="none" stroke="#FFFFFF" stroke-width="2" stroke-linecap="round" stroke-linejoin="round" stroke-miterlimit="10" cx="59.102" cy="156.22" r="0.391"/>
	
		<circle fill="none" stroke="#FFFFFF" stroke-width="2" stroke-linecap="round" stroke-linejoin="round" stroke-miterlimit="10" cx="63.602" cy="156.22" r="0.391"/>
	
		<circle fill="none" stroke="#FFFFFF" stroke-width="2" stroke-linecap="round" stroke-linejoin="round" stroke-miterlimit="10" cx="54.602" cy="160.72" r="0.391"/>
	
		<circle fill="none" stroke="#FFFFFF" stroke-width="2" stroke-linecap="round" stroke-linejoin="round" stroke-miterlimit="10" cx="59.102" cy="160.72" r="0.391"/>
	
		<circle fill="none" stroke="#FFFFFF" stroke-width="2" stroke-linecap="round" stroke-linejoin="round" stroke-miterlimit="10" cx="63.602" cy="160.72" r="0.391"/>
	
		<circle fill="none" stroke="#FFFFFF" stroke-width="2" stroke-linecap="round" stroke-linejoin="round" stroke-miterlimit="10" cx="54.602" cy="165.22" r="0.391"/>
	
		<circle fill="none" stroke="#FFFFFF" stroke-width="2" stroke-linecap="round" stroke-linejoin="round" stroke-miterlimit="10" cx="59.102" cy="165.22" r="0.391"/>
	
		<circle fill="none" stroke="#FFFFFF" stroke-width="2" stroke-linecap="round" stroke-linejoin="round" stroke-miterlimit="10" cx="63.602" cy="165.22" r="0.391"/>
	
		<rect x="53.821" y="144.58" fill="none" stroke="#FFFFFF" stroke-width="2" stroke-linecap="round" stroke-linejoin="round" stroke-miterlimit="10" width="10.562" height="6.75"/>
	<path fill="none" stroke="#FFFFFF" stroke-width="2" stroke-linecap="round" stroke-linejoin="round" stroke-miterlimit="10" d="
		M47.071,144.208v21.761c0,3.522,2.855,6.378,6.378,6.378h11.306c3.522,0,6.378-2.855,6.378-6.378v-21.761
		c0-3.522-2.856-6.378-6.378-6.378H53.449C49.926,137.83,47.071,140.685,47.071,144.208z"/>
	<path fill="none" stroke="#FFFFFF" stroke-width="2" stroke-linecap="round" stroke-linejoin="round" stroke-miterlimit="10" d="
		M112.944,131.08H64.011c-3.522,0-6.378-2.855-6.378-6.378V89.74c0-3.522,2.856-6.378,6.378-6.378h48.933
		c3.522,0,6.378,2.856,6.378,6.378v34.962C119.322,128.224,116.467,131.08,112.944,131.08z"/>
	
		<rect x="64.383" y="90.112" fill="none" stroke="#FFFFFF" stroke-width="2" stroke-linecap="round" stroke-linejoin="round" stroke-miterlimit="10" width="48.189" height="34.217"/>
	
		<rect x="84.633" y="137.83" fill="none" stroke="#FFFFFF" stroke-width="2" stroke-linecap="round" stroke-linejoin="round" stroke-miterlimit="10" width="7.689" height="6.75"/>
	
		<rect x="108.072" y="137.83" fill="none" stroke="#FFFFFF" stroke-width="2" stroke-linecap="round" stroke-linejoin="round" stroke-miterlimit="10" width="23.439" height="15.75"/>
	
		<rect x="114.822" y="142.33" fill="none" stroke="#FFFFFF" stroke-width="2" stroke-linecap="round" stroke-linejoin="round" stroke-miterlimit="10" width="9.939" height="4.5"/>
	
		<line fill="none" stroke="#FFFFFF" stroke-width="2" stroke-linecap="round" stroke-linejoin="round" stroke-miterlimit="10" x1="77.883" y1="160.33" x2="77.883" y2="137.83"/>
	
		<line fill="none" stroke="#FFFFFF" stroke-width="2" stroke-linecap="round" stroke-linejoin="round" stroke-miterlimit="10" x1="99.072" y1="137.83" x2="99.072" y2="160.33"/>
	
		<line fill="none" stroke="#FFFFFF" stroke-width="2" stroke-linecap="round" stroke-linejoin="round" stroke-miterlimit="10" x1="108.072" y1="144.58" x2="99.072" y2="144.58"/>
</g>
<g>
	<path fill="none" stroke="#FFFFFF" stroke-linecap="round" stroke-linejoin="round" stroke-miterlimit="10" d="M145.687,36.984"/>
	
		<line fill="none" stroke="#FFFFFF" stroke-linecap="round" stroke-linejoin="round" stroke-miterlimit="10" x1="158.679" y1="24.384" x2="161.129" y2="24.384"/>
	
		<circle fill="none" stroke="#FFFFFF" stroke-linecap="round" stroke-linejoin="round" stroke-miterlimit="10" cx="152.671" cy="40.916" r="0.782"/>
	
		<circle fill="none" stroke="#FFFFFF" stroke-linecap="round" stroke-linejoin="round" stroke-miterlimit="10" cx="144.97" cy="40.916" r="0.782"/>
	<polyline fill="none" stroke="#FFFFFF" stroke-linecap="round" stroke-linejoin="round" stroke-miterlimit="10" points="
		152.257,33.834 142.234,33.834 140.052,27.534 157.588,27.534 154.316,36.984 143.324,36.984 	"/>
</g>
<g>
	<text transform="matrix(1 0 0 1 119.0515 252.3286)" fill="#FFFFFF" font-family="'Montserrat-Regular'" font-size="8px">Wagentje</text>
</g>
</svg>
