<?xml version="1.0" encoding="utf-8"?>
<!-- Generator: Adobe Illustrator 24.0.0, SVG Export Plug-In . SVG Version: 6.00 Build 0)  -->
<svg version="1.1" id="Laag_1" xmlns="http://www.w3.org/2000/svg" xmlns:xlink="http://www.w3.org/1999/xlink" x="0px" y="0px"
	 viewBox="0 0 178.583 277.795" enable-background="new 0 0 178.583 277.795" xml:space="preserve">
<path fill="#BE8646" d="M164.409,277.795H14.173C6.346,277.795,0,271.45,0,263.622V14.173C0,6.346,6.346,0,14.173,0h150.236
	c7.828,0,14.173,6.346,14.173,14.173v249.449C178.583,271.45,172.237,277.795,164.409,277.795z"/>
<g>
	<text transform="matrix(1 0 0 1 121.4031 252.3286)" fill="#FFFFFF" font-family="'Montserrat-Regular'" font-size="8px">Deurslot</text>
</g>
<g>
	<text transform="matrix(1 0 0 1 25.8425 252.3288)" fill="#FFFFFF" font-family="'Montserrat-Regular'" font-size="8px">Liftdeur</text>
</g>
<g>
	<text transform="matrix(1 0 0 1 67.3954 252.3291)" fill="#FFFFFF" font-family="'Montserrat-Regular'" font-size="8px">OV-poortje</text>
</g>
<text transform="matrix(1 0 0 1 23.1642 37.5056)"><tspan x="0" y="0" fill="#FFFFFF" font-family="'Montserrat-ExtraBold'" font-size="14px" letter-spacing="1">DEUREN</tspan><tspan x="0" y="18" fill="#FFFFFF" font-family="'Montserrat-Regular'" font-size="10px">Schuifdeur</tspan></text>
<g>
	
		<rect x="139.225" y="19.842" fill="none" stroke="#FFFFFF" stroke-linecap="round" stroke-linejoin="round" stroke-miterlimit="10" width="13.497" height="24.915"/>
	
		<circle fill="none" stroke="#FFFFFF" stroke-linecap="round" stroke-linejoin="round" stroke-miterlimit="10" cx="149.304" cy="34.041" r="0.645"/>
	
		<line fill="none" stroke="#FFFFFF" stroke-linecap="round" stroke-linejoin="round" stroke-miterlimit="10" x1="149.304" y1="37.836" x2="142.643" y2="37.836"/>
	
		<rect x="142.643" y="23.176" fill="none" stroke="#FFFFFF" stroke-linecap="round" stroke-linejoin="round" stroke-miterlimit="10" width="6.662" height="7.07"/>
</g>
<g>
	<polygon fill="none" stroke="#FFFFFF" stroke-linecap="round" stroke-linejoin="round" stroke-miterlimit="10" points="
		97.167,226.87 96.756,229.658 99.543,229.247 	"/>
	
		<line fill="none" stroke="#FFFFFF" stroke-linecap="round" stroke-linejoin="round" stroke-miterlimit="10" x1="98.355" y1="228.059" x2="99.543" y2="226.87"/>
	<path fill="none" stroke="#FFFFFF" stroke-linecap="round" stroke-linejoin="round" stroke-miterlimit="10" d="M94.261,236.253
		v-20.894c0-1.409,1.142-2.551,2.551-2.551h3.085c1.409,0,2.551,1.142,2.551,2.551v20.894"/>
	
		<line fill="none" stroke="#FFFFFF" stroke-linecap="round" stroke-linejoin="round" stroke-miterlimit="10" x1="76.134" y1="236.253" x2="76.134" y2="212.807"/>
	<path fill="none" stroke="#FFFFFF" stroke-linecap="round" stroke-linejoin="round" stroke-miterlimit="10" d="M89.067,208.576
		h2.431v18.506h-2.431c-1.409,0-2.551-1.142-2.551-2.551v-13.403C86.516,209.718,87.658,208.576,89.067,208.576z"/>
	<path fill="none" stroke="#FFFFFF" stroke-linecap="round" stroke-linejoin="round" stroke-miterlimit="10" d="M81.265,227.081
		h-2.431v-18.506h2.431c1.409,0,2.551,1.142,2.551,2.551v13.403C83.816,225.939,82.674,227.081,81.265,227.081z"/>
	
		<rect x="96.434" y="215.507" fill="none" stroke="#FFFFFF" stroke-linecap="round" stroke-linejoin="round" stroke-miterlimit="10" width="3.843" height="2.748"/>
	<path fill="none" stroke="#FFFFFF" stroke-linecap="round" stroke-linejoin="round" stroke-miterlimit="10" d="M98.903,220.056
		h-1.095c-0.759,0-1.374,0.615-1.374,1.374l0,0c0,0.759,0.615,1.374,1.374,1.374h1.095c0.759,0,1.374-0.615,1.374-1.374l0,0
		C100.277,220.671,99.662,220.056,98.903,220.056z"/>
</g>
<g>
	
		<rect x="34.547" y="211.388" fill="none" stroke="#FFFFFF" stroke-linecap="round" stroke-linejoin="round" stroke-miterlimit="10" width="12.6" height="25.827"/>
	<polyline fill="none" stroke="#FFFFFF" stroke-linecap="round" stroke-linejoin="round" stroke-miterlimit="10" points="
		55.266,237.215 55.266,205.645 47.147,205.645 	"/>
	
		<line fill="none" stroke="#FFFFFF" stroke-linecap="round" stroke-linejoin="round" stroke-miterlimit="10" x1="40.847" y1="211.388" x2="40.847" y2="237.215"/>
	
		<rect x="38.408" y="206.545" fill="none" stroke="#FFFFFF" stroke-linecap="round" stroke-linejoin="round" stroke-miterlimit="10" width="4.878" height="2.144"/>
	<polygon fill="none" stroke="#FFFFFF" stroke-linecap="round" stroke-linejoin="round" stroke-miterlimit="10" points="
		52.566,222.794 51.206,220.964 49.847,222.794 	"/>
	<polygon fill="none" stroke="#FFFFFF" stroke-linecap="round" stroke-linejoin="round" stroke-miterlimit="10" points="
		49.847,225.494 51.206,227.324 52.566,225.494 	"/>
	
		<line fill="none" stroke="#FFFFFF" stroke-linecap="round" stroke-linejoin="round" stroke-miterlimit="10" x1="29.147" y1="237.215" x2="29.147" y2="205.645"/>
</g>
<g>
	<path fill="none" stroke="#FFFFFF" stroke-linecap="round" stroke-linejoin="round" stroke-miterlimit="10" d="M139.225,221.378
		c-2.3,0-4.171-1.871-4.171-4.171s1.871-4.171,4.171-4.171c2.3,0,4.171,1.871,4.171,4.171S141.525,221.378,139.225,221.378z"/>
	<path fill="none" stroke="#FFFFFF" stroke-linecap="round" stroke-linejoin="round" stroke-miterlimit="10" d="M139.225,215.285
		c-1.059,0-1.921,0.862-1.921,1.921"/>
	<path fill="none" stroke="#FFFFFF" stroke-linecap="round" stroke-linejoin="round" stroke-miterlimit="10" d="M143.545,234.878
		h-8.64c-1.409,0-2.551-1.142-2.551-2.551v-19.44c0-1.409,1.142-2.551,2.551-2.551h8.64c1.409,0,2.551,1.142,2.551,2.551v19.44
		C146.096,233.736,144.954,234.878,143.545,234.878z"/>
	
		<line fill="none" stroke="#FFFFFF" stroke-linecap="round" stroke-linejoin="round" stroke-miterlimit="10" x1="129.654" y1="237.578" x2="129.654" y2="207.635"/>
	
		<line fill="none" stroke="#FFFFFF" stroke-linecap="round" stroke-linejoin="round" stroke-miterlimit="10" x1="148.796" y1="207.635" x2="148.796" y2="237.578"/>
	<path fill="none" stroke="#FFFFFF" stroke-linecap="round" stroke-linejoin="round" stroke-miterlimit="10" d="M141.772,226.664
		c0-1.405-1.143-2.548-2.548-2.548c-1.405,0-2.548,1.143-2.548,2.548c0,0.774,0.354,1.459,0.9,1.927v2.687h3.295v-2.687
		C141.418,228.123,141.772,227.437,141.772,226.664z"/>
	
		<line fill="none" stroke="#FFFFFF" stroke-linecap="round" stroke-linejoin="round" stroke-miterlimit="10" x1="139.225" y1="226.316" x2="139.225" y2="227.498"/>
</g>
<g>
	
		<rect x="93.791" y="99.276" fill="none" stroke="#FFFFFF" stroke-width="2" stroke-linecap="round" stroke-linejoin="round" stroke-miterlimit="10" width="17.59" height="69.067"/>
	
		<polygon fill="none" stroke="#FFFFFF" stroke-width="2" stroke-linecap="round" stroke-linejoin="round" stroke-miterlimit="10" points="
		100.541,135.513 105.117,132.114 100.541,128.715 	"/>
	
		<rect x="67.202" y="99.276" fill="none" stroke="#FFFFFF" stroke-width="2" stroke-linecap="round" stroke-linejoin="round" stroke-miterlimit="10" width="17.59" height="69.067"/>
	
		<polygon fill="none" stroke="#FFFFFF" stroke-width="2" stroke-linecap="round" stroke-linejoin="round" stroke-miterlimit="10" points="
		78.041,128.715 73.466,132.114 78.041,135.513 	"/>
	
		<polyline fill="none" stroke="#FFFFFF" stroke-width="2" stroke-linecap="round" stroke-linejoin="round" stroke-miterlimit="10" points="
		115.881,99.276 120.176,99.276 120.176,168.343 115.881,168.343 	"/>
	
		<polyline fill="none" stroke="#FFFFFF" stroke-width="2" stroke-linecap="round" stroke-linejoin="round" stroke-miterlimit="10" points="
		126.926,168.343 126.926,92.526 100.541,92.526 	"/>
	
		<polyline fill="none" stroke="#FFFFFF" stroke-width="2" stroke-linecap="round" stroke-linejoin="round" stroke-miterlimit="10" points="
		62.702,99.276 58.407,99.276 58.407,168.343 62.702,168.343 	"/>
	
		<polyline fill="none" stroke="#FFFFFF" stroke-width="2" stroke-linecap="round" stroke-linejoin="round" stroke-miterlimit="10" points="
		51.657,168.343 51.657,92.526 78.041,92.526 	"/>
	<path fill="none" stroke="#FFFFFF" stroke-width="2" stroke-linecap="round" stroke-linejoin="round" stroke-miterlimit="10" d="
		M90.602,95.206H87.98c-1.761,0-3.189-1.428-3.189-3.189v-2.17h9v2.17C93.791,93.778,92.364,95.206,90.602,95.206z"/>
</g>
</svg>
