<?xml version="1.0" encoding="utf-8"?>
<!-- Generator: Adobe Illustrator 24.0.0, SVG Export Plug-In . SVG Version: 6.00 Build 0)  -->
<svg version="1.1" id="Laag_1" xmlns="http://www.w3.org/2000/svg" xmlns:xlink="http://www.w3.org/1999/xlink" x="0px" y="0px"
	 viewBox="0 0 178.583 277.795" enable-background="new 0 0 178.583 277.795" xml:space="preserve">
<path fill="#FBBA00" d="M164.409,277.795H14.173C6.346,277.795,0,271.45,0,263.622V14.173C0,6.346,6.346,0,14.173,0h150.236
	c7.828,0,14.173,6.346,14.173,14.173v249.449C178.583,271.45,172.237,277.795,164.409,277.795z"/>
<g>
	<path fill="none" stroke="#FFFFFF" stroke-linecap="round" stroke-linejoin="round" stroke-miterlimit="10" d="M94.742,214.745
		h-6.487c-2.136,0-3.868,1.732-3.868,3.868v4.215h14.223v-4.215C98.609,216.477,96.878,214.745,94.742,214.745z"/>
	
		<line fill="none" stroke="#FFFFFF" stroke-linecap="round" stroke-linejoin="round" stroke-miterlimit="10" x1="89.619" y1="212.699" x2="93.377" y2="212.699"/>
	<path fill="none" stroke="#FFFFFF" stroke-linecap="round" stroke-linejoin="round" stroke-miterlimit="10" d="M98.609,228.152
		c0,1.068-0.866,1.934-1.934,1.934H86.321c-1.068,0-1.934-0.866-1.934-1.934"/>
	
		<line fill="none" stroke="#FFFFFF" stroke-linecap="round" stroke-linejoin="round" stroke-miterlimit="10" x1="81.683" y1="225.531" x2="101.338" y2="225.531"/>
	<polyline fill="none" stroke="#FFFFFF" stroke-linecap="round" stroke-linejoin="round" stroke-miterlimit="10" points="
		77.244,221.62 81.658,221.62 81.658,222.828 	"/>
	
		<line fill="none" stroke="#FFFFFF" stroke-linecap="round" stroke-linejoin="round" stroke-miterlimit="10" x1="89.696" y1="231.888" x2="89.696" y2="234.97"/>
	
		<line fill="none" stroke="#FFFFFF" stroke-linecap="round" stroke-linejoin="round" stroke-miterlimit="10" x1="93.3" y1="231.888" x2="93.3" y2="234.97"/>
</g>
<text transform="matrix(1 0 0 1 23.1642 37.5056)"><tspan x="0" y="0" fill="#FFFFFF" font-family="'Montserrat-ExtraBold'" font-size="14px" letter-spacing="1">FIETS</tspan><tspan x="0" y="18" fill="#FFFFFF" font-family="'Montserrat-Regular'" font-size="10px">Slot</tspan></text>
<g>
	<circle fill="none" stroke="#FFFFFF" stroke-miterlimit="10" cx="139.048" cy="33.984" r="3.769"/>
	<circle fill="none" stroke="#FFFFFF" stroke-miterlimit="10" cx="151.651" cy="33.984" r="3.769"/>
	<path fill="none" stroke="#FFFFFF" stroke-linecap="round" stroke-miterlimit="10" d="M139.048,33.984l2.39-7.542
		c0.12-0.379,0.471-0.636,0.869-0.636h1.296"/>
	
		<line fill="none" stroke="#FFFFFF" stroke-linecap="round" stroke-miterlimit="10" x1="148.527" y1="25.806" x2="151.079" y2="25.806"/>
	
		<line fill="none" stroke="#FFFFFF" stroke-linecap="round" stroke-linejoin="round" stroke-miterlimit="10" x1="151.651" y1="33.984" x2="145.555" y2="33.984"/>
	<polyline fill="none" stroke="#FFFFFF" stroke-linecap="round" stroke-linejoin="round" stroke-miterlimit="10" points="
		140.828,28.366 148.929,28.366 150.009,30.596 	"/>
</g>
<g>
	<text transform="matrix(1 0 0 1 115.9509 252.3286)" fill="#FFFFFF" font-family="'Montserrat-Regular'" font-size="8px">Versnelling</text>
</g>
<g>
	<text transform="matrix(1 0 0 1 30.0104 252.3287)" fill="#FFFFFF" font-family="'Montserrat-Regular'" font-size="8px">Lamp</text>
</g>
<g>
	<text transform="matrix(1 0 0 1 82.9352 252.3291)" fill="#FFFFFF" font-family="'Montserrat-Regular'" font-size="8px">Bel</text>
</g>
<g>
	<g>
		<g>
			<path fill="none" stroke="#FFFFFF" stroke-linecap="round" stroke-linejoin="round" stroke-miterlimit="10" d="M138.787,234.384
				h-4.728c-2.822,0-5.109-2.287-5.109-5.109v-8.177c0-2.822,2.287-5.109,5.109-5.109h4.728c0.705,0,1.277,0.572,1.277,1.277v15.84
				C140.064,233.812,139.492,234.384,138.787,234.384z"/>
		</g>
		<g>
			
				<line fill="none" stroke="#FFFFFF" stroke-linecap="round" stroke-linejoin="round" stroke-miterlimit="10" x1="133.606" y1="219.315" x2="135.898" y2="219.315"/>
		</g>
		<g>
			<g>
				
					<line fill="none" stroke="#FFFFFF" stroke-linecap="round" stroke-linejoin="round" stroke-miterlimit="10" x1="133.503" y1="230.716" x2="136.001" y2="230.716"/>
				
					<line fill="none" stroke="#FFFFFF" stroke-linecap="round" stroke-linejoin="round" stroke-miterlimit="10" x1="134.752" y1="231.965" x2="134.752" y2="229.466"/>
			</g>
		</g>
		<g>
			<polyline fill="none" stroke="#FFFFFF" stroke-linecap="round" stroke-linejoin="round" stroke-miterlimit="10" points="
				137.533,223.325 131.97,223.325 131.97,227.048 137.533,227.048 			"/>
		</g>
		<g>
			<path fill="none" stroke="#FFFFFF" stroke-linecap="round" stroke-linejoin="round" stroke-miterlimit="10" d="M142.768,218.37
				v13.632h4.916c0.917,0,1.661-0.744,1.661-1.661v-10.309c0-0.917-0.744-1.661-1.661-1.661H142.768z"/>
		</g>
		<g>
			
				<line fill="none" stroke="#FFFFFF" stroke-linecap="round" stroke-linejoin="round" stroke-miterlimit="10" x1="152.048" y1="230.341" x2="152.048" y2="220.032"/>
		</g>
		<g>
			<g>
				
					<line fill="none" stroke="#FFFFFF" stroke-linecap="round" stroke-linejoin="round" stroke-miterlimit="10" x1="145.214" y1="220.685" x2="146.899" y2="220.685"/>
				
					<line fill="none" stroke="#FFFFFF" stroke-linecap="round" stroke-linejoin="round" stroke-miterlimit="10" x1="145.214" y1="225.186" x2="146.899" y2="225.186"/>
				
					<line fill="none" stroke="#FFFFFF" stroke-linecap="round" stroke-linejoin="round" stroke-miterlimit="10" x1="145.214" y1="229.688" x2="146.899" y2="229.688"/>
			</g>
		</g>
		<g>
			
				<line fill="none" stroke="#FFFFFF" stroke-linecap="round" stroke-linejoin="round" stroke-miterlimit="10" x1="126.247" y1="229.496" x2="126.247" y2="220.876"/>
		</g>
		<g>
			
				<line fill="none" stroke="#FFFFFF" stroke-linecap="round" stroke-linejoin="round" stroke-miterlimit="10" x1="133.837" y1="213.285" x2="137.04" y2="213.285"/>
		</g>
	</g>
</g>
<g>
	<path fill="none" stroke="#FFFFFF" stroke-linecap="round" stroke-linejoin="round" stroke-miterlimit="10" d="M41.382,231.554
		c-5.093,0-9.236-4.144-9.236-9.237c0-5.093,4.143-9.236,9.236-9.236s9.237,4.143,9.237,9.236
		C50.619,227.41,46.475,231.554,41.382,231.554z"/>
	<path fill="none" stroke="#FFFFFF" stroke-linecap="round" stroke-linejoin="round" stroke-miterlimit="10" d="M41.382,215.261
		c-3.891,0-7.056,3.165-7.056,7.056s3.165,7.056,7.056,7.056c3.891,0,7.057-3.165,7.057-7.056S45.273,215.261,41.382,215.261z"/>
	<g>
		<g>
			<path fill="none" stroke="#FFFFFF" stroke-linecap="round" stroke-linejoin="round" stroke-miterlimit="10" d="M41.382,227.031
				c2.6,0,4.714-2.114,4.714-4.714"/>
		</g>
	</g>
	
		<line fill="none" stroke="#FFFFFF" stroke-linecap="round" stroke-linejoin="round" stroke-miterlimit="10" x1="43.182" y1="234.075" x2="43.182" y2="237.123"/>
	
		<line fill="none" stroke="#FFFFFF" stroke-linecap="round" stroke-linejoin="round" stroke-miterlimit="10" x1="39.583" y1="237.123" x2="39.583" y2="234.075"/>
	
		<line fill="none" stroke="#FFFFFF" stroke-linecap="round" stroke-linejoin="round" stroke-miterlimit="10" x1="40.483" y1="210.381" x2="42.282" y2="210.381"/>
</g>
<g>
	<path fill="none" stroke="#FFFFFF" stroke-width="2" stroke-linecap="round" stroke-linejoin="round" stroke-miterlimit="10" d="
		M104.15,119.238v-5.898c0-1.261-1.022-2.283-2.283-2.283H80.101c-1.261,0-2.283,1.022-2.283,2.283v5.899
		c-5.103,3.802-8.519,9.747-8.889,16.494c-0.036,0.661,0.478,1.224,1.14,1.224h2.553c0.592,0,1.101-0.452,1.136-1.042
		c0.541-9.032,8.06-16.214,17.226-16.214s16.685,7.182,17.225,16.214c0.035,0.591,0.544,1.042,1.136,1.042h2.553
		c0.662,0,1.177-0.562,1.14-1.224C112.669,128.985,109.253,123.039,104.15,119.238z"/>
	
		<line fill="none" stroke="#FFFFFF" stroke-width="2" stroke-linecap="round" stroke-linejoin="round" stroke-miterlimit="10" x1="112.652" y1="123.409" x2="115.8" y2="121.441"/>
	
		<line fill="none" stroke="#FFFFFF" stroke-width="2" stroke-linecap="round" stroke-linejoin="round" stroke-miterlimit="10" x1="73.819" y1="115.975" x2="70.787" y2="115.975"/>
	<path fill="none" stroke="#FFFFFF" stroke-width="2" stroke-linecap="round" stroke-linejoin="round" stroke-miterlimit="10" d="
		M70.787,119.172h-5.364c-1.458,0-2.64-1.182-2.64-2.64v-1.113c0-1.458,1.182-2.64,2.64-2.64h5.364V119.172z"/>
	<path fill="none" stroke="#FFFFFF" stroke-width="2" stroke-linecap="round" stroke-linejoin="round" stroke-miterlimit="10" d="
		M109.772,142.806c-2.491,8.008-9.96,13.823-18.788,13.823c-6.517,0-12.294-3.169-15.874-8.051"/>
</g>
</svg>
