<?xml version="1.0" encoding="utf-8"?>
<!-- Generator: Adobe Illustrator 24.0.0, SVG Export Plug-In . SVG Version: 6.00 Build 0)  -->
<svg version="1.1" id="Laag_1" xmlns="http://www.w3.org/2000/svg" xmlns:xlink="http://www.w3.org/1999/xlink" x="0px" y="0px"
	 viewBox="0 0 178.583 277.795" enable-background="new 0 0 178.583 277.795" xml:space="preserve">
<path fill="#2F52A0" d="M164.409,277.795H14.173C6.346,277.795,0,271.45,0,263.622V14.173C0,6.346,6.346,0,14.173,0h150.236
	c7.828,0,14.173,6.346,14.173,14.173v249.449C178.583,271.45,172.237,277.795,164.409,277.795z"/>
<g>
	
		<circle fill="none" stroke="#FFFFFF" stroke-linecap="round" stroke-linejoin="round" stroke-miterlimit="10" cx="89.348" cy="219.094" r="3.204"/>
	
		<circle fill="none" stroke="#FFFFFF" stroke-linecap="round" stroke-linejoin="round" stroke-miterlimit="10" cx="89.348" cy="231.598" r="1.543"/>
	<path fill="none" stroke="#FFFFFF" stroke-linecap="round" stroke-linejoin="round" stroke-miterlimit="10" d="M91.897,213.187
		h-5.212c-0.556,0-1.103,0.174-1.544,0.513c-1.626,1.247-2.676,3.206-2.676,5.414c0,2.174,1.019,4.106,2.604,5.355
		c0.444,0.35,1,0.529,1.565,0.529h5.316c0.565,0,1.121-0.179,1.565-0.529c1.584-1.249,2.604-3.181,2.604-5.355
		c0-2.207-1.05-4.167-2.676-5.414C93,213.361,92.453,213.187,91.897,213.187z"/>
	<polyline fill="none" stroke="#FFFFFF" stroke-linecap="round" stroke-linejoin="round" stroke-miterlimit="10" points="
		93.749,237.597 93.749,227.697 84.834,227.697 84.834,237.597 	"/>
	
		<line fill="none" stroke="#FFFFFF" stroke-linecap="round" stroke-linejoin="round" stroke-miterlimit="10" x1="89.348" y1="237.597" x2="89.348" y2="234.293"/>
	<polyline fill="none" stroke="#FFFFFF" stroke-linecap="round" stroke-linejoin="round" stroke-miterlimit="10" points="
		89.348,234.293 91.184,235.945 91.184,237.597 	"/>
	
		<line fill="none" stroke="#FFFFFF" stroke-linecap="round" stroke-linejoin="round" stroke-miterlimit="10" x1="87.263" y1="237.597" x2="89.348" y2="234.293"/>
	
		<line fill="none" stroke="#FFFFFF" stroke-linecap="round" stroke-linejoin="round" stroke-miterlimit="10" x1="93.749" y1="231.598" x2="97.918" y2="231.598"/>
	
		<line fill="none" stroke="#FFFFFF" stroke-linecap="round" stroke-linejoin="round" stroke-miterlimit="10" x1="80.665" y1="231.598" x2="84.834" y2="231.598"/>
	<path fill="none" stroke="#FFFFFF" stroke-linecap="round" stroke-linejoin="round" stroke-miterlimit="10" d="M97.918,237.597
		v-26.221c0-0.619-0.223-1.218-0.628-1.686c-1.943-2.236-4.802-3.654-7.998-3.654c-3.195,0-6.055,1.418-7.998,3.654
		c-0.406,0.467-0.628,1.067-0.628,1.686v26.221"/>
</g>
<g>
	<text transform="matrix(1 0 0 1 117.7673 252.3286)" fill="#FFFFFF" font-family="'Montserrat-Regular'" font-size="8px">Slagboom</text>
</g>
<text transform="matrix(1 0 0 1 23.1642 37.5056)"><tspan x="0" y="0" fill="#FFFFFF" font-family="'Montserrat-ExtraBold'" font-size="14px" letter-spacing="1">VERKEER</tspan><tspan x="0" y="18" fill="#FFFFFF" font-family="'Montserrat-Regular'" font-size="10px">Benzine</tspan></text>
<g>
	<text transform="matrix(1 0 0 1 21.1707 252.3288)" fill="#FFFFFF" font-family="'Montserrat-Regular'" font-size="8px">Stoplicht</text>
</g>
<g>
	<text transform="matrix(1 0 0 1 69.7033 252.3291)" fill="#FFFFFF" font-family="'Montserrat-Regular'" font-size="8px">Stopknop</text>
</g>
<g>
	
		<circle fill="none" stroke="#FFFFFF" stroke-linecap="round" stroke-linejoin="round" stroke-miterlimit="10" cx="39.383" cy="219.871" r="2.328"/>
	
		<circle fill="none" stroke="#FFFFFF" stroke-linecap="round" stroke-linejoin="round" stroke-miterlimit="10" cx="39.383" cy="226.328" r="2.328"/>
	
		<circle fill="none" stroke="#FFFFFF" stroke-linecap="round" stroke-linejoin="round" stroke-miterlimit="10" cx="39.383" cy="213.415" r="2.328"/>
	
		<rect x="35.254" y="209.286" fill="none" stroke="#FFFFFF" stroke-linecap="round" stroke-linejoin="round" stroke-miterlimit="10" width="8.257" height="21.17"/>
	<path fill="none" stroke="#FFFFFF" stroke-linecap="round" stroke-linejoin="round" stroke-miterlimit="10" d="M39.383,234.056
		L39.383,234.056c-4.268,0-7.728-3.46-7.728-7.728v-12.913c0-4.268,3.46-7.728,7.728-7.728h0c4.268,0,7.728,3.46,7.728,7.728v12.913
		C47.111,230.596,43.651,234.056,39.383,234.056z"/>
	
		<line fill="none" stroke="#FFFFFF" stroke-linecap="round" stroke-linejoin="round" stroke-miterlimit="10" x1="37.054" y1="202.986" x2="41.711" y2="202.986"/>
	
		<line fill="none" stroke="#FFFFFF" stroke-linecap="round" stroke-linejoin="round" stroke-miterlimit="10" x1="37.054" y1="234.056" x2="37.054" y2="237.497"/>
	
		<line fill="none" stroke="#FFFFFF" stroke-linecap="round" stroke-linejoin="round" stroke-miterlimit="10" x1="41.711" y1="233.698" x2="41.711" y2="237.497"/>
</g>
<g>
	<g>
		<path fill="none" stroke="#FFFFFF" stroke-linecap="round" stroke-linejoin="round" stroke-miterlimit="10" d="M155.322,37.706
			h-17.237c-1.096,0-1.984-0.888-1.984-1.984v-4.069c0-1.096,0.888-1.984,1.984-1.984h17.237c1.096,0,1.984,0.888,1.984,1.984v4.069
			C157.306,36.817,156.418,37.706,155.322,37.706z"/>
		<path fill="none" stroke="#FFFFFF" stroke-linecap="round" stroke-linejoin="round" stroke-miterlimit="10" d="M151.706,34.452
			v0.453h2.8v-2.437h-0.816C152.595,32.468,151.706,33.357,151.706,34.452z"/>
		<path fill="none" stroke="#FFFFFF" stroke-linecap="round" stroke-linejoin="round" stroke-miterlimit="10" d="M141.701,34.452
			v0.453h-2.8v-2.437h0.816C140.813,32.468,141.701,33.357,141.701,34.452z"/>
		
			<line fill="none" stroke="#FFFFFF" stroke-linecap="round" stroke-linejoin="round" stroke-miterlimit="10" x1="157.306" y1="28.268" x2="159.143" y2="28.268"/>
		
			<line fill="none" stroke="#FFFFFF" stroke-linecap="round" stroke-linejoin="round" stroke-miterlimit="10" x1="134.264" y1="28.268" x2="136.101" y2="28.268"/>
		<polyline fill="none" stroke="#FFFFFF" stroke-linecap="round" stroke-linejoin="round" stroke-miterlimit="10" points="
			152.085,40.506 155.322,40.506 155.322,37.706 		"/>
		<polyline fill="none" stroke="#FFFFFF" stroke-linecap="round" stroke-linejoin="round" stroke-miterlimit="10" points="
			141.322,40.506 138.085,40.506 138.085,37.706 		"/>
		<path fill="none" stroke="#FFFFFF" stroke-linecap="round" stroke-linejoin="round" stroke-miterlimit="10" d="M154.775,29.668
			l-1.623-3.713c-0.316-0.723-1.03-1.19-1.818-1.19h-9.261c-0.789,0-1.502,0.467-1.818,1.19l-1.623,3.713"/>
	</g>
</g>
<g>
	
		<line fill="none" stroke="#FFFFFF" stroke-linecap="round" stroke-linejoin="round" stroke-miterlimit="10" x1="152.113" y1="234.341" x2="152.113" y2="221.592"/>
	
		<rect x="150.763" y="216.192" fill="none" stroke="#FFFFFF" stroke-linecap="round" stroke-linejoin="round" stroke-miterlimit="10" width="2.7" height="5.4"/>
	
		<rect x="123.954" y="216.192" fill="none" stroke="#FFFFFF" stroke-linecap="round" stroke-linejoin="round" stroke-miterlimit="10" width="1.8" height="5.4"/>
	
		<rect x="153.463" y="217.542" fill="none" stroke="#FFFFFF" stroke-linecap="round" stroke-linejoin="round" stroke-miterlimit="10" width="2.7" height="2.7"/>
	
		<rect x="130.063" y="217.542" fill="none" stroke="#FFFFFF" stroke-linecap="round" stroke-linejoin="round" stroke-miterlimit="10" width="20.7" height="2.7"/>
	
		<line fill="none" stroke="#FFFFFF" stroke-linecap="round" stroke-linejoin="round" stroke-miterlimit="10" x1="135.463" y1="217.542" x2="135.463" y2="220.242"/>
	
		<line fill="none" stroke="#FFFFFF" stroke-linecap="round" stroke-linejoin="round" stroke-miterlimit="10" x1="140.863" y1="217.542" x2="140.863" y2="220.242"/>
	
		<line fill="none" stroke="#FFFFFF" stroke-linecap="round" stroke-linejoin="round" stroke-miterlimit="10" x1="146.263" y1="217.542" x2="146.263" y2="220.242"/>
	
		<line fill="none" stroke="#FFFFFF" stroke-linecap="round" stroke-linejoin="round" stroke-miterlimit="10" x1="122.154" y1="234.341" x2="122.154" y2="213.942"/>
	
		<line fill="none" stroke="#FFFFFF" stroke-linecap="round" stroke-linejoin="round" stroke-miterlimit="10" x1="127.554" y1="234.341" x2="127.554" y2="213.942"/>
	
		<rect x="121.254" y="211.242" fill="none" stroke="#FFFFFF" stroke-linecap="round" stroke-linejoin="round" stroke-miterlimit="10" width="7.2" height="2.7"/>
</g>
<g>
	
		<circle fill="none" stroke="#FFFFFF" stroke-width="2" stroke-linecap="round" stroke-linejoin="round" stroke-miterlimit="10" cx="87.041" cy="128.448" r="6.836"/>
	<path fill="none" stroke="#FFFFFF" stroke-width="2" stroke-linecap="round" stroke-linejoin="round" stroke-miterlimit="10" d="
		M99.498,128.448c0-3.186-1.212-6.166-3.371-8.477v-10.729H77.955v10.73c-2.158,2.311-3.37,5.291-3.37,8.476s1.212,6.165,3.37,8.476
		v8.48h18.172v-8.479C98.285,134.614,99.498,131.633,99.498,128.448z"/>
	
		<polyline fill="none" stroke="#FFFFFF" stroke-width="2" stroke-linecap="round" stroke-linejoin="round" stroke-miterlimit="10" points="
		93.877,145.404 93.877,160.046 80.205,160.046 80.205,145.404 	"/>
	
		<polyline fill="none" stroke="#FFFFFF" stroke-width="2" stroke-linecap="round" stroke-linejoin="round" stroke-miterlimit="10" points="
		80.205,109.242 80.205,99.198 93.877,99.198 93.877,109.242 	"/>
	<path fill="none" stroke="#FFFFFF" stroke-width="2" stroke-linecap="round" stroke-linejoin="round" stroke-miterlimit="10" d="
		M91.627,99.198V88.887c0-1.761-1.428-3.189-3.189-3.189h-2.794c-1.761,0-3.189,1.428-3.189,3.189v10.311"/>
	<path fill="none" stroke="#FFFFFF" stroke-width="2" stroke-linecap="round" stroke-linejoin="round" stroke-miterlimit="10" d="
		M67.835,155.546v-72.47c0-3.522,2.856-6.378,6.378-6.378H99.87c3.522,0,6.378,2.856,6.378,6.378v72.47"/>
	<path fill="none" stroke="#FFFFFF" stroke-width="2" stroke-linecap="round" stroke-linejoin="round" stroke-miterlimit="10" d="
		M99.806,185.331c-9.524,0-17.265-7.741-17.265-17.256v-8.029"/>
	<path fill="none" stroke="#FFFFFF" stroke-width="2" stroke-linecap="round" stroke-linejoin="round" stroke-miterlimit="10" d="
		M91.541,160.046v8.029c0,4.553,3.703,8.256,8.256,8.256c6.041,0,10.95,4.909,10.95,10.941"/>
</g>
</svg>
