<?xml version="1.0" encoding="utf-8"?>
<!-- Generator: Adobe Illustrator 24.0.0, SVG Export Plug-In . SVG Version: 6.00 Build 0)  -->
<svg version="1.1" id="Laag_1" xmlns="http://www.w3.org/2000/svg" xmlns:xlink="http://www.w3.org/1999/xlink" x="0px" y="0px"
	 viewBox="0 0 178.583 277.795" enable-background="new 0 0 178.583 277.795" xml:space="preserve">
<path fill="#8C368C" d="M164.409,277.815H14.173C6.346,277.815,0,271.469,0,263.642V14.193C0,6.365,6.346,0.02,14.173,0.02h150.236
	c7.828,0,14.173,6.346,14.173,14.173v249.449C178.583,271.469,172.237,277.815,164.409,277.815z"/>
<g>
	<path fill="none" stroke="#FFFFFF" stroke-linecap="round" stroke-linejoin="round" stroke-miterlimit="10" d="M77.668,207.938
		v26.36c0,1.409,1.142,2.551,2.551,2.551h18.145c1.409,0,2.551-1.142,2.551-2.551v-26.36c0-1.409-1.142-2.551-2.551-2.551H80.219
		C78.81,205.387,77.668,206.529,77.668,207.938z"/>
	
		<line fill="none" stroke="#FFFFFF" stroke-linecap="round" stroke-linejoin="round" stroke-miterlimit="10" x1="100.915" y1="208.087" x2="77.668" y2="208.087"/>
	
		<line fill="none" stroke="#FFFFFF" stroke-linecap="round" stroke-linejoin="round" stroke-miterlimit="10" x1="77.668" y1="234.149" x2="100.915" y2="234.149"/>
	<path fill="none" stroke="#FFFFFF" stroke-linecap="round" stroke-linejoin="round" stroke-miterlimit="10" d="M94.783,220.218
		c0,1.361-2.464,4.264-2.464,4.264s-2.464-2.903-2.464-4.264s1.103-2.464,2.464-2.464C93.68,217.754,94.783,218.857,94.783,220.218z
		"/>
	
		<circle fill="none" stroke="#FFFFFF" stroke-linecap="round" stroke-linejoin="round" stroke-miterlimit="10" cx="92.319" cy="220.218" r="0.591"/>
	
		<line fill="none" stroke="#FFFFFF" stroke-linecap="round" stroke-linejoin="round" stroke-miterlimit="10" x1="88.054" y1="236.849" x2="88.054" y2="240.449"/>
	
		<line fill="none" stroke="#FFFFFF" stroke-linecap="round" stroke-linejoin="round" stroke-miterlimit="10" x1="91.654" y1="236.849" x2="91.654" y2="240.449"/>
	
		<line fill="none" stroke="#FFFFFF" stroke-linecap="round" stroke-linejoin="round" stroke-miterlimit="10" x1="77.668" y1="225.858" x2="84.398" y2="219.128"/>
	
		<line fill="none" stroke="#FFFFFF" stroke-linecap="round" stroke-linejoin="round" stroke-miterlimit="10" x1="84.398" y1="219.128" x2="95.364" y2="208.162"/>
	
		<line fill="none" stroke="#FFFFFF" stroke-linecap="round" stroke-linejoin="round" stroke-miterlimit="10" x1="77.668" y1="229.458" x2="82.448" y2="224.678"/>
	
		<line fill="none" stroke="#FFFFFF" stroke-linecap="round" stroke-linejoin="round" stroke-miterlimit="10" x1="80.648" y1="222.878" x2="86.048" y2="228.278"/>
	
		<line fill="none" stroke="#FFFFFF" stroke-linecap="round" stroke-linejoin="round" stroke-miterlimit="10" x1="80.177" y1="234.149" x2="91.243" y2="223.083"/>
	
		<line fill="none" stroke="#FFFFFF" stroke-linecap="round" stroke-linejoin="round" stroke-miterlimit="10" x1="94.783" y1="219.543" x2="100.915" y2="213.411"/>
	
		<line fill="none" stroke="#FFFFFF" stroke-linecap="round" stroke-linejoin="round" stroke-miterlimit="10" x1="100.915" y1="230.517" x2="93.431" y2="223.032"/>
	
		<line fill="none" stroke="#FFFFFF" stroke-linecap="round" stroke-linejoin="round" stroke-miterlimit="10" x1="100.915" y1="226.632" x2="93.399" y2="234.149"/>
	
		<line fill="none" stroke="#FFFFFF" stroke-linecap="round" stroke-linejoin="round" stroke-miterlimit="10" x1="100.915" y1="223.317" x2="90.562" y2="212.964"/>
	
		<line fill="none" stroke="#FFFFFF" stroke-linecap="round" stroke-linejoin="round" stroke-miterlimit="10" x1="84.398" y1="219.128" x2="77.668" y2="212.398"/>
	
		<line fill="none" stroke="#FFFFFF" stroke-linecap="round" stroke-linejoin="round" stroke-miterlimit="10" x1="77.668" y1="218.658" x2="80.798" y2="215.528"/>
</g>
<g>
	<text transform="matrix(1 0 0 1 124.2233 252.3483)" fill="#FFFFFF" font-family="'Montserrat-Regular'" font-size="8px">iPhone</text>
</g>
<g>
	<text transform="matrix(1 0 0 1 23.1945 252.3485)" fill="#FFFFFF" font-family="'Montserrat-Regular'" font-size="8px">Billboard</text>
</g>
<g>
	<text transform="matrix(1 0 0 1 78.5267 252.3488)" fill="#FFFFFF" font-family="'Montserrat-Regular'" font-size="8px">Kaart</text>
</g>
<text transform="matrix(1 0 0 1 23.1642 37.5253)"><tspan x="0" y="0" fill="#FFFFFF" font-family="'Montserrat-ExtraBold'" font-size="14px" letter-spacing="1">SCHERMEN</tspan><tspan x="0" y="18" fill="#FFFFFF" font-family="'Montserrat-Regular'" font-size="10px">Parkeerplek</tspan></text>
<g>
	<path fill="none" stroke="#FFFFFF" stroke-linecap="round" stroke-linejoin="round" stroke-miterlimit="10" d="M144.214,235.69
		h-9.623c-1.409,0-2.551-1.142-2.551-2.551v-22.969c0-1.409,1.142-2.551,2.551-2.551h9.623c1.409,0,2.551,1.142,2.551,2.551v22.969
		C146.765,234.547,145.623,235.69,144.214,235.69z"/>
	
		<line fill="none" stroke="#FFFFFF" stroke-linecap="round" stroke-linejoin="round" stroke-miterlimit="10" x1="146.765" y1="210.169" x2="132.04" y2="210.169"/>
	
		<line fill="none" stroke="#FFFFFF" stroke-linecap="round" stroke-linejoin="round" stroke-miterlimit="10" x1="146.765" y1="233.138" x2="132.04" y2="233.138"/>
	
		<line fill="none" stroke="#FFFFFF" stroke-linecap="round" stroke-linejoin="round" stroke-miterlimit="10" x1="134.615" y1="226.236" x2="140.054" y2="220.797"/>
	
		<line fill="none" stroke="#FFFFFF" stroke-linecap="round" stroke-linejoin="round" stroke-miterlimit="10" x1="142.917" y1="217.934" x2="141.582" y2="219.269"/>
	
		<line fill="none" stroke="#FFFFFF" stroke-linecap="round" stroke-linejoin="round" stroke-miterlimit="10" x1="136.859" y1="220.392" x2="142.979" y2="214.272"/>
	
		<line fill="none" stroke="#FFFFFF" stroke-linecap="round" stroke-linejoin="round" stroke-miterlimit="10" x1="140.059" y1="228.392" x2="143.412" y2="225.039"/>
</g>
<g>
	
		<rect x="141.167" y="26.213" fill="none" stroke="#FFFFFF" stroke-linecap="round" stroke-linejoin="round" stroke-miterlimit="10" width="16.216" height="11.418"/>
	
		<line fill="none" stroke="#FFFFFF" stroke-linecap="round" stroke-linejoin="round" stroke-miterlimit="10" x1="152.738" y1="40.431" x2="145.811" y2="40.431"/>
	
		<line fill="none" stroke="#FFFFFF" stroke-linecap="round" stroke-linejoin="round" stroke-miterlimit="10" x1="157.383" y1="35.126" x2="141.167" y2="35.126"/>
	
		<line fill="none" stroke="#FFFFFF" stroke-linecap="round" stroke-linejoin="round" stroke-miterlimit="10" x1="144.7" y1="35.126" x2="149.672" y2="30.154"/>
	
		<line fill="none" stroke="#FFFFFF" stroke-linecap="round" stroke-linejoin="round" stroke-miterlimit="10" x1="150.704" y1="31.922" x2="153.872" y2="28.754"/>
</g>
<g>
	
		<rect x="24.259" y="209.658" fill="none" stroke="#FFFFFF" stroke-linecap="round" stroke-linejoin="round" stroke-miterlimit="10" width="32.248" height="22.462"/>
	
		<line fill="none" stroke="#FFFFFF" stroke-linecap="round" stroke-linejoin="round" stroke-miterlimit="10" x1="35.059" y1="234.82" x2="45.707" y2="234.82"/>
	
		<line fill="none" stroke="#FFFFFF" stroke-linecap="round" stroke-linejoin="round" stroke-miterlimit="10" x1="21.559" y1="224.02" x2="21.559" y2="229.42"/>
	
		<line fill="none" stroke="#FFFFFF" stroke-linecap="round" stroke-linejoin="round" stroke-miterlimit="10" x1="38.583" y1="234.82" x2="38.583" y2="238.42"/>
	
		<line fill="none" stroke="#FFFFFF" stroke-linecap="round" stroke-linejoin="round" stroke-miterlimit="10" x1="42.183" y1="234.82" x2="42.183" y2="238.42"/>
	
		<rect x="26.959" y="212.358" fill="none" stroke="#FFFFFF" stroke-linecap="round" stroke-linejoin="round" stroke-miterlimit="10" width="26.848" height="14.362"/>
	
		<line fill="none" stroke="#FFFFFF" stroke-linecap="round" stroke-linejoin="round" stroke-miterlimit="10" x1="59.207" y1="224.02" x2="59.207" y2="229.42"/>
	<path fill="none" stroke="#FFFFFF" stroke-linecap="round" stroke-linejoin="round" stroke-miterlimit="10" d="M41.283,226.72
		l-4.821-5.571c-0.509-0.588-1.42-0.588-1.929,0l-4.821,5.571"/>
	<path fill="none" stroke="#FFFFFF" stroke-linecap="round" stroke-linejoin="round" stroke-miterlimit="10" d="M51.053,226.72
		l-6.49-7.5c-0.509-0.588-1.42-0.588-1.929,0l-3.92,4.53"/>
	
		<circle fill="none" stroke="#FFFFFF" stroke-linecap="round" stroke-linejoin="round" stroke-miterlimit="10" cx="31.665" cy="217.064" r="2.006"/>
</g>
<g>
	
		<rect x="48.982" y="102.038" fill="none" stroke="#FFFFFF" stroke-width="2" stroke-linecap="round" stroke-linejoin="round" stroke-miterlimit="10" width="80.619" height="49.405"/>
	
		<line fill="none" stroke="#FFFFFF" stroke-width="2" stroke-linecap="round" stroke-linejoin="round" stroke-miterlimit="10" x1="98.101" y1="97.538" x2="80.482" y2="97.538"/>
	
		<line fill="none" stroke="#FFFFFF" stroke-width="2" stroke-linecap="round" stroke-linejoin="round" stroke-miterlimit="10" x1="98.101" y1="158.193" x2="80.482" y2="158.193"/>
	
		<line fill="none" stroke="#FFFFFF" stroke-width="2" stroke-linecap="round" stroke-linejoin="round" stroke-miterlimit="10" x1="93.791" y1="158.193" x2="93.791" y2="169.488"/>
	
		<line fill="none" stroke="#FFFFFF" stroke-width="2" stroke-linecap="round" stroke-linejoin="round" stroke-miterlimit="10" x1="84.791" y1="158.193" x2="84.791" y2="169.488"/>
	
		<line fill="none" stroke="#FFFFFF" stroke-width="2" stroke-linecap="round" stroke-linejoin="round" stroke-miterlimit="10" x1="55.732" y1="126.74" x2="122.851" y2="126.74"/>
	
		<polygon fill="none" stroke="#FFFFFF" stroke-width="2" stroke-linecap="round" stroke-linejoin="round" stroke-miterlimit="10" points="
		64.248,134.044 58.724,138.148 64.248,142.253 	"/>
	
		<polygon fill="none" stroke="#FFFFFF" stroke-width="2" stroke-linecap="round" stroke-linejoin="round" stroke-miterlimit="10" points="
		65.591,116.528 61.486,111.003 57.381,116.528 	"/>
	<path fill="none" stroke="#FFFFFF" stroke-width="2" stroke-linecap="round" stroke-linejoin="round" stroke-miterlimit="10" d="
		M72.013,139.357h2.253c1.911,0,3.46-1.549,3.46-3.46s-1.549-3.46-3.46-3.46h-2.253v11.423"/>
	
		<rect x="85.448" y="133.49" fill="none" stroke="#FFFFFF" stroke-width="2" stroke-linecap="round" stroke-linejoin="round" stroke-miterlimit="10" width="37.403" height="11.202"/>
	
		<rect x="85.448" y="108.788" fill="none" stroke="#FFFFFF" stroke-width="2" stroke-linecap="round" stroke-linejoin="round" stroke-miterlimit="10" width="37.403" height="11.202"/>
</g>
</svg>
