<?xml version="1.0" encoding="utf-8"?>
<!-- Generator: Adobe Illustrator 24.0.0, SVG Export Plug-In . SVG Version: 6.00 Build 0)  -->
<svg version="1.1" id="Laag_1" xmlns="http://www.w3.org/2000/svg" xmlns:xlink="http://www.w3.org/1999/xlink" x="0px" y="0px"
	 viewBox="0 0 178.583 277.795" enable-background="new 0 0 178.583 277.795" xml:space="preserve">
<path fill="#31B7BC" d="M164.409,277.795H14.173C6.346,277.795,0,271.45,0,263.622V14.173C0,6.346,6.346,0,14.173,0h150.236
	c7.828,0,14.173,6.346,14.173,14.173v249.449C178.583,271.45,172.237,277.795,164.409,277.795z"/>
<g>
	<text transform="matrix(1 0 0 1 128.5388 252.3286)" fill="#FFFFFF" font-family="'Montserrat-Regular'" font-size="8px">Auto</text>
</g>
<g>
	<text transform="matrix(1 0 0 1 28.6989 252.3287)" fill="#FFFFFF" font-family="'Montserrat-Regular'" font-size="8px">E-bike</text>
</g>
<g>
	<text transform="matrix(1 0 0 1 81.9756 252.3291)" fill="#FFFFFF" font-family="'Montserrat-Regular'" font-size="8px">Bus</text>
</g>
<g>
	<path fill="none" stroke="#FFFFFF" stroke-linecap="round" stroke-linejoin="round" stroke-miterlimit="10" d="M80.772,231.701
		c-2.741,0-4.97-2.229-4.97-4.97s2.229-4.97,4.97-4.97s4.97,2.229,4.97,4.97S83.513,231.701,80.772,231.701z"/>
	<path fill="none" stroke="#FFFFFF" stroke-linecap="round" stroke-linejoin="round" stroke-miterlimit="10" d="M97.844,231.701
		c-2.741,0-4.97-2.229-4.97-4.97s2.229-4.97,4.97-4.97s4.97,2.229,4.97,4.97S100.585,231.701,97.844,231.701z"/>
	<path fill="none" stroke="#FFFFFF" stroke-linecap="round" stroke-linejoin="round" stroke-miterlimit="10" d="M95.816,219.061
		c-1.622,0-2.942-1.32-2.942-2.942s1.32-2.942,2.942-2.942c1.622,0,2.942,1.32,2.942,2.942S97.438,219.061,95.816,219.061z"/>
	<path fill="none" stroke="#FFFFFF" stroke-linecap="round" stroke-linejoin="round" stroke-miterlimit="10" d="M82.8,219.061
		c-1.622,0-2.942-1.32-2.942-2.942s1.32-2.942,2.942-2.942c1.622,0,2.942,1.32,2.942,2.942S84.422,219.061,82.8,219.061z"/>
	<path fill="none" stroke="#FFFFFF" stroke-linecap="round" stroke-linejoin="round" stroke-miterlimit="10" d="M72.531,228.202
		c-0.811,0-1.471-0.66-1.471-1.471c0-0.811,0.66-1.471,1.471-1.471c0.811,0,1.471,0.66,1.471,1.471
		C74.002,227.542,73.342,228.202,72.531,228.202z"/>
	<path fill="none" stroke="#FFFFFF" stroke-linecap="round" stroke-linejoin="round" stroke-miterlimit="10" d="M73.887,223.46
		c-0.811,0-1.471-0.66-1.471-1.471c0-0.811,0.66-1.471,1.471-1.471s1.471,0.66,1.471,1.471
		C75.358,222.8,74.698,223.46,73.887,223.46z"/>
	<path fill="none" stroke="#FFFFFF" stroke-linecap="round" stroke-linejoin="round" stroke-miterlimit="10" d="M104.615,226.731
		c0-0.811,0.66-1.471,1.471-1.471s1.471,0.66,1.471,1.471c0,0.811-0.66,1.471-1.471,1.471S104.615,227.542,104.615,226.731z"/>
	<path fill="none" stroke="#FFFFFF" stroke-linecap="round" stroke-linejoin="round" stroke-miterlimit="10" d="M103.209,221.989
		c0-0.811,0.66-1.471,1.471-1.471s1.471,0.66,1.471,1.471c0,0.811-0.66,1.471-1.471,1.471S103.209,222.8,103.209,221.989z"/>
	<path fill="none" stroke="#FFFFFF" stroke-linecap="round" stroke-linejoin="round" stroke-miterlimit="10" d="M89.799,218.466
		h-0.981c-0.704,0-1.276,0.571-1.276,1.276v3.914c0,0.704,0.571,1.276,1.276,1.276h0.981c0.704,0,1.276-0.571,1.276-1.276v-3.914
		C91.074,219.037,90.503,218.466,89.799,218.466z"/>
	
		<rect x="74.492" y="210.617" fill="none" stroke="#FFFFFF" stroke-linecap="round" stroke-linejoin="round" stroke-miterlimit="10" width="1.732" height="2.865"/>
	
		<rect x="70.892" y="210.617" fill="none" stroke="#FFFFFF" stroke-linecap="round" stroke-linejoin="round" stroke-miterlimit="10" width="1.732" height="2.865"/>
	
		<rect x="74.492" y="215.282" fill="none" stroke="#FFFFFF" stroke-linecap="round" stroke-linejoin="round" stroke-miterlimit="10" width="1.732" height="2.865"/>
	
		<rect x="70.892" y="215.282" fill="none" stroke="#FFFFFF" stroke-linecap="round" stroke-linejoin="round" stroke-miterlimit="10" width="1.732" height="2.865"/>
	
		<rect x="105.958" y="210.617" fill="none" stroke="#FFFFFF" stroke-linecap="round" stroke-linejoin="round" stroke-miterlimit="10" width="1.732" height="2.865"/>
	
		<rect x="102.358" y="210.617" fill="none" stroke="#FFFFFF" stroke-linecap="round" stroke-linejoin="round" stroke-miterlimit="10" width="1.732" height="2.865"/>
	
		<rect x="105.958" y="215.282" fill="none" stroke="#FFFFFF" stroke-linecap="round" stroke-linejoin="round" stroke-miterlimit="10" width="1.732" height="2.865"/>
	
		<rect x="102.358" y="215.282" fill="none" stroke="#FFFFFF" stroke-linecap="round" stroke-linejoin="round" stroke-miterlimit="10" width="1.732" height="2.865"/>
	
		<line fill="none" stroke="#FFFFFF" stroke-linecap="round" stroke-linejoin="round" stroke-miterlimit="10" x1="88.892" y1="220.798" x2="89.724" y2="220.798"/>
	
		<line fill="none" stroke="#FFFFFF" stroke-linecap="round" stroke-linejoin="round" stroke-miterlimit="10" x1="88.892" y1="222.598" x2="89.724" y2="222.598"/>
	
		<circle fill="none" stroke="#FFFFFF" stroke-linecap="round" stroke-linejoin="round" stroke-miterlimit="10" cx="97.844" cy="226.731" r="0.661"/>
	
		<circle fill="none" stroke="#FFFFFF" stroke-linecap="round" stroke-linejoin="round" stroke-miterlimit="10" cx="80.772" cy="226.731" r="0.661"/>
	
		<line fill="none" stroke="#FFFFFF" stroke-linecap="round" stroke-linejoin="round" stroke-miterlimit="10" x1="83.942" y1="226.731" x2="83.292" y2="226.731"/>
	
		<line fill="none" stroke="#FFFFFF" stroke-linecap="round" stroke-linejoin="round" stroke-miterlimit="10" x1="78.252" y1="226.731" x2="77.602" y2="226.731"/>
	
		<line fill="none" stroke="#FFFFFF" stroke-linecap="round" stroke-linejoin="round" stroke-miterlimit="10" x1="83.014" y1="224.489" x2="82.554" y2="224.949"/>
	
		<line fill="none" stroke="#FFFFFF" stroke-linecap="round" stroke-linejoin="round" stroke-miterlimit="10" x1="78.99" y1="228.512" x2="78.53" y2="228.972"/>
	
		<line fill="none" stroke="#FFFFFF" stroke-linecap="round" stroke-linejoin="round" stroke-miterlimit="10" x1="80.772" y1="223.561" x2="80.772" y2="224.211"/>
	
		<line fill="none" stroke="#FFFFFF" stroke-linecap="round" stroke-linejoin="round" stroke-miterlimit="10" x1="80.772" y1="229.25" x2="80.772" y2="229.901"/>
	
		<line fill="none" stroke="#FFFFFF" stroke-linecap="round" stroke-linejoin="round" stroke-miterlimit="10" x1="78.53" y1="224.489" x2="80.772" y2="226.731"/>
	
		<line fill="none" stroke="#FFFFFF" stroke-linecap="round" stroke-linejoin="round" stroke-miterlimit="10" x1="101.015" y1="226.731" x2="100.364" y2="226.731"/>
	
		<line fill="none" stroke="#FFFFFF" stroke-linecap="round" stroke-linejoin="round" stroke-miterlimit="10" x1="95.325" y1="226.731" x2="94.674" y2="226.731"/>
	
		<line fill="none" stroke="#FFFFFF" stroke-linecap="round" stroke-linejoin="round" stroke-miterlimit="10" x1="100.086" y1="224.489" x2="99.626" y2="224.949"/>
	
		<line fill="none" stroke="#FFFFFF" stroke-linecap="round" stroke-linejoin="round" stroke-miterlimit="10" x1="97.844" y1="223.561" x2="97.844" y2="226.731"/>
	
		<line fill="none" stroke="#FFFFFF" stroke-linecap="round" stroke-linejoin="round" stroke-miterlimit="10" x1="95.603" y1="224.489" x2="96.063" y2="224.949"/>
	
		<line fill="none" stroke="#FFFFFF" stroke-linecap="round" stroke-linejoin="round" stroke-miterlimit="10" x1="82.554" y1="228.512" x2="83.014" y2="228.972"/>
</g>
<text transform="matrix(1 0 0 1 23.1642 37.5056)"><tspan x="0" y="0" fill="#FFFFFF" font-family="'Montserrat-ExtraBold'" font-size="14px" letter-spacing="1">DASHBOARD</tspan><tspan x="0" y="18" fill="#FFFFFF" font-family="'Montserrat-Regular'" font-size="10px">Scooter</tspan></text>
<g>
	<path fill="none" stroke="#FFFFFF" stroke-linecap="round" stroke-linejoin="round" stroke-miterlimit="10" d="M150.181,36.567
		h5.763c0-5.738-4.652-10.39-10.39-10.39s-10.39,4.652-10.39,10.39h5.763"/>
	
		<line fill="none" stroke="#FFFFFF" stroke-linecap="round" stroke-linejoin="round" stroke-miterlimit="10" x1="149.94" y1="32.182" x2="150.674" y2="31.448"/>
	
		<line fill="none" stroke="#FFFFFF" stroke-linecap="round" stroke-linejoin="round" stroke-miterlimit="10" x1="145.555" y1="30.365" x2="145.555" y2="29.327"/>
	
		<circle fill="none" stroke="#FFFFFF" stroke-linecap="round" stroke-linejoin="round" stroke-miterlimit="10" cx="145.555" cy="36.567" r="1.477"/>
	
		<line fill="none" stroke="#FFFFFF" stroke-linecap="round" stroke-linejoin="round" stroke-miterlimit="10" x1="146.195" y1="35.241" x2="148.705" y2="30.044"/>
	
		<line fill="none" stroke="#FFFFFF" stroke-linecap="round" stroke-linejoin="round" stroke-miterlimit="10" x1="141.169" y1="32.182" x2="140.435" y2="31.448"/>
</g>
<g>
	<g>
		<path fill="none" stroke="#FFFFFF" stroke-linecap="round" stroke-linejoin="round" stroke-miterlimit="10" d="M47.626,236.056
			H35.139c-1.409,0-2.551-1.142-2.551-2.551v-22.161c0-1.409,1.142-2.551,2.551-2.551h12.487c1.409,0,2.551,1.142,2.551,2.551
			v22.161C50.177,234.913,49.035,236.056,47.626,236.056z"/>
		
			<rect x="35.288" y="211.492" fill="none" stroke="#FFFFFF" stroke-linecap="round" stroke-linejoin="round" stroke-miterlimit="10" width="12.19" height="21.864"/>
		
			<line fill="none" stroke="#FFFFFF" stroke-linecap="round" stroke-linejoin="round" stroke-miterlimit="10" x1="43.388" y1="214.192" x2="44.777" y2="214.192"/>
		
			<line fill="none" stroke="#FFFFFF" stroke-linecap="round" stroke-linejoin="round" stroke-miterlimit="10" x1="37.988" y1="214.192" x2="39.377" y2="214.192"/>
		
			<line fill="none" stroke="#FFFFFF" stroke-linecap="round" stroke-linejoin="round" stroke-miterlimit="10" x1="37.988" y1="240.556" x2="37.988" y2="236.056"/>
		
			<line fill="none" stroke="#FFFFFF" stroke-linecap="round" stroke-linejoin="round" stroke-miterlimit="10" x1="44.777" y1="236.056" x2="44.777" y2="240.556"/>
		<path fill="none" stroke="#FFFFFF" stroke-linecap="round" stroke-linejoin="round" stroke-miterlimit="10" d="M50.177,217.792
			h1.424c0.704,0,1.276,0.571,1.276,1.276v6.712c0,0.704-0.571,1.276-1.276,1.276h-1.424"/>
		
			<line fill="none" stroke="#FFFFFF" stroke-linecap="round" stroke-linejoin="round" stroke-miterlimit="10" x1="52.877" y1="219.592" x2="54.302" y2="219.592"/>
		
			<line fill="none" stroke="#FFFFFF" stroke-linecap="round" stroke-linejoin="round" stroke-miterlimit="10" x1="54.302" y1="225.256" x2="52.877" y2="225.256"/>
		
			<line fill="none" stroke="#FFFFFF" stroke-linecap="round" stroke-linejoin="round" stroke-miterlimit="10" x1="28.463" y1="219.592" x2="29.888" y2="219.592"/>
		
			<line fill="none" stroke="#FFFFFF" stroke-linecap="round" stroke-linejoin="round" stroke-miterlimit="10" x1="29.888" y1="225.256" x2="28.463" y2="225.256"/>
		<path fill="none" stroke="#FFFFFF" stroke-linecap="round" stroke-linejoin="round" stroke-miterlimit="10" d="M32.588,217.792
			h-1.424c-0.704,0-1.276,0.571-1.276,1.276v6.712c0,0.704,0.571,1.276,1.276,1.276h1.424"/>
		
			<rect x="39.257" y="228.443" fill="none" stroke="#FFFFFF" stroke-linecap="round" stroke-linejoin="round" stroke-miterlimit="10" width="4.251" height="2.183"/>
		
			<line fill="none" stroke="#FFFFFF" stroke-linecap="round" stroke-linejoin="round" stroke-miterlimit="10" x1="43.508" y1="221.939" x2="44.415" y2="221.939"/>
		
			<line fill="none" stroke="#FFFFFF" stroke-linecap="round" stroke-linejoin="round" stroke-miterlimit="10" x1="38.35" y1="221.939" x2="39.257" y2="221.939"/>
		
			<line fill="none" stroke="#FFFFFF" stroke-linecap="round" stroke-linejoin="round" stroke-miterlimit="10" x1="42.885" y1="220.437" x2="43.527" y2="219.795"/>
		
			<line fill="none" stroke="#FFFFFF" stroke-linecap="round" stroke-linejoin="round" stroke-miterlimit="10" x1="39.238" y1="224.084" x2="39.88" y2="223.442"/>
		
			<line fill="none" stroke="#FFFFFF" stroke-linecap="round" stroke-linejoin="round" stroke-miterlimit="10" x1="41.383" y1="219.814" x2="41.383" y2="218.907"/>
		
			<line fill="none" stroke="#FFFFFF" stroke-linecap="round" stroke-linejoin="round" stroke-miterlimit="10" x1="41.383" y1="224.972" x2="41.383" y2="224.065"/>
		
			<line fill="none" stroke="#FFFFFF" stroke-linecap="round" stroke-linejoin="round" stroke-miterlimit="10" x1="39.88" y1="220.437" x2="39.238" y2="219.795"/>
		
			<line fill="none" stroke="#FFFFFF" stroke-linecap="round" stroke-linejoin="round" stroke-miterlimit="10" x1="43.527" y1="224.084" x2="42.885" y2="223.442"/>
	</g>
</g>
<g>
	<g>
		
			<circle fill="none" stroke="#FFFFFF" stroke-width="2" stroke-linecap="round" stroke-linejoin="round" stroke-miterlimit="10" cx="81.539" cy="127.946" r="1.652"/>
		
			<circle fill="none" stroke="#FFFFFF" stroke-width="2" stroke-linecap="round" stroke-linejoin="round" stroke-miterlimit="10" cx="89.291" cy="144.878" r="1.652"/>
		<path fill="none" stroke="#FFFFFF" stroke-width="2" stroke-linecap="round" stroke-linejoin="round" stroke-miterlimit="10" d="
			M96.554,135.753c1.218-2.337,1.916-4.989,1.916-7.807c0-9.351-7.58-16.932-16.931-16.932s-16.932,7.581-16.932,16.932
			c0,8.001,5.557,14.69,13.018,16.458c-0.006,0.16-0.048,0.311-0.048,0.473c0,6.469,5.244,11.714,11.714,11.714
			s11.714-5.244,11.714-11.714C101.005,141.167,99.246,137.899,96.554,135.753z"/>
		
			<circle fill="none" stroke="#FFFFFF" stroke-width="2" stroke-linecap="round" stroke-linejoin="round" stroke-miterlimit="10" cx="103.325" cy="108.746" r="6.001"/>
		
			<circle fill="none" stroke="#FFFFFF" stroke-width="2" stroke-linecap="round" stroke-linejoin="round" stroke-miterlimit="10" cx="111.814" cy="125.672" r="6.001"/>
		<path fill="none" stroke="#FFFFFF" stroke-width="2" stroke-linecap="round" stroke-linejoin="round" stroke-miterlimit="10" d="
			M125.263,116.189c0-13.125-16.105-23.765-35.972-23.765s-35.972,10.64-35.972,23.765c0,19.867,16.105,51.779,35.972,51.779
			S125.263,136.056,125.263,116.189z"/>
		
			<line fill="none" stroke="#FFFFFF" stroke-width="2" stroke-linecap="round" stroke-linejoin="round" stroke-miterlimit="10" x1="81.539" y1="127.946" x2="70.938" y2="123.686"/>
		
			<line fill="none" stroke="#FFFFFF" stroke-width="2" stroke-linecap="round" stroke-linejoin="round" stroke-miterlimit="10" x1="91.655" y1="127.946" x2="93.923" y2="127.946"/>
		
			<line fill="none" stroke="#FFFFFF" stroke-width="2" stroke-linecap="round" stroke-linejoin="round" stroke-miterlimit="10" x1="69.155" y1="127.946" x2="71.423" y2="127.946"/>
		
			<line fill="none" stroke="#FFFFFF" stroke-width="2" stroke-linecap="round" stroke-linejoin="round" stroke-miterlimit="10" x1="88.692" y1="120.793" x2="90.295" y2="119.19"/>
		
			<line fill="none" stroke="#FFFFFF" stroke-width="2" stroke-linecap="round" stroke-linejoin="round" stroke-miterlimit="10" x1="81.539" y1="117.83" x2="81.539" y2="115.563"/>
		
			<line fill="none" stroke="#FFFFFF" stroke-width="2" stroke-linecap="round" stroke-linejoin="round" stroke-miterlimit="10" x1="74.386" y1="120.793" x2="72.782" y2="119.19"/>
		
			<line fill="none" stroke="#FFFFFF" stroke-width="2" stroke-linecap="round" stroke-linejoin="round" stroke-miterlimit="10" x1="95.787" y1="144.878" x2="97.413" y2="144.878"/>
		
			<line fill="none" stroke="#FFFFFF" stroke-width="2" stroke-linecap="round" stroke-linejoin="round" stroke-miterlimit="10" x1="81.17" y1="144.878" x2="82.796" y2="144.878"/>
		
			<line fill="none" stroke="#FFFFFF" stroke-width="2" stroke-linecap="round" stroke-linejoin="round" stroke-miterlimit="10" x1="93.884" y1="140.285" x2="95.034" y2="139.135"/>
		
			<line fill="none" stroke="#FFFFFF" stroke-width="2" stroke-linecap="round" stroke-linejoin="round" stroke-miterlimit="10" x1="89.291" y1="138.382" x2="89.291" y2="136.756"/>
		
			<line fill="none" stroke="#FFFFFF" stroke-width="2" stroke-linecap="round" stroke-linejoin="round" stroke-miterlimit="10" x1="84.698" y1="140.285" x2="83.548" y2="139.135"/>
		
			<line fill="none" stroke="#FFFFFF" stroke-width="2" stroke-linecap="round" stroke-linejoin="round" stroke-miterlimit="10" x1="89.291" y1="144.878" x2="83.191" y2="142.261"/>
	</g>
</g>
<g>
	<g>
		<path fill="none" stroke="#FFFFFF" stroke-linecap="round" stroke-linejoin="round" stroke-miterlimit="10" d="M130.381,230.163
			c-3.244,0-5.884-2.639-5.884-5.884c0-3.244,2.639-5.884,5.884-5.884c3.244,0,5.884,2.639,5.884,5.884
			C136.265,227.524,133.625,230.163,130.381,230.163z"/>
		<path fill="none" stroke="#FFFFFF" stroke-linecap="round" stroke-linejoin="round" stroke-miterlimit="10" d="M149.583,230.163
			c-3.244,0-5.884-2.639-5.884-5.884c0-3.244,2.639-5.884,5.884-5.884c3.244,0,5.884,2.639,5.884,5.884
			C155.467,227.524,152.827,230.163,149.583,230.163z"/>
		<path fill="none" stroke="#FFFFFF" stroke-linecap="round" stroke-linejoin="round" stroke-miterlimit="10" d="M149.583,233.279
			h-19.202c-3.44,0-6.579-1.961-8.088-5.052c-1.509-3.091-1.124-6.772,0.992-9.484c2.742-3.514,8.76-7.618,16.697-7.618
			c7.937,0,13.955,4.104,16.697,7.618c2.116,2.712,2.501,6.393,0.992,9.484S153.022,233.279,149.583,233.279z M142.739,230.119
			h0.009H142.739z"/>
		<polygon fill="none" stroke="#FFFFFF" stroke-linecap="round" stroke-linejoin="round" stroke-miterlimit="10" points="
			141.988,217.557 143.885,216.147 141.988,214.738 		"/>
		<polygon fill="none" stroke="#FFFFFF" stroke-linecap="round" stroke-linejoin="round" stroke-miterlimit="10" points="
			137.976,214.738 136.078,216.147 137.976,217.557 		"/>
		
			<line fill="none" stroke="#FFFFFF" stroke-linecap="round" stroke-linejoin="round" stroke-miterlimit="10" x1="137.076" y1="230.163" x2="142.888" y2="230.163"/>
		
			<line fill="none" stroke="#FFFFFF" stroke-linecap="round" stroke-linejoin="round" stroke-miterlimit="10" x1="139.326" y1="224.763" x2="140.638" y2="224.763"/>
		
			<line fill="none" stroke="#FFFFFF" stroke-linecap="round" stroke-linejoin="round" stroke-miterlimit="10" x1="138.876" y1="226.563" x2="141.088" y2="226.563"/>
		
			<line fill="none" stroke="#FFFFFF" stroke-linecap="round" stroke-linejoin="round" stroke-miterlimit="10" x1="137.976" y1="228.363" x2="141.988" y2="228.363"/>
		
			<circle fill="none" stroke="#FFFFFF" stroke-linecap="round" stroke-linejoin="round" stroke-miterlimit="10" cx="130.381" cy="224.279" r="0.661"/>
		
			<circle fill="none" stroke="#FFFFFF" stroke-linecap="round" stroke-linejoin="round" stroke-miterlimit="10" cx="149.583" cy="224.279" r="0.661"/>
		
			<line fill="none" stroke="#FFFFFF" stroke-linecap="round" stroke-linejoin="round" stroke-miterlimit="10" x1="149.583" y1="224.279" x2="148.363" y2="221.701"/>
		
			<line fill="none" stroke="#FFFFFF" stroke-linecap="round" stroke-linejoin="round" stroke-miterlimit="10" x1="152.804" y1="224.094" x2="153.455" y2="224.094"/>
		
			<line fill="none" stroke="#FFFFFF" stroke-linecap="round" stroke-linejoin="round" stroke-miterlimit="10" x1="144.816" y1="224.094" x2="145.467" y2="224.094"/>
		
			<line fill="none" stroke="#FFFFFF" stroke-linecap="round" stroke-linejoin="round" stroke-miterlimit="10" x1="151.73" y1="221.5" x2="152.19" y2="221.04"/>
		
			<line fill="none" stroke="#FFFFFF" stroke-linecap="round" stroke-linejoin="round" stroke-miterlimit="10" x1="149.135" y1="220.425" x2="149.135" y2="219.775"/>
		
			<line fill="none" stroke="#FFFFFF" stroke-linecap="round" stroke-linejoin="round" stroke-miterlimit="10" x1="149.135" y1="228.413" x2="149.135" y2="227.763"/>
		
			<line fill="none" stroke="#FFFFFF" stroke-linecap="round" stroke-linejoin="round" stroke-miterlimit="10" x1="146.541" y1="221.5" x2="146.081" y2="221.04"/>
		
			<line fill="none" stroke="#FFFFFF" stroke-linecap="round" stroke-linejoin="round" stroke-miterlimit="10" x1="152.19" y1="227.148" x2="151.73" y2="226.688"/>
		
			<line fill="none" stroke="#FFFFFF" stroke-linecap="round" stroke-linejoin="round" stroke-miterlimit="10" x1="130.381" y1="220.611" x2="130.381" y2="219.96"/>
		
			<line fill="none" stroke="#FFFFFF" stroke-linecap="round" stroke-linejoin="round" stroke-miterlimit="10" x1="130.381" y1="228.599" x2="130.381" y2="227.948"/>
		
			<line fill="none" stroke="#FFFFFF" stroke-linecap="round" stroke-linejoin="round" stroke-miterlimit="10" x1="127.786" y1="221.685" x2="127.327" y2="221.225"/>
		
			<line fill="none" stroke="#FFFFFF" stroke-linecap="round" stroke-linejoin="round" stroke-miterlimit="10" x1="126.712" y1="224.279" x2="126.061" y2="224.279"/>
		
			<line fill="none" stroke="#FFFFFF" stroke-linecap="round" stroke-linejoin="round" stroke-miterlimit="10" x1="134.7" y1="224.279" x2="134.05" y2="224.279"/>
		
			<line fill="none" stroke="#FFFFFF" stroke-linecap="round" stroke-linejoin="round" stroke-miterlimit="10" x1="127.786" y1="226.874" x2="127.327" y2="227.334"/>
		
			<line fill="none" stroke="#FFFFFF" stroke-linecap="round" stroke-linejoin="round" stroke-miterlimit="10" x1="133.435" y1="221.225" x2="132.975" y2="221.685"/>
		
			<line fill="none" stroke="#FFFFFF" stroke-linecap="round" stroke-linejoin="round" stroke-miterlimit="10" x1="130.381" y1="224.279" x2="131.708" y2="220.801"/>
	</g>
</g>
</svg>
