<?xml version="1.0" encoding="utf-8"?>
<!-- Generator: Adobe Illustrator 24.0.0, SVG Export Plug-In . SVG Version: 6.00 Build 0)  -->
<svg version="1.1" id="Laag_1" xmlns="http://www.w3.org/2000/svg" xmlns:xlink="http://www.w3.org/1999/xlink" x="0px" y="0px"
	 viewBox="0 0 178.583 277.795" enable-background="new 0 0 178.583 277.795" xml:space="preserve">
<path fill="#0080BB" d="M164.409,277.795H14.173C6.346,277.795,0,271.45,0,263.622V14.173C0,6.346,6.346,0,14.173,0h150.236
	c7.828,0,14.173,6.346,14.173,14.173v249.449C178.583,271.45,172.237,277.795,164.409,277.795z"/>
<g>
	
		<rect x="83.626" y="206.936" fill="none" stroke="#FFFFFF" stroke-linecap="round" stroke-linejoin="round" stroke-miterlimit="10" width="11.331" height="21.236"/>
	
		<rect x="86.326" y="222.772" fill="none" stroke="#FFFFFF" stroke-linecap="round" stroke-linejoin="round" stroke-miterlimit="10" width="5.931" height="2.7"/>
	
		<line fill="none" stroke="#FFFFFF" stroke-linecap="round" stroke-linejoin="round" stroke-miterlimit="10" x1="86.326" y1="211.436" x2="91.357" y2="211.436"/>
	
		<line fill="none" stroke="#FFFFFF" stroke-linecap="round" stroke-linejoin="round" stroke-miterlimit="10" x1="86.326" y1="214.136" x2="91.357" y2="214.136"/>
	
		<line fill="none" stroke="#FFFFFF" stroke-linecap="round" stroke-linejoin="round" stroke-miterlimit="10" x1="86.326" y1="216.836" x2="91.357" y2="216.836"/>
	
		<line fill="none" stroke="#FFFFFF" stroke-linecap="round" stroke-linejoin="round" stroke-miterlimit="10" x1="86.326" y1="219.536" x2="89.557" y2="219.536"/>
	<path fill="none" stroke="#FFFFFF" stroke-linecap="round" stroke-linejoin="round" stroke-miterlimit="10" d="M90.272,231.669
		h-1.961c-0.352,0-0.638-0.286-0.638-0.638v-0.422c0-0.352,0.286-0.638,0.638-0.638h1.961c0.352,0,0.638,0.286,0.638,0.638v0.422
		C90.91,231.384,90.624,231.669,90.272,231.669z"/>
	<path fill="none" stroke="#FFFFFF" stroke-linecap="round" stroke-linejoin="round" stroke-miterlimit="10" d="M95.106,203.335
		H83.477c-1.409,0-2.551,1.142-2.551,2.551v23.733c0,1.409,1.142,2.551,2.551,2.551h2.02c0.704,0,1.276,0.571,1.276,1.276v5.811
		c0,1.057,0.857,1.913,1.913,1.913h1.21c1.057,0,1.913-0.857,1.913-1.913v-5.811c0-0.704,0.571-1.276,1.276-1.276h2.02
		c1.409,0,2.551-1.142,2.551-2.551v-23.733C97.657,204.478,96.514,203.335,95.106,203.335z"/>
</g>
<g>
	
		<circle fill="none" stroke="#FFFFFF" stroke-linecap="round" stroke-linejoin="round" stroke-miterlimit="10" cx="123.962" cy="234.414" r="0.156"/>
	
		<circle fill="none" stroke="#FFFFFF" stroke-linecap="round" stroke-linejoin="round" stroke-miterlimit="10" cx="125.762" cy="234.414" r="0.156"/>
	
		<circle fill="none" stroke="#FFFFFF" stroke-linecap="round" stroke-linejoin="round" stroke-miterlimit="10" cx="127.562" cy="234.414" r="0.156"/>
	
		<circle fill="none" stroke="#FFFFFF" stroke-linecap="round" stroke-linejoin="round" stroke-miterlimit="10" cx="123.962" cy="236.214" r="0.156"/>
	
		<circle fill="none" stroke="#FFFFFF" stroke-linecap="round" stroke-linejoin="round" stroke-miterlimit="10" cx="125.762" cy="236.214" r="0.156"/>
	
		<circle fill="none" stroke="#FFFFFF" stroke-linecap="round" stroke-linejoin="round" stroke-miterlimit="10" cx="127.562" cy="236.214" r="0.156"/>
	
		<circle fill="none" stroke="#FFFFFF" stroke-linecap="round" stroke-linejoin="round" stroke-miterlimit="10" cx="123.962" cy="238.014" r="0.156"/>
	
		<circle fill="none" stroke="#FFFFFF" stroke-linecap="round" stroke-linejoin="round" stroke-miterlimit="10" cx="125.762" cy="238.014" r="0.156"/>
	
		<circle fill="none" stroke="#FFFFFF" stroke-linecap="round" stroke-linejoin="round" stroke-miterlimit="10" cx="127.562" cy="238.014" r="0.156"/>
	
		<rect x="123.65" y="229.758" fill="none" stroke="#FFFFFF" stroke-linecap="round" stroke-linejoin="round" stroke-miterlimit="10" width="4.225" height="2.7"/>
	<path fill="none" stroke="#FFFFFF" stroke-linecap="round" stroke-linejoin="round" stroke-miterlimit="10" d="M120.95,229.609
		v8.705c0,1.409,1.142,2.551,2.551,2.551h4.523c1.409,0,2.551-1.142,2.551-2.551v-8.705c0-1.409-1.142-2.551-2.551-2.551h-4.522
		C122.092,227.058,120.95,228.2,120.95,229.609z"/>
	<path fill="none" stroke="#FFFFFF" stroke-linecap="round" stroke-linejoin="round" stroke-miterlimit="10" d="M147.299,224.358
		h-19.573c-1.409,0-2.551-1.142-2.551-2.551v-15.185c0-1.409,1.142-2.551,2.551-2.551h19.573c1.409,0,2.551,1.142,2.551,2.551
		v15.185C149.85,223.216,148.708,224.358,147.299,224.358z"/>
	
		<rect x="127.875" y="206.771" fill="none" stroke="#FFFFFF" stroke-linecap="round" stroke-linejoin="round" stroke-miterlimit="10" width="19.276" height="14.887"/>
	
		<rect x="135.975" y="227.058" fill="none" stroke="#FFFFFF" stroke-linecap="round" stroke-linejoin="round" stroke-miterlimit="10" width="3.076" height="2.7"/>
	
		<rect x="145.35" y="227.058" fill="none" stroke="#FFFFFF" stroke-linecap="round" stroke-linejoin="round" stroke-miterlimit="10" width="9.376" height="6.3"/>
	
		<rect x="148.05" y="228.858" fill="none" stroke="#FFFFFF" stroke-linecap="round" stroke-linejoin="round" stroke-miterlimit="10" width="3.976" height="1.8"/>
	
		<line fill="none" stroke="#FFFFFF" stroke-linecap="round" stroke-linejoin="round" stroke-miterlimit="10" x1="133.275" y1="236.058" x2="133.275" y2="227.058"/>
	
		<line fill="none" stroke="#FFFFFF" stroke-linecap="round" stroke-linejoin="round" stroke-miterlimit="10" x1="141.75" y1="227.058" x2="141.75" y2="236.058"/>
	
		<line fill="none" stroke="#FFFFFF" stroke-linecap="round" stroke-linejoin="round" stroke-miterlimit="10" x1="145.35" y1="229.758" x2="141.75" y2="229.758"/>
</g>
<g>
	
		<rect x="26.729" y="229.877" fill="none" stroke="#FFFFFF" stroke-linecap="round" stroke-linejoin="round" stroke-miterlimit="10" width="23.636" height="6.121"/>
	<path fill="none" stroke="#FFFFFF" stroke-linecap="round" stroke-linejoin="round" stroke-miterlimit="10" d="M30.329,208.56
		v7.498c0,1.409,1.142,2.551,2.551,2.551h11.334c1.409,0,2.551-1.142,2.551-2.551v-7.498c0-1.409-1.142-2.551-2.551-2.551H32.88
		C31.471,206.009,30.329,207.151,30.329,208.56z"/>
	
		<line fill="none" stroke="#FFFFFF" stroke-linecap="round" stroke-linejoin="round" stroke-miterlimit="10" x1="47.665" y1="234.198" x2="47.665" y2="231.677"/>
	
		<line fill="none" stroke="#FFFFFF" stroke-linecap="round" stroke-linejoin="round" stroke-miterlimit="10" x1="45.865" y1="227.177" x2="31.229" y2="227.177"/>
	
		<rect x="33.029" y="208.709" fill="none" stroke="#FFFFFF" stroke-linecap="round" stroke-linejoin="round" stroke-miterlimit="10" width="11.036" height="7.2"/>
	
		<line fill="none" stroke="#FFFFFF" stroke-linecap="round" stroke-linejoin="round" stroke-miterlimit="10" x1="48.565" y1="224.477" x2="28.529" y2="224.477"/>
	<path fill="none" stroke="#FFFFFF" stroke-linecap="round" stroke-linejoin="round" stroke-miterlimit="10" d="M38.547,218.609"/>
	
		<line fill="none" stroke="#FFFFFF" stroke-linecap="round" stroke-linejoin="round" stroke-miterlimit="10" x1="40.347" y1="218.609" x2="40.347" y2="221.777"/>
	
		<line fill="none" stroke="#FFFFFF" stroke-linecap="round" stroke-linejoin="round" stroke-miterlimit="10" x1="36.747" y1="218.609" x2="36.747" y2="221.777"/>
</g>
<g>
	<text transform="matrix(1 0 0 1 126.9119 252.3286)" fill="#FFFFFF" font-family="'Montserrat-Regular'" font-size="8px">Kassa</text>
</g>
<g>
	<text transform="matrix(1 0 0 1 15.2947 252.3287)" fill="#FFFFFF" font-family="'Montserrat-Regular'" font-size="8px">Weegschaal</text>
</g>
<g>
	<text transform="matrix(1 0 0 1 72.9704 252.3291)" fill="#FFFFFF" font-family="'Montserrat-Regular'" font-size="8px">Scanner</text>
</g>
<text transform="matrix(1 0 0 1 23.1643 37.5056)"><tspan x="0" y="0" fill="#FFFFFF" font-family="'Montserrat-ExtraBold'" font-size="14px" letter-spacing="1">SUPERMARKT</tspan><tspan x="0" y="18" fill="#FFFFFF" font-family="'Montserrat-Regular'" font-size="10px">Wagentje</tspan></text>
<g>
	<path fill="none" stroke="#FFFFFF" stroke-linecap="round" stroke-linejoin="round" stroke-miterlimit="10" d="M145.687,36.984"/>
	
		<line fill="none" stroke="#FFFFFF" stroke-linecap="round" stroke-linejoin="round" stroke-miterlimit="10" x1="158.679" y1="24.384" x2="161.129" y2="24.384"/>
	
		<circle fill="none" stroke="#FFFFFF" stroke-linecap="round" stroke-linejoin="round" stroke-miterlimit="10" cx="152.671" cy="40.916" r="0.782"/>
	
		<circle fill="none" stroke="#FFFFFF" stroke-linecap="round" stroke-linejoin="round" stroke-miterlimit="10" cx="144.97" cy="40.916" r="0.782"/>
	<polyline fill="none" stroke="#FFFFFF" stroke-linecap="round" stroke-linejoin="round" stroke-miterlimit="10" points="
		152.257,33.834 142.234,33.834 140.052,27.534 157.588,27.534 154.316,36.984 143.324,36.984 	"/>
</g>
<g>
	
		<circle fill="none" stroke="#FFFFFF" stroke-width="2" stroke-linecap="round" stroke-linejoin="round" stroke-miterlimit="10" cx="67.666" cy="137.156" r="8.795"/>
	<path fill="none" stroke="#FFFFFF" stroke-width="2" stroke-linecap="round" stroke-linejoin="round" stroke-miterlimit="10" d="
		M69.124,133.985c-1.748,0-3.17,1.422-3.17,3.171s1.422,3.171,3.17,3.171"/>
	<path fill="none" stroke="#FFFFFF" stroke-width="2" stroke-linecap="round" stroke-linejoin="round" stroke-miterlimit="10" d="
		M89.996,121.611h13.465l0-2.25h5.811c1.761,0,3.189,1.428,3.189,3.189v38.212c0,1.761-1.428,3.189-3.189,3.189H70.856
		c-1.761,0-3.189-1.428-3.189-3.189V150.45c7.331,0,13.295-5.963,13.295-13.293c0-7.332-5.963-13.296-13.295-13.296v-1.311
		c0-1.761,1.428-3.189,3.189-3.189h19.208L89.996,121.611z"/>
	
		<line fill="none" stroke="#FFFFFF" stroke-width="2" stroke-linecap="round" stroke-linejoin="round" stroke-miterlimit="10" x1="52.122" y1="137.156" x2="52.122" y2="157.201"/>
	
		<line fill="none" stroke="#FFFFFF" stroke-width="2" stroke-linecap="round" stroke-linejoin="round" stroke-miterlimit="10" x1="60.213" y1="152.701" x2="67.666" y2="152.701"/>
	<path fill="none" stroke="#FFFFFF" stroke-width="2" stroke-linecap="round" stroke-linejoin="round" stroke-miterlimit="10" d="
		M99.333,145.951h-5.209c-3.522,0-6.378-2.855-6.378-6.378v-4.834c0-3.522,2.856-6.378,6.378-6.378h5.209
		c3.522,0,6.378,2.856,6.378,6.378v4.834C105.711,143.095,102.856,145.951,99.333,145.951z"/>
	<path fill="none" stroke="#FFFFFF" stroke-width="2" stroke-linecap="round" stroke-linejoin="round" stroke-miterlimit="10" d="
		M91.932,89.557L91.932,89.557c-1.065,1.065-1.065,2.79,0,3.855l2.509,2.509c1.064,1.064,2.79,1.064,3.855,0l0,0
		c1.065-1.065,1.065-2.79,0-3.855l-2.509-2.509C94.722,88.492,92.996,88.492,91.932,89.557z"/>
	<path fill="none" stroke="#FFFFFF" stroke-width="2" stroke-linecap="round" stroke-linejoin="round" stroke-miterlimit="10" d="
		M79.37,95.921L79.37,95.921c1.065,1.065,2.79,1.065,3.855,0l2.509-2.509c1.065-1.064,1.065-2.79,0-3.855v0
		c-1.065-1.065-2.79-1.065-3.855,0l-2.509,2.509C78.305,93.13,78.305,94.856,79.37,95.921z"/>
	
		<line fill="none" stroke="#FFFFFF" stroke-width="2" stroke-linecap="round" stroke-linejoin="round" stroke-miterlimit="10" x1="92.246" y1="121.611" x2="92.246" y2="114.861"/>
	
		<line fill="none" stroke="#FFFFFF" stroke-width="2" stroke-linecap="round" stroke-linejoin="round" stroke-miterlimit="10" x1="101.211" y1="121.611" x2="101.211" y2="114.861"/>
	<path fill="none" stroke="#FFFFFF" stroke-width="2" stroke-linecap="round" stroke-linejoin="round" stroke-miterlimit="10" d="
		M100.272,101.396h-7.087c-1.761,0-3.189,1.428-3.189,3.189v10.276h13.465v-10.276C103.461,102.824,102.033,101.396,100.272,101.396
		z"/>
	
		<line fill="none" stroke="#FFFFFF" stroke-width="2" stroke-linecap="round" stroke-linejoin="round" stroke-miterlimit="10" x1="96.729" y1="103.646" x2="96.729" y2="94.646"/>
	
		<line fill="none" stroke="#FFFFFF" stroke-width="2" stroke-linecap="round" stroke-linejoin="round" stroke-miterlimit="10" x1="93.448" y1="91.232" x2="84.448" y2="91.232"/>
	
		<line fill="none" stroke="#FFFFFF" stroke-width="2" stroke-linecap="round" stroke-linejoin="round" stroke-miterlimit="10" x1="67.539" y1="137.156" x2="64.369" y2="137.156"/>
</g>
</svg>
