<?xml version="1.0" encoding="utf-8"?>
<!-- Generator: Adobe Illustrator 24.0.0, SVG Export Plug-In . SVG Version: 6.00 Build 0)  -->
<svg version="1.1" id="Laag_1" xmlns="http://www.w3.org/2000/svg" xmlns:xlink="http://www.w3.org/1999/xlink" x="0px" y="0px"
	 viewBox="0 0 178.583 277.795" enable-background="new 0 0 178.583 277.795" xml:space="preserve">
<path fill="#D73534" d="M164.409,277.795H14.173C6.346,277.795,0,271.45,0,263.622V14.173C0,6.346,6.346,0,14.173,0h150.236
	c7.828,0,14.173,6.346,14.173,14.173v249.449C178.583,271.45,172.237,277.795,164.409,277.795z"/>
<g>
	
		<circle fill="none" stroke="#FFFFFF" stroke-linecap="round" stroke-linejoin="round" stroke-miterlimit="10" cx="89.291" cy="226.002" r="4.397"/>
	
		<circle fill="none" stroke="#FFFFFF" stroke-linecap="round" stroke-linejoin="round" stroke-miterlimit="10" cx="89.273" cy="216.013" r="0.192"/>
	
		<circle fill="none" stroke="#FFFFFF" stroke-linecap="round" stroke-linejoin="round" stroke-miterlimit="10" cx="91.973" cy="216.013" r="0.192"/>
	
		<circle fill="none" stroke="#FFFFFF" stroke-linecap="round" stroke-linejoin="round" stroke-miterlimit="10" cx="87.923" cy="213.313" r="0.192"/>
	
		<circle fill="none" stroke="#FFFFFF" stroke-linecap="round" stroke-linejoin="round" stroke-miterlimit="10" cx="90.623" cy="213.313" r="0.192"/>
	
		<circle fill="none" stroke="#FFFFFF" stroke-linecap="round" stroke-linejoin="round" stroke-miterlimit="10" cx="87.923" cy="218.713" r="0.192"/>
	
		<circle fill="none" stroke="#FFFFFF" stroke-linecap="round" stroke-linejoin="round" stroke-miterlimit="10" cx="90.623" cy="218.713" r="0.192"/>
	
		<circle fill="none" stroke="#FFFFFF" stroke-linecap="round" stroke-linejoin="round" stroke-miterlimit="10" cx="89.273" cy="227.785" r="0.192"/>
	
		<circle fill="none" stroke="#FFFFFF" stroke-linecap="round" stroke-linejoin="round" stroke-miterlimit="10" cx="86.573" cy="216.013" r="0.192"/>
	<path fill="none" stroke="#FFFFFF" stroke-linecap="round" stroke-linejoin="round" stroke-miterlimit="10" d="M91.286,233.1h-3.99
		c-2.818,0-5.102-2.284-5.102-5.102v-12.475c0-2.818,2.284-5.102,5.102-5.102h3.99c2.818,0,5.102,2.284,5.102,5.102v12.475
		C96.389,230.815,94.104,233.1,91.286,233.1z"/>
	
		<line fill="none" stroke="#FFFFFF" stroke-linecap="round" stroke-linejoin="round" stroke-miterlimit="10" x1="79.494" y1="237.168" x2="79.494" y2="207.72"/>
	
		<line fill="none" stroke="#FFFFFF" stroke-linecap="round" stroke-linejoin="round" stroke-miterlimit="10" x1="99.089" y1="207.72" x2="99.089" y2="237.168"/>
	
		<line fill="none" stroke="#FFFFFF" stroke-linecap="round" stroke-linejoin="round" stroke-miterlimit="10" x1="89.291" y1="225.793" x2="89.291" y2="224.027"/>
</g>
<g>
	
		<circle fill="none" stroke="#FFFFFF" stroke-linecap="round" stroke-linejoin="round" stroke-miterlimit="10" cx="139.929" cy="223.611" r="1.351"/>
	<polygon fill="none" stroke="#FFFFFF" stroke-linecap="round" stroke-linejoin="round" stroke-miterlimit="10" points="
		146.018,222.047 143.757,223.728 146.018,225.408 	"/>
	
		<line fill="none" stroke="#FFFFFF" stroke-linecap="round" stroke-linejoin="round" stroke-miterlimit="10" x1="147.67" y1="223.728" x2="148.599" y2="223.728"/>
	<polygon fill="none" stroke="#FFFFFF" stroke-linecap="round" stroke-linejoin="round" stroke-miterlimit="10" points="
		133.84,225.408 136.101,223.728 133.84,222.047 	"/>
	
		<line fill="none" stroke="#FFFFFF" stroke-linecap="round" stroke-linejoin="round" stroke-miterlimit="10" x1="132.188" y1="223.728" x2="131.259" y2="223.728"/>
	
		<rect x="129.006" y="219.347" fill="none" stroke="#FFFFFF" stroke-linecap="round" stroke-linejoin="round" stroke-miterlimit="10" width="21.847" height="8.314"/>
	<polygon fill="none" stroke="#FFFFFF" stroke-linecap="round" stroke-linejoin="round" stroke-miterlimit="10" points="
		141.366,214.599 139.929,212.948 138.492,214.599 138.492,216.647 141.366,216.647 	"/>
	<path fill="none" stroke="#FFFFFF" stroke-linecap="round" stroke-linejoin="round" stroke-miterlimit="10" d="M141.101,231.941
		h-2.344c-0.436,0-0.789-0.353-0.789-0.789l0,0c0-0.436,0.353-0.789,0.789-0.789h2.344c0.436,0,0.789,0.353,0.789,0.789l0,0
		C141.89,231.587,141.537,231.941,141.101,231.941z"/>
	<path fill="none" stroke="#FFFFFF" stroke-linecap="round" stroke-linejoin="round" stroke-miterlimit="10" d="M151.212,234.641
		h-22.566c-1.293,0-2.34-1.048-2.34-2.34v-19.712c0-1.292,1.048-2.34,2.34-2.34h22.566c1.292,0,2.34,1.048,2.34,2.34V232.3
		C153.552,233.593,152.505,234.641,151.212,234.641z"/>
	
		<line fill="none" stroke="#FFFFFF" stroke-linecap="round" stroke-linejoin="round" stroke-miterlimit="10" x1="128.782" y1="214.798" x2="133.84" y2="214.798"/>
</g>
<g>
	<text transform="matrix(1 0 0 1 114.491 252.3286)" fill="#FFFFFF" font-family="'Montserrat-Regular'" font-size="8px">Brandalarm</text>
</g>
<g>
	<text transform="matrix(1 0 0 1 18.6428 252.3288)" fill="#FFFFFF" font-family="'Montserrat-Regular'" font-size="8px">Brandslang</text>
</g>
<g>
	<text transform="matrix(1 0 0 1 69.3509 252.3291)" fill="#FFFFFF" font-family="'Montserrat-Regular'" font-size="8px">SOS-knop</text>
</g>
<g>
	<polyline fill="none" stroke="#FFFFFF" stroke-linecap="round" stroke-linejoin="round" stroke-miterlimit="10" points="
		44.901,234.227 44.901,238.193 36.623,238.193 36.623,234.227 	"/>
	<path fill="none" stroke="#FFFFFF" stroke-linecap="round" stroke-linejoin="round" stroke-miterlimit="10" d="M42.982,210.566
		h-4.44c-1.409,0-2.551,1.142-2.551,2.551v18.41h9.543v-18.41C45.533,211.708,44.391,210.566,42.982,210.566z"/>
	
		<line fill="none" stroke="#FFFFFF" stroke-linecap="round" stroke-linejoin="round" stroke-miterlimit="10" x1="33.291" y1="227.702" x2="33.291" y2="231.527"/>
	<polyline fill="none" stroke="#FFFFFF" stroke-linecap="round" stroke-linejoin="round" stroke-miterlimit="10" points="
		45.533,217.862 39.408,217.862 39.408,227.027 45.533,227.027 	"/>
	<path fill="none" stroke="#FFFFFF" stroke-linecap="round" stroke-linejoin="round" stroke-miterlimit="10" d="M33.291,229.615
		c-6.353,0-11.502-5.15-11.502-11.502c0-6.353,5.15-11.502,11.502-11.502h3.515"/>
	
		<circle fill="none" stroke="#FFFFFF" stroke-linecap="round" stroke-linejoin="round" stroke-miterlimit="10" cx="40.762" cy="206.61" r="1.256"/>
	
		<line fill="none" stroke="#FFFFFF" stroke-linecap="round" stroke-linejoin="round" stroke-miterlimit="10" x1="44.362" y1="205.678" x2="48.851" y2="203.572"/>
	
		<line fill="none" stroke="#FFFFFF" stroke-linecap="round" stroke-linejoin="round" stroke-miterlimit="10" x1="44.362" y1="207.926" x2="49.131" y2="209.648"/>
</g>
<text transform="matrix(1 0 0 1 23.1643 37.5056)"><tspan x="0" y="0" fill="#FFFFFF" font-family="'Montserrat-ExtraBold'" font-size="14px" letter-spacing="1">NOOD</tspan><tspan x="0" y="18" fill="#FFFFFF" font-family="'Montserrat-Regular'" font-size="10px">AED-kast</tspan></text>
<g>
	<path fill="none" stroke="#FFFFFF" stroke-linecap="round" stroke-linejoin="round" stroke-miterlimit="10" d="M148.328,23.338
		l-9.87,16.316c-0.626,1.034,0.119,2.355,1.328,2.355h19.741c1.209,0,1.954-1.321,1.328-2.355l-9.87-16.316
		C150.38,22.34,148.932,22.34,148.328,23.338z"/>
	<polygon fill="none" stroke="#FFFFFF" stroke-linecap="round" stroke-linejoin="round" stroke-miterlimit="10" points="
		148.081,29.076 149.656,34.631 151.231,29.076 	"/>
	
		<circle fill="none" stroke="#FFFFFF" stroke-linecap="round" stroke-linejoin="round" stroke-miterlimit="10" cx="149.656" cy="37.87" r="1.125"/>
</g>
<g>
	<path fill="none" stroke="#FFFFFF" stroke-width="2" stroke-linecap="round" stroke-linejoin="round" stroke-miterlimit="10" d="
		M103.735,118.234c1.528-3.494,8.083-2.621,8.083,2.623c0,5.245-8.083,9.613-8.083,9.613s-8.087-4.368-8.087-9.613
		C95.648,115.613,102.204,114.74,103.735,118.234z"/>
	<path fill="none" stroke="#FFFFFF" stroke-width="2" stroke-linecap="round" stroke-linejoin="round" stroke-miterlimit="10" d="
		M117.714,159.454H60.217c-3.522,0-6.378-2.855-6.378-6.378v-35.978c0-7.045,5.711-12.756,12.756-12.756h44.741
		c7.045,0,12.756,5.711,12.756,12.756v35.978C124.092,156.598,121.236,159.454,117.714,159.454z"/>
	
		<rect x="63.304" y="113.342" fill="none" stroke="#FFFFFF" stroke-width="2" stroke-linecap="round" stroke-linejoin="round" stroke-miterlimit="10" width="18.962" height="37.112"/>
	
		<circle fill="none" stroke="#FFFFFF" stroke-width="2" stroke-linecap="round" stroke-linejoin="round" stroke-miterlimit="10" cx="72.785" cy="140.885" r="4.081"/>
	
		<circle fill="none" stroke="#FFFFFF" stroke-width="2" stroke-linecap="round" stroke-linejoin="round" stroke-miterlimit="10" cx="72.785" cy="131.822" r="0.481"/>
	
		<circle fill="none" stroke="#FFFFFF" stroke-width="2" stroke-linecap="round" stroke-linejoin="round" stroke-miterlimit="10" cx="77.285" cy="131.822" r="0.481"/>
	
		<circle fill="none" stroke="#FFFFFF" stroke-width="2" stroke-linecap="round" stroke-linejoin="round" stroke-miterlimit="10" cx="68.285" cy="131.822" r="0.481"/>
	
		<circle fill="none" stroke="#FFFFFF" stroke-width="2" stroke-linecap="round" stroke-linejoin="round" stroke-miterlimit="10" cx="72.785" cy="127.322" r="0.481"/>
	
		<circle fill="none" stroke="#FFFFFF" stroke-width="2" stroke-linecap="round" stroke-linejoin="round" stroke-miterlimit="10" cx="77.285" cy="127.322" r="0.481"/>
	
		<circle fill="none" stroke="#FFFFFF" stroke-width="2" stroke-linecap="round" stroke-linejoin="round" stroke-miterlimit="10" cx="68.285" cy="127.322" r="0.481"/>
	
		<circle fill="none" stroke="#FFFFFF" stroke-width="2" stroke-linecap="round" stroke-linejoin="round" stroke-miterlimit="10" cx="72.785" cy="122.822" r="0.481"/>
	
		<circle fill="none" stroke="#FFFFFF" stroke-width="2" stroke-linecap="round" stroke-linejoin="round" stroke-miterlimit="10" cx="77.285" cy="122.822" r="0.481"/>
	
		<circle fill="none" stroke="#FFFFFF" stroke-width="2" stroke-linecap="round" stroke-linejoin="round" stroke-miterlimit="10" cx="68.285" cy="122.822" r="0.481"/>
	
		<circle fill="none" stroke="#FFFFFF" stroke-width="2" stroke-linecap="round" stroke-linejoin="round" stroke-miterlimit="10" cx="72.785" cy="118.322" r="0.481"/>
	
		<circle fill="none" stroke="#FFFFFF" stroke-width="2" stroke-linecap="round" stroke-linejoin="round" stroke-miterlimit="10" cx="77.285" cy="118.322" r="0.481"/>
	
		<circle fill="none" stroke="#FFFFFF" stroke-width="2" stroke-linecap="round" stroke-linejoin="round" stroke-miterlimit="10" cx="68.285" cy="118.322" r="0.481"/>
	
		<line fill="none" stroke="#FFFFFF" stroke-width="2" stroke-linecap="round" stroke-linejoin="round" stroke-miterlimit="10" x1="95.648" y1="138.148" x2="111.818" y2="138.148"/>
	
		<line fill="none" stroke="#FFFFFF" stroke-width="2" stroke-linecap="round" stroke-linejoin="round" stroke-miterlimit="10" x1="95.648" y1="144.898" x2="111.818" y2="144.898"/>
</g>
</svg>
