<?xml version="1.0" encoding="utf-8"?>
<!-- Generator: Adobe Illustrator 24.0.0, SVG Export Plug-In . SVG Version: 6.00 Build 0)  -->
<svg version="1.1" id="Laag_1" xmlns="http://www.w3.org/2000/svg" xmlns:xlink="http://www.w3.org/1999/xlink" x="0px" y="0px"
	 viewBox="0 0 178.583 277.795" enable-background="new 0 0 178.583 277.795" xml:space="preserve">
<path fill="#BE8646" d="M164.409,277.795H14.173C6.346,277.795,0,271.45,0,263.622V14.173C0,6.346,6.346,0,14.173,0h150.236
	c7.828,0,14.173,6.346,14.173,14.173v249.449C178.583,271.45,172.237,277.795,164.409,277.795z"/>
<g>
	<path fill="none" stroke="#FFFFFF" stroke-linecap="round" stroke-linejoin="round" stroke-miterlimit="10" d="M139.225,221.378
		c-2.3,0-4.171-1.871-4.171-4.171s1.871-4.171,4.171-4.171c2.3,0,4.171,1.871,4.171,4.171S141.525,221.378,139.225,221.378z"/>
	<path fill="none" stroke="#FFFFFF" stroke-linecap="round" stroke-linejoin="round" stroke-miterlimit="10" d="M139.225,215.285
		c-1.059,0-1.921,0.862-1.921,1.921"/>
	<path fill="none" stroke="#FFFFFF" stroke-linecap="round" stroke-linejoin="round" stroke-miterlimit="10" d="M143.545,234.878
		h-8.64c-1.409,0-2.551-1.142-2.551-2.551v-19.44c0-1.409,1.142-2.551,2.551-2.551h8.64c1.409,0,2.551,1.142,2.551,2.551v19.44
		C146.096,233.736,144.954,234.878,143.545,234.878z"/>
	
		<line fill="none" stroke="#FFFFFF" stroke-linecap="round" stroke-linejoin="round" stroke-miterlimit="10" x1="129.654" y1="237.578" x2="129.654" y2="207.635"/>
	
		<line fill="none" stroke="#FFFFFF" stroke-linecap="round" stroke-linejoin="round" stroke-miterlimit="10" x1="148.796" y1="207.635" x2="148.796" y2="237.578"/>
	<path fill="none" stroke="#FFFFFF" stroke-linecap="round" stroke-linejoin="round" stroke-miterlimit="10" d="M141.772,226.664
		c0-1.405-1.143-2.548-2.548-2.548c-1.405,0-2.548,1.143-2.548,2.548c0,0.774,0.354,1.459,0.9,1.927v2.687h3.295v-2.687
		C141.418,228.123,141.772,227.437,141.772,226.664z"/>
	
		<line fill="none" stroke="#FFFFFF" stroke-linecap="round" stroke-linejoin="round" stroke-miterlimit="10" x1="139.225" y1="226.316" x2="139.225" y2="227.498"/>
</g>
<g>
	<polygon fill="none" stroke="#FFFFFF" stroke-linecap="round" stroke-linejoin="round" stroke-miterlimit="10" points="
		97.167,226.87 96.756,229.658 99.543,229.247 	"/>
	
		<line fill="none" stroke="#FFFFFF" stroke-linecap="round" stroke-linejoin="round" stroke-miterlimit="10" x1="98.355" y1="228.059" x2="99.543" y2="226.87"/>
	<path fill="none" stroke="#FFFFFF" stroke-linecap="round" stroke-linejoin="round" stroke-miterlimit="10" d="M94.261,236.253
		v-20.894c0-1.409,1.142-2.551,2.551-2.551h3.085c1.409,0,2.551,1.142,2.551,2.551v20.894"/>
	
		<line fill="none" stroke="#FFFFFF" stroke-linecap="round" stroke-linejoin="round" stroke-miterlimit="10" x1="76.134" y1="236.253" x2="76.134" y2="212.807"/>
	<path fill="none" stroke="#FFFFFF" stroke-linecap="round" stroke-linejoin="round" stroke-miterlimit="10" d="M89.067,208.576
		h2.431v18.506h-2.431c-1.409,0-2.551-1.142-2.551-2.551v-13.403C86.516,209.718,87.658,208.576,89.067,208.576z"/>
	<path fill="none" stroke="#FFFFFF" stroke-linecap="round" stroke-linejoin="round" stroke-miterlimit="10" d="M81.265,227.081
		h-2.431v-18.506h2.431c1.409,0,2.551,1.142,2.551,2.551v13.403C83.816,225.939,82.674,227.081,81.265,227.081z"/>
	
		<rect x="96.434" y="215.507" fill="none" stroke="#FFFFFF" stroke-linecap="round" stroke-linejoin="round" stroke-miterlimit="10" width="3.843" height="2.748"/>
	<path fill="none" stroke="#FFFFFF" stroke-linecap="round" stroke-linejoin="round" stroke-miterlimit="10" d="M98.903,220.056
		h-1.095c-0.759,0-1.374,0.615-1.374,1.374l0,0c0,0.759,0.615,1.374,1.374,1.374h1.095c0.759,0,1.374-0.615,1.374-1.374l0,0
		C100.277,220.671,99.662,220.056,98.903,220.056z"/>
</g>
<g>
	<text transform="matrix(1 0 0 1 121.4031 252.3286)" fill="#FFFFFF" font-family="'Montserrat-Regular'" font-size="8px">Deurslot</text>
</g>
<g>
	<text transform="matrix(1 0 0 1 19.575 252.3288)" fill="#FFFFFF" font-family="'Montserrat-Regular'" font-size="8px">Schuifdeur</text>
</g>
<g>
	<text transform="matrix(1 0 0 1 67.3949 252.3291)" fill="#FFFFFF" font-family="'Montserrat-Regular'" font-size="8px">OV-poortje</text>
</g>
<text transform="matrix(1 0 0 1 23.1642 37.5056)"><tspan x="0" y="0" fill="#FFFFFF" font-family="'Montserrat-ExtraBold'" font-size="14px" letter-spacing="1">DEUREN</tspan><tspan x="0" y="18" fill="#FFFFFF" font-family="'Montserrat-Regular'" font-size="10px">Liftdeur</tspan></text>
<g>
	
		<rect x="139.225" y="19.842" fill="none" stroke="#FFFFFF" stroke-linecap="round" stroke-linejoin="round" stroke-miterlimit="10" width="13.497" height="24.915"/>
	
		<circle fill="none" stroke="#FFFFFF" stroke-linecap="round" stroke-linejoin="round" stroke-miterlimit="10" cx="149.304" cy="34.041" r="0.645"/>
	
		<line fill="none" stroke="#FFFFFF" stroke-linecap="round" stroke-linejoin="round" stroke-miterlimit="10" x1="149.304" y1="37.836" x2="142.643" y2="37.836"/>
	
		<rect x="142.643" y="23.176" fill="none" stroke="#FFFFFF" stroke-linecap="round" stroke-linejoin="round" stroke-miterlimit="10" width="6.662" height="7.07"/>
</g>
<g>
	
		<rect x="43.183" y="212.017" fill="none" stroke="#FFFFFF" stroke-linecap="round" stroke-linejoin="round" stroke-miterlimit="10" width="7.036" height="27.627"/>
	<polygon fill="none" stroke="#FFFFFF" stroke-linecap="round" stroke-linejoin="round" stroke-miterlimit="10" points="
		45.883,226.512 47.713,225.152 45.883,223.792 	"/>
	
		<rect x="32.547" y="212.017" fill="none" stroke="#FFFFFF" stroke-linecap="round" stroke-linejoin="round" stroke-miterlimit="10" width="7.036" height="27.627"/>
	<polygon fill="none" stroke="#FFFFFF" stroke-linecap="round" stroke-linejoin="round" stroke-miterlimit="10" points="
		36.883,223.792 35.052,225.152 36.883,226.512 	"/>
	<polyline fill="none" stroke="#FFFFFF" stroke-linecap="round" stroke-linejoin="round" stroke-miterlimit="10" points="
		52.018,212.017 53.736,212.017 53.736,239.644 52.018,239.644 	"/>
	<polyline fill="none" stroke="#FFFFFF" stroke-linecap="round" stroke-linejoin="round" stroke-miterlimit="10" points="
		56.436,239.644 56.436,209.317 45.883,209.317 	"/>
	<polyline fill="none" stroke="#FFFFFF" stroke-linecap="round" stroke-linejoin="round" stroke-miterlimit="10" points="
		30.747,212.017 29.029,212.017 29.029,239.644 30.747,239.644 	"/>
	<polyline fill="none" stroke="#FFFFFF" stroke-linecap="round" stroke-linejoin="round" stroke-miterlimit="10" points="
		26.329,239.644 26.329,209.317 36.883,209.317 	"/>
	<path fill="none" stroke="#FFFFFF" stroke-linecap="round" stroke-linejoin="round" stroke-miterlimit="10" d="M41.907,210.389
		h-1.049c-0.704,0-1.276-0.571-1.276-1.276v-0.868h3.6v0.868C43.183,209.818,42.611,210.389,41.907,210.389z"/>
</g>
<g>
	
		<rect x="70.142" y="107.765" fill="none" stroke="#FFFFFF" stroke-width="2" stroke-linecap="round" stroke-linejoin="round" stroke-miterlimit="10" width="31.5" height="64.567"/>
	
		<polyline fill="none" stroke="#FFFFFF" stroke-width="2" stroke-linecap="round" stroke-linejoin="round" stroke-miterlimit="10" points="
		121.94,172.332 121.94,93.405 101.642,93.405 	"/>
	
		<line fill="none" stroke="#FFFFFF" stroke-width="2" stroke-linecap="round" stroke-linejoin="round" stroke-miterlimit="10" x1="85.892" y1="107.765" x2="85.892" y2="172.332"/>
	
		<rect x="79.794" y="95.655" fill="none" stroke="#FFFFFF" stroke-width="2" stroke-linecap="round" stroke-linejoin="round" stroke-miterlimit="10" width="12.195" height="5.359"/>
	
		<polygon fill="none" stroke="#FFFFFF" stroke-width="2" stroke-linecap="round" stroke-linejoin="round" stroke-miterlimit="10" points="
		115.19,136.28 111.791,131.704 108.392,136.28 	"/>
	
		<polygon fill="none" stroke="#FFFFFF" stroke-width="2" stroke-linecap="round" stroke-linejoin="round" stroke-miterlimit="10" points="
		108.392,143.03 111.791,147.605 115.19,143.03 	"/>
	
		<polyline fill="none" stroke="#FFFFFF" stroke-width="2" stroke-linecap="round" stroke-linejoin="round" stroke-miterlimit="10" points="
		56.642,172.332 56.642,93.405 70.142,93.405 	"/>
	
		<line fill="none" stroke="#FFFFFF" stroke-width="2" stroke-linecap="round" stroke-linejoin="round" stroke-miterlimit="10" x1="108.798" y1="124.573" x2="114.785" y2="124.573"/>
	
		<line fill="none" stroke="#FFFFFF" stroke-width="2" stroke-linecap="round" stroke-linejoin="round" stroke-miterlimit="10" x1="114.785" y1="154.355" x2="108.798" y2="154.355"/>
	
		<line fill="none" stroke="#FFFFFF" stroke-width="2" stroke-linecap="round" stroke-linejoin="round" stroke-miterlimit="10" x1="63.392" y1="107.765" x2="63.392" y2="172.332"/>
</g>
</svg>
