<?xml version="1.0" encoding="utf-8"?>
<!-- Generator: Adobe Illustrator 24.0.0, SVG Export Plug-In . SVG Version: 6.00 Build 0)  -->
<svg version="1.1" id="Laag_1" xmlns="http://www.w3.org/2000/svg" xmlns:xlink="http://www.w3.org/1999/xlink" x="0px" y="0px"
	 viewBox="0 0 178.583 277.795" enable-background="new 0 0 178.583 277.795" xml:space="preserve">
<path fill="#009E4D" d="M164.409,277.795H14.173C6.346,277.795,0,271.45,0,263.622V14.173C0,6.346,6.346,0,14.173,0h150.236
	c7.828,0,14.173,6.346,14.173,14.173v249.449C178.583,271.45,172.237,277.795,164.409,277.795z"/>
<g>
	
		<circle fill="none" stroke="#FFFFFF" stroke-linecap="round" stroke-linejoin="round" stroke-miterlimit="10" cx="89.741" cy="221.912" r="0.661"/>
	
		<circle fill="none" stroke="#FFFFFF" stroke-linecap="round" stroke-linejoin="round" stroke-miterlimit="10" cx="93.763" cy="221.912" r="0.661"/>
	
		<circle fill="none" stroke="#FFFFFF" stroke-linecap="round" stroke-linejoin="round" stroke-miterlimit="10" cx="85.72" cy="221.912" r="0.661"/>
	
		<circle fill="none" stroke="#FFFFFF" stroke-linecap="round" stroke-linejoin="round" stroke-miterlimit="10" cx="89.741" cy="225.934" r="0.661"/>
	
		<circle fill="none" stroke="#FFFFFF" stroke-linecap="round" stroke-linejoin="round" stroke-miterlimit="10" cx="93.763" cy="225.934" r="0.661"/>
	
		<circle fill="none" stroke="#FFFFFF" stroke-linecap="round" stroke-linejoin="round" stroke-miterlimit="10" cx="85.72" cy="225.934" r="0.661"/>
	
		<circle fill="none" stroke="#FFFFFF" stroke-linecap="round" stroke-linejoin="round" stroke-miterlimit="10" cx="89.741" cy="229.955" r="0.661"/>
	
		<circle fill="none" stroke="#FFFFFF" stroke-linecap="round" stroke-linejoin="round" stroke-miterlimit="10" cx="89.741" cy="233.977" r="0.661"/>
	
		<circle fill="none" stroke="#FFFFFF" stroke-linecap="round" stroke-linejoin="round" stroke-miterlimit="10" cx="93.763" cy="229.955" r="0.661"/>
	
		<circle fill="none" stroke="#FFFFFF" stroke-linecap="round" stroke-linejoin="round" stroke-miterlimit="10" cx="85.72" cy="229.955" r="0.661"/>
	
		<line fill="none" stroke="#FFFFFF" stroke-linecap="round" stroke-linejoin="round" stroke-miterlimit="10" x1="93.102" y1="233.977" x2="94.424" y2="233.977"/>
	
		<line fill="none" stroke="#FFFFFF" stroke-linecap="round" stroke-linejoin="round" stroke-miterlimit="10" x1="85.059" y1="233.977" x2="86.381" y2="233.977"/>
	
		<rect x="85.059" y="211.351" fill="none" stroke="#FFFFFF" stroke-linecap="round" stroke-linejoin="round" stroke-miterlimit="10" width="9.364" height="7.2"/>
	
		<line fill="none" stroke="#FFFFFF" stroke-linecap="round" stroke-linejoin="round" stroke-miterlimit="10" x1="93.524" y1="209.551" x2="85.959" y2="209.551"/>
	<path fill="none" stroke="#FFFFFF" stroke-linecap="round" stroke-linejoin="round" stroke-miterlimit="10" d="M82.359,210.303
		v24.484c0,1.409,1.142,2.551,2.551,2.551h9.662c1.409,0,2.551-1.142,2.551-2.551v-24.484c0-1.409-1.142-2.551-2.551-2.551H84.91
		C83.501,207.751,82.359,208.894,82.359,210.303z"/>
	<path fill="none" stroke="#FFFFFF" stroke-linecap="round" stroke-linejoin="round" stroke-miterlimit="10" d="M82.359,212.251
		H82.21c-1.409,0-2.551,1.142-2.551,2.551v15.484c0,1.409,1.142,2.551,2.551,2.551h0.149"/>
	
		<line fill="none" stroke="#FFFFFF" stroke-linecap="round" stroke-linejoin="round" stroke-miterlimit="10" x1="98.924" y1="235.537" x2="98.924" y2="209.551"/>
</g>
<g>
	<path fill="none" stroke="#FFFFFF" stroke-linecap="round" stroke-linejoin="round" stroke-miterlimit="10" d="M48.12,212.9
		c0,0-0.627-2.663-1.929-3.097c-1.302-0.434-3.714-0.579-5.74-0.579c-2.026,0-4.438,0.145-5.74,0.579
		c-1.302,0.434-1.929,3.097-1.929,3.097"/>
	<path fill="none" stroke="#FFFFFF" stroke-linecap="round" stroke-linejoin="round" stroke-miterlimit="10" d="M36.331,214.7
		h-2.837c-0.394,0-0.714-0.319-0.714-0.714V212.9h4.264v1.086C37.044,214.381,36.725,214.7,36.331,214.7z"/>
	<path fill="none" stroke="#FFFFFF" stroke-linecap="round" stroke-linejoin="round" stroke-miterlimit="10" d="M47.406,214.7H44.57
		c-0.394,0-0.714-0.319-0.714-0.714V212.9h4.264v1.086C48.12,214.381,47.8,214.7,47.406,214.7z"/>
	<path fill="none" stroke="#FFFFFF" stroke-linecap="round" stroke-linejoin="round" stroke-miterlimit="10" d="M37.044,212.9
		c0,0,0.129-1.838,3.406-1.838c3.276,0,3.406,1.838,3.406,1.838"/>
	
		<circle fill="none" stroke="#FFFFFF" stroke-linecap="round" stroke-linejoin="round" stroke-miterlimit="10" cx="42.146" cy="218.782" r="0.481"/>
	
		<circle fill="none" stroke="#FFFFFF" stroke-linecap="round" stroke-linejoin="round" stroke-miterlimit="10" cx="44.875" cy="218.782" r="0.481"/>
	
		<circle fill="none" stroke="#FFFFFF" stroke-linecap="round" stroke-linejoin="round" stroke-miterlimit="10" cx="47.638" cy="218.782" r="0.481"/>
	
		<circle fill="none" stroke="#FFFFFF" stroke-linecap="round" stroke-linejoin="round" stroke-miterlimit="10" cx="42.146" cy="221.544" r="0.481"/>
	
		<circle fill="none" stroke="#FFFFFF" stroke-linecap="round" stroke-linejoin="round" stroke-miterlimit="10" cx="44.875" cy="221.544" r="0.481"/>
	
		<circle fill="none" stroke="#FFFFFF" stroke-linecap="round" stroke-linejoin="round" stroke-miterlimit="10" cx="47.638" cy="221.544" r="0.481"/>
	
		<circle fill="none" stroke="#FFFFFF" stroke-linecap="round" stroke-linejoin="round" stroke-miterlimit="10" cx="42.146" cy="224.307" r="0.481"/>
	
		<circle fill="none" stroke="#FFFFFF" stroke-linecap="round" stroke-linejoin="round" stroke-miterlimit="10" cx="44.875" cy="224.307" r="0.481"/>
	
		<circle fill="none" stroke="#FFFFFF" stroke-linecap="round" stroke-linejoin="round" stroke-miterlimit="10" cx="44.875" cy="227.07" r="0.481"/>
	
		<circle fill="none" stroke="#FFFFFF" stroke-linecap="round" stroke-linejoin="round" stroke-miterlimit="10" cx="47.638" cy="224.307" r="0.481"/>
	
		<line fill="none" stroke="#FFFFFF" stroke-linecap="round" stroke-linejoin="round" stroke-miterlimit="10" x1="47.157" y1="227.07" x2="48.12" y2="227.07"/>
	
		<line fill="none" stroke="#FFFFFF" stroke-linecap="round" stroke-linejoin="round" stroke-miterlimit="10" x1="41.665" y1="227.07" x2="42.628" y2="227.07"/>
	
		<rect x="32.78" y="219.263" fill="none" stroke="#FFFFFF" stroke-linecap="round" stroke-linejoin="round" stroke-miterlimit="10" width="6.185" height="6.454"/>
	
		<line fill="none" stroke="#FFFFFF" stroke-linecap="round" stroke-linejoin="round" stroke-miterlimit="10" x1="33.68" y1="230.763" x2="38.065" y2="230.763"/>
	<path fill="none" stroke="#FFFFFF" stroke-linecap="round" stroke-linejoin="round" stroke-miterlimit="10" d="M40.615,235.002
		h-7.983c-1.409,0-2.551-1.142-2.551-2.551v-15.199c0-1.409,1.142-2.551,2.551-2.551h15.637c1.409,0,2.551,1.142,2.551,2.551v7.546
		C50.82,230.433,46.251,235.002,40.615,235.002z"/>
	<path fill="none" stroke="#FFFFFF" stroke-linecap="round" stroke-linejoin="round" stroke-miterlimit="10" d="M30.08,221.544
		h-4.745c-1.807,0-3.369,1.465-3.28,3.27c0.078,1.597,1.359,2.878,2.956,2.956c1.805,0.088,3.27-1.473,3.27-3.28l0-8.041
		c0-2.691,2.182-4.873,4.873-4.873h0.011"/>
	<path fill="none" stroke="#FFFFFF" stroke-linecap="round" stroke-linejoin="round" stroke-miterlimit="10" d="M44.875,234.102
		h2.493c1.409,0,2.551-1.142,2.551-2.551v-2.56"/>
	
		<circle fill="none" stroke="#FFFFFF" stroke-linecap="round" stroke-linejoin="round" stroke-miterlimit="10" cx="35.873" cy="230.763" r="1.539"/>
</g>
<g>
	<text transform="matrix(1 0 0 1 120.6716 252.3286)" fill="#FFFFFF" font-family="'Montserrat-Regular'" font-size="8px">Cijferslot</text>
</g>
<g>
	<text transform="matrix(1 0 0 1 22.159 252.3288)" fill="#FFFFFF" font-family="'Montserrat-Regular'" font-size="8px">Telefoon</text>
</g>
<g>
	<text transform="matrix(1 0 0 1 75.1555 252.3291)" fill="#FFFFFF" font-family="'Montserrat-Regular'" font-size="8px">Pinnen</text>
</g>
<g>
	
		<circle fill="none" stroke="#FFFFFF" stroke-width="1.2405" stroke-linecap="round" stroke-linejoin="round" stroke-miterlimit="10" cx="140.594" cy="23.792" r="1.667"/>
	
		<circle fill="none" stroke="#FFFFFF" stroke-width="1.2405" stroke-linecap="round" stroke-linejoin="round" stroke-miterlimit="10" cx="146.728" cy="23.792" r="1.667"/>
	
		<circle fill="none" stroke="#FFFFFF" stroke-width="1.2405" stroke-linecap="round" stroke-linejoin="round" stroke-miterlimit="10" cx="152.862" cy="23.792" r="1.667"/>
	
		<circle fill="none" stroke="#FFFFFF" stroke-width="1.2405" stroke-linecap="round" stroke-linejoin="round" stroke-miterlimit="10" cx="140.594" cy="29.925" r="1.667"/>
	
		<circle fill="none" stroke="#FFFFFF" stroke-width="1.2405" stroke-linecap="round" stroke-linejoin="round" stroke-miterlimit="10" cx="146.728" cy="29.925" r="1.667"/>
	
		<circle fill="none" stroke="#FFFFFF" stroke-width="1.2405" stroke-linecap="round" stroke-linejoin="round" stroke-miterlimit="10" cx="152.862" cy="29.925" r="1.667"/>
	
		<circle fill="none" stroke="#FFFFFF" stroke-width="1.2405" stroke-linecap="round" stroke-linejoin="round" stroke-miterlimit="10" cx="140.594" cy="36.059" r="1.667"/>
	
		<circle fill="none" stroke="#FFFFFF" stroke-width="1.2405" stroke-linecap="round" stroke-linejoin="round" stroke-miterlimit="10" cx="146.728" cy="36.059" r="1.667"/>
	
		<circle fill="none" stroke="#FFFFFF" stroke-width="1.2405" stroke-linecap="round" stroke-linejoin="round" stroke-miterlimit="10" cx="146.728" cy="42.193" r="1.667"/>
	
		<circle fill="none" stroke="#FFFFFF" stroke-width="1.2405" stroke-linecap="round" stroke-linejoin="round" stroke-miterlimit="10" cx="152.862" cy="36.059" r="1.667"/>
	
		<line fill="none" stroke="#FFFFFF" stroke-width="1.2405" stroke-linecap="round" stroke-linejoin="round" stroke-miterlimit="10" x1="151.195" y1="42.193" x2="154.529" y2="42.193"/>
	
		<line fill="none" stroke="#FFFFFF" stroke-width="1.2405" stroke-linecap="round" stroke-linejoin="round" stroke-miterlimit="10" x1="138.928" y1="42.193" x2="142.261" y2="42.193"/>
</g>
<text transform="matrix(1 0 0 1 23.1643 37.5056)"><tspan x="0" y="0" fill="#FFFFFF" font-family="'Montserrat-ExtraBold'" font-size="14px" letter-spacing="1">CIJFERINPUT</tspan><tspan x="0" y="18" fill="#FFFFFF" font-family="'Montserrat-Regular'" font-size="10px">McDonalds</tspan></text>
<g>
	<path fill="none" stroke="#FFFFFF" stroke-width="2" stroke-linecap="round" stroke-linejoin="round" stroke-miterlimit="10" d="
		M108.837,174.153H69.745c-3.522,0-6.378-2.856-6.378-6.378V90.648c0-3.522,2.856-6.378,6.378-6.378h39.092
		c3.522,0,6.378,2.856,6.378,6.378v77.127C115.215,171.298,112.36,174.153,108.837,174.153z"/>
	
		<line fill="none" stroke="#FFFFFF" stroke-width="2" stroke-linecap="round" stroke-linejoin="round" stroke-miterlimit="10" x1="76.867" y1="158.403" x2="76.867" y2="107.648"/>
	
		<line fill="none" stroke="#FFFFFF" stroke-width="2" stroke-linecap="round" stroke-linejoin="round" stroke-miterlimit="10" x1="83.617" y1="183.525" x2="83.617" y2="178.653"/>
	
		<line fill="none" stroke="#FFFFFF" stroke-width="2" stroke-linecap="round" stroke-linejoin="round" stroke-miterlimit="10" x1="94.965" y1="178.653" x2="94.965" y2="183.525"/>
	
		<line fill="none" stroke="#FFFFFF" stroke-width="2" stroke-linecap="round" stroke-linejoin="round" stroke-miterlimit="10" x1="115.215" y1="165.153" x2="63.367" y2="165.153"/>
	
		<rect x="67.867" y="107.648" fill="none" stroke="#FFFFFF" stroke-width="2" stroke-linecap="round" stroke-linejoin="round" stroke-miterlimit="10" width="4.5" height="4.535"/>
	
		<rect x="67.765" y="152.401" fill="none" stroke="#FFFFFF" stroke-width="2" stroke-linecap="round" stroke-linejoin="round" stroke-miterlimit="10" width="4.5" height="4.535"/>
	
		<rect x="68.514" y="142.123" transform="matrix(0.7071 0.7071 -0.7071 0.7071 122.0726 -7.4381)" fill="none" stroke="#FFFFFF" stroke-width="2" stroke-linecap="round" stroke-linejoin="round" stroke-miterlimit="10" width="3.002" height="3.025"/>
	
		<polygon fill="none" stroke="#FFFFFF" stroke-width="2" stroke-linecap="round" stroke-linejoin="round" stroke-miterlimit="10" points="
		70.117,130.322 67.867,134.857 72.367,134.857 	"/>
	
		<rect x="67.867" y="91.828" fill="none" stroke="#FFFFFF" stroke-width="2" stroke-linecap="round" stroke-linejoin="round" stroke-miterlimit="10" width="9" height="9.07"/>
	
		<line fill="none" stroke="#FFFFFF" stroke-width="2" stroke-linecap="round" stroke-linejoin="round" stroke-miterlimit="10" x1="83.617" y1="96.363" x2="102.385" y2="96.363"/>
	
		<circle fill="none" stroke="#FFFFFF" stroke-width="2" stroke-linecap="round" stroke-linejoin="round" stroke-miterlimit="10" cx="70.117" cy="121.183" r="2.25"/>
	<g>
		<path fill="none" stroke="#FFFFFF" stroke-width="2" stroke-linecap="round" stroke-linejoin="round" stroke-miterlimit="10" d="
			M101.924,124.194H90.158c-1.127,0-2.041-0.914-2.041-2.041v-0.041c0-1.127,0.914-2.041,2.041-2.041h11.766
			c1.127,0,2.041,0.914,2.041,2.041v0.041C103.965,123.281,103.052,124.194,101.924,124.194z"/>
		<path fill="none" stroke="#FFFFFF" stroke-width="2" stroke-linecap="round" stroke-linejoin="round" stroke-miterlimit="10" d="
			M103.965,133.194v0.041c0,1.127-0.914,2.041-2.041,2.041H90.158c-1.127,0-2.041-0.914-2.041-2.041v-0.041"/>
		
			<line fill="none" stroke="#FFFFFF" stroke-width="2" stroke-linecap="round" stroke-linejoin="round" stroke-miterlimit="10" x1="106.215" y1="128.694" x2="85.867" y2="128.694"/>
		<path fill="none" stroke="#FFFFFF" stroke-width="2" stroke-linecap="round" stroke-linejoin="round" stroke-miterlimit="10" d="
			M96.041,107.648c-4.376,0-7.924,3.548-7.924,7.924h15.848C103.965,111.196,100.418,107.648,96.041,107.648z"/>
	</g>
	
		<line fill="none" stroke="#FFFFFF" stroke-width="2" stroke-linecap="round" stroke-linejoin="round" stroke-miterlimit="10" x1="96.888" y1="148.828" x2="96.888" y2="155.973"/>
	
		<line fill="none" stroke="#FFFFFF" stroke-width="2" stroke-linecap="round" stroke-linejoin="round" stroke-miterlimit="10" x1="106.085" y1="149.953" x2="106.085" y2="154.848"/>
	
		<line fill="none" stroke="#FFFFFF" stroke-width="2" stroke-linecap="round" stroke-linejoin="round" stroke-miterlimit="10" x1="103.638" y1="152.401" x2="108.533" y2="152.401"/>
	
		<line fill="none" stroke="#FFFFFF" stroke-width="2" stroke-linecap="round" stroke-linejoin="round" stroke-miterlimit="10" x1="85.243" y1="152.401" x2="90.138" y2="152.401"/>
</g>
<g>
	
		<line fill="none" stroke="#FFFFFF" stroke-linecap="round" stroke-linejoin="round" stroke-miterlimit="10" x1="149.042" y1="230.641" x2="149.042" y2="232.15"/>
	
		<line fill="none" stroke="#FFFFFF" stroke-linecap="round" stroke-linejoin="round" stroke-miterlimit="10" x1="149.042" y1="226.21" x2="149.042" y2="227.764"/>
	
		<line fill="none" stroke="#FFFFFF" stroke-linecap="round" stroke-linejoin="round" stroke-miterlimit="10" x1="149.042" y1="221.824" x2="149.042" y2="223.379"/>
	<polyline fill="none" stroke="#FFFFFF" stroke-linecap="round" stroke-linejoin="round" stroke-miterlimit="10" points="
		149.042,234.981 149.042,237.313 130.147,237.313 130.147,216.662 149.042,216.662 149.042,218.994 	"/>
	
		<rect x="133.256" y="221.326" fill="none" stroke="#FFFFFF" stroke-linecap="round" stroke-linejoin="round" stroke-miterlimit="10" width="3.109" height="11.323"/>
	
		<line fill="none" stroke="#FFFFFF" stroke-linecap="round" stroke-linejoin="round" stroke-miterlimit="10" x1="127.815" y1="237.313" x2="127.815" y2="216.662"/>
	
		<rect x="143.145" y="218.994" fill="none" stroke="#FFFFFF" stroke-linecap="round" stroke-linejoin="round" stroke-miterlimit="10" width="8.229" height="2.831"/>
	
		<rect x="143.145" y="223.379" fill="none" stroke="#FFFFFF" stroke-linecap="round" stroke-linejoin="round" stroke-miterlimit="10" width="8.229" height="2.831"/>
	
		<rect x="143.145" y="227.764" fill="none" stroke="#FFFFFF" stroke-linecap="round" stroke-linejoin="round" stroke-miterlimit="10" width="8.229" height="2.831"/>
	
		<line fill="none" stroke="#FFFFFF" stroke-linecap="round" stroke-linejoin="round" stroke-miterlimit="10" x1="140.813" y1="221.825" x2="140.813" y2="218.994"/>
	
		<line fill="none" stroke="#FFFFFF" stroke-linecap="round" stroke-linejoin="round" stroke-miterlimit="10" x1="140.813" y1="226.21" x2="140.813" y2="223.379"/>
	
		<line fill="none" stroke="#FFFFFF" stroke-linecap="round" stroke-linejoin="round" stroke-miterlimit="10" x1="140.813" y1="230.595" x2="140.813" y2="227.764"/>
	
		<rect x="143.145" y="232.15" fill="none" stroke="#FFFFFF" stroke-linecap="round" stroke-linejoin="round" stroke-miterlimit="10" width="8.229" height="2.831"/>
	
		<line fill="none" stroke="#FFFFFF" stroke-linecap="round" stroke-linejoin="round" stroke-miterlimit="10" x1="140.813" y1="234.981" x2="140.813" y2="232.15"/>
	<path fill="none" stroke="#FFFFFF" stroke-linecap="round" stroke-linejoin="round" stroke-miterlimit="10" d="M130.147,214.486
		c0-4.725,3.831-8.556,8.556-8.556c4.725,0,8.556,3.831,8.556,8.556"/>
</g>
</svg>
