<?xml version="1.0" encoding="utf-8"?>
<!-- Generator: Adobe Illustrator 24.0.0, SVG Export Plug-In . SVG Version: 6.00 Build 0)  -->
<svg version="1.1" id="Laag_1" xmlns="http://www.w3.org/2000/svg" xmlns:xlink="http://www.w3.org/1999/xlink" x="0px" y="0px"
	 viewBox="0 0 178.583 277.795" enable-background="new 0 0 178.583 277.795" xml:space="preserve">
<path fill="#8C368C" d="M164.409,277.795H14.173C6.346,277.795,0,271.45,0,263.622V14.173C0,6.346,6.346,0,14.173,0h150.236
	c7.828,0,14.173,6.346,14.173,14.173v249.449C178.583,271.45,172.237,277.795,164.409,277.795z"/>
<g>
	
		<line fill="none" stroke="#FFFFFF" stroke-linecap="round" stroke-linejoin="round" stroke-miterlimit="10" x1="135.07" y1="215.649" x2="132.189" y2="215.649"/>
	
		<rect x="123.043" y="210.708" fill="none" stroke="#FFFFFF" stroke-linecap="round" stroke-linejoin="round" stroke-miterlimit="10" width="32.248" height="19.762"/>
	
		<line fill="none" stroke="#FFFFFF" stroke-linecap="round" stroke-linejoin="round" stroke-miterlimit="10" x1="142.691" y1="208.108" x2="135.643" y2="208.108"/>
	
		<line fill="none" stroke="#FFFFFF" stroke-linecap="round" stroke-linejoin="round" stroke-miterlimit="10" x1="142.691" y1="233.17" x2="135.643" y2="233.17"/>
	
		<line fill="none" stroke="#FFFFFF" stroke-linecap="round" stroke-linejoin="round" stroke-miterlimit="10" x1="140.967" y1="233.17" x2="140.967" y2="237.688"/>
	
		<line fill="none" stroke="#FFFFFF" stroke-linecap="round" stroke-linejoin="round" stroke-miterlimit="10" x1="137.367" y1="233.17" x2="137.367" y2="237.688"/>
	
		<line fill="none" stroke="#FFFFFF" stroke-linecap="round" stroke-linejoin="round" stroke-miterlimit="10" x1="125.743" y1="220.589" x2="152.591" y2="220.589"/>
	<polygon fill="none" stroke="#FFFFFF" stroke-linecap="round" stroke-linejoin="round" stroke-miterlimit="10" points="
		129.15,223.511 126.94,225.153 129.15,226.794 	"/>
	<polygon fill="none" stroke="#FFFFFF" stroke-linecap="round" stroke-linejoin="round" stroke-miterlimit="10" points="
		129.686,216.504 128.045,214.294 126.403,216.504 	"/>
	<path fill="none" stroke="#FFFFFF" stroke-linecap="round" stroke-linejoin="round" stroke-miterlimit="10" d="M132.255,225.636
		h0.901c0.764,0,1.384-0.62,1.384-1.384c0-0.764-0.62-1.384-1.384-1.384h-0.901v4.569"/>
	
		<rect x="137.629" y="223.289" fill="none" stroke="#FFFFFF" stroke-linecap="round" stroke-linejoin="round" stroke-miterlimit="10" width="14.961" height="4.481"/>
	
		<rect x="137.629" y="213.408" fill="none" stroke="#FFFFFF" stroke-linecap="round" stroke-linejoin="round" stroke-miterlimit="10" width="14.961" height="4.481"/>
</g>
<g>
	<path fill="none" stroke="#FFFFFF" stroke-linecap="round" stroke-linejoin="round" stroke-miterlimit="10" d="M77.668,207.918
		v26.36c0,1.409,1.142,2.551,2.551,2.551h18.145c1.409,0,2.551-1.142,2.551-2.551v-26.36c0-1.409-1.142-2.551-2.551-2.551H80.219
		C78.81,205.367,77.668,206.51,77.668,207.918z"/>
	
		<line fill="none" stroke="#FFFFFF" stroke-linecap="round" stroke-linejoin="round" stroke-miterlimit="10" x1="100.915" y1="208.067" x2="77.668" y2="208.067"/>
	
		<line fill="none" stroke="#FFFFFF" stroke-linecap="round" stroke-linejoin="round" stroke-miterlimit="10" x1="77.668" y1="234.129" x2="100.915" y2="234.129"/>
	<path fill="none" stroke="#FFFFFF" stroke-linecap="round" stroke-linejoin="round" stroke-miterlimit="10" d="M94.783,220.198
		c0,1.361-2.464,4.264-2.464,4.264s-2.464-2.903-2.464-4.264c0-1.361,1.103-2.464,2.464-2.464
		C93.68,217.734,94.783,218.837,94.783,220.198z"/>
	
		<circle fill="none" stroke="#FFFFFF" stroke-linecap="round" stroke-linejoin="round" stroke-miterlimit="10" cx="92.319" cy="220.198" r="0.591"/>
	
		<line fill="none" stroke="#FFFFFF" stroke-linecap="round" stroke-linejoin="round" stroke-miterlimit="10" x1="88.054" y1="236.829" x2="88.054" y2="240.429"/>
	
		<line fill="none" stroke="#FFFFFF" stroke-linecap="round" stroke-linejoin="round" stroke-miterlimit="10" x1="91.654" y1="236.829" x2="91.654" y2="240.429"/>
	
		<line fill="none" stroke="#FFFFFF" stroke-linecap="round" stroke-linejoin="round" stroke-miterlimit="10" x1="77.668" y1="225.839" x2="84.398" y2="219.108"/>
	
		<line fill="none" stroke="#FFFFFF" stroke-linecap="round" stroke-linejoin="round" stroke-miterlimit="10" x1="84.398" y1="219.108" x2="95.364" y2="208.142"/>
	
		<line fill="none" stroke="#FFFFFF" stroke-linecap="round" stroke-linejoin="round" stroke-miterlimit="10" x1="77.668" y1="229.439" x2="82.448" y2="224.658"/>
	
		<line fill="none" stroke="#FFFFFF" stroke-linecap="round" stroke-linejoin="round" stroke-miterlimit="10" x1="80.648" y1="222.858" x2="86.048" y2="228.258"/>
	
		<line fill="none" stroke="#FFFFFF" stroke-linecap="round" stroke-linejoin="round" stroke-miterlimit="10" x1="80.177" y1="234.129" x2="91.243" y2="223.064"/>
	
		<line fill="none" stroke="#FFFFFF" stroke-linecap="round" stroke-linejoin="round" stroke-miterlimit="10" x1="94.783" y1="219.523" x2="100.915" y2="213.391"/>
	
		<line fill="none" stroke="#FFFFFF" stroke-linecap="round" stroke-linejoin="round" stroke-miterlimit="10" x1="100.915" y1="230.497" x2="93.431" y2="223.013"/>
	
		<line fill="none" stroke="#FFFFFF" stroke-linecap="round" stroke-linejoin="round" stroke-miterlimit="10" x1="100.915" y1="226.613" x2="93.399" y2="234.129"/>
	
		<line fill="none" stroke="#FFFFFF" stroke-linecap="round" stroke-linejoin="round" stroke-miterlimit="10" x1="100.915" y1="223.297" x2="90.562" y2="212.944"/>
	
		<line fill="none" stroke="#FFFFFF" stroke-linecap="round" stroke-linejoin="round" stroke-miterlimit="10" x1="84.398" y1="219.108" x2="77.668" y2="212.378"/>
	
		<line fill="none" stroke="#FFFFFF" stroke-linecap="round" stroke-linejoin="round" stroke-miterlimit="10" x1="77.668" y1="218.639" x2="80.798" y2="215.508"/>
</g>
<g>
	<text transform="matrix(1 0 0 1 114.3278 252.3286)" fill="#FFFFFF" font-family="'Montserrat-Regular'" font-size="8px">Parkeerplek</text>
</g>
<g>
	<text transform="matrix(1 0 0 1 23.1945 252.3288)" fill="#FFFFFF" font-family="'Montserrat-Regular'" font-size="8px">Billboard</text>
</g>
<g>
	<text transform="matrix(1 0 0 1 78.5267 252.3291)" fill="#FFFFFF" font-family="'Montserrat-Regular'" font-size="8px">Kaart</text>
</g>
<text transform="matrix(1 0 0 1 23.1642 37.5056)"><tspan x="0" y="0" fill="#FFFFFF" font-family="'Montserrat-ExtraBold'" font-size="14px" letter-spacing="1">SCHERMEN</tspan><tspan x="0" y="18" fill="#FFFFFF" font-family="'Montserrat-Regular'" font-size="10px">iPhone</tspan></text>
<g>
	
		<rect x="141.167" y="26.193" fill="none" stroke="#FFFFFF" stroke-linecap="round" stroke-linejoin="round" stroke-miterlimit="10" width="16.216" height="11.418"/>
	
		<line fill="none" stroke="#FFFFFF" stroke-linecap="round" stroke-linejoin="round" stroke-miterlimit="10" x1="152.738" y1="40.411" x2="145.811" y2="40.411"/>
	
		<line fill="none" stroke="#FFFFFF" stroke-linecap="round" stroke-linejoin="round" stroke-miterlimit="10" x1="157.383" y1="35.106" x2="141.167" y2="35.106"/>
	
		<line fill="none" stroke="#FFFFFF" stroke-linecap="round" stroke-linejoin="round" stroke-miterlimit="10" x1="144.7" y1="35.106" x2="149.672" y2="30.134"/>
	
		<line fill="none" stroke="#FFFFFF" stroke-linecap="round" stroke-linejoin="round" stroke-miterlimit="10" x1="150.704" y1="31.902" x2="153.872" y2="28.734"/>
</g>
<g>
	
		<rect x="24.259" y="209.638" fill="none" stroke="#FFFFFF" stroke-linecap="round" stroke-linejoin="round" stroke-miterlimit="10" width="32.248" height="22.462"/>
	
		<line fill="none" stroke="#FFFFFF" stroke-linecap="round" stroke-linejoin="round" stroke-miterlimit="10" x1="35.059" y1="234.8" x2="45.707" y2="234.8"/>
	
		<line fill="none" stroke="#FFFFFF" stroke-linecap="round" stroke-linejoin="round" stroke-miterlimit="10" x1="21.559" y1="224" x2="21.559" y2="229.4"/>
	
		<line fill="none" stroke="#FFFFFF" stroke-linecap="round" stroke-linejoin="round" stroke-miterlimit="10" x1="38.583" y1="234.8" x2="38.583" y2="238.4"/>
	
		<line fill="none" stroke="#FFFFFF" stroke-linecap="round" stroke-linejoin="round" stroke-miterlimit="10" x1="42.183" y1="234.8" x2="42.183" y2="238.4"/>
	
		<rect x="26.959" y="212.338" fill="none" stroke="#FFFFFF" stroke-linecap="round" stroke-linejoin="round" stroke-miterlimit="10" width="26.848" height="14.362"/>
	
		<line fill="none" stroke="#FFFFFF" stroke-linecap="round" stroke-linejoin="round" stroke-miterlimit="10" x1="59.207" y1="224" x2="59.207" y2="229.4"/>
	<path fill="none" stroke="#FFFFFF" stroke-linecap="round" stroke-linejoin="round" stroke-miterlimit="10" d="M41.283,226.7
		l-4.821-5.571c-0.509-0.588-1.42-0.588-1.929,0l-4.821,5.571"/>
	<path fill="none" stroke="#FFFFFF" stroke-linecap="round" stroke-linejoin="round" stroke-miterlimit="10" d="M51.053,226.7
		l-6.49-7.5c-0.509-0.588-1.42-0.588-1.929,0l-3.92,4.53"/>
	
		<circle fill="none" stroke="#FFFFFF" stroke-linecap="round" stroke-linejoin="round" stroke-miterlimit="10" cx="31.665" cy="217.045" r="2.006"/>
</g>
<g>
	<path fill="none" stroke="#FFFFFF" stroke-width="2" stroke-linecap="round" stroke-linejoin="round" stroke-miterlimit="10" d="
		M101.32,165.525H77.263c-3.522,0-6.378-2.856-6.378-6.378v-57.423c0-3.522,2.856-6.378,6.378-6.378h24.057
		c3.522,0,6.378,2.856,6.378,6.378v57.423C107.698,162.67,104.842,165.525,101.32,165.525z"/>
	
		<line fill="none" stroke="#FFFFFF" stroke-width="2" stroke-linecap="round" stroke-linejoin="round" stroke-miterlimit="10" x1="107.698" y1="101.724" x2="70.885" y2="101.724"/>
	
		<line fill="none" stroke="#FFFFFF" stroke-width="2" stroke-linecap="round" stroke-linejoin="round" stroke-miterlimit="10" x1="107.698" y1="159.147" x2="70.885" y2="159.147"/>
	
		<line fill="none" stroke="#FFFFFF" stroke-width="2" stroke-linecap="round" stroke-linejoin="round" stroke-miterlimit="10" x1="77.322" y1="141.891" x2="90.919" y2="128.294"/>
	
		<line fill="none" stroke="#FFFFFF" stroke-width="2" stroke-linecap="round" stroke-linejoin="round" stroke-miterlimit="10" x1="98.078" y1="121.135" x2="94.739" y2="124.474"/>
	
		<line fill="none" stroke="#FFFFFF" stroke-width="2" stroke-linecap="round" stroke-linejoin="round" stroke-miterlimit="10" x1="82.932" y1="127.281" x2="98.233" y2="111.98"/>
	
		<line fill="none" stroke="#FFFFFF" stroke-width="2" stroke-linecap="round" stroke-linejoin="round" stroke-miterlimit="10" x1="90.932" y1="147.281" x2="99.315" y2="138.898"/>
</g>
</svg>
