<?xml version="1.0" encoding="utf-8"?>
<!-- Generator: Adobe Illustrator 24.0.0, SVG Export Plug-In . SVG Version: 6.00 Build 0)  -->
<svg version="1.1" id="Laag_1" xmlns="http://www.w3.org/2000/svg" xmlns:xlink="http://www.w3.org/1999/xlink" x="0px" y="0px"
	 viewBox="0 0 178.583 277.795" enable-background="new 0 0 178.583 277.795" xml:space="preserve">
<path fill="#F07D17" d="M164.409,277.795H14.173C6.346,277.795,0,271.45,0,263.622V14.173C0,6.346,6.346,0,14.173,0h150.236
	c7.828,0,14.173,6.346,14.173,14.173v249.449C178.583,271.45,172.237,277.795,164.409,277.795z"/>
<g>
	
		<line fill="none" stroke="#FFFFFF" stroke-linecap="round" stroke-linejoin="round" stroke-miterlimit="10" x1="130.274" y1="209.918" x2="138.113" y2="231.458"/>
	<path fill="none" stroke="#FFFFFF" stroke-linecap="round" stroke-linejoin="round" stroke-miterlimit="10" d="M143.808,233.85
		l-3.919-1.426l7.84-21.539l3.919,1.426c1.324,0.482,2.007,1.946,1.525,3.27l-6.094,16.744
		C146.596,233.649,145.132,234.332,143.808,233.85z"/>
	
		<line fill="none" stroke="#FFFFFF" stroke-linecap="round" stroke-linejoin="round" stroke-miterlimit="10" x1="138.113" y1="231.458" x2="145.953" y2="209.918"/>
	
		<line fill="none" stroke="#FFFFFF" stroke-linecap="round" stroke-linejoin="round" stroke-miterlimit="10" x1="138.113" y1="231.458" x2="138.113" y2="208.536"/>
	
		<line fill="none" stroke="#FFFFFF" stroke-linecap="round" stroke-linejoin="round" stroke-miterlimit="10" x1="138.113" y1="231.458" x2="142.093" y2="208.884"/>
	
		<line fill="none" stroke="#FFFFFF" stroke-linecap="round" stroke-linejoin="round" stroke-miterlimit="10" x1="138.113" y1="231.458" x2="134.133" y2="208.884"/>
	<polygon fill="none" stroke="#FFFFFF" stroke-linecap="round" stroke-linejoin="round" stroke-miterlimit="10" points="
		126.464,214.423 123.927,215.347 123.003,212.81 128.474,210.818 136.313,232.358 130.843,234.349 129.919,231.811 
		132.456,230.888 	"/>
	
		<circle fill="none" stroke="#FFFFFF" stroke-linecap="round" stroke-linejoin="round" stroke-miterlimit="10" cx="143.043" cy="230.953" r="0.661"/>
	
		<circle fill="none" stroke="#FFFFFF" stroke-linecap="round" stroke-linejoin="round" stroke-miterlimit="10" cx="145.35" cy="229.877" r="0.661"/>
	
		<circle fill="none" stroke="#FFFFFF" stroke-linecap="round" stroke-linejoin="round" stroke-miterlimit="10" cx="144.274" cy="227.57" r="0.661"/>
	
		<circle fill="none" stroke="#FFFFFF" stroke-linecap="round" stroke-linejoin="round" stroke-miterlimit="10" cx="146.581" cy="226.494" r="0.661"/>
	
		<circle fill="none" stroke="#FFFFFF" stroke-linecap="round" stroke-linejoin="round" stroke-miterlimit="10" cx="145.505" cy="224.187" r="0.661"/>
	
		<circle fill="none" stroke="#FFFFFF" stroke-linecap="round" stroke-linejoin="round" stroke-miterlimit="10" cx="147.813" cy="223.111" r="0.661"/>
	
		<circle fill="none" stroke="#FFFFFF" stroke-linecap="round" stroke-linejoin="round" stroke-miterlimit="10" cx="146.737" cy="220.804" r="0.661"/>
	
		<circle fill="none" stroke="#FFFFFF" stroke-linecap="round" stroke-linejoin="round" stroke-miterlimit="10" cx="149.044" cy="219.728" r="0.661"/>
	
		<circle fill="none" stroke="#FFFFFF" stroke-linecap="round" stroke-linejoin="round" stroke-miterlimit="10" cx="147.968" cy="217.421" r="0.661"/>
	
		<circle fill="none" stroke="#FFFFFF" stroke-linecap="round" stroke-linejoin="round" stroke-miterlimit="10" cx="150.275" cy="216.345" r="0.661"/>
	
		<circle fill="none" stroke="#FFFFFF" stroke-linecap="round" stroke-linejoin="round" stroke-miterlimit="10" cx="149.199" cy="214.038" r="0.661"/>
	
		<line fill="none" stroke="#FFFFFF" stroke-linecap="round" stroke-linejoin="round" stroke-miterlimit="10" x1="123.927" y1="215.347" x2="123.003" y2="212.81"/>
	<polyline fill="none" stroke="#FFFFFF" stroke-linecap="round" stroke-linejoin="round" stroke-miterlimit="10" points="
		130.381,233.08 128.172,233.884 121.256,214.882 123.465,214.078 	"/>
	
		<line fill="none" stroke="#FFFFFF" stroke-linecap="round" stroke-linejoin="round" stroke-miterlimit="10" x1="131.746" y1="229.007" x2="127.023" y2="230.726"/>
	
		<line fill="none" stroke="#FFFFFF" stroke-linecap="round" stroke-linejoin="round" stroke-miterlimit="10" x1="130.823" y1="226.47" x2="126.099" y2="228.189"/>
	
		<line fill="none" stroke="#FFFFFF" stroke-linecap="round" stroke-linejoin="round" stroke-miterlimit="10" x1="129.899" y1="223.932" x2="125.176" y2="225.652"/>
	
		<line fill="none" stroke="#FFFFFF" stroke-linecap="round" stroke-linejoin="round" stroke-miterlimit="10" x1="128.976" y1="221.395" x2="124.252" y2="223.114"/>
	
		<line fill="none" stroke="#FFFFFF" stroke-linecap="round" stroke-linejoin="round" stroke-miterlimit="10" x1="128.053" y1="218.858" x2="123.329" y2="220.577"/>
	
		<line fill="none" stroke="#FFFFFF" stroke-linecap="round" stroke-linejoin="round" stroke-miterlimit="10" x1="127.129" y1="216.321" x2="122.405" y2="218.04"/>
</g>
<g>
	
		<circle fill="none" stroke="#FFFFFF" stroke-linecap="round" stroke-linejoin="round" stroke-miterlimit="10" cx="85.97" cy="224.898" r="2.328"/>
	<path fill="none" stroke="#FFFFFF" stroke-linecap="round" stroke-linejoin="round" stroke-miterlimit="10" d="M89.261,228.997
		l0.125-0.125c0.472-0.472,1.045-0.853,1.692-1.018c0.643-0.163,1.223-0.475,1.693-0.945c1.81-1.81,1.304-5.25-1.129-7.683
		c-2.434-2.433-5.873-2.939-7.683-1.129c-0.47,0.47-0.781,1.049-0.945,1.693c-0.165,0.647-0.545,1.22-1.018,1.692l-0.125,0.125
		c-0.843,0.843-2.009,1.231-3.2,1.185c-1.726-0.066-3.336,0.461-4.506,1.631c-2.641,2.641-2.033,7.531,1.358,10.922
		c3.391,3.391,8.281,3.999,10.922,1.358c1.169-1.169,1.697-2.78,1.631-4.506C88.03,231.007,88.418,229.84,89.261,228.997z"/>
	<path fill="none" stroke="#FFFFFF" stroke-linecap="round" stroke-linejoin="round" stroke-miterlimit="10" d="M75.756,226.014
		c-1.73,1.73-1.108,5.275,1.358,7.741"/>
	
		<line fill="none" stroke="#FFFFFF" stroke-linecap="round" stroke-linejoin="round" stroke-miterlimit="10" x1="78.205" y1="228.061" x2="82.808" y2="232.663"/>
	<polyline fill="none" stroke="#FFFFFF" stroke-linecap="round" stroke-linejoin="round" stroke-miterlimit="10" points="
		81.853,231.709 80.58,232.982 77.887,230.288 79.16,229.016 	"/>
	<polygon fill="none" stroke="#FFFFFF" stroke-linecap="round" stroke-linejoin="round" stroke-miterlimit="10" points="
		100.24,213.784 97.085,210.628 102.719,206.081 104.788,208.149 	"/>
	
		<line fill="none" stroke="#FFFFFF" stroke-linecap="round" stroke-linejoin="round" stroke-miterlimit="10" x1="104.118" y1="211.829" x2="103.464" y2="212.659"/>
	
		<line fill="none" stroke="#FFFFFF" stroke-linecap="round" stroke-linejoin="round" stroke-miterlimit="10" x1="106.06" y1="209.422" x2="105.398" y2="210.243"/>
	
		<line fill="none" stroke="#FFFFFF" stroke-linecap="round" stroke-linejoin="round" stroke-miterlimit="10" x1="102.176" y1="214.236" x2="101.513" y2="215.057"/>
	
		<line fill="none" stroke="#FFFFFF" stroke-linecap="round" stroke-linejoin="round" stroke-miterlimit="10" x1="99.04" y1="206.751" x2="98.21" y2="207.405"/>
	
		<line fill="none" stroke="#FFFFFF" stroke-linecap="round" stroke-linejoin="round" stroke-miterlimit="10" x1="101.447" y1="204.808" x2="100.625" y2="205.471"/>
	
		<line fill="none" stroke="#FFFFFF" stroke-linecap="round" stroke-linejoin="round" stroke-miterlimit="10" x1="96.633" y1="208.693" x2="95.812" y2="209.356"/>
	
		<line fill="none" stroke="#FFFFFF" stroke-linecap="round" stroke-linejoin="round" stroke-miterlimit="10" x1="80.506" y1="230.362" x2="101.208" y2="209.661"/>
	
		<line fill="none" stroke="#FFFFFF" stroke-linecap="round" stroke-linejoin="round" stroke-miterlimit="10" x1="81.779" y1="231.635" x2="99.935" y2="213.479"/>
	
		<line fill="none" stroke="#FFFFFF" stroke-linecap="round" stroke-linejoin="round" stroke-miterlimit="10" x1="79.234" y1="229.089" x2="97.39" y2="210.934"/>
</g>
<g>
	<polyline fill="none" stroke="#FFFFFF" stroke-linecap="round" stroke-linejoin="round" stroke-miterlimit="10" points="
		40.583,229.744 40.583,234.244 42.383,234.244 42.383,229.744 	"/>
	<polyline fill="none" stroke="#FFFFFF" stroke-linecap="round" stroke-linejoin="round" stroke-miterlimit="10" points="
		51.383,229.744 51.383,234.244 53.183,234.244 53.183,229.744 	"/>
	<polyline fill="none" stroke="#FFFFFF" stroke-linecap="round" stroke-linejoin="round" stroke-miterlimit="10" points="
		29.783,229.459 29.783,234.244 31.583,234.244 31.583,229.459 	"/>
	<polyline fill="none" stroke="#FFFFFF" stroke-linecap="round" stroke-linejoin="round" stroke-miterlimit="10" points="
		29.783,224.959 29.783,220.459 27.083,220.459 27.083,227.659 55.883,227.659 55.883,220.459 53.183,220.459 53.183,224.959 	"/>
	
		<line fill="none" stroke="#FFFFFF" stroke-linecap="round" stroke-linejoin="round" stroke-miterlimit="10" x1="33.264" y1="224.959" x2="33.264" y2="222.259"/>
	
		<line fill="none" stroke="#FFFFFF" stroke-linecap="round" stroke-linejoin="round" stroke-miterlimit="10" x1="35.964" y1="224.959" x2="35.964" y2="222.259"/>
	
		<line fill="none" stroke="#FFFFFF" stroke-linecap="round" stroke-linejoin="round" stroke-miterlimit="10" x1="38.664" y1="224.959" x2="38.664" y2="222.259"/>
	
		<line fill="none" stroke="#FFFFFF" stroke-linecap="round" stroke-linejoin="round" stroke-miterlimit="10" x1="41.364" y1="224.959" x2="41.364" y2="222.259"/>
	
		<line fill="none" stroke="#FFFFFF" stroke-linecap="round" stroke-linejoin="round" stroke-miterlimit="10" x1="44.064" y1="224.959" x2="44.064" y2="222.259"/>
	
		<line fill="none" stroke="#FFFFFF" stroke-linecap="round" stroke-linejoin="round" stroke-miterlimit="10" x1="46.764" y1="224.959" x2="46.764" y2="222.259"/>
	
		<line fill="none" stroke="#FFFFFF" stroke-linecap="round" stroke-linejoin="round" stroke-miterlimit="10" x1="49.464" y1="224.959" x2="49.464" y2="222.259"/>
	
		<line fill="none" stroke="#FFFFFF" stroke-linecap="round" stroke-linejoin="round" stroke-miterlimit="10" x1="29.783" y1="221.359" x2="29.783" y2="215.059"/>
	
		<line fill="none" stroke="#FFFFFF" stroke-linecap="round" stroke-linejoin="round" stroke-miterlimit="10" x1="29.783" y1="224.959" x2="53.183" y2="224.959"/>
	
		<line fill="none" stroke="#FFFFFF" stroke-linecap="round" stroke-linejoin="round" stroke-miterlimit="10" x1="29.783" y1="222.259" x2="53.183" y2="222.259"/>
	
		<line fill="none" stroke="#FFFFFF" stroke-linecap="round" stroke-linejoin="round" stroke-miterlimit="10" x1="53.183" y1="221.359" x2="53.183" y2="215.059"/>
	
		<line fill="none" stroke="#FFFFFF" stroke-linecap="round" stroke-linejoin="round" stroke-miterlimit="10" x1="28.645" y1="217.759" x2="54.083" y2="217.759"/>
	
		<line fill="none" stroke="#FFFFFF" stroke-linecap="round" stroke-linejoin="round" stroke-miterlimit="10" x1="28.645" y1="215.059" x2="54.083" y2="215.059"/>
</g>
<g>
	<text transform="matrix(1 0 0 1 116.4596 252.3286)" fill="#FFFFFF" font-family="'Montserrat-Regular'" font-size="8px">Accordeon</text>
</g>
<g>
	<text transform="matrix(1 0 0 1 30.0588 252.3288)" fill="#FFFFFF" font-family="'Montserrat-Regular'" font-size="8px">Piano</text>
</g>
<g>
	<text transform="matrix(1 0 0 1 77.2659 252.3291)" fill="#FFFFFF" font-family="'Montserrat-Regular'" font-size="8px">Gitaar</text>
</g>
<g>
	
		<circle fill="none" stroke="#FFFFFF" stroke-linecap="round" stroke-linejoin="round" stroke-miterlimit="10" cx="156.427" cy="40.364" r="1.74"/>
	
		<circle fill="none" stroke="#FFFFFF" stroke-linecap="round" stroke-linejoin="round" stroke-miterlimit="10" cx="149.275" cy="36.835" r="1.836"/>
	
		<circle fill="none" stroke="#FFFFFF" stroke-linecap="round" stroke-linejoin="round" stroke-miterlimit="10" cx="143.198" cy="36.835" r="1.836"/>
	<polyline fill="none" stroke="#FFFFFF" stroke-linecap="round" stroke-linejoin="round" stroke-miterlimit="10" points="
		158.043,39.72 155.262,32.744 157.893,33.215 	"/>
	
		<circle fill="none" stroke="#FFFFFF" stroke-linecap="round" stroke-linejoin="round" stroke-miterlimit="10" cx="140.569" cy="26.759" r="1.681"/>
	<polyline fill="none" stroke="#FFFFFF" stroke-linecap="round" stroke-linejoin="round" stroke-miterlimit="10" points="
		142.131,27.38 144.814,20.64 146.347,22.717 	"/>
	<polyline fill="none" stroke="#FFFFFF" stroke-linecap="round" stroke-linejoin="round" stroke-miterlimit="10" points="
		145.033,36.835 145.033,28.182 151.11,28.182 151.11,36.835 	"/>
</g>
<text transform="matrix(1 0 0 1 23.1642 37.5056)"><tspan x="0" y="0" fill="#FFFFFF" font-family="'Montserrat-ExtraBold'" font-size="14px" letter-spacing="1">INSTRUMENT</tspan><tspan x="0" y="18" fill="#FFFFFF" font-family="'Montserrat-Regular'" font-size="10px">Trompet</tspan></text>
<g>
	
		<line fill="none" stroke="#FFFFFF" stroke-width="2" stroke-linecap="round" stroke-linejoin="round" stroke-miterlimit="10" x1="88.989" y1="123.05" x2="88.989" y2="117.902"/>
	
		<line fill="none" stroke="#FFFFFF" stroke-width="2" stroke-linecap="round" stroke-linejoin="round" stroke-miterlimit="10" x1="82.239" y1="123.05" x2="82.239" y2="117.902"/>
	
		<line fill="none" stroke="#FFFFFF" stroke-width="2" stroke-linecap="round" stroke-linejoin="round" stroke-miterlimit="10" x1="75.489" y1="123.05" x2="75.489" y2="117.902"/>
	
		<line fill="none" stroke="#FFFFFF" stroke-width="2" stroke-linecap="round" stroke-linejoin="round" stroke-miterlimit="10" x1="76.937" y1="117.902" x2="74.04" y2="117.902"/>
	
		<line fill="none" stroke="#FFFFFF" stroke-width="2" stroke-linecap="round" stroke-linejoin="round" stroke-miterlimit="10" x1="83.687" y1="117.902" x2="80.79" y2="117.902"/>
	
		<line fill="none" stroke="#FFFFFF" stroke-width="2" stroke-linecap="round" stroke-linejoin="round" stroke-miterlimit="10" x1="90.437" y1="117.902" x2="87.54" y2="117.902"/>
	
		<rect x="43.816" y="125.3" fill="none" stroke="#FFFFFF" stroke-width="2" stroke-linecap="round" stroke-linejoin="round" stroke-miterlimit="10" width="4.5" height="9"/>
	
		<polyline fill="none" stroke="#FFFFFF" stroke-width="2" stroke-linecap="round" stroke-linejoin="round" stroke-miterlimit="10" points="
		72.114,127.55 72.114,123.05 78.864,123.05 78.864,127.522 	"/>
	
		<polyline fill="none" stroke="#FFFFFF" stroke-width="2" stroke-linecap="round" stroke-linejoin="round" stroke-miterlimit="10" points="
		78.864,150.884 72.114,150.884 72.114,132.05 	"/>
	
		<polyline fill="none" stroke="#FFFFFF" stroke-width="2" stroke-linecap="round" stroke-linejoin="round" stroke-miterlimit="10" points="
		85.614,150.884 78.864,150.884 78.864,132.05 	"/>
	
		<line fill="none" stroke="#FFFFFF" stroke-width="2" stroke-linecap="round" stroke-linejoin="round" stroke-miterlimit="10" x1="78.864" y1="123.05" x2="85.614" y2="123.05"/>
	
		<polyline fill="none" stroke="#FFFFFF" stroke-width="2" stroke-linecap="round" stroke-linejoin="round" stroke-miterlimit="10" points="
		92.364,132.05 92.364,150.884 85.614,150.884 85.614,132.05 	"/>
	
		<polyline fill="none" stroke="#FFFFFF" stroke-width="2" stroke-linecap="round" stroke-linejoin="round" stroke-miterlimit="10" points="
		85.614,127.55 85.614,123.05 92.364,123.05 92.364,127.55 	"/>
	<path fill="none" stroke="#FFFFFF" stroke-width="2" stroke-linecap="round" stroke-linejoin="round" stroke-miterlimit="10" d="
		M48.316,132.05h62.465c6.766,0,13.255,2.688,18.04,7.472l5.946,5.946v-31.337l-5.946,5.946c-4.784,4.784-11.273,7.472-18.04,7.472
		H48.316"/>
	<path fill="none" stroke="#FFFFFF" stroke-width="2" stroke-linecap="round" stroke-linejoin="round" stroke-miterlimit="10" d="
		M100.224,144.08h-35.97c-3.311,0-5.995-2.684-5.995-5.995v-0.039c0-3.311,2.684-5.995,5.995-5.995h35.97
		c3.311,0,5.995,2.684,5.995,5.995v0.039C106.219,141.395,103.535,144.08,100.224,144.08z"/>
</g>
</svg>
