<?xml version="1.0" encoding="utf-8"?>
<!-- Generator: Adobe Illustrator 24.0.0, SVG Export Plug-In . SVG Version: 6.00 Build 0)  -->
<svg version="1.1" id="Laag_1" xmlns="http://www.w3.org/2000/svg" xmlns:xlink="http://www.w3.org/1999/xlink" x="0px" y="0px"
	 viewBox="0 0 178.583 277.795" enable-background="new 0 0 178.583 277.795" xml:space="preserve">
<path fill="#31B7BC" d="M164.409,277.795H14.173C6.346,277.795,0,271.45,0,263.622V14.173C0,6.346,6.346,0,14.173,0h150.236
	c7.828,0,14.173,6.346,14.173,14.173v249.449C178.583,271.45,172.237,277.795,164.409,277.795z"/>
<g>
	<g>
		<path fill="none" stroke="#FFFFFF" stroke-linecap="round" stroke-linejoin="round" stroke-miterlimit="10" d="M130.381,230.163
			c-3.244,0-5.884-2.639-5.884-5.884c0-3.244,2.639-5.884,5.884-5.884c3.244,0,5.884,2.639,5.884,5.884
			C136.265,227.524,133.625,230.163,130.381,230.163z"/>
		<path fill="none" stroke="#FFFFFF" stroke-linecap="round" stroke-linejoin="round" stroke-miterlimit="10" d="M149.583,230.163
			c-3.244,0-5.884-2.639-5.884-5.884c0-3.244,2.639-5.884,5.884-5.884c3.244,0,5.884,2.639,5.884,5.884
			C155.467,227.524,152.827,230.163,149.583,230.163z"/>
		<path fill="none" stroke="#FFFFFF" stroke-linecap="round" stroke-linejoin="round" stroke-miterlimit="10" d="M149.583,233.279
			h-19.202c-3.44,0-6.579-1.961-8.088-5.052c-1.509-3.091-1.124-6.772,0.992-9.484c2.742-3.514,8.76-7.618,16.697-7.618
			c7.937,0,13.955,4.104,16.697,7.618c2.116,2.712,2.501,6.393,0.992,9.484S153.022,233.279,149.583,233.279z M142.739,230.119
			h0.009H142.739z"/>
		<polygon fill="none" stroke="#FFFFFF" stroke-linecap="round" stroke-linejoin="round" stroke-miterlimit="10" points="
			141.988,217.557 143.885,216.147 141.988,214.738 		"/>
		<polygon fill="none" stroke="#FFFFFF" stroke-linecap="round" stroke-linejoin="round" stroke-miterlimit="10" points="
			137.976,214.738 136.078,216.147 137.976,217.557 		"/>
		
			<line fill="none" stroke="#FFFFFF" stroke-linecap="round" stroke-linejoin="round" stroke-miterlimit="10" x1="137.076" y1="230.163" x2="142.888" y2="230.163"/>
		
			<line fill="none" stroke="#FFFFFF" stroke-linecap="round" stroke-linejoin="round" stroke-miterlimit="10" x1="139.326" y1="224.763" x2="140.638" y2="224.763"/>
		
			<line fill="none" stroke="#FFFFFF" stroke-linecap="round" stroke-linejoin="round" stroke-miterlimit="10" x1="138.876" y1="226.563" x2="141.088" y2="226.563"/>
		
			<line fill="none" stroke="#FFFFFF" stroke-linecap="round" stroke-linejoin="round" stroke-miterlimit="10" x1="137.976" y1="228.363" x2="141.988" y2="228.363"/>
		
			<circle fill="none" stroke="#FFFFFF" stroke-linecap="round" stroke-linejoin="round" stroke-miterlimit="10" cx="130.381" cy="224.279" r="0.661"/>
		
			<circle fill="none" stroke="#FFFFFF" stroke-linecap="round" stroke-linejoin="round" stroke-miterlimit="10" cx="149.583" cy="224.279" r="0.661"/>
		
			<line fill="none" stroke="#FFFFFF" stroke-linecap="round" stroke-linejoin="round" stroke-miterlimit="10" x1="149.583" y1="224.279" x2="148.363" y2="221.701"/>
		
			<line fill="none" stroke="#FFFFFF" stroke-linecap="round" stroke-linejoin="round" stroke-miterlimit="10" x1="152.804" y1="224.094" x2="153.455" y2="224.094"/>
		
			<line fill="none" stroke="#FFFFFF" stroke-linecap="round" stroke-linejoin="round" stroke-miterlimit="10" x1="144.816" y1="224.094" x2="145.467" y2="224.094"/>
		
			<line fill="none" stroke="#FFFFFF" stroke-linecap="round" stroke-linejoin="round" stroke-miterlimit="10" x1="151.73" y1="221.5" x2="152.19" y2="221.04"/>
		
			<line fill="none" stroke="#FFFFFF" stroke-linecap="round" stroke-linejoin="round" stroke-miterlimit="10" x1="149.135" y1="220.425" x2="149.135" y2="219.775"/>
		
			<line fill="none" stroke="#FFFFFF" stroke-linecap="round" stroke-linejoin="round" stroke-miterlimit="10" x1="149.135" y1="228.413" x2="149.135" y2="227.763"/>
		
			<line fill="none" stroke="#FFFFFF" stroke-linecap="round" stroke-linejoin="round" stroke-miterlimit="10" x1="146.541" y1="221.5" x2="146.081" y2="221.04"/>
		
			<line fill="none" stroke="#FFFFFF" stroke-linecap="round" stroke-linejoin="round" stroke-miterlimit="10" x1="152.19" y1="227.148" x2="151.73" y2="226.688"/>
		
			<line fill="none" stroke="#FFFFFF" stroke-linecap="round" stroke-linejoin="round" stroke-miterlimit="10" x1="130.381" y1="220.611" x2="130.381" y2="219.96"/>
		
			<line fill="none" stroke="#FFFFFF" stroke-linecap="round" stroke-linejoin="round" stroke-miterlimit="10" x1="130.381" y1="228.599" x2="130.381" y2="227.948"/>
		
			<line fill="none" stroke="#FFFFFF" stroke-linecap="round" stroke-linejoin="round" stroke-miterlimit="10" x1="127.786" y1="221.685" x2="127.327" y2="221.225"/>
		
			<line fill="none" stroke="#FFFFFF" stroke-linecap="round" stroke-linejoin="round" stroke-miterlimit="10" x1="126.712" y1="224.279" x2="126.061" y2="224.279"/>
		
			<line fill="none" stroke="#FFFFFF" stroke-linecap="round" stroke-linejoin="round" stroke-miterlimit="10" x1="134.7" y1="224.279" x2="134.05" y2="224.279"/>
		
			<line fill="none" stroke="#FFFFFF" stroke-linecap="round" stroke-linejoin="round" stroke-miterlimit="10" x1="127.786" y1="226.874" x2="127.327" y2="227.334"/>
		
			<line fill="none" stroke="#FFFFFF" stroke-linecap="round" stroke-linejoin="round" stroke-miterlimit="10" x1="133.435" y1="221.225" x2="132.975" y2="221.685"/>
		
			<line fill="none" stroke="#FFFFFF" stroke-linecap="round" stroke-linejoin="round" stroke-miterlimit="10" x1="130.381" y1="224.279" x2="131.708" y2="220.801"/>
	</g>
</g>
<text transform="matrix(1 0 0 1 23.1642 37.5056)"><tspan x="0" y="0" fill="#FFFFFF" font-family="'Montserrat-ExtraBold'" font-size="14px" letter-spacing="1">DASHBOARD</tspan><tspan x="0" y="18" fill="#FFFFFF" font-family="'Montserrat-Regular'" font-size="10px">E-bike</tspan></text>
<g>
	<text transform="matrix(1 0 0 1 128.5388 252.3286)" fill="#FFFFFF" font-family="'Montserrat-Regular'" font-size="8px">Auto</text>
</g>
<g>
	<text transform="matrix(1 0 0 1 26.0827 252.3287)" fill="#FFFFFF" font-family="'Montserrat-Regular'" font-size="8px">Scooter</text>
</g>
<g>
	<text transform="matrix(1 0 0 1 81.9749 252.3291)" fill="#FFFFFF" font-family="'Montserrat-Regular'" font-size="8px">Bus</text>
</g>
<g>
	<path fill="none" stroke="#FFFFFF" stroke-linecap="round" stroke-linejoin="round" stroke-miterlimit="10" d="M150.181,36.567
		h5.763c0-5.738-4.652-10.39-10.39-10.39s-10.39,4.652-10.39,10.39h5.763"/>
	
		<line fill="none" stroke="#FFFFFF" stroke-linecap="round" stroke-linejoin="round" stroke-miterlimit="10" x1="149.94" y1="32.182" x2="150.674" y2="31.448"/>
	
		<line fill="none" stroke="#FFFFFF" stroke-linecap="round" stroke-linejoin="round" stroke-miterlimit="10" x1="145.555" y1="30.365" x2="145.555" y2="29.327"/>
	
		<circle fill="none" stroke="#FFFFFF" stroke-linecap="round" stroke-linejoin="round" stroke-miterlimit="10" cx="145.555" cy="36.567" r="1.477"/>
	
		<line fill="none" stroke="#FFFFFF" stroke-linecap="round" stroke-linejoin="round" stroke-miterlimit="10" x1="146.195" y1="35.241" x2="148.705" y2="30.044"/>
	
		<line fill="none" stroke="#FFFFFF" stroke-linecap="round" stroke-linejoin="round" stroke-miterlimit="10" x1="141.169" y1="32.182" x2="140.435" y2="31.448"/>
</g>
<g>
	
		<circle fill="none" stroke="#FFFFFF" stroke-linecap="round" stroke-linejoin="round" stroke-miterlimit="10" cx="37.281" cy="222.863" r="0.661"/>
	
		<circle fill="none" stroke="#FFFFFF" stroke-linecap="round" stroke-linejoin="round" stroke-miterlimit="10" cx="40.383" cy="229.636" r="0.661"/>
	<path fill="none" stroke="#FFFFFF" stroke-linecap="round" stroke-linejoin="round" stroke-miterlimit="10" d="M43.288,225.986
		c0.487-0.935,0.767-1.995,0.767-3.123c0-3.74-3.032-6.773-6.773-6.773s-6.773,3.032-6.773,6.773c0,3.201,2.223,5.876,5.207,6.583
		c-0.003,0.064-0.019,0.124-0.019,0.189c0,2.588,2.098,4.686,4.686,4.686c2.588,0,4.686-2.098,4.686-4.686
		C45.068,228.151,44.364,226.844,43.288,225.986z"/>
	
		<circle fill="none" stroke="#FFFFFF" stroke-linecap="round" stroke-linejoin="round" stroke-miterlimit="10" cx="45.996" cy="215.183" r="2.4"/>
	
		<circle fill="none" stroke="#FFFFFF" stroke-linecap="round" stroke-linejoin="round" stroke-miterlimit="10" cx="49.391" cy="221.953" r="2.4"/>
	<path fill="none" stroke="#FFFFFF" stroke-linecap="round" stroke-linejoin="round" stroke-miterlimit="10" d="M54.771,218.16
		c0-5.25-6.442-9.506-14.389-9.506s-14.389,4.256-14.389,9.506c0,7.947,6.442,20.712,14.389,20.712S54.771,226.107,54.771,218.16z"
		/>
	
		<line fill="none" stroke="#FFFFFF" stroke-linecap="round" stroke-linejoin="round" stroke-miterlimit="10" x1="37.281" y1="222.863" x2="33.041" y2="221.159"/>
	
		<line fill="none" stroke="#FFFFFF" stroke-linecap="round" stroke-linejoin="round" stroke-miterlimit="10" x1="41.328" y1="222.863" x2="42.235" y2="222.863"/>
	
		<line fill="none" stroke="#FFFFFF" stroke-linecap="round" stroke-linejoin="round" stroke-miterlimit="10" x1="32.328" y1="222.863" x2="33.235" y2="222.863"/>
	
		<line fill="none" stroke="#FFFFFF" stroke-linecap="round" stroke-linejoin="round" stroke-miterlimit="10" x1="40.143" y1="220.002" x2="40.784" y2="219.36"/>
	
		<line fill="none" stroke="#FFFFFF" stroke-linecap="round" stroke-linejoin="round" stroke-miterlimit="10" x1="37.281" y1="218.817" x2="37.281" y2="217.91"/>
	
		<line fill="none" stroke="#FFFFFF" stroke-linecap="round" stroke-linejoin="round" stroke-miterlimit="10" x1="34.42" y1="220.002" x2="33.779" y2="219.36"/>
	
		<line fill="none" stroke="#FFFFFF" stroke-linecap="round" stroke-linejoin="round" stroke-miterlimit="10" x1="42.981" y1="229.636" x2="43.631" y2="229.636"/>
	
		<line fill="none" stroke="#FFFFFF" stroke-linecap="round" stroke-linejoin="round" stroke-miterlimit="10" x1="37.134" y1="229.636" x2="37.784" y2="229.636"/>
	
		<line fill="none" stroke="#FFFFFF" stroke-linecap="round" stroke-linejoin="round" stroke-miterlimit="10" x1="42.22" y1="227.798" x2="42.68" y2="227.339"/>
	
		<line fill="none" stroke="#FFFFFF" stroke-linecap="round" stroke-linejoin="round" stroke-miterlimit="10" x1="40.383" y1="227.037" x2="40.383" y2="226.387"/>
	
		<line fill="none" stroke="#FFFFFF" stroke-linecap="round" stroke-linejoin="round" stroke-miterlimit="10" x1="38.545" y1="227.798" x2="38.085" y2="227.339"/>
	
		<line fill="none" stroke="#FFFFFF" stroke-linecap="round" stroke-linejoin="round" stroke-miterlimit="10" x1="40.383" y1="229.636" x2="37.942" y2="228.589"/>
</g>
<g>
	<path fill="none" stroke="#FFFFFF" stroke-linecap="round" stroke-linejoin="round" stroke-miterlimit="10" d="M80.772,231.701
		c-2.741,0-4.97-2.229-4.97-4.97s2.229-4.97,4.97-4.97s4.97,2.229,4.97,4.97S83.513,231.701,80.772,231.701z"/>
	<path fill="none" stroke="#FFFFFF" stroke-linecap="round" stroke-linejoin="round" stroke-miterlimit="10" d="M97.844,231.701
		c-2.741,0-4.97-2.229-4.97-4.97s2.229-4.97,4.97-4.97s4.97,2.229,4.97,4.97S100.585,231.701,97.844,231.701z"/>
	<path fill="none" stroke="#FFFFFF" stroke-linecap="round" stroke-linejoin="round" stroke-miterlimit="10" d="M95.816,219.061
		c-1.622,0-2.942-1.32-2.942-2.942s1.32-2.942,2.942-2.942c1.622,0,2.942,1.32,2.942,2.942S97.438,219.061,95.816,219.061z"/>
	<path fill="none" stroke="#FFFFFF" stroke-linecap="round" stroke-linejoin="round" stroke-miterlimit="10" d="M82.8,219.061
		c-1.622,0-2.942-1.32-2.942-2.942s1.32-2.942,2.942-2.942c1.622,0,2.942,1.32,2.942,2.942S84.422,219.061,82.8,219.061z"/>
	<path fill="none" stroke="#FFFFFF" stroke-linecap="round" stroke-linejoin="round" stroke-miterlimit="10" d="M72.531,228.202
		c-0.811,0-1.471-0.66-1.471-1.471c0-0.811,0.66-1.471,1.471-1.471c0.811,0,1.471,0.66,1.471,1.471
		C74.002,227.542,73.342,228.202,72.531,228.202z"/>
	<path fill="none" stroke="#FFFFFF" stroke-linecap="round" stroke-linejoin="round" stroke-miterlimit="10" d="M73.887,223.46
		c-0.811,0-1.471-0.66-1.471-1.471c0-0.811,0.66-1.471,1.471-1.471s1.471,0.66,1.471,1.471
		C75.358,222.8,74.698,223.46,73.887,223.46z"/>
	<path fill="none" stroke="#FFFFFF" stroke-linecap="round" stroke-linejoin="round" stroke-miterlimit="10" d="M104.615,226.731
		c0-0.811,0.66-1.471,1.471-1.471s1.471,0.66,1.471,1.471c0,0.811-0.66,1.471-1.471,1.471S104.615,227.542,104.615,226.731z"/>
	<path fill="none" stroke="#FFFFFF" stroke-linecap="round" stroke-linejoin="round" stroke-miterlimit="10" d="M103.209,221.989
		c0-0.811,0.66-1.471,1.471-1.471s1.471,0.66,1.471,1.471c0,0.811-0.66,1.471-1.471,1.471S103.209,222.8,103.209,221.989z"/>
	<path fill="none" stroke="#FFFFFF" stroke-linecap="round" stroke-linejoin="round" stroke-miterlimit="10" d="M89.799,218.466
		h-0.981c-0.704,0-1.276,0.571-1.276,1.276v3.914c0,0.704,0.571,1.276,1.276,1.276h0.981c0.704,0,1.276-0.571,1.276-1.276v-3.914
		C91.074,219.037,90.503,218.466,89.799,218.466z"/>
	
		<rect x="74.492" y="210.617" fill="none" stroke="#FFFFFF" stroke-linecap="round" stroke-linejoin="round" stroke-miterlimit="10" width="1.732" height="2.865"/>
	
		<rect x="70.892" y="210.617" fill="none" stroke="#FFFFFF" stroke-linecap="round" stroke-linejoin="round" stroke-miterlimit="10" width="1.732" height="2.865"/>
	
		<rect x="74.492" y="215.282" fill="none" stroke="#FFFFFF" stroke-linecap="round" stroke-linejoin="round" stroke-miterlimit="10" width="1.732" height="2.865"/>
	
		<rect x="70.892" y="215.282" fill="none" stroke="#FFFFFF" stroke-linecap="round" stroke-linejoin="round" stroke-miterlimit="10" width="1.732" height="2.865"/>
	
		<rect x="105.958" y="210.617" fill="none" stroke="#FFFFFF" stroke-linecap="round" stroke-linejoin="round" stroke-miterlimit="10" width="1.732" height="2.865"/>
	
		<rect x="102.358" y="210.617" fill="none" stroke="#FFFFFF" stroke-linecap="round" stroke-linejoin="round" stroke-miterlimit="10" width="1.732" height="2.865"/>
	
		<rect x="105.958" y="215.282" fill="none" stroke="#FFFFFF" stroke-linecap="round" stroke-linejoin="round" stroke-miterlimit="10" width="1.732" height="2.865"/>
	
		<rect x="102.358" y="215.282" fill="none" stroke="#FFFFFF" stroke-linecap="round" stroke-linejoin="round" stroke-miterlimit="10" width="1.732" height="2.865"/>
	
		<line fill="none" stroke="#FFFFFF" stroke-linecap="round" stroke-linejoin="round" stroke-miterlimit="10" x1="88.892" y1="220.798" x2="89.724" y2="220.798"/>
	
		<line fill="none" stroke="#FFFFFF" stroke-linecap="round" stroke-linejoin="round" stroke-miterlimit="10" x1="88.892" y1="222.598" x2="89.724" y2="222.598"/>
	
		<circle fill="none" stroke="#FFFFFF" stroke-linecap="round" stroke-linejoin="round" stroke-miterlimit="10" cx="97.844" cy="226.731" r="0.661"/>
	
		<circle fill="none" stroke="#FFFFFF" stroke-linecap="round" stroke-linejoin="round" stroke-miterlimit="10" cx="80.772" cy="226.731" r="0.661"/>
	
		<line fill="none" stroke="#FFFFFF" stroke-linecap="round" stroke-linejoin="round" stroke-miterlimit="10" x1="83.942" y1="226.731" x2="83.292" y2="226.731"/>
	
		<line fill="none" stroke="#FFFFFF" stroke-linecap="round" stroke-linejoin="round" stroke-miterlimit="10" x1="78.252" y1="226.731" x2="77.602" y2="226.731"/>
	
		<line fill="none" stroke="#FFFFFF" stroke-linecap="round" stroke-linejoin="round" stroke-miterlimit="10" x1="83.014" y1="224.489" x2="82.554" y2="224.949"/>
	
		<line fill="none" stroke="#FFFFFF" stroke-linecap="round" stroke-linejoin="round" stroke-miterlimit="10" x1="78.99" y1="228.512" x2="78.53" y2="228.972"/>
	
		<line fill="none" stroke="#FFFFFF" stroke-linecap="round" stroke-linejoin="round" stroke-miterlimit="10" x1="80.772" y1="223.561" x2="80.772" y2="224.211"/>
	
		<line fill="none" stroke="#FFFFFF" stroke-linecap="round" stroke-linejoin="round" stroke-miterlimit="10" x1="80.772" y1="229.25" x2="80.772" y2="229.901"/>
	
		<line fill="none" stroke="#FFFFFF" stroke-linecap="round" stroke-linejoin="round" stroke-miterlimit="10" x1="78.53" y1="224.489" x2="80.772" y2="226.731"/>
	
		<line fill="none" stroke="#FFFFFF" stroke-linecap="round" stroke-linejoin="round" stroke-miterlimit="10" x1="101.015" y1="226.731" x2="100.364" y2="226.731"/>
	
		<line fill="none" stroke="#FFFFFF" stroke-linecap="round" stroke-linejoin="round" stroke-miterlimit="10" x1="95.325" y1="226.731" x2="94.674" y2="226.731"/>
	
		<line fill="none" stroke="#FFFFFF" stroke-linecap="round" stroke-linejoin="round" stroke-miterlimit="10" x1="100.086" y1="224.489" x2="99.626" y2="224.949"/>
	
		<line fill="none" stroke="#FFFFFF" stroke-linecap="round" stroke-linejoin="round" stroke-miterlimit="10" x1="97.844" y1="223.561" x2="97.844" y2="226.731"/>
	
		<line fill="none" stroke="#FFFFFF" stroke-linecap="round" stroke-linejoin="round" stroke-miterlimit="10" x1="95.603" y1="224.489" x2="96.063" y2="224.949"/>
	
		<line fill="none" stroke="#FFFFFF" stroke-linecap="round" stroke-linejoin="round" stroke-miterlimit="10" x1="82.554" y1="228.512" x2="83.014" y2="228.972"/>
</g>
<g>
	<path fill="none" stroke="#FFFFFF" stroke-width="2" stroke-linecap="round" stroke-linejoin="round" stroke-miterlimit="10" d="
		M104.9,157.833H73.682c-3.522,0-6.378-2.855-6.378-6.378V96.052c0-3.522,2.856-6.378,6.378-6.378H104.9
		c3.522,0,6.378,2.856,6.378,6.378v55.403C111.278,154.977,108.423,157.833,104.9,157.833z"/>
	
		<rect x="74.054" y="96.424" fill="none" stroke="#FFFFFF" stroke-width="2" stroke-linecap="round" stroke-linejoin="round" stroke-miterlimit="10" width="30.474" height="54.659"/>
	
		<line fill="none" stroke="#FFFFFF" stroke-width="2" stroke-linecap="round" stroke-linejoin="round" stroke-miterlimit="10" x1="94.304" y1="103.174" x2="97.778" y2="103.174"/>
	
		<line fill="none" stroke="#FFFFFF" stroke-width="2" stroke-linecap="round" stroke-linejoin="round" stroke-miterlimit="10" x1="80.804" y1="103.174" x2="84.278" y2="103.174"/>
	
		<line fill="none" stroke="#FFFFFF" stroke-width="2" stroke-linecap="round" stroke-linejoin="round" stroke-miterlimit="10" x1="80.804" y1="169.083" x2="80.804" y2="157.833"/>
	
		<line fill="none" stroke="#FFFFFF" stroke-width="2" stroke-linecap="round" stroke-linejoin="round" stroke-miterlimit="10" x1="97.778" y1="157.833" x2="97.778" y2="169.083"/>
	<path fill="none" stroke="#FFFFFF" stroke-width="2" stroke-linecap="round" stroke-linejoin="round" stroke-miterlimit="10" d="
		M111.278,112.174h3.561c1.761,0,3.189,1.428,3.189,3.189v16.781c0,1.761-1.428,3.189-3.189,3.189h-3.561"/>
	
		<line fill="none" stroke="#FFFFFF" stroke-width="2" stroke-linecap="round" stroke-linejoin="round" stroke-miterlimit="10" x1="118.028" y1="116.674" x2="121.589" y2="116.674"/>
	
		<line fill="none" stroke="#FFFFFF" stroke-width="2" stroke-linecap="round" stroke-linejoin="round" stroke-miterlimit="10" x1="121.589" y1="130.833" x2="118.028" y2="130.833"/>
	
		<line fill="none" stroke="#FFFFFF" stroke-width="2" stroke-linecap="round" stroke-linejoin="round" stroke-miterlimit="10" x1="56.993" y1="116.674" x2="60.554" y2="116.674"/>
	
		<line fill="none" stroke="#FFFFFF" stroke-width="2" stroke-linecap="round" stroke-linejoin="round" stroke-miterlimit="10" x1="60.554" y1="130.833" x2="56.993" y2="130.833"/>
	<path fill="none" stroke="#FFFFFF" stroke-width="2" stroke-linecap="round" stroke-linejoin="round" stroke-miterlimit="10" d="
		M67.304,112.174h-3.561c-1.761,0-3.189,1.428-3.189,3.189v16.781c0,1.761,1.428,3.189,3.189,3.189h3.561"/>
	
		<rect x="83.978" y="138.8" fill="none" stroke="#FFFFFF" stroke-width="2" stroke-linecap="round" stroke-linejoin="round" stroke-miterlimit="10" width="10.627" height="5.457"/>
	
		<line fill="none" stroke="#FFFFFF" stroke-width="2" stroke-linecap="round" stroke-linejoin="round" stroke-miterlimit="10" x1="94.605" y1="122.542" x2="96.872" y2="122.542"/>
	
		<line fill="none" stroke="#FFFFFF" stroke-width="2" stroke-linecap="round" stroke-linejoin="round" stroke-miterlimit="10" x1="81.71" y1="122.542" x2="83.978" y2="122.542"/>
	
		<line fill="none" stroke="#FFFFFF" stroke-width="2" stroke-linecap="round" stroke-linejoin="round" stroke-miterlimit="10" x1="93.049" y1="118.785" x2="94.652" y2="117.182"/>
	
		<line fill="none" stroke="#FFFFFF" stroke-width="2" stroke-linecap="round" stroke-linejoin="round" stroke-miterlimit="10" x1="83.931" y1="127.903" x2="85.534" y2="126.3"/>
	
		<line fill="none" stroke="#FFFFFF" stroke-width="2" stroke-linecap="round" stroke-linejoin="round" stroke-miterlimit="10" x1="89.291" y1="117.229" x2="89.291" y2="114.961"/>
	
		<line fill="none" stroke="#FFFFFF" stroke-width="2" stroke-linecap="round" stroke-linejoin="round" stroke-miterlimit="10" x1="89.291" y1="130.123" x2="89.291" y2="127.856"/>
	
		<line fill="none" stroke="#FFFFFF" stroke-width="2" stroke-linecap="round" stroke-linejoin="round" stroke-miterlimit="10" x1="85.534" y1="118.785" x2="83.931" y2="117.182"/>
	
		<line fill="none" stroke="#FFFFFF" stroke-width="2" stroke-linecap="round" stroke-linejoin="round" stroke-miterlimit="10" x1="94.652" y1="127.903" x2="93.049" y2="126.3"/>
</g>
</svg>
