<?xml version="1.0" encoding="utf-8"?>
<!-- Generator: Adobe Illustrator 24.0.0, SVG Export Plug-In . SVG Version: 6.00 Build 0)  -->
<svg version="1.1" id="Laag_1" xmlns="http://www.w3.org/2000/svg" xmlns:xlink="http://www.w3.org/1999/xlink" x="0px" y="0px"
	 viewBox="0 0 178.583 277.795" enable-background="new 0 0 178.583 277.795" xml:space="preserve">
<path fill="#A3A0A0" d="M164.409,277.795H14.173C6.346,277.795,0,271.45,0,263.622V14.173C0,6.346,6.346,0,14.173,0h150.236
	c7.828,0,14.173,6.346,14.173,14.173v249.449C178.583,271.45,172.237,277.795,164.409,277.795z"/>
<g>
	
		<line fill="none" stroke="#FFFFFF" stroke-width="2" stroke-linecap="round" stroke-linejoin="round" stroke-miterlimit="10" x1="77.051" y1="85.258" x2="107.009" y2="85.258"/>
	
		<circle fill="none" stroke="#FFFFFF" stroke-width="2" stroke-linecap="round" stroke-linejoin="round" stroke-miterlimit="10" cx="92.029" cy="111.039" r="1.479"/>
	<path fill="none" stroke="#FFFFFF" stroke-width="2" stroke-linecap="round" stroke-linejoin="round" stroke-miterlimit="10" d="
		M89.78,105.508c-2.183,0.891-3.729,3.031-3.729,5.531c0,2.499,1.546,4.639,3.729,5.53"/>
	<path fill="none" stroke="#FFFFFF" stroke-width="2" stroke-linecap="round" stroke-linejoin="round" stroke-miterlimit="10" d="
		M94.279,116.57c2.183-0.891,3.729-3.031,3.729-5.531c0-2.5-1.546-4.64-3.729-5.532"/>
	<path fill="none" stroke="#FFFFFF" stroke-width="2" stroke-linecap="round" stroke-linejoin="round" stroke-miterlimit="10" d="
		M96.131,123.32h-8.202c-3.522,0-6.378-2.856-6.378-6.378v-11.806c0-3.522,2.856-6.378,6.378-6.378h8.202
		c3.522,0,6.378,2.856,6.378,6.378v11.806C102.509,120.465,99.653,123.32,96.131,123.32z"/>
	
		<circle fill="none" stroke="#FFFFFF" stroke-width="2" stroke-linecap="round" stroke-linejoin="round" stroke-miterlimit="10" cx="92.03" cy="133.414" r="3.344"/>
	<path fill="none" stroke="#FFFFFF" stroke-width="2" stroke-linecap="round" stroke-linejoin="round" stroke-miterlimit="10" d="
		M100.631,143.508H83.429c-3.522,0-6.378-2.856-6.378-6.378V98.386c0-3.522,2.856-6.378,6.378-6.378h17.202
		c3.522,0,6.378,2.856,6.378,6.378v38.744C107.009,140.652,104.153,143.508,100.631,143.508z"/>
	<path fill="none" stroke="#FFFFFF" stroke-width="2" stroke-linecap="round" stroke-linejoin="round" stroke-miterlimit="10" d="
		M110.928,114.593h-3.919v-7.108h3.919c1.761,0,3.189,1.428,3.189,3.189v0.73C114.117,113.166,112.689,114.593,110.928,114.593z"/>
	<path fill="none" stroke="#FFFFFF" stroke-width="2" stroke-linecap="round" stroke-linejoin="round" stroke-miterlimit="10" d="
		M114.117,111.404h0.181c3.522,0,6.378,2.856,6.378,6.378v40.853c0,5.988,4.854,10.843,10.843,10.843h0.014"/>
	
		<line fill="none" stroke="#FFFFFF" stroke-width="2" stroke-linecap="round" stroke-linejoin="round" stroke-miterlimit="10" x1="77.051" y1="137.13" x2="77.051" y2="169.478"/>
	
		<line fill="none" stroke="#FFFFFF" stroke-width="2" stroke-linecap="round" stroke-linejoin="round" stroke-miterlimit="10" x1="107.009" y1="137.13" x2="107.009" y2="169.478"/>
</g>
<g>
	
		<line fill="none" stroke="#FFFFFF" stroke-linecap="round" stroke-linejoin="round" stroke-miterlimit="10" x1="44.052" y1="225.517" x2="41.595" y2="225.517"/>
	
		<rect x="36.195" y="215.46" fill="none" stroke="#FFFFFF" stroke-linecap="round" stroke-linejoin="round" stroke-miterlimit="10" width="13.257" height="8.257"/>
	
		<rect x="39.795" y="228.217" fill="none" stroke="#FFFFFF" stroke-linecap="round" stroke-linejoin="round" stroke-miterlimit="10" width="6.057" height="3.757"/>
	
		<rect x="32.595" y="215.46" fill="none" stroke="#FFFFFF" stroke-linecap="round" stroke-linejoin="round" stroke-miterlimit="10" width="1.8" height="1.878"/>
	
		<rect x="32.595" y="219.138" fill="none" stroke="#FFFFFF" stroke-linecap="round" stroke-linejoin="round" stroke-miterlimit="10" width="1.8" height="3.678"/>
	<path fill="none" stroke="#FFFFFF" stroke-linecap="round" stroke-linejoin="round" stroke-miterlimit="10" d="M30.795,214.035
		v21.381h22.257v-21.381c0-0.704-0.571-1.276-1.276-1.276H32.07C31.366,212.76,30.795,213.331,30.795,214.035z"/>
	<path fill="none" stroke="#FFFFFF" stroke-linecap="round" stroke-linejoin="round" stroke-miterlimit="10" d="M41.923,206.019
		c-2.945,0-5.608,1.202-7.528,3.141v0.9h15.057v-0.9C47.531,207.221,44.868,206.019,41.923,206.019z"/>
	
		<circle fill="none" stroke="#FFFFFF" stroke-linecap="round" stroke-linejoin="round" stroke-miterlimit="10" cx="41.923" cy="208.039" r="0.688"/>
</g>
<g>
	<text transform="matrix(1 0 0 1 110.8796 252.3286)" fill="#FFFFFF" font-family="'Montserrat-Regular'" font-size="8px">Parkeermeter</text>
</g>
<g>
	<text transform="matrix(1 0 0 1 23.9909 252.3288)" fill="#FFFFFF" font-family="'Montserrat-Regular'" font-size="8px">Afvalbak</text>
</g>
<g>
	<text transform="matrix(1 0 0 1 71.7904 252.3291)" fill="#FFFFFF" font-family="'Montserrat-Regular'" font-size="8px">QR-code</text>
</g>
<text transform="matrix(1 0 0 1 23.1643 37.5056)"><tspan x="0" y="0" fill="#FFFFFF" font-family="'Montserrat-ExtraBold'" font-size="14px" letter-spacing="1">SCANNEN</tspan><tspan x="0" y="18" fill="#FFFFFF" font-family="'Montserrat-Regular'" font-size="10px">Laadpaal</tspan></text>
<g>
	<path fill="none" stroke="#FFFFFF" stroke-linecap="round" stroke-linejoin="round" stroke-miterlimit="10" d="M89.291,237.825
		L89.291,237.825c-3.673,0-6.651-2.978-6.651-6.651v-16.552c0-3.673,2.978-6.651,6.651-6.651h0c3.673,0,6.651,2.978,6.651,6.651
		v16.552C95.942,234.847,92.965,237.825,89.291,237.825z"/>
	
		<line fill="none" stroke="#FFFFFF" stroke-linecap="round" stroke-linejoin="round" stroke-miterlimit="10" x1="98.642" y1="207.971" x2="98.642" y2="237.825"/>
	
		<line fill="none" stroke="#FFFFFF" stroke-linecap="round" stroke-linejoin="round" stroke-miterlimit="10" x1="79.94" y1="207.971" x2="79.94" y2="237.825"/>
	
		<rect x="91.222" y="224.755" fill="none" stroke="#FFFFFF" stroke-linecap="round" stroke-linejoin="round" stroke-miterlimit="10" width="1.539" height="1.539"/>
	
		<rect x="85.822" y="224.755" fill="none" stroke="#FFFFFF" stroke-linecap="round" stroke-linejoin="round" stroke-miterlimit="10" width="1.539" height="1.539"/>
	
		<rect x="91.222" y="230.155" fill="none" stroke="#FFFFFF" stroke-linecap="round" stroke-linejoin="round" stroke-miterlimit="10" width="1.539" height="1.539"/>
	
		<rect x="86.078" y="230.411" fill="none" stroke="#FFFFFF" stroke-linecap="round" stroke-linejoin="round" stroke-miterlimit="10" width="1.026" height="1.026"/>
	
		<rect x="86.591" y="228.611" fill="none" stroke="#FFFFFF" stroke-linecap="round" stroke-linejoin="round" stroke-miterlimit="10" width="0.513" height="0.513"/>
	
		<rect x="87.491" y="227.711" fill="none" stroke="#FFFFFF" stroke-linecap="round" stroke-linejoin="round" stroke-miterlimit="10" width="0.513" height="0.513"/>
	
		<rect x="89.291" y="229.511" fill="none" stroke="#FFFFFF" stroke-linecap="round" stroke-linejoin="round" stroke-miterlimit="10" width="0.513" height="0.513"/>
	
		<rect x="89.291" y="225.911" fill="none" stroke="#FFFFFF" stroke-linecap="round" stroke-linejoin="round" stroke-miterlimit="10" width="0.513" height="0.513"/>
	
		<rect x="91.091" y="227.711" fill="none" stroke="#FFFFFF" stroke-linecap="round" stroke-linejoin="round" stroke-miterlimit="10" width="0.513" height="0.513"/>
	
		<rect x="91.991" y="229.511" fill="none" stroke="#FFFFFF" stroke-linecap="round" stroke-linejoin="round" stroke-miterlimit="10" width="0.513" height="0.513"/>
	
		<line fill="none" stroke="#FFFFFF" stroke-linecap="round" stroke-linejoin="round" stroke-miterlimit="10" x1="87.361" y1="234.234" x2="91.222" y2="234.234"/>
	
		<line fill="none" stroke="#FFFFFF" stroke-linecap="round" stroke-linejoin="round" stroke-miterlimit="10" x1="85.822" y1="221.634" x2="92.761" y2="221.634"/>
	
		<circle fill="none" stroke="#FFFFFF" stroke-linecap="round" stroke-linejoin="round" stroke-miterlimit="10" cx="89.291" cy="214.622" r="3.991"/>
</g>
<g>
	<path fill="none" stroke="#FFFFFF" stroke-linecap="round" stroke-linejoin="round" stroke-miterlimit="10" d="M136.294,203.502
		h0.739c0.627,0,1.135-0.508,1.135-1.135c0-0.627-0.508-1.135-1.135-1.135h-0.739v3.747"/>
	
		<rect x="133.594" y="199.432" fill="none" stroke="#FFFFFF" stroke-linecap="round" stroke-linejoin="round" stroke-miterlimit="10" width="7.274" height="6.906"/>
	
		<line fill="none" stroke="#FFFFFF" stroke-linecap="round" stroke-linejoin="round" stroke-miterlimit="10" x1="137.231" y1="206.338" x2="137.231" y2="209.334"/>
	
		<line fill="none" stroke="#FFFFFF" stroke-linecap="round" stroke-linejoin="round" stroke-miterlimit="10" x1="136.183" y1="209.334" x2="138.279" y2="209.334"/>
	<polyline fill="none" stroke="#FFFFFF" stroke-linecap="round" stroke-linejoin="round" stroke-miterlimit="10" points="
		143.118,240.365 143.118,212.034 131.344,212.034 131.344,240.365 	"/>
	
		<rect x="134.044" y="214.734" fill="none" stroke="#FFFFFF" stroke-linecap="round" stroke-linejoin="round" stroke-miterlimit="10" width="6.375" height="5.4"/>
	
		<rect x="134.044" y="221.934" fill="none" stroke="#FFFFFF" stroke-linecap="round" stroke-linejoin="round" stroke-miterlimit="10" width="6.375" height="7.2"/>
	
		<rect x="135.844" y="223.734" fill="none" stroke="#FFFFFF" stroke-linecap="round" stroke-linejoin="round" stroke-miterlimit="10" width="2.775" height="3.6"/>
	
		<rect x="134.044" y="230.934" fill="none" stroke="#FFFFFF" stroke-linecap="round" stroke-linejoin="round" stroke-miterlimit="10" width="1.334" height="1.136"/>
	
		<rect x="136.564" y="230.934" fill="none" stroke="#FFFFFF" stroke-linecap="round" stroke-linejoin="round" stroke-miterlimit="10" width="1.334" height="1.136"/>
	
		<rect x="139.085" y="230.934" fill="none" stroke="#FFFFFF" stroke-linecap="round" stroke-linejoin="round" stroke-miterlimit="10" width="1.334" height="1.136"/>
</g>
<g>
	
		<circle fill="none" stroke="#FFFFFF" stroke-linecap="round" stroke-linejoin="round" stroke-miterlimit="10" cx="149.275" cy="36.835" r="1.836"/>
	<path fill="none" stroke="#FFFFFF" stroke-linecap="round" stroke-linejoin="round" stroke-miterlimit="10" d="M144.869,34.842
		c0.761-1.675,2.449-2.843,4.406-2.843c1.956,0,3.645,1.168,4.405,2.843"/>
	<path fill="none" stroke="#FFFFFF" stroke-linecap="round" stroke-linejoin="round" stroke-miterlimit="10" d="M142.136,33.606
		c1.233-2.714,3.969-4.607,7.139-4.607c3.17,0,5.906,1.892,7.138,4.607"/>
	<path fill="none" stroke="#FFFFFF" stroke-linecap="round" stroke-linejoin="round" stroke-miterlimit="10" d="M139.402,32.369
		c1.705-3.754,5.489-6.37,9.873-6.37c4.384,0,8.167,2.617,9.872,6.37"/>
</g>
</svg>
