<?xml version="1.0" encoding="utf-8"?>
<!-- Generator: Adobe Illustrator 24.0.0, SVG Export Plug-In . SVG Version: 6.00 Build 0)  -->
<svg version="1.1" id="Laag_1" xmlns="http://www.w3.org/2000/svg" xmlns:xlink="http://www.w3.org/1999/xlink" x="0px" y="0px"
	 viewBox="0 0 178.583 277.795" enable-background="new 0 0 178.583 277.795" xml:space="preserve">
<path fill="#FBBA00" d="M164.409,277.795H14.173C6.346,277.795,0,271.45,0,263.622V14.173C0,6.346,6.346,0,14.173,0h150.236
	c7.828,0,14.173,6.346,14.173,14.173v249.449C178.583,271.45,172.237,277.795,164.409,277.795z"/>
<text transform="matrix(1 0 0 1 23.1643 37.5056)"><tspan x="0" y="0" fill="#FFFFFF" font-family="'Montserrat-ExtraBold'" font-size="14px" letter-spacing="1">FIETS</tspan><tspan x="0" y="18" fill="#FFFFFF" font-family="'Montserrat-Regular'" font-size="10px">Versnelling</tspan></text>
<g>
	<circle fill="none" stroke="#FFFFFF" stroke-miterlimit="10" cx="139.048" cy="33.984" r="3.769"/>
	<circle fill="none" stroke="#FFFFFF" stroke-miterlimit="10" cx="151.651" cy="33.984" r="3.769"/>
	<path fill="none" stroke="#FFFFFF" stroke-linecap="round" stroke-miterlimit="10" d="M139.048,33.984l2.39-7.542
		c0.12-0.379,0.471-0.636,0.869-0.636h1.296"/>
	
		<line fill="none" stroke="#FFFFFF" stroke-linecap="round" stroke-miterlimit="10" x1="148.527" y1="25.806" x2="151.079" y2="25.806"/>
	
		<line fill="none" stroke="#FFFFFF" stroke-linecap="round" stroke-linejoin="round" stroke-miterlimit="10" x1="151.651" y1="33.984" x2="145.555" y2="33.984"/>
	<polyline fill="none" stroke="#FFFFFF" stroke-linecap="round" stroke-linejoin="round" stroke-miterlimit="10" points="
		140.828,28.366 148.929,28.366 150.009,30.596 	"/>
</g>
<g>
	<path fill="none" stroke="#FFFFFF" stroke-linecap="round" stroke-linejoin="round" stroke-miterlimit="10" d="M95.986,217.254
		v-2.658c0-0.568-0.46-1.028-1.028-1.028h-9.807c-0.568,0-1.028,0.46-1.028,1.028v2.658c-2.299,1.713-3.838,4.392-4.005,7.432
		c-0.016,0.298,0.215,0.551,0.514,0.551h1.15c0.267,0,0.496-0.203,0.512-0.47c0.244-4.07,3.632-7.306,7.761-7.306
		s7.518,3.236,7.761,7.306c0.016,0.266,0.245,0.47,0.512,0.47h1.15c0.298,0,0.53-0.253,0.514-0.551
		C99.825,221.646,98.286,218.967,95.986,217.254z"/>
	
		<line fill="none" stroke="#FFFFFF" stroke-linecap="round" stroke-linejoin="round" stroke-miterlimit="10" x1="99.817" y1="219.133" x2="101.235" y2="218.246"/>
	
		<line fill="none" stroke="#FFFFFF" stroke-linecap="round" stroke-linejoin="round" stroke-miterlimit="10" x1="82.32" y1="215.784" x2="80.954" y2="215.784"/>
	<path fill="none" stroke="#FFFFFF" stroke-linecap="round" stroke-linejoin="round" stroke-miterlimit="10" d="M80.954,217.224
		h-2.417c-0.657,0-1.19-0.533-1.19-1.19v-0.502c0-0.657,0.533-1.19,1.19-1.19h2.417V217.224z"/>
	<path fill="none" stroke="#FFFFFF" stroke-linecap="round" stroke-linejoin="round" stroke-miterlimit="10" d="M98.52,227.873
		c-1.122,3.608-4.488,6.228-8.465,6.228c-2.937,0-5.54-1.428-7.153-3.627"/>
</g>
<g>
	<path fill="none" stroke="#FFFFFF" stroke-linecap="round" stroke-linejoin="round" stroke-miterlimit="10" d="M44.613,214.745
		h-6.487c-2.136,0-3.868,1.732-3.868,3.868v4.215h14.223v-4.215C48.481,216.477,46.749,214.745,44.613,214.745z"/>
	
		<line fill="none" stroke="#FFFFFF" stroke-linecap="round" stroke-linejoin="round" stroke-miterlimit="10" x1="39.491" y1="212.699" x2="43.249" y2="212.699"/>
	<path fill="none" stroke="#FFFFFF" stroke-linecap="round" stroke-linejoin="round" stroke-miterlimit="10" d="M48.481,228.152
		c0,1.068-0.866,1.934-1.934,1.934H36.192c-1.068,0-1.934-0.866-1.934-1.934"/>
	
		<line fill="none" stroke="#FFFFFF" stroke-linecap="round" stroke-linejoin="round" stroke-miterlimit="10" x1="31.555" y1="225.531" x2="51.21" y2="225.531"/>
	<polyline fill="none" stroke="#FFFFFF" stroke-linecap="round" stroke-linejoin="round" stroke-miterlimit="10" points="
		27.116,221.62 31.529,221.62 31.529,222.828 	"/>
	
		<line fill="none" stroke="#FFFFFF" stroke-linecap="round" stroke-linejoin="round" stroke-miterlimit="10" x1="39.567" y1="231.888" x2="39.567" y2="234.97"/>
	
		<line fill="none" stroke="#FFFFFF" stroke-linecap="round" stroke-linejoin="round" stroke-miterlimit="10" x1="43.172" y1="231.888" x2="43.172" y2="234.97"/>
</g>
<g>
	<text transform="matrix(1 0 0 1 126.8591 252.3286)" fill="#FFFFFF" font-family="'Montserrat-Regular'" font-size="8px">Lamp</text>
</g>
<g>
	<text transform="matrix(1 0 0 1 35.0266 252.3287)" fill="#FFFFFF" font-family="'Montserrat-Regular'" font-size="8px">Bel</text>
</g>
<g>
	<text transform="matrix(1 0 0 1 81.4953 252.3291)" fill="#FFFFFF" font-family="'Montserrat-Regular'" font-size="8px">Slot</text>
</g>
<g>
	<path fill="none" stroke="#FFFFFF" stroke-width="2" stroke-linecap="round" stroke-linejoin="round" stroke-miterlimit="10" d="
		M89.066,159.822H76.103c-7.736,0-14.008-6.272-14.008-14.008v-22.42c0-7.736,6.272-14.008,14.008-14.008h12.963
		c1.934,0,3.502,1.568,3.502,3.502v43.433C92.568,158.254,91,159.822,89.066,159.822z"/>
	
		<line fill="none" stroke="#FFFFFF" stroke-width="2" stroke-linecap="round" stroke-linejoin="round" stroke-miterlimit="10" x1="74.859" y1="118.505" x2="81.144" y2="118.505"/>
	<g>
		<g>
			
				<line fill="none" stroke="#FFFFFF" stroke-width="2" stroke-linecap="round" stroke-linejoin="round" stroke-miterlimit="10" x1="74.577" y1="149.765" x2="81.427" y2="149.765"/>
			
				<line fill="none" stroke="#FFFFFF" stroke-width="2" stroke-linecap="round" stroke-linejoin="round" stroke-miterlimit="10" x1="78.002" y1="153.19" x2="78.002" y2="146.34"/>
		</g>
	</g>
	
		<polyline fill="none" stroke="#FFFFFF" stroke-width="2" stroke-linecap="round" stroke-linejoin="round" stroke-miterlimit="10" points="
		85.629,129.5 70.375,129.5 70.375,139.707 85.629,139.707 	"/>
	<path fill="none" stroke="#FFFFFF" stroke-width="2" stroke-linecap="round" stroke-linejoin="round" stroke-miterlimit="10" d="
		M99.98,115.915v37.378h13.479c2.516,0,4.555-2.039,4.555-4.555V120.47c0-2.516-2.039-4.555-4.555-4.555H99.98z"/>
	
		<line fill="none" stroke="#FFFFFF" stroke-width="2" stroke-linecap="round" stroke-linejoin="round" stroke-miterlimit="10" x1="125.427" y1="148.738" x2="125.427" y2="120.47"/>
	<g>
		<g>
			
				<line fill="none" stroke="#FFFFFF" stroke-width="2" stroke-linecap="round" stroke-linejoin="round" stroke-miterlimit="10" x1="106.687" y1="122.262" x2="111.308" y2="122.262"/>
			
				<line fill="none" stroke="#FFFFFF" stroke-width="2" stroke-linecap="round" stroke-linejoin="round" stroke-miterlimit="10" x1="106.687" y1="134.604" x2="111.308" y2="134.604"/>
			
				<line fill="none" stroke="#FFFFFF" stroke-width="2" stroke-linecap="round" stroke-linejoin="round" stroke-miterlimit="10" x1="106.687" y1="146.946" x2="111.308" y2="146.946"/>
		</g>
	</g>
	
		<line fill="none" stroke="#FFFFFF" stroke-width="2" stroke-linecap="round" stroke-linejoin="round" stroke-miterlimit="10" x1="54.682" y1="146.422" x2="54.682" y2="122.786"/>
	
		<line fill="none" stroke="#FFFFFF" stroke-width="2" stroke-linecap="round" stroke-linejoin="round" stroke-miterlimit="10" x1="75.495" y1="101.973" x2="84.276" y2="101.973"/>
</g>
<g>
	<path fill="none" stroke="#FFFFFF" stroke-linecap="round" stroke-linejoin="round" stroke-miterlimit="10" d="M138.27,231.554
		c-5.093,0-9.236-4.144-9.236-9.237c0-5.093,4.143-9.236,9.236-9.236c5.093,0,9.237,4.143,9.237,9.236
		C147.507,227.41,143.363,231.554,138.27,231.554z"/>
	<path fill="none" stroke="#FFFFFF" stroke-linecap="round" stroke-linejoin="round" stroke-miterlimit="10" d="M138.27,215.261
		c-3.891,0-7.056,3.165-7.056,7.056s3.165,7.056,7.056,7.056c3.891,0,7.057-3.165,7.057-7.056S142.161,215.261,138.27,215.261z"/>
	<g>
		<g>
			<path fill="none" stroke="#FFFFFF" stroke-linecap="round" stroke-linejoin="round" stroke-miterlimit="10" d="M138.27,227.031
				c2.6,0,4.714-2.114,4.714-4.714"/>
		</g>
	</g>
	
		<line fill="none" stroke="#FFFFFF" stroke-linecap="round" stroke-linejoin="round" stroke-miterlimit="10" x1="140.07" y1="234.075" x2="140.07" y2="237.123"/>
	
		<line fill="none" stroke="#FFFFFF" stroke-linecap="round" stroke-linejoin="round" stroke-miterlimit="10" x1="136.471" y1="237.123" x2="136.471" y2="234.075"/>
	
		<line fill="none" stroke="#FFFFFF" stroke-linecap="round" stroke-linejoin="round" stroke-miterlimit="10" x1="137.371" y1="210.381" x2="139.17" y2="210.381"/>
</g>
</svg>
