<?xml version="1.0" encoding="utf-8"?>
<!-- Generator: Adobe Illustrator 24.0.0, SVG Export Plug-In . SVG Version: 6.00 Build 0)  -->
<svg version="1.1" id="Laag_1" xmlns="http://www.w3.org/2000/svg" xmlns:xlink="http://www.w3.org/1999/xlink" x="0px" y="0px"
	 viewBox="0 0 178.583 277.795" enable-background="new 0 0 178.583 277.795" xml:space="preserve">
<path fill="#D9328A" d="M164.409,277.795H14.173C6.346,277.795,0,271.45,0,263.622V14.173C0,6.346,6.346,0,14.173,0h150.236
	c7.828,0,14.173,6.346,14.173,14.173v249.449C178.583,271.45,172.237,277.795,164.409,277.795z"/>
<g>
	<text transform="matrix(1 0 0 1 116.6033 252.3286)" fill="#FFFFFF" font-family="'Montserrat-Regular'" font-size="8px">Waaklamp</text>
</g>
<g>
	<text transform="matrix(1 0 0 1 26.9866 252.3288)" fill="#FFFFFF" font-family="'Montserrat-Regular'" font-size="8px">Poortje</text>
</g>
<g>
	<text transform="matrix(1 0 0 1 67.1547 252.3291)" fill="#FFFFFF" font-family="'Montserrat-Regular'" font-size="8px">Fietssensor</text>
</g>
<text transform="matrix(1 0 0 1 23.1643 37.5056)"><tspan x="0" y="0" fill="#FFFFFF" font-family="'Montserrat-ExtraBold'" font-size="14px" letter-spacing="1">MOTION</tspan><tspan x="0" y="18" fill="#FFFFFF" font-family="'Montserrat-Regular'" font-size="10px">Flitspaal</tspan></text>
<g>
	<path fill="none" stroke="#FFFFFF" stroke-linecap="round" stroke-linejoin="round" stroke-miterlimit="10" d="M150.719,39.775
		c-0.278-3.269,2.614-4.316,2.614-4.316l0.371-1.995c0.106-0.947,0.96-1.628,1.907-1.521s1.628,0.96,1.521,1.907l-0.541,2.909
		c0,0-0.728,5.383-3.532,7.022c-2.299,1.343-5.251,0.568-6.594-1.731l-4.084-6.99c-1.195-2.045-0.505-4.672,1.54-5.867
		c2.045-1.195,4.672-0.505,5.867,1.54l0.918,1.571"/>
	<path fill="none" stroke="#FFFFFF" stroke-linecap="round" stroke-linejoin="round" stroke-miterlimit="10" d="M141.897,25.725
		c1.914-1.117,4.148-1.425,6.295-0.861c2.146,0.563,3.944,1.928,5.062,3.844"/>
	<path fill="none" stroke="#FFFFFF" stroke-linecap="round" stroke-linejoin="round" stroke-miterlimit="10" d="M139.875,22.258
		c2.841-1.659,6.158-2.11,9.336-1.277c3.183,0.836,5.85,2.861,7.509,5.702l0.915,1.567"/>
</g>
<g>
	
		<rect x="36.65" y="217.752" fill="none" stroke="#FFFFFF" stroke-linecap="round" stroke-linejoin="round" stroke-miterlimit="10" width="9.44" height="10.322"/>
	<polygon fill="none" stroke="#FFFFFF" stroke-linecap="round" stroke-linejoin="round" stroke-miterlimit="10" points="
		43.85,223.036 41.37,219.698 38.889,223.036 	"/>
	
		<line fill="none" stroke="#FFFFFF" stroke-linecap="round" stroke-linejoin="round" stroke-miterlimit="10" x1="41.37" y1="224.836" x2="41.37" y2="226.208"/>
	<path fill="none" stroke="#FFFFFF" stroke-linecap="round" stroke-linejoin="round" stroke-miterlimit="10" d="M48.79,217.752
		h2.183c1.169,0,2.116,0.947,2.116,2.116v6.09c0,1.169-0.947,2.116-2.116,2.116H48.79"/>
	<polyline fill="none" stroke="#FFFFFF" stroke-linecap="round" stroke-linejoin="round" stroke-miterlimit="10" points="
		33.95,228.074 29.65,228.074 29.65,217.752 33.95,217.752 	"/>
	
		<line fill="none" stroke="#FFFFFF" stroke-linecap="round" stroke-linejoin="round" stroke-miterlimit="10" x1="55.815" y1="237.586" x2="55.815" y2="216.852"/>
	
		<rect x="54.72" y="211.964" fill="none" stroke="#FFFFFF" stroke-linecap="round" stroke-linejoin="round" stroke-miterlimit="10" width="2.189" height="2.189"/>
	
		<line fill="none" stroke="#FFFFFF" stroke-linecap="round" stroke-linejoin="round" stroke-miterlimit="10" x1="26.95" y1="237.586" x2="26.95" y2="216.852"/>
	
		<rect x="25.856" y="211.964" fill="none" stroke="#FFFFFF" stroke-linecap="round" stroke-linejoin="round" stroke-miterlimit="10" width="2.189" height="2.189"/>
</g>
<g>
	<path fill="none" stroke="#FFFFFF" stroke-linecap="round" stroke-linejoin="round" stroke-miterlimit="10" d="M142.522,234.327
		h-8.582c-1.409,0-2.551-1.142-2.551-2.551v-12.007c0-1.409,1.142-2.551,2.551-2.551h8.582c1.409,0,2.551,1.142,2.551,2.551v12.007
		C145.073,233.184,143.931,234.327,142.522,234.327z"/>
	
		<line fill="none" stroke="#FFFFFF" stroke-linecap="round" stroke-linejoin="round" stroke-miterlimit="10" x1="145.973" y1="214.518" x2="130.489" y2="214.518"/>
	
		<line fill="none" stroke="#FFFFFF" stroke-linecap="round" stroke-linejoin="round" stroke-miterlimit="10" x1="140.573" y1="231.627" x2="135.889" y2="231.627"/>
	
		<line fill="none" stroke="#FFFFFF" stroke-linecap="round" stroke-linejoin="round" stroke-miterlimit="10" x1="140.573" y1="237.027" x2="135.889" y2="237.027"/>
	<path fill="none" stroke="#FFFFFF" stroke-linecap="round" stroke-linejoin="round" stroke-miterlimit="10" d="M140.026,227.477
		v1.449h-3.59v-1.447c0-0.628-0.209-1.256-0.652-1.701c-0.806-0.81-1.213-2.013-0.887-3.305c0.303-1.205,1.291-2.174,2.501-2.458
		c2.265-0.531,4.28,1.174,4.28,3.349c0,0.929-0.371,1.767-0.971,2.384C140.26,226.209,140.026,226.835,140.026,227.477z"/>
	<path fill="none" stroke="#FFFFFF" stroke-linecap="round" stroke-linejoin="round" stroke-miterlimit="10" d="M139.252,222.072
		c-0.234-0.185-0.731-0.472-1.444-0.305c-0.557,0.131-1.026,0.592-1.165,1.145c-0.15,0.597,0.002,1.178,0.417,1.595"/>
	<path fill="none" stroke="#FFFFFF" stroke-linecap="round" stroke-linejoin="round" stroke-miterlimit="10" d="M143.668,211.818
		c-1.123-1.827-3.135-3.049-5.437-3.049c-2.302,0-4.313,1.222-5.437,3.049H143.668z"/>
</g>
<g>
	
		<line fill="none" stroke="#FFFFFF" stroke-linecap="round" stroke-linejoin="round" stroke-miterlimit="10" x1="80.875" y1="211.018" x2="80.875" y2="238.532"/>
	
		<line fill="none" stroke="#FFFFFF" stroke-linecap="round" stroke-linejoin="round" stroke-miterlimit="10" x1="97.708" y1="211.018" x2="97.708" y2="238.532"/>
	<path fill="none" stroke="#FFFFFF" stroke-linecap="round" stroke-linejoin="round" stroke-miterlimit="10" d="M91.181,212.461
		h-3.78c-2.113,0-3.827,1.713-3.827,3.827v13.232c0,1.409,1.142,2.551,2.551,2.551h6.331c1.409,0,2.551-1.142,2.551-2.551v-13.232
		C95.008,214.174,93.295,212.461,91.181,212.461z"/>
	<path fill="none" stroke="#FFFFFF" stroke-linecap="round" stroke-linejoin="round" stroke-miterlimit="10" d="M97.708,211.018
		c-2.077-2.3-5.073-3.754-8.417-3.754s-6.339,1.454-8.417,3.754"/>
	<g>
		
			<circle fill="none" stroke="#FFFFFF" stroke-linecap="round" stroke-linejoin="round" stroke-miterlimit="10" cx="86.974" cy="225.688" r="1.474"/>
		
			<circle fill="none" stroke="#FFFFFF" stroke-linecap="round" stroke-linejoin="round" stroke-miterlimit="10" cx="91.903" cy="225.688" r="1.474"/>
		<path fill="none" stroke="#FFFFFF" stroke-linecap="round" stroke-linejoin="round" stroke-miterlimit="10" d="M86.974,225.688
			l1.051-3.204c0.047-0.148,0.184-0.249,0.34-0.249h0.507"/>
		
			<line fill="none" stroke="#FFFFFF" stroke-linecap="round" stroke-linejoin="round" stroke-miterlimit="10" x1="90.679" y1="222.359" x2="91.677" y2="222.359"/>
		
			<line fill="none" stroke="#FFFFFF" stroke-linecap="round" stroke-linejoin="round" stroke-miterlimit="10" x1="91.903" y1="225.688" x2="89.706" y2="225.688"/>
		<polyline fill="none" stroke="#FFFFFF" stroke-linecap="round" stroke-linejoin="round" stroke-miterlimit="10" points="
			87.695,223.491 90.838,223.491 91.261,224.363 		"/>
	</g>
	
		<line fill="none" stroke="#FFFFFF" stroke-linecap="round" stroke-linejoin="round" stroke-miterlimit="10" x1="83.575" y1="219.208" x2="95.008" y2="219.208"/>
	
		<circle fill="none" stroke="#FFFFFF" stroke-linecap="round" stroke-linejoin="round" stroke-miterlimit="10" cx="86.778" cy="215.91" r="0.192"/>
	
		<circle fill="none" stroke="#FFFFFF" stroke-linecap="round" stroke-linejoin="round" stroke-miterlimit="10" cx="89.478" cy="215.91" r="0.192"/>
	
		<circle fill="none" stroke="#FFFFFF" stroke-linecap="round" stroke-linejoin="round" stroke-miterlimit="10" cx="92.178" cy="215.91" r="0.192"/>
</g>
<g>
	
		<circle fill="none" stroke="#FFFFFF" stroke-width="2" stroke-linecap="round" stroke-linejoin="round" stroke-miterlimit="10" cx="89.274" cy="120.866" r="10.471"/>
	<path fill="none" stroke="#FFFFFF" stroke-width="2" stroke-linecap="round" stroke-linejoin="round" stroke-miterlimit="10" d="
		M89.274,116.02c-2.672,0-4.846,2.174-4.846,4.846"/>
	
		<polygon fill="none" stroke="#FFFFFF" stroke-width="2" stroke-linecap="round" stroke-linejoin="round" stroke-miterlimit="10" points="
		113.315,138.087 65.338,138.087 65.268,103.645 113.245,103.645 	"/>
	<path fill="none" stroke="#FFFFFF" stroke-width="2" stroke-linecap="round" stroke-linejoin="round" stroke-miterlimit="10" d="
		M60.838,120.875l-0.07-17.221c-0.002-1.194,0.47-2.341,1.315-3.187c0.844-0.846,1.99-1.322,3.185-1.322h47.977
		c2.482,0,4.495,2.009,4.5,4.491l0.07,17.221"/>
	
		<line fill="none" stroke="#FFFFFF" stroke-width="2" stroke-linecap="round" stroke-linejoin="round" stroke-miterlimit="10" x1="97.565" y1="144.837" x2="81.088" y2="144.837"/>
	
		<rect x="83.338" y="151.587" fill="none" stroke="#FFFFFF" stroke-width="2" stroke-linecap="round" stroke-linejoin="round" stroke-miterlimit="10" width="11.977" height="15.21"/>
</g>
</svg>
