<?xml version="1.0" encoding="utf-8"?>
<!-- Generator: Adobe Illustrator 24.0.0, SVG Export Plug-In . SVG Version: 6.00 Build 0)  -->
<svg version="1.1" id="Laag_1" xmlns="http://www.w3.org/2000/svg" xmlns:xlink="http://www.w3.org/1999/xlink" x="0px" y="0px"
	 viewBox="0 0 178.583 277.795" enable-background="new 0 0 178.583 277.795" xml:space="preserve">
<path fill="#F07D17" d="M164.409,277.795H14.173C6.346,277.795,0,271.45,0,263.622V14.173C0,6.346,6.346,0,14.173,0h150.236
	c7.828,0,14.173,6.346,14.173,14.173v249.449C178.583,271.45,172.237,277.795,164.409,277.795z"/>
<g>
	
		<circle fill="none" stroke="#FFFFFF" stroke-linecap="round" stroke-linejoin="round" stroke-miterlimit="10" cx="85.97" cy="224.898" r="2.328"/>
	<path fill="none" stroke="#FFFFFF" stroke-linecap="round" stroke-linejoin="round" stroke-miterlimit="10" d="M89.261,228.997
		l0.125-0.125c0.472-0.472,1.045-0.853,1.692-1.018c0.643-0.163,1.223-0.475,1.693-0.945c1.81-1.81,1.304-5.25-1.129-7.683
		c-2.434-2.433-5.873-2.939-7.683-1.129c-0.47,0.47-0.781,1.049-0.945,1.693c-0.165,0.647-0.545,1.22-1.018,1.692l-0.125,0.125
		c-0.843,0.843-2.009,1.231-3.2,1.185c-1.726-0.066-3.336,0.461-4.506,1.631c-2.641,2.641-2.033,7.531,1.358,10.922
		c3.391,3.391,8.281,3.999,10.922,1.358c1.169-1.169,1.697-2.78,1.631-4.506C88.03,231.007,88.418,229.84,89.261,228.997z"/>
	<path fill="none" stroke="#FFFFFF" stroke-linecap="round" stroke-linejoin="round" stroke-miterlimit="10" d="M75.756,226.014
		c-1.73,1.73-1.108,5.275,1.358,7.741"/>
	
		<line fill="none" stroke="#FFFFFF" stroke-linecap="round" stroke-linejoin="round" stroke-miterlimit="10" x1="78.205" y1="228.061" x2="82.808" y2="232.663"/>
	<polyline fill="none" stroke="#FFFFFF" stroke-linecap="round" stroke-linejoin="round" stroke-miterlimit="10" points="
		81.853,231.709 80.58,232.982 77.887,230.288 79.16,229.016 	"/>
	<polygon fill="none" stroke="#FFFFFF" stroke-linecap="round" stroke-linejoin="round" stroke-miterlimit="10" points="
		100.24,213.784 97.085,210.628 102.719,206.081 104.788,208.149 	"/>
	
		<line fill="none" stroke="#FFFFFF" stroke-linecap="round" stroke-linejoin="round" stroke-miterlimit="10" x1="104.118" y1="211.829" x2="103.464" y2="212.659"/>
	
		<line fill="none" stroke="#FFFFFF" stroke-linecap="round" stroke-linejoin="round" stroke-miterlimit="10" x1="106.06" y1="209.422" x2="105.398" y2="210.243"/>
	
		<line fill="none" stroke="#FFFFFF" stroke-linecap="round" stroke-linejoin="round" stroke-miterlimit="10" x1="102.176" y1="214.236" x2="101.513" y2="215.057"/>
	
		<line fill="none" stroke="#FFFFFF" stroke-linecap="round" stroke-linejoin="round" stroke-miterlimit="10" x1="99.04" y1="206.751" x2="98.21" y2="207.405"/>
	
		<line fill="none" stroke="#FFFFFF" stroke-linecap="round" stroke-linejoin="round" stroke-miterlimit="10" x1="101.447" y1="204.808" x2="100.625" y2="205.471"/>
	
		<line fill="none" stroke="#FFFFFF" stroke-linecap="round" stroke-linejoin="round" stroke-miterlimit="10" x1="96.633" y1="208.693" x2="95.812" y2="209.356"/>
	
		<line fill="none" stroke="#FFFFFF" stroke-linecap="round" stroke-linejoin="round" stroke-miterlimit="10" x1="80.506" y1="230.362" x2="101.208" y2="209.661"/>
	
		<line fill="none" stroke="#FFFFFF" stroke-linecap="round" stroke-linejoin="round" stroke-miterlimit="10" x1="81.779" y1="231.635" x2="99.935" y2="213.479"/>
	
		<line fill="none" stroke="#FFFFFF" stroke-linecap="round" stroke-linejoin="round" stroke-miterlimit="10" x1="79.234" y1="229.089" x2="97.39" y2="210.934"/>
</g>
<g>
	<polyline fill="none" stroke="#FFFFFF" stroke-linecap="round" stroke-linejoin="round" stroke-miterlimit="10" points="
		40.583,229.744 40.583,234.244 42.383,234.244 42.383,229.744 	"/>
	<polyline fill="none" stroke="#FFFFFF" stroke-linecap="round" stroke-linejoin="round" stroke-miterlimit="10" points="
		51.383,229.744 51.383,234.244 53.183,234.244 53.183,229.744 	"/>
	<polyline fill="none" stroke="#FFFFFF" stroke-linecap="round" stroke-linejoin="round" stroke-miterlimit="10" points="
		29.783,229.459 29.783,234.244 31.583,234.244 31.583,229.459 	"/>
	<polyline fill="none" stroke="#FFFFFF" stroke-linecap="round" stroke-linejoin="round" stroke-miterlimit="10" points="
		29.783,224.959 29.783,220.459 27.083,220.459 27.083,227.659 55.883,227.659 55.883,220.459 53.183,220.459 53.183,224.959 	"/>
	
		<line fill="none" stroke="#FFFFFF" stroke-linecap="round" stroke-linejoin="round" stroke-miterlimit="10" x1="33.264" y1="224.959" x2="33.264" y2="222.259"/>
	
		<line fill="none" stroke="#FFFFFF" stroke-linecap="round" stroke-linejoin="round" stroke-miterlimit="10" x1="35.964" y1="224.959" x2="35.964" y2="222.259"/>
	
		<line fill="none" stroke="#FFFFFF" stroke-linecap="round" stroke-linejoin="round" stroke-miterlimit="10" x1="38.664" y1="224.959" x2="38.664" y2="222.259"/>
	
		<line fill="none" stroke="#FFFFFF" stroke-linecap="round" stroke-linejoin="round" stroke-miterlimit="10" x1="41.364" y1="224.959" x2="41.364" y2="222.259"/>
	
		<line fill="none" stroke="#FFFFFF" stroke-linecap="round" stroke-linejoin="round" stroke-miterlimit="10" x1="44.064" y1="224.959" x2="44.064" y2="222.259"/>
	
		<line fill="none" stroke="#FFFFFF" stroke-linecap="round" stroke-linejoin="round" stroke-miterlimit="10" x1="46.764" y1="224.959" x2="46.764" y2="222.259"/>
	
		<line fill="none" stroke="#FFFFFF" stroke-linecap="round" stroke-linejoin="round" stroke-miterlimit="10" x1="49.464" y1="224.959" x2="49.464" y2="222.259"/>
	
		<line fill="none" stroke="#FFFFFF" stroke-linecap="round" stroke-linejoin="round" stroke-miterlimit="10" x1="29.783" y1="221.359" x2="29.783" y2="215.059"/>
	
		<line fill="none" stroke="#FFFFFF" stroke-linecap="round" stroke-linejoin="round" stroke-miterlimit="10" x1="29.783" y1="224.959" x2="53.183" y2="224.959"/>
	
		<line fill="none" stroke="#FFFFFF" stroke-linecap="round" stroke-linejoin="round" stroke-miterlimit="10" x1="29.783" y1="222.259" x2="53.183" y2="222.259"/>
	
		<line fill="none" stroke="#FFFFFF" stroke-linecap="round" stroke-linejoin="round" stroke-miterlimit="10" x1="53.183" y1="221.359" x2="53.183" y2="215.059"/>
	
		<line fill="none" stroke="#FFFFFF" stroke-linecap="round" stroke-linejoin="round" stroke-miterlimit="10" x1="28.645" y1="217.759" x2="54.083" y2="217.759"/>
	
		<line fill="none" stroke="#FFFFFF" stroke-linecap="round" stroke-linejoin="round" stroke-miterlimit="10" x1="28.645" y1="215.059" x2="54.083" y2="215.059"/>
</g>
<g>
	<text transform="matrix(1 0 0 1 120.9675 252.3286)" fill="#FFFFFF" font-family="'Montserrat-Regular'" font-size="8px">Trompet</text>
</g>
<g>
	<text transform="matrix(1 0 0 1 30.0588 252.3288)" fill="#FFFFFF" font-family="'Montserrat-Regular'" font-size="8px">Piano</text>
</g>
<g>
	<text transform="matrix(1 0 0 1 77.2659 252.3291)" fill="#FFFFFF" font-family="'Montserrat-Regular'" font-size="8px">Gitaar</text>
</g>
<g>
	
		<circle fill="none" stroke="#FFFFFF" stroke-linecap="round" stroke-linejoin="round" stroke-miterlimit="10" cx="156.427" cy="40.364" r="1.74"/>
	
		<circle fill="none" stroke="#FFFFFF" stroke-linecap="round" stroke-linejoin="round" stroke-miterlimit="10" cx="149.275" cy="36.835" r="1.836"/>
	
		<circle fill="none" stroke="#FFFFFF" stroke-linecap="round" stroke-linejoin="round" stroke-miterlimit="10" cx="143.198" cy="36.835" r="1.836"/>
	<polyline fill="none" stroke="#FFFFFF" stroke-linecap="round" stroke-linejoin="round" stroke-miterlimit="10" points="
		158.043,39.72 155.262,32.744 157.893,33.215 	"/>
	
		<circle fill="none" stroke="#FFFFFF" stroke-linecap="round" stroke-linejoin="round" stroke-miterlimit="10" cx="140.569" cy="26.759" r="1.681"/>
	<polyline fill="none" stroke="#FFFFFF" stroke-linecap="round" stroke-linejoin="round" stroke-miterlimit="10" points="
		142.131,27.38 144.814,20.64 146.347,22.717 	"/>
	<polyline fill="none" stroke="#FFFFFF" stroke-linecap="round" stroke-linejoin="round" stroke-miterlimit="10" points="
		145.033,36.835 145.033,28.182 151.11,28.182 151.11,36.835 	"/>
</g>
<text transform="matrix(1 0 0 1 23.1642 37.5056)"><tspan x="0" y="0" fill="#FFFFFF" font-family="'Montserrat-ExtraBold'" font-size="14px" letter-spacing="1">INSTRUMENT</tspan><tspan x="0" y="18" fill="#FFFFFF" font-family="'Montserrat-Regular'" font-size="10px">Accordeon</tspan></text>
<g>
	
		<line fill="none" stroke="#FFFFFF" stroke-linecap="round" stroke-linejoin="round" stroke-miterlimit="10" x1="138.767" y1="220.428" x2="138.767" y2="218.369"/>
	
		<line fill="none" stroke="#FFFFFF" stroke-linecap="round" stroke-linejoin="round" stroke-miterlimit="10" x1="136.067" y1="220.428" x2="136.067" y2="218.369"/>
	
		<line fill="none" stroke="#FFFFFF" stroke-linecap="round" stroke-linejoin="round" stroke-miterlimit="10" x1="133.367" y1="220.428" x2="133.367" y2="218.369"/>
	
		<line fill="none" stroke="#FFFFFF" stroke-linecap="round" stroke-linejoin="round" stroke-miterlimit="10" x1="133.946" y1="218.369" x2="132.787" y2="218.369"/>
	
		<line fill="none" stroke="#FFFFFF" stroke-linecap="round" stroke-linejoin="round" stroke-miterlimit="10" x1="136.646" y1="218.369" x2="135.487" y2="218.369"/>
	
		<line fill="none" stroke="#FFFFFF" stroke-linecap="round" stroke-linejoin="round" stroke-miterlimit="10" x1="139.346" y1="218.369" x2="138.187" y2="218.369"/>
	
		<rect x="120.698" y="221.328" fill="none" stroke="#FFFFFF" stroke-linecap="round" stroke-linejoin="round" stroke-miterlimit="10" width="1.8" height="3.6"/>
	<polyline fill="none" stroke="#FFFFFF" stroke-linecap="round" stroke-linejoin="round" stroke-miterlimit="10" points="
		132.017,222.228 132.017,220.428 134.717,220.428 134.717,222.217 	"/>
	<polyline fill="none" stroke="#FFFFFF" stroke-linecap="round" stroke-linejoin="round" stroke-miterlimit="10" points="
		134.717,231.562 132.017,231.562 132.017,224.028 	"/>
	<polyline fill="none" stroke="#FFFFFF" stroke-linecap="round" stroke-linejoin="round" stroke-miterlimit="10" points="
		137.417,231.562 134.717,231.562 134.717,224.028 	"/>
	
		<line fill="none" stroke="#FFFFFF" stroke-linecap="round" stroke-linejoin="round" stroke-miterlimit="10" x1="134.717" y1="220.428" x2="137.417" y2="220.428"/>
	<polyline fill="none" stroke="#FFFFFF" stroke-linecap="round" stroke-linejoin="round" stroke-miterlimit="10" points="
		140.117,224.028 140.117,231.562 137.417,231.562 137.417,224.028 	"/>
	<polyline fill="none" stroke="#FFFFFF" stroke-linecap="round" stroke-linejoin="round" stroke-miterlimit="10" points="
		137.417,222.228 137.417,220.428 140.117,220.428 140.117,222.228 	"/>
	<path fill="none" stroke="#FFFFFF" stroke-linecap="round" stroke-linejoin="round" stroke-miterlimit="10" d="M122.498,224.028
		h24.986c2.706,0,5.302,1.075,7.216,2.989l2.378,2.378v-12.535l-2.378,2.378c-1.914,1.914-4.509,2.989-7.216,2.989h-24.986"/>
	<path fill="none" stroke="#FFFFFF" stroke-linecap="round" stroke-linejoin="round" stroke-miterlimit="10" d="M143.261,228.84
		h-14.388c-1.324,0-2.398-1.074-2.398-2.398v-0.016c0-1.324,1.074-2.398,2.398-2.398h14.388c1.324,0,2.398,1.074,2.398,2.398v0.016
		C145.659,227.766,144.585,228.84,143.261,228.84z"/>
</g>
<g>
	
		<line fill="none" stroke="#FFFFFF" stroke-width="2" stroke-linecap="round" stroke-linejoin="round" stroke-miterlimit="10" x1="71.747" y1="100.088" x2="91.346" y2="153.936"/>
	<path fill="none" stroke="#FFFFFF" stroke-width="2" stroke-linecap="round" stroke-linejoin="round" stroke-miterlimit="10" d="
		M105.582,159.916l-9.797-3.566l19.599-53.848l9.797,3.566c3.31,1.205,5.017,4.865,3.812,8.175l-15.236,41.861
		C112.552,159.414,108.892,161.121,105.582,159.916z"/>
	
		<line fill="none" stroke="#FFFFFF" stroke-width="2" stroke-linecap="round" stroke-linejoin="round" stroke-miterlimit="10" x1="91.346" y1="153.936" x2="110.945" y2="100.088"/>
	
		<line fill="none" stroke="#FFFFFF" stroke-width="2" stroke-linecap="round" stroke-linejoin="round" stroke-miterlimit="10" x1="91.346" y1="153.936" x2="91.346" y2="96.632"/>
	
		<line fill="none" stroke="#FFFFFF" stroke-width="2" stroke-linecap="round" stroke-linejoin="round" stroke-miterlimit="10" x1="91.346" y1="153.936" x2="101.297" y2="97.503"/>
	
		<line fill="none" stroke="#FFFFFF" stroke-width="2" stroke-linecap="round" stroke-linejoin="round" stroke-miterlimit="10" x1="91.346" y1="153.936" x2="81.395" y2="97.503"/>
	
		<polygon fill="none" stroke="#FFFFFF" stroke-width="2" stroke-linecap="round" stroke-linejoin="round" stroke-miterlimit="10" points="
		62.222,111.35 55.88,113.658 53.571,107.315 67.247,102.338 86.846,156.186 73.17,161.163 70.861,154.82 77.204,152.512 	"/>
	
		<circle fill="none" stroke="#FFFFFF" stroke-width="2" stroke-linecap="round" stroke-linejoin="round" stroke-miterlimit="10" cx="103.67" cy="152.673" r="1.652"/>
	
		<circle fill="none" stroke="#FFFFFF" stroke-width="2" stroke-linecap="round" stroke-linejoin="round" stroke-miterlimit="10" cx="109.438" cy="149.984" r="1.652"/>
	
		<circle fill="none" stroke="#FFFFFF" stroke-width="2" stroke-linecap="round" stroke-linejoin="round" stroke-miterlimit="10" cx="106.748" cy="144.216" r="1.652"/>
	
		<circle fill="none" stroke="#FFFFFF" stroke-width="2" stroke-linecap="round" stroke-linejoin="round" stroke-miterlimit="10" cx="112.516" cy="141.526" r="1.652"/>
	
		<circle fill="none" stroke="#FFFFFF" stroke-width="2" stroke-linecap="round" stroke-linejoin="round" stroke-miterlimit="10" cx="109.827" cy="135.759" r="1.652"/>
	
		<circle fill="none" stroke="#FFFFFF" stroke-width="2" stroke-linecap="round" stroke-linejoin="round" stroke-miterlimit="10" cx="115.594" cy="133.069" r="1.652"/>
	
		<circle fill="none" stroke="#FFFFFF" stroke-width="2" stroke-linecap="round" stroke-linejoin="round" stroke-miterlimit="10" cx="112.905" cy="127.302" r="1.652"/>
	
		<circle fill="none" stroke="#FFFFFF" stroke-width="2" stroke-linecap="round" stroke-linejoin="round" stroke-miterlimit="10" cx="118.673" cy="124.612" r="1.652"/>
	
		<circle fill="none" stroke="#FFFFFF" stroke-width="2" stroke-linecap="round" stroke-linejoin="round" stroke-miterlimit="10" cx="115.983" cy="118.844" r="1.652"/>
	
		<circle fill="none" stroke="#FFFFFF" stroke-width="2" stroke-linecap="round" stroke-linejoin="round" stroke-miterlimit="10" cx="121.751" cy="116.155" r="1.652"/>
	
		<circle fill="none" stroke="#FFFFFF" stroke-width="2" stroke-linecap="round" stroke-linejoin="round" stroke-miterlimit="10" cx="119.061" cy="110.387" r="1.652"/>
	
		<line fill="none" stroke="#FFFFFF" stroke-width="2" stroke-linecap="round" stroke-linejoin="round" stroke-miterlimit="10" x1="55.88" y1="113.658" x2="53.571" y2="107.315"/>
	
		<polyline fill="none" stroke="#FFFFFF" stroke-width="2" stroke-linecap="round" stroke-linejoin="round" stroke-miterlimit="10" points="
		72.016,157.992 66.493,160.002 49.203,112.497 54.725,110.487 	"/>
	
		<line fill="none" stroke="#FFFFFF" stroke-width="2" stroke-linecap="round" stroke-linejoin="round" stroke-miterlimit="10" x1="75.429" y1="147.808" x2="63.62" y2="152.107"/>
	
		<line fill="none" stroke="#FFFFFF" stroke-width="2" stroke-linecap="round" stroke-linejoin="round" stroke-miterlimit="10" x1="73.12" y1="141.466" x2="61.311" y2="145.764"/>
	
		<line fill="none" stroke="#FFFFFF" stroke-width="2" stroke-linecap="round" stroke-linejoin="round" stroke-miterlimit="10" x1="70.812" y1="135.123" x2="59.003" y2="139.421"/>
	
		<line fill="none" stroke="#FFFFFF" stroke-width="2" stroke-linecap="round" stroke-linejoin="round" stroke-miterlimit="10" x1="68.503" y1="128.78" x2="56.694" y2="133.078"/>
	
		<line fill="none" stroke="#FFFFFF" stroke-width="2" stroke-linecap="round" stroke-linejoin="round" stroke-miterlimit="10" x1="66.194" y1="122.437" x2="54.385" y2="126.735"/>
	
		<line fill="none" stroke="#FFFFFF" stroke-width="2" stroke-linecap="round" stroke-linejoin="round" stroke-miterlimit="10" x1="63.886" y1="116.094" x2="52.077" y2="120.392"/>
</g>
</svg>
