<?xml version="1.0" encoding="utf-8"?>
<!-- Generator: Adobe Illustrator 24.0.0, SVG Export Plug-In . SVG Version: 6.00 Build 0)  -->
<svg version="1.1" id="Laag_1" xmlns="http://www.w3.org/2000/svg" xmlns:xlink="http://www.w3.org/1999/xlink" x="0px" y="0px"
	 viewBox="0 0 178.583 277.795" enable-background="new 0 0 178.583 277.795" xml:space="preserve">
<path fill="#BE8646" d="M164.409,277.795H14.173C6.346,277.795,0,271.45,0,263.622V14.173C0,6.346,6.346,0,14.173,0h150.236
	c7.828,0,14.173,6.346,14.173,14.173v249.449C178.583,271.45,172.237,277.795,164.409,277.795z"/>
<g>
	<polygon fill="none" stroke="#FFFFFF" stroke-linecap="round" stroke-linejoin="round" stroke-miterlimit="10" points="
		146.167,226.87 145.756,229.658 148.543,229.247 	"/>
	
		<line fill="none" stroke="#FFFFFF" stroke-linecap="round" stroke-linejoin="round" stroke-miterlimit="10" x1="147.355" y1="228.059" x2="148.543" y2="226.87"/>
	<path fill="none" stroke="#FFFFFF" stroke-linecap="round" stroke-linejoin="round" stroke-miterlimit="10" d="M143.261,236.253
		v-20.894c0-1.409,1.142-2.551,2.551-2.551h3.085c1.409,0,2.551,1.142,2.551,2.551v20.894"/>
	
		<line fill="none" stroke="#FFFFFF" stroke-linecap="round" stroke-linejoin="round" stroke-miterlimit="10" x1="125.134" y1="236.253" x2="125.134" y2="212.807"/>
	<path fill="none" stroke="#FFFFFF" stroke-linecap="round" stroke-linejoin="round" stroke-miterlimit="10" d="M138.067,208.576
		h2.431v18.506h-2.431c-1.409,0-2.551-1.142-2.551-2.551v-13.403C135.516,209.718,136.658,208.576,138.067,208.576z"/>
	<path fill="none" stroke="#FFFFFF" stroke-linecap="round" stroke-linejoin="round" stroke-miterlimit="10" d="M130.265,227.081
		h-2.431v-18.506h2.431c1.409,0,2.551,1.142,2.551,2.551v13.403C132.816,225.939,131.674,227.081,130.265,227.081z"/>
	
		<rect x="145.434" y="215.507" fill="none" stroke="#FFFFFF" stroke-linecap="round" stroke-linejoin="round" stroke-miterlimit="10" width="3.843" height="2.748"/>
	<path fill="none" stroke="#FFFFFF" stroke-linecap="round" stroke-linejoin="round" stroke-miterlimit="10" d="M147.903,220.056
		h-1.095c-0.759,0-1.374,0.615-1.374,1.374l0,0c0,0.759,0.615,1.374,1.374,1.374h1.095c0.759,0,1.374-0.615,1.374-1.374l0,0
		C149.277,220.671,148.662,220.056,147.903,220.056z"/>
</g>
<g>
	<path fill="none" stroke="#FFFFFF" stroke-width="2" stroke-linecap="round" stroke-linejoin="round" stroke-miterlimit="10" d="
		M89.29,124.826c-5.749,0-10.427-4.678-10.427-10.428s4.678-10.428,10.427-10.428c5.75,0,10.428,4.678,10.428,10.428
		S95.04,124.826,89.29,124.826z"/>
	<path fill="none" stroke="#FFFFFF" stroke-width="2" stroke-linecap="round" stroke-linejoin="round" stroke-miterlimit="10" d="
		M89.29,109.594c-2.648,0-4.802,2.156-4.802,4.803"/>
	<path fill="none" stroke="#FFFFFF" stroke-width="2" stroke-linecap="round" stroke-linejoin="round" stroke-miterlimit="10" d="
		M100.092,158.576H78.491c-3.522,0-6.378-2.856-6.378-6.378v-48.601c0-3.522,2.856-6.378,6.378-6.378h21.601
		c3.522,0,6.378,2.856,6.378,6.378v48.601C106.47,155.72,103.614,158.576,100.092,158.576z"/>
	
		<line fill="none" stroke="#FFFFFF" stroke-width="2" stroke-linecap="round" stroke-linejoin="round" stroke-miterlimit="10" x1="65.363" y1="165.326" x2="65.363" y2="90.469"/>
	
		<line fill="none" stroke="#FFFFFF" stroke-width="2" stroke-linecap="round" stroke-linejoin="round" stroke-miterlimit="10" x1="113.22" y1="90.469" x2="113.22" y2="165.326"/>
	<path fill="none" stroke="#FFFFFF" stroke-width="2" stroke-linecap="round" stroke-linejoin="round" stroke-miterlimit="10" d="
		M95.66,138.04c0-3.512-2.857-6.37-6.369-6.37c-3.512,0-6.369,2.857-6.369,6.37c0,1.934,0.885,3.648,2.25,4.817v6.718h8.238v-6.719
		C94.775,141.688,95.66,139.974,95.66,138.04z"/>
	
		<line fill="none" stroke="#FFFFFF" stroke-width="2" stroke-linecap="round" stroke-linejoin="round" stroke-miterlimit="10" x1="89.291" y1="137.172" x2="89.291" y2="140.127"/>
</g>
<g>
	
		<rect x="81.632" y="211.388" fill="none" stroke="#FFFFFF" stroke-linecap="round" stroke-linejoin="round" stroke-miterlimit="10" width="12.6" height="25.827"/>
	<polyline fill="none" stroke="#FFFFFF" stroke-linecap="round" stroke-linejoin="round" stroke-miterlimit="10" points="
		102.351,237.215 102.351,205.645 94.232,205.645 	"/>
	
		<line fill="none" stroke="#FFFFFF" stroke-linecap="round" stroke-linejoin="round" stroke-miterlimit="10" x1="87.932" y1="211.388" x2="87.932" y2="237.215"/>
	
		<rect x="85.493" y="206.545" fill="none" stroke="#FFFFFF" stroke-linecap="round" stroke-linejoin="round" stroke-miterlimit="10" width="4.878" height="2.144"/>
	<polygon fill="none" stroke="#FFFFFF" stroke-linecap="round" stroke-linejoin="round" stroke-miterlimit="10" points="
		99.651,222.794 98.291,220.964 96.932,222.794 	"/>
	<polygon fill="none" stroke="#FFFFFF" stroke-linecap="round" stroke-linejoin="round" stroke-miterlimit="10" points="
		96.932,225.494 98.291,227.324 99.651,225.494 	"/>
	
		<line fill="none" stroke="#FFFFFF" stroke-linecap="round" stroke-linejoin="round" stroke-miterlimit="10" x1="76.232" y1="237.215" x2="76.232" y2="205.645"/>
</g>
<g>
	<text transform="matrix(1 0 0 1 116.3358 252.3286)" fill="#FFFFFF" font-family="'Montserrat-Regular'" font-size="8px">OV-poortje</text>
</g>
<g>
	<text transform="matrix(1 0 0 1 19.575 252.3287)" fill="#FFFFFF" font-family="'Montserrat-Regular'" font-size="8px">Schuifdeur</text>
</g>
<g>
	<text transform="matrix(1 0 0 1 73.7504 252.3291)" fill="#FFFFFF" font-family="'Montserrat-Regular'" font-size="8px">Liftdeur</text>
</g>
<text transform="matrix(1 0 0 1 23.1643 37.5056)"><tspan x="0" y="0" fill="#FFFFFF" font-family="'Montserrat-ExtraBold'" font-size="14px" letter-spacing="1">DEUREN</tspan><tspan x="0" y="18" fill="#FFFFFF" font-family="'Montserrat-Regular'" font-size="10px">Deurslot</tspan></text>
<g>
	
		<rect x="139.225" y="19.842" fill="none" stroke="#FFFFFF" stroke-linecap="round" stroke-linejoin="round" stroke-miterlimit="10" width="13.497" height="24.915"/>
	
		<circle fill="none" stroke="#FFFFFF" stroke-linecap="round" stroke-linejoin="round" stroke-miterlimit="10" cx="149.304" cy="34.041" r="0.645"/>
	
		<line fill="none" stroke="#FFFFFF" stroke-linecap="round" stroke-linejoin="round" stroke-miterlimit="10" x1="149.304" y1="37.836" x2="142.643" y2="37.836"/>
	
		<rect x="142.643" y="23.176" fill="none" stroke="#FFFFFF" stroke-linecap="round" stroke-linejoin="round" stroke-miterlimit="10" width="6.662" height="7.07"/>
</g>
<g>
	
		<rect x="43.183" y="212.017" fill="none" stroke="#FFFFFF" stroke-linecap="round" stroke-linejoin="round" stroke-miterlimit="10" width="7.036" height="27.627"/>
	<polygon fill="none" stroke="#FFFFFF" stroke-linecap="round" stroke-linejoin="round" stroke-miterlimit="10" points="
		45.883,226.512 47.713,225.152 45.883,223.792 	"/>
	
		<rect x="32.547" y="212.017" fill="none" stroke="#FFFFFF" stroke-linecap="round" stroke-linejoin="round" stroke-miterlimit="10" width="7.036" height="27.627"/>
	<polygon fill="none" stroke="#FFFFFF" stroke-linecap="round" stroke-linejoin="round" stroke-miterlimit="10" points="
		36.883,223.792 35.052,225.152 36.883,226.512 	"/>
	<polyline fill="none" stroke="#FFFFFF" stroke-linecap="round" stroke-linejoin="round" stroke-miterlimit="10" points="
		52.018,212.017 53.736,212.017 53.736,239.644 52.018,239.644 	"/>
	<polyline fill="none" stroke="#FFFFFF" stroke-linecap="round" stroke-linejoin="round" stroke-miterlimit="10" points="
		56.436,239.644 56.436,209.317 45.883,209.317 	"/>
	<polyline fill="none" stroke="#FFFFFF" stroke-linecap="round" stroke-linejoin="round" stroke-miterlimit="10" points="
		30.747,212.017 29.029,212.017 29.029,239.644 30.747,239.644 	"/>
	<polyline fill="none" stroke="#FFFFFF" stroke-linecap="round" stroke-linejoin="round" stroke-miterlimit="10" points="
		26.329,239.644 26.329,209.317 36.883,209.317 	"/>
	<path fill="none" stroke="#FFFFFF" stroke-linecap="round" stroke-linejoin="round" stroke-miterlimit="10" d="M41.907,210.389
		h-1.049c-0.704,0-1.276-0.571-1.276-1.276v-0.868h3.6v0.868C43.183,209.818,42.611,210.389,41.907,210.389z"/>
</g>
</svg>
