<?xml version="1.0" encoding="utf-8"?>
<!-- Generator: Adobe Illustrator 24.0.0, SVG Export Plug-In . SVG Version: 6.00 Build 0)  -->
<svg version="1.1" id="Laag_1" xmlns="http://www.w3.org/2000/svg" xmlns:xlink="http://www.w3.org/1999/xlink" x="0px" y="0px"
	 viewBox="0 0 178.583 277.795" enable-background="new 0 0 178.583 277.795" xml:space="preserve">
<path fill="#2F52A0" d="M164.409,277.795H14.173C6.346,277.795,0,271.45,0,263.622V14.173C0,6.346,6.346,0,14.173,0h150.236
	c7.828,0,14.173,6.346,14.173,14.173v249.449C178.583,271.45,172.237,277.795,164.409,277.795z"/>
<circle fill="none" stroke="#FFFFFF" stroke-linecap="round" stroke-linejoin="round" stroke-miterlimit="10" cx="137.732" cy="223.583" r="2.734"/>
<path fill="none" stroke="#FFFFFF" stroke-linecap="round" stroke-linejoin="round" stroke-miterlimit="10" d="M142.715,223.582
	c0-1.274-0.485-2.466-1.348-3.391V215.9h-7.269v4.292c-0.863,0.924-1.348,2.116-1.348,3.39c0,1.274,0.485,2.466,1.348,3.39v3.392
	h7.269v-3.392C142.23,226.049,142.715,224.857,142.715,223.582z"/>
<polyline fill="none" stroke="#FFFFFF" stroke-linecap="round" stroke-linejoin="round" stroke-miterlimit="10" points="
	140.466,230.365 140.466,236.222 134.998,236.222 134.998,230.365 "/>
<polyline fill="none" stroke="#FFFFFF" stroke-linecap="round" stroke-linejoin="round" stroke-miterlimit="10" points="
	134.998,215.9 134.998,211.882 140.466,211.882 140.466,215.9 "/>
<path fill="none" stroke="#FFFFFF" stroke-linecap="round" stroke-linejoin="round" stroke-miterlimit="10" d="M139.567,211.882
	v-4.124c0-0.704-0.571-1.276-1.276-1.276h-1.118c-0.704,0-1.276,0.571-1.276,1.276v4.124"/>
<path fill="none" stroke="#FFFFFF" stroke-linecap="round" stroke-linejoin="round" stroke-miterlimit="10" d="M130.05,234.422
	v-28.988c0-1.409,1.142-2.551,2.551-2.551h10.263c1.409,0,2.551,1.142,2.551,2.551v28.988"/>
<line fill="none" stroke="#FFFFFF" stroke-linecap="round" stroke-linejoin="round" stroke-miterlimit="10" x1="135.932" y1="239.433" x2="135.932" y2="236.222"/>
<line fill="none" stroke="#FFFFFF" stroke-linecap="round" stroke-linejoin="round" stroke-miterlimit="10" x1="139.532" y1="236.222" x2="139.532" y2="239.433"/>
<g>
	<text transform="matrix(1 0 0 1 122.115 252.3286)" fill="#FFFFFF" font-family="'Montserrat-Regular'" font-size="8px">Benzine</text>
</g>
<g>
	<g>
		<path fill="none" stroke="#FFFFFF" stroke-linecap="round" stroke-linejoin="round" stroke-miterlimit="10" d="M155.322,37.706
			h-17.237c-1.096,0-1.984-0.888-1.984-1.984v-4.069c0-1.096,0.888-1.984,1.984-1.984h17.237c1.096,0,1.984,0.888,1.984,1.984v4.069
			C157.306,36.817,156.418,37.706,155.322,37.706z"/>
		<path fill="none" stroke="#FFFFFF" stroke-linecap="round" stroke-linejoin="round" stroke-miterlimit="10" d="M151.706,34.452
			v0.453h2.8v-2.437h-0.816C152.595,32.468,151.706,33.357,151.706,34.452z"/>
		<path fill="none" stroke="#FFFFFF" stroke-linecap="round" stroke-linejoin="round" stroke-miterlimit="10" d="M141.701,34.452
			v0.453h-2.8v-2.437h0.816C140.813,32.468,141.701,33.357,141.701,34.452z"/>
		
			<line fill="none" stroke="#FFFFFF" stroke-linecap="round" stroke-linejoin="round" stroke-miterlimit="10" x1="157.306" y1="28.268" x2="159.143" y2="28.268"/>
		
			<line fill="none" stroke="#FFFFFF" stroke-linecap="round" stroke-linejoin="round" stroke-miterlimit="10" x1="134.264" y1="28.268" x2="136.101" y2="28.268"/>
		<polyline fill="none" stroke="#FFFFFF" stroke-linecap="round" stroke-linejoin="round" stroke-miterlimit="10" points="
			152.085,40.506 155.322,40.506 155.322,37.706 		"/>
		<polyline fill="none" stroke="#FFFFFF" stroke-linecap="round" stroke-linejoin="round" stroke-miterlimit="10" points="
			141.322,40.506 138.085,40.506 138.085,37.706 		"/>
		<path fill="none" stroke="#FFFFFF" stroke-linecap="round" stroke-linejoin="round" stroke-miterlimit="10" d="M154.775,29.668
			l-1.623-3.713c-0.316-0.723-1.03-1.19-1.818-1.19h-9.261c-0.789,0-1.502,0.467-1.818,1.19l-1.623,3.713"/>
	</g>
</g>
<g>
	
		<circle fill="none" stroke="#FFFFFF" stroke-linecap="round" stroke-linejoin="round" stroke-miterlimit="10" cx="89.348" cy="219.094" r="3.204"/>
	
		<circle fill="none" stroke="#FFFFFF" stroke-linecap="round" stroke-linejoin="round" stroke-miterlimit="10" cx="89.348" cy="231.598" r="1.543"/>
	<path fill="none" stroke="#FFFFFF" stroke-linecap="round" stroke-linejoin="round" stroke-miterlimit="10" d="M91.897,213.187
		h-5.212c-0.556,0-1.103,0.174-1.544,0.513c-1.626,1.247-2.676,3.206-2.676,5.414c0,2.174,1.019,4.106,2.604,5.355
		c0.444,0.35,1,0.529,1.565,0.529h5.316c0.565,0,1.121-0.179,1.565-0.529c1.584-1.249,2.604-3.181,2.604-5.355
		c0-2.207-1.05-4.167-2.676-5.414C93,213.361,92.453,213.187,91.897,213.187z"/>
	<polyline fill="none" stroke="#FFFFFF" stroke-linecap="round" stroke-linejoin="round" stroke-miterlimit="10" points="
		93.749,237.597 93.749,227.697 84.834,227.697 84.834,237.597 	"/>
	
		<line fill="none" stroke="#FFFFFF" stroke-linecap="round" stroke-linejoin="round" stroke-miterlimit="10" x1="89.348" y1="237.597" x2="89.348" y2="234.293"/>
	<polyline fill="none" stroke="#FFFFFF" stroke-linecap="round" stroke-linejoin="round" stroke-miterlimit="10" points="
		89.348,234.293 91.184,235.945 91.184,237.597 	"/>
	
		<line fill="none" stroke="#FFFFFF" stroke-linecap="round" stroke-linejoin="round" stroke-miterlimit="10" x1="87.263" y1="237.597" x2="89.348" y2="234.293"/>
	
		<line fill="none" stroke="#FFFFFF" stroke-linecap="round" stroke-linejoin="round" stroke-miterlimit="10" x1="93.749" y1="231.598" x2="97.918" y2="231.598"/>
	
		<line fill="none" stroke="#FFFFFF" stroke-linecap="round" stroke-linejoin="round" stroke-miterlimit="10" x1="80.665" y1="231.598" x2="84.834" y2="231.598"/>
	<path fill="none" stroke="#FFFFFF" stroke-linecap="round" stroke-linejoin="round" stroke-miterlimit="10" d="M97.918,237.597
		v-26.221c0-0.619-0.223-1.218-0.628-1.686c-1.943-2.236-4.802-3.654-7.998-3.654c-3.195,0-6.055,1.418-7.998,3.654
		c-0.406,0.467-0.628,1.067-0.628,1.686v26.221"/>
</g>
<g>
	
		<circle fill="none" stroke="#FFFFFF" stroke-linecap="round" stroke-linejoin="round" stroke-miterlimit="10" cx="39.383" cy="219.871" r="2.328"/>
	
		<circle fill="none" stroke="#FFFFFF" stroke-linecap="round" stroke-linejoin="round" stroke-miterlimit="10" cx="39.383" cy="226.328" r="2.328"/>
	
		<circle fill="none" stroke="#FFFFFF" stroke-linecap="round" stroke-linejoin="round" stroke-miterlimit="10" cx="39.383" cy="213.415" r="2.328"/>
	
		<rect x="35.254" y="209.286" fill="none" stroke="#FFFFFF" stroke-linecap="round" stroke-linejoin="round" stroke-miterlimit="10" width="8.257" height="21.17"/>
	<path fill="none" stroke="#FFFFFF" stroke-linecap="round" stroke-linejoin="round" stroke-miterlimit="10" d="M39.383,234.056
		L39.383,234.056c-4.268,0-7.728-3.46-7.728-7.728v-12.913c0-4.268,3.46-7.728,7.728-7.728h0c4.268,0,7.728,3.46,7.728,7.728v12.913
		C47.111,230.596,43.651,234.056,39.383,234.056z"/>
	
		<line fill="none" stroke="#FFFFFF" stroke-linecap="round" stroke-linejoin="round" stroke-miterlimit="10" x1="37.054" y1="202.986" x2="41.711" y2="202.986"/>
	
		<line fill="none" stroke="#FFFFFF" stroke-linecap="round" stroke-linejoin="round" stroke-miterlimit="10" x1="37.054" y1="234.056" x2="37.054" y2="237.497"/>
	
		<line fill="none" stroke="#FFFFFF" stroke-linecap="round" stroke-linejoin="round" stroke-miterlimit="10" x1="41.711" y1="233.698" x2="41.711" y2="237.497"/>
</g>
<text transform="matrix(1 0 0 1 23.1642 37.5056)"><tspan x="0" y="0" fill="#FFFFFF" font-family="'Montserrat-ExtraBold'" font-size="14px" letter-spacing="1">VERKEER</tspan><tspan x="0" y="18" fill="#FFFFFF" font-family="'Montserrat-Regular'" font-size="10px">Slagboom</tspan></text>
<g>
	<text transform="matrix(1 0 0 1 21.1707 252.3288)" fill="#FFFFFF" font-family="'Montserrat-Regular'" font-size="8px">Stoplicht</text>
</g>
<g>
	<text transform="matrix(1 0 0 1 69.7034 252.3291)" fill="#FFFFFF" font-family="'Montserrat-Regular'" font-size="8px">Stopknop</text>
</g>
<g>
	
		<line fill="none" stroke="#FFFFFF" stroke-width="2" stroke-linecap="round" stroke-linejoin="round" stroke-miterlimit="10" x1="122.802" y1="159.295" x2="122.802" y2="127.421"/>
	
		<rect x="119.427" y="113.921" fill="none" stroke="#FFFFFF" stroke-width="2" stroke-linecap="round" stroke-linejoin="round" stroke-miterlimit="10" width="6.75" height="13.5"/>
	
		<rect x="52.405" y="113.921" fill="none" stroke="#FFFFFF" stroke-width="2" stroke-linecap="round" stroke-linejoin="round" stroke-miterlimit="10" width="4.5" height="13.5"/>
	
		<rect x="126.177" y="117.296" fill="none" stroke="#FFFFFF" stroke-width="2" stroke-linecap="round" stroke-linejoin="round" stroke-miterlimit="10" width="6.75" height="6.75"/>
	
		<rect x="67.677" y="117.296" fill="none" stroke="#FFFFFF" stroke-width="2" stroke-linecap="round" stroke-linejoin="round" stroke-miterlimit="10" width="51.75" height="6.75"/>
	
		<line fill="none" stroke="#FFFFFF" stroke-width="2" stroke-linecap="round" stroke-linejoin="round" stroke-miterlimit="10" x1="81.177" y1="117.296" x2="81.177" y2="124.046"/>
	
		<line fill="none" stroke="#FFFFFF" stroke-width="2" stroke-linecap="round" stroke-linejoin="round" stroke-miterlimit="10" x1="94.677" y1="117.296" x2="94.677" y2="124.046"/>
	
		<line fill="none" stroke="#FFFFFF" stroke-width="2" stroke-linecap="round" stroke-linejoin="round" stroke-miterlimit="10" x1="108.177" y1="117.296" x2="108.177" y2="124.046"/>
	
		<line fill="none" stroke="#FFFFFF" stroke-width="2" stroke-linecap="round" stroke-linejoin="round" stroke-miterlimit="10" x1="47.905" y1="159.295" x2="47.905" y2="108.296"/>
	
		<line fill="none" stroke="#FFFFFF" stroke-width="2" stroke-linecap="round" stroke-linejoin="round" stroke-miterlimit="10" x1="61.405" y1="159.295" x2="61.405" y2="108.296"/>
	
		<rect x="45.655" y="101.546" fill="none" stroke="#FFFFFF" stroke-width="2" stroke-linecap="round" stroke-linejoin="round" stroke-miterlimit="10" width="18" height="6.75"/>
</g>
</svg>
