<?xml version="1.0" encoding="utf-8"?>
<!-- Generator: Adobe Illustrator 24.0.0, SVG Export Plug-In . SVG Version: 6.00 Build 0)  -->
<svg version="1.1" id="Laag_1" xmlns="http://www.w3.org/2000/svg" xmlns:xlink="http://www.w3.org/1999/xlink" x="0px" y="0px"
	 viewBox="0 0 178.583 277.795" enable-background="new 0 0 178.583 277.795" xml:space="preserve">
<path fill="#009E4D" d="M164.409,277.795H14.173C6.346,277.795,0,271.45,0,263.622V14.173C0,6.346,6.346,0,14.173,0h150.236
	c7.828,0,14.173,6.346,14.173,14.173v249.449C178.583,271.45,172.237,277.795,164.409,277.795z"/>
<g>
	<text transform="matrix(1 0 0 1 115.8913 252.3286)" fill="#FFFFFF" font-family="'Montserrat-Regular'" font-size="8px">McDonalds</text>
</g>
<g>
	<text transform="matrix(1 0 0 1 22.159 252.3288)" fill="#FFFFFF" font-family="'Montserrat-Regular'" font-size="8px">Telefoon</text>
</g>
<g>
	<text transform="matrix(1 0 0 1 75.1555 252.3291)" fill="#FFFFFF" font-family="'Montserrat-Regular'" font-size="8px">Pinnen</text>
</g>
<g>
	
		<circle fill="none" stroke="#FFFFFF" stroke-width="1.2405" stroke-linecap="round" stroke-linejoin="round" stroke-miterlimit="10" cx="140.594" cy="23.792" r="1.667"/>
	
		<circle fill="none" stroke="#FFFFFF" stroke-width="1.2405" stroke-linecap="round" stroke-linejoin="round" stroke-miterlimit="10" cx="146.728" cy="23.792" r="1.667"/>
	
		<circle fill="none" stroke="#FFFFFF" stroke-width="1.2405" stroke-linecap="round" stroke-linejoin="round" stroke-miterlimit="10" cx="152.862" cy="23.792" r="1.667"/>
	
		<circle fill="none" stroke="#FFFFFF" stroke-width="1.2405" stroke-linecap="round" stroke-linejoin="round" stroke-miterlimit="10" cx="140.594" cy="29.925" r="1.667"/>
	
		<circle fill="none" stroke="#FFFFFF" stroke-width="1.2405" stroke-linecap="round" stroke-linejoin="round" stroke-miterlimit="10" cx="146.728" cy="29.925" r="1.667"/>
	
		<circle fill="none" stroke="#FFFFFF" stroke-width="1.2405" stroke-linecap="round" stroke-linejoin="round" stroke-miterlimit="10" cx="152.862" cy="29.925" r="1.667"/>
	
		<circle fill="none" stroke="#FFFFFF" stroke-width="1.2405" stroke-linecap="round" stroke-linejoin="round" stroke-miterlimit="10" cx="140.594" cy="36.059" r="1.667"/>
	
		<circle fill="none" stroke="#FFFFFF" stroke-width="1.2405" stroke-linecap="round" stroke-linejoin="round" stroke-miterlimit="10" cx="146.728" cy="36.059" r="1.667"/>
	
		<circle fill="none" stroke="#FFFFFF" stroke-width="1.2405" stroke-linecap="round" stroke-linejoin="round" stroke-miterlimit="10" cx="146.728" cy="42.193" r="1.667"/>
	
		<circle fill="none" stroke="#FFFFFF" stroke-width="1.2405" stroke-linecap="round" stroke-linejoin="round" stroke-miterlimit="10" cx="152.862" cy="36.059" r="1.667"/>
	
		<line fill="none" stroke="#FFFFFF" stroke-width="1.2405" stroke-linecap="round" stroke-linejoin="round" stroke-miterlimit="10" x1="151.195" y1="42.193" x2="154.529" y2="42.193"/>
	
		<line fill="none" stroke="#FFFFFF" stroke-width="1.2405" stroke-linecap="round" stroke-linejoin="round" stroke-miterlimit="10" x1="138.928" y1="42.193" x2="142.261" y2="42.193"/>
</g>
<text transform="matrix(1 0 0 1 23.1642 37.5056)"><tspan x="0" y="0" fill="#FFFFFF" font-family="'Montserrat-ExtraBold'" font-size="14px" letter-spacing="1">CIJFERINPUT</tspan><tspan x="0" y="18" fill="#FFFFFF" font-family="'Montserrat-Regular'" font-size="10px">Cijferslot</tspan></text>
<g>
	
		<line fill="none" stroke="#FFFFFF" stroke-width="2" stroke-linecap="round" stroke-linejoin="round" stroke-miterlimit="10" x1="114.264" y1="161.683" x2="114.264" y2="165.671"/>
	
		<line fill="none" stroke="#FFFFFF" stroke-width="2" stroke-linecap="round" stroke-linejoin="round" stroke-miterlimit="10" x1="114.264" y1="149.969" x2="114.264" y2="154.079"/>
	
		<line fill="none" stroke="#FFFFFF" stroke-width="2" stroke-linecap="round" stroke-linejoin="round" stroke-miterlimit="10" x1="114.264" y1="138.377" x2="114.264" y2="142.487"/>
	
		<polyline fill="none" stroke="#FFFFFF" stroke-width="2" stroke-linecap="round" stroke-linejoin="round" stroke-miterlimit="10" points="
		114.264,173.153 114.264,179.317 64.319,179.317 64.319,124.731 114.264,124.731 114.264,130.895 	"/>
	
		<rect x="72.538" y="137.059" fill="none" stroke="#FFFFFF" stroke-width="2" stroke-linecap="round" stroke-linejoin="round" stroke-miterlimit="10" width="8.219" height="29.93"/>
	
		<line fill="none" stroke="#FFFFFF" stroke-width="2" stroke-linecap="round" stroke-linejoin="round" stroke-miterlimit="10" x1="58.155" y1="179.317" x2="58.155" y2="124.731"/>
	
		<rect x="98.676" y="130.895" fill="none" stroke="#FFFFFF" stroke-width="2" stroke-linecap="round" stroke-linejoin="round" stroke-miterlimit="10" width="21.752" height="7.483"/>
	
		<rect x="98.676" y="142.487" fill="none" stroke="#FFFFFF" stroke-width="2" stroke-linecap="round" stroke-linejoin="round" stroke-miterlimit="10" width="21.752" height="7.483"/>
	
		<rect x="98.676" y="154.079" fill="none" stroke="#FFFFFF" stroke-width="2" stroke-linecap="round" stroke-linejoin="round" stroke-miterlimit="10" width="21.752" height="7.483"/>
	
		<line fill="none" stroke="#FFFFFF" stroke-width="2" stroke-linecap="round" stroke-linejoin="round" stroke-miterlimit="10" x1="92.512" y1="138.377" x2="92.512" y2="130.895"/>
	
		<line fill="none" stroke="#FFFFFF" stroke-width="2" stroke-linecap="round" stroke-linejoin="round" stroke-miterlimit="10" x1="92.512" y1="149.969" x2="92.512" y2="142.487"/>
	
		<line fill="none" stroke="#FFFFFF" stroke-width="2" stroke-linecap="round" stroke-linejoin="round" stroke-miterlimit="10" x1="92.512" y1="161.561" x2="92.512" y2="154.079"/>
	
		<rect x="98.676" y="165.671" fill="none" stroke="#FFFFFF" stroke-width="2" stroke-linecap="round" stroke-linejoin="round" stroke-miterlimit="10" width="21.752" height="7.483"/>
	
		<line fill="none" stroke="#FFFFFF" stroke-width="2" stroke-linecap="round" stroke-linejoin="round" stroke-miterlimit="10" x1="92.512" y1="173.153" x2="92.512" y2="165.671"/>
	<path fill="none" stroke="#FFFFFF" stroke-width="2" stroke-linecap="round" stroke-linejoin="round" stroke-miterlimit="10" d="
		M64.319,118.98c0-12.491,10.126-22.617,22.617-22.617s22.617,10.126,22.617,22.617"/>
</g>
<g>
	<path fill="none" stroke="#FFFFFF" stroke-linecap="round" stroke-linejoin="round" stroke-miterlimit="10" d="M48.12,212.9
		c0,0-0.627-2.663-1.929-3.097c-1.302-0.434-3.714-0.579-5.74-0.579c-2.026,0-4.438,0.145-5.74,0.579
		c-1.302,0.434-1.929,3.097-1.929,3.097"/>
	<path fill="none" stroke="#FFFFFF" stroke-linecap="round" stroke-linejoin="round" stroke-miterlimit="10" d="M36.331,214.7
		h-2.837c-0.394,0-0.714-0.319-0.714-0.714V212.9h4.264v1.086C37.044,214.381,36.725,214.7,36.331,214.7z"/>
	<path fill="none" stroke="#FFFFFF" stroke-linecap="round" stroke-linejoin="round" stroke-miterlimit="10" d="M47.406,214.7H44.57
		c-0.394,0-0.714-0.319-0.714-0.714V212.9h4.264v1.086C48.12,214.381,47.8,214.7,47.406,214.7z"/>
	<path fill="none" stroke="#FFFFFF" stroke-linecap="round" stroke-linejoin="round" stroke-miterlimit="10" d="M37.044,212.9
		c0,0,0.129-1.838,3.406-1.838c3.276,0,3.406,1.838,3.406,1.838"/>
	
		<circle fill="none" stroke="#FFFFFF" stroke-linecap="round" stroke-linejoin="round" stroke-miterlimit="10" cx="42.146" cy="218.782" r="0.481"/>
	
		<circle fill="none" stroke="#FFFFFF" stroke-linecap="round" stroke-linejoin="round" stroke-miterlimit="10" cx="44.875" cy="218.782" r="0.481"/>
	
		<circle fill="none" stroke="#FFFFFF" stroke-linecap="round" stroke-linejoin="round" stroke-miterlimit="10" cx="47.638" cy="218.782" r="0.481"/>
	
		<circle fill="none" stroke="#FFFFFF" stroke-linecap="round" stroke-linejoin="round" stroke-miterlimit="10" cx="42.146" cy="221.544" r="0.481"/>
	
		<circle fill="none" stroke="#FFFFFF" stroke-linecap="round" stroke-linejoin="round" stroke-miterlimit="10" cx="44.875" cy="221.544" r="0.481"/>
	
		<circle fill="none" stroke="#FFFFFF" stroke-linecap="round" stroke-linejoin="round" stroke-miterlimit="10" cx="47.638" cy="221.544" r="0.481"/>
	
		<circle fill="none" stroke="#FFFFFF" stroke-linecap="round" stroke-linejoin="round" stroke-miterlimit="10" cx="42.146" cy="224.307" r="0.481"/>
	
		<circle fill="none" stroke="#FFFFFF" stroke-linecap="round" stroke-linejoin="round" stroke-miterlimit="10" cx="44.875" cy="224.307" r="0.481"/>
	
		<circle fill="none" stroke="#FFFFFF" stroke-linecap="round" stroke-linejoin="round" stroke-miterlimit="10" cx="44.875" cy="227.07" r="0.481"/>
	
		<circle fill="none" stroke="#FFFFFF" stroke-linecap="round" stroke-linejoin="round" stroke-miterlimit="10" cx="47.638" cy="224.307" r="0.481"/>
	
		<line fill="none" stroke="#FFFFFF" stroke-linecap="round" stroke-linejoin="round" stroke-miterlimit="10" x1="47.157" y1="227.07" x2="48.12" y2="227.07"/>
	
		<line fill="none" stroke="#FFFFFF" stroke-linecap="round" stroke-linejoin="round" stroke-miterlimit="10" x1="41.665" y1="227.07" x2="42.628" y2="227.07"/>
	
		<rect x="32.78" y="219.263" fill="none" stroke="#FFFFFF" stroke-linecap="round" stroke-linejoin="round" stroke-miterlimit="10" width="6.185" height="6.454"/>
	
		<line fill="none" stroke="#FFFFFF" stroke-linecap="round" stroke-linejoin="round" stroke-miterlimit="10" x1="33.68" y1="230.763" x2="38.065" y2="230.763"/>
	<path fill="none" stroke="#FFFFFF" stroke-linecap="round" stroke-linejoin="round" stroke-miterlimit="10" d="M40.615,235.002
		h-7.983c-1.409,0-2.551-1.142-2.551-2.551v-15.199c0-1.409,1.142-2.551,2.551-2.551h15.637c1.409,0,2.551,1.142,2.551,2.551v7.546
		C50.82,230.433,46.251,235.002,40.615,235.002z"/>
	<path fill="none" stroke="#FFFFFF" stroke-linecap="round" stroke-linejoin="round" stroke-miterlimit="10" d="M30.08,221.544
		h-4.745c-1.807,0-3.369,1.465-3.28,3.27c0.078,1.597,1.359,2.878,2.956,2.956c1.805,0.088,3.27-1.473,3.27-3.28l0-8.041
		c0-2.691,2.182-4.873,4.873-4.873h0.011"/>
	<path fill="none" stroke="#FFFFFF" stroke-linecap="round" stroke-linejoin="round" stroke-miterlimit="10" d="M44.875,234.102
		h2.493c1.409,0,2.551-1.142,2.551-2.551v-2.56"/>
	
		<circle fill="none" stroke="#FFFFFF" stroke-linecap="round" stroke-linejoin="round" stroke-miterlimit="10" cx="35.873" cy="230.763" r="1.539"/>
</g>
<g>
	
		<circle fill="none" stroke="#FFFFFF" stroke-linecap="round" stroke-linejoin="round" stroke-miterlimit="10" cx="89.741" cy="221.912" r="0.661"/>
	
		<circle fill="none" stroke="#FFFFFF" stroke-linecap="round" stroke-linejoin="round" stroke-miterlimit="10" cx="93.763" cy="221.912" r="0.661"/>
	
		<circle fill="none" stroke="#FFFFFF" stroke-linecap="round" stroke-linejoin="round" stroke-miterlimit="10" cx="85.72" cy="221.912" r="0.661"/>
	
		<circle fill="none" stroke="#FFFFFF" stroke-linecap="round" stroke-linejoin="round" stroke-miterlimit="10" cx="89.741" cy="225.934" r="0.661"/>
	
		<circle fill="none" stroke="#FFFFFF" stroke-linecap="round" stroke-linejoin="round" stroke-miterlimit="10" cx="93.763" cy="225.934" r="0.661"/>
	
		<circle fill="none" stroke="#FFFFFF" stroke-linecap="round" stroke-linejoin="round" stroke-miterlimit="10" cx="85.72" cy="225.934" r="0.661"/>
	
		<circle fill="none" stroke="#FFFFFF" stroke-linecap="round" stroke-linejoin="round" stroke-miterlimit="10" cx="89.741" cy="229.955" r="0.661"/>
	
		<circle fill="none" stroke="#FFFFFF" stroke-linecap="round" stroke-linejoin="round" stroke-miterlimit="10" cx="89.741" cy="233.977" r="0.661"/>
	
		<circle fill="none" stroke="#FFFFFF" stroke-linecap="round" stroke-linejoin="round" stroke-miterlimit="10" cx="93.763" cy="229.955" r="0.661"/>
	
		<circle fill="none" stroke="#FFFFFF" stroke-linecap="round" stroke-linejoin="round" stroke-miterlimit="10" cx="85.72" cy="229.955" r="0.661"/>
	
		<line fill="none" stroke="#FFFFFF" stroke-linecap="round" stroke-linejoin="round" stroke-miterlimit="10" x1="93.102" y1="233.977" x2="94.424" y2="233.977"/>
	
		<line fill="none" stroke="#FFFFFF" stroke-linecap="round" stroke-linejoin="round" stroke-miterlimit="10" x1="85.059" y1="233.977" x2="86.381" y2="233.977"/>
	
		<rect x="85.059" y="211.351" fill="none" stroke="#FFFFFF" stroke-linecap="round" stroke-linejoin="round" stroke-miterlimit="10" width="9.364" height="7.2"/>
	
		<line fill="none" stroke="#FFFFFF" stroke-linecap="round" stroke-linejoin="round" stroke-miterlimit="10" x1="93.524" y1="209.551" x2="85.959" y2="209.551"/>
	<path fill="none" stroke="#FFFFFF" stroke-linecap="round" stroke-linejoin="round" stroke-miterlimit="10" d="M82.359,210.303
		v24.484c0,1.409,1.142,2.551,2.551,2.551h9.662c1.409,0,2.551-1.142,2.551-2.551v-24.484c0-1.409-1.142-2.551-2.551-2.551H84.91
		C83.501,207.751,82.359,208.894,82.359,210.303z"/>
	<path fill="none" stroke="#FFFFFF" stroke-linecap="round" stroke-linejoin="round" stroke-miterlimit="10" d="M82.359,212.251
		H82.21c-1.409,0-2.551,1.142-2.551,2.551v15.484c0,1.409,1.142,2.551,2.551,2.551h0.149"/>
	
		<line fill="none" stroke="#FFFFFF" stroke-linecap="round" stroke-linejoin="round" stroke-miterlimit="10" x1="98.924" y1="235.537" x2="98.924" y2="209.551"/>
</g>
<g>
	<path fill="none" stroke="#FFFFFF" stroke-linecap="round" stroke-linejoin="round" stroke-miterlimit="10" d="M147.351,239.777
		h-15.637c-1.409,0-2.551-1.142-2.551-2.551v-30.851c0-1.409,1.142-2.551,2.551-2.551h15.637c1.409,0,2.551,1.142,2.551,2.551
		v30.851C149.902,238.635,148.76,239.777,147.351,239.777z"/>
	
		<line fill="none" stroke="#FFFFFF" stroke-linecap="round" stroke-linejoin="round" stroke-miterlimit="10" x1="134.563" y1="233.477" x2="134.563" y2="213.175"/>
	
		<line fill="none" stroke="#FFFFFF" stroke-linecap="round" stroke-linejoin="round" stroke-miterlimit="10" x1="149.902" y1="236.177" x2="129.163" y2="236.177"/>
	
		<rect x="130.963" y="213.175" fill="none" stroke="#FFFFFF" stroke-linecap="round" stroke-linejoin="round" stroke-miterlimit="10" width="1.8" height="1.814"/>
	
		<rect x="130.922" y="231.076" fill="none" stroke="#FFFFFF" stroke-linecap="round" stroke-linejoin="round" stroke-miterlimit="10" width="1.8" height="1.814"/>
	
		<rect x="131.221" y="226.965" transform="matrix(0.7071 0.7071 -0.7071 0.7071 199.526 -26.5582)" fill="none" stroke="#FFFFFF" stroke-linecap="round" stroke-linejoin="round" stroke-miterlimit="10" width="1.201" height="1.21"/>
	<polygon fill="none" stroke="#FFFFFF" stroke-linecap="round" stroke-linejoin="round" stroke-miterlimit="10" points="
		131.863,222.245 130.963,224.059 132.763,224.059 	"/>
	
		<rect x="130.963" y="206.847" fill="none" stroke="#FFFFFF" stroke-linecap="round" stroke-linejoin="round" stroke-miterlimit="10" width="3.6" height="3.628"/>
	
		<line fill="none" stroke="#FFFFFF" stroke-linecap="round" stroke-linejoin="round" stroke-miterlimit="10" x1="137.263" y1="208.661" x2="144.769" y2="208.661"/>
	
		<circle fill="none" stroke="#FFFFFF" stroke-linecap="round" stroke-linejoin="round" stroke-miterlimit="10" cx="131.863" cy="218.589" r="0.9"/>
	<g>
		<path fill="none" stroke="#FFFFFF" stroke-linecap="round" stroke-linejoin="round" stroke-miterlimit="10" d="M144.585,219.794
			h-4.706c-0.451,0-0.816-0.366-0.816-0.816v-0.016c0-0.451,0.366-0.816,0.816-0.816h4.706c0.451,0,0.816,0.366,0.816,0.816v0.016
			C145.402,219.428,145.036,219.794,144.585,219.794z"/>
		<path fill="none" stroke="#FFFFFF" stroke-linecap="round" stroke-linejoin="round" stroke-miterlimit="10" d="M145.402,223.394
			v0.016c0,0.451-0.365,0.816-0.816,0.816h-4.706c-0.451,0-0.816-0.366-0.816-0.816v-0.016"/>
		
			<line fill="none" stroke="#FFFFFF" stroke-linecap="round" stroke-linejoin="round" stroke-miterlimit="10" x1="146.302" y1="221.594" x2="138.163" y2="221.594"/>
		<path fill="none" stroke="#FFFFFF" stroke-linecap="round" stroke-linejoin="round" stroke-miterlimit="10" d="M142.232,213.175
			c-1.751,0-3.17,1.419-3.17,3.17h6.339C145.402,214.594,143.983,213.175,142.232,213.175z"/>
	</g>
	
		<line fill="none" stroke="#FFFFFF" stroke-linecap="round" stroke-linejoin="round" stroke-miterlimit="10" x1="142.571" y1="229.647" x2="142.571" y2="232.505"/>
	
		<line fill="none" stroke="#FFFFFF" stroke-linecap="round" stroke-linejoin="round" stroke-miterlimit="10" x1="146.25" y1="230.097" x2="146.25" y2="232.055"/>
	
		<line fill="none" stroke="#FFFFFF" stroke-linecap="round" stroke-linejoin="round" stroke-miterlimit="10" x1="145.271" y1="231.076" x2="147.229" y2="231.076"/>
	
		<line fill="none" stroke="#FFFFFF" stroke-linecap="round" stroke-linejoin="round" stroke-miterlimit="10" x1="137.913" y1="231.076" x2="139.871" y2="231.076"/>
</g>
</svg>
