<?xml version="1.0" encoding="utf-8"?>
<!-- Generator: Adobe Illustrator 24.0.0, SVG Export Plug-In . SVG Version: 6.00 Build 0)  -->
<svg version="1.1" id="Laag_1" xmlns="http://www.w3.org/2000/svg" xmlns:xlink="http://www.w3.org/1999/xlink" x="0px" y="0px"
	 viewBox="0 0 178.583 277.795" enable-background="new 0 0 178.583 277.795" xml:space="preserve">
<path fill="#A3A0A0" d="M164.409,277.795H14.173C6.346,277.795,0,271.45,0,263.622V14.173C0,6.346,6.346,0,14.173,0h150.236
	c7.828,0,14.173,6.346,14.173,14.173v249.449C178.583,271.45,172.237,277.795,164.409,277.795z"/>
<g>
	<path fill="none" stroke="#FFFFFF" stroke-linecap="round" stroke-linejoin="round" stroke-miterlimit="10" d="M138.291,237.825
		L138.291,237.825c-3.673,0-6.651-2.978-6.651-6.651v-16.552c0-3.673,2.978-6.651,6.651-6.651h0c3.673,0,6.651,2.978,6.651,6.651
		v16.552C144.942,234.847,141.965,237.825,138.291,237.825z"/>
	
		<line fill="none" stroke="#FFFFFF" stroke-linecap="round" stroke-linejoin="round" stroke-miterlimit="10" x1="147.642" y1="207.971" x2="147.642" y2="237.825"/>
	
		<line fill="none" stroke="#FFFFFF" stroke-linecap="round" stroke-linejoin="round" stroke-miterlimit="10" x1="128.94" y1="207.971" x2="128.94" y2="237.825"/>
	
		<rect x="140.222" y="224.755" fill="none" stroke="#FFFFFF" stroke-linecap="round" stroke-linejoin="round" stroke-miterlimit="10" width="1.539" height="1.539"/>
	
		<rect x="134.822" y="224.755" fill="none" stroke="#FFFFFF" stroke-linecap="round" stroke-linejoin="round" stroke-miterlimit="10" width="1.539" height="1.539"/>
	
		<rect x="140.222" y="230.155" fill="none" stroke="#FFFFFF" stroke-linecap="round" stroke-linejoin="round" stroke-miterlimit="10" width="1.539" height="1.539"/>
	
		<rect x="135.078" y="230.411" fill="none" stroke="#FFFFFF" stroke-linecap="round" stroke-linejoin="round" stroke-miterlimit="10" width="1.026" height="1.026"/>
	
		<rect x="135.591" y="228.611" fill="none" stroke="#FFFFFF" stroke-linecap="round" stroke-linejoin="round" stroke-miterlimit="10" width="0.513" height="0.513"/>
	
		<rect x="136.491" y="227.711" fill="none" stroke="#FFFFFF" stroke-linecap="round" stroke-linejoin="round" stroke-miterlimit="10" width="0.513" height="0.513"/>
	
		<rect x="138.291" y="229.511" fill="none" stroke="#FFFFFF" stroke-linecap="round" stroke-linejoin="round" stroke-miterlimit="10" width="0.513" height="0.513"/>
	
		<rect x="138.291" y="225.911" fill="none" stroke="#FFFFFF" stroke-linecap="round" stroke-linejoin="round" stroke-miterlimit="10" width="0.513" height="0.513"/>
	
		<rect x="140.091" y="227.711" fill="none" stroke="#FFFFFF" stroke-linecap="round" stroke-linejoin="round" stroke-miterlimit="10" width="0.513" height="0.513"/>
	
		<rect x="140.991" y="229.511" fill="none" stroke="#FFFFFF" stroke-linecap="round" stroke-linejoin="round" stroke-miterlimit="10" width="0.513" height="0.513"/>
	
		<line fill="none" stroke="#FFFFFF" stroke-linecap="round" stroke-linejoin="round" stroke-miterlimit="10" x1="136.361" y1="234.234" x2="140.222" y2="234.234"/>
	
		<line fill="none" stroke="#FFFFFF" stroke-linecap="round" stroke-linejoin="round" stroke-miterlimit="10" x1="134.822" y1="221.634" x2="141.761" y2="221.634"/>
	
		<circle fill="none" stroke="#FFFFFF" stroke-linecap="round" stroke-linejoin="round" stroke-miterlimit="10" cx="138.291" cy="214.622" r="3.991"/>
</g>
<g>
	
		<line fill="none" stroke="#FFFFFF" stroke-linecap="round" stroke-linejoin="round" stroke-miterlimit="10" x1="91.42" y1="227.517" x2="88.963" y2="227.517"/>
	
		<rect x="83.563" y="217.46" fill="none" stroke="#FFFFFF" stroke-linecap="round" stroke-linejoin="round" stroke-miterlimit="10" width="13.257" height="8.257"/>
	
		<rect x="87.163" y="230.217" fill="none" stroke="#FFFFFF" stroke-linecap="round" stroke-linejoin="round" stroke-miterlimit="10" width="6.057" height="3.757"/>
	
		<rect x="79.963" y="217.46" fill="none" stroke="#FFFFFF" stroke-linecap="round" stroke-linejoin="round" stroke-miterlimit="10" width="1.8" height="1.878"/>
	
		<rect x="79.963" y="221.138" fill="none" stroke="#FFFFFF" stroke-linecap="round" stroke-linejoin="round" stroke-miterlimit="10" width="1.8" height="3.678"/>
	<path fill="none" stroke="#FFFFFF" stroke-linecap="round" stroke-linejoin="round" stroke-miterlimit="10" d="M78.163,216.035
		v21.381h22.257v-21.381c0-0.704-0.571-1.276-1.276-1.276H79.439C78.734,214.76,78.163,215.331,78.163,216.035z"/>
	<path fill="none" stroke="#FFFFFF" stroke-linecap="round" stroke-linejoin="round" stroke-miterlimit="10" d="M89.291,208.019
		c-2.945,0-5.608,1.202-7.528,3.141v0.9H96.82v-0.9C94.899,209.221,92.236,208.019,89.291,208.019z"/>
	
		<circle fill="none" stroke="#FFFFFF" stroke-linecap="round" stroke-linejoin="round" stroke-miterlimit="10" cx="89.291" cy="210.039" r="0.688"/>
</g>
<g>
	<text transform="matrix(1 0 0 1 120.7311 252.3286)" fill="#FFFFFF" font-family="'Montserrat-Regular'" font-size="8px">QR-code</text>
</g>
<g>
	<text transform="matrix(1 0 0 1 23.2429 252.3288)" fill="#FFFFFF" font-family="'Montserrat-Regular'" font-size="8px">Laadpaal</text>
</g>
<g>
	<text transform="matrix(1 0 0 1 71.8987 252.3291)" fill="#FFFFFF" font-family="'Montserrat-Regular'" font-size="8px">Afvalbak</text>
</g>
<text transform="matrix(1 0 0 1 23.1642 37.5056)"><tspan x="0" y="0" fill="#FFFFFF" font-family="'Montserrat-ExtraBold'" font-size="14px" letter-spacing="1">SCANNEN</tspan><tspan x="0" y="18" fill="#FFFFFF" font-family="'Montserrat-Regular'" font-size="10px">Parkeermeter</tspan></text>
<g>
	
		<line fill="none" stroke="#FFFFFF" stroke-linecap="round" stroke-linejoin="round" stroke-miterlimit="10" x1="33.622" y1="206.054" x2="45.605" y2="206.054"/>
	
		<circle fill="none" stroke="#FFFFFF" stroke-linecap="round" stroke-linejoin="round" stroke-miterlimit="10" cx="39.613" cy="216.367" r="0.591"/>
	<path fill="none" stroke="#FFFFFF" stroke-linecap="round" stroke-linejoin="round" stroke-miterlimit="10" d="M38.713,214.154
		c-0.873,0.357-1.492,1.213-1.492,2.213c0,1,0.618,1.856,1.492,2.212"/>
	<path fill="none" stroke="#FFFFFF" stroke-linecap="round" stroke-linejoin="round" stroke-miterlimit="10" d="M40.513,218.579
		c0.873-0.357,1.492-1.212,1.492-2.212c0-1-0.618-1.856-1.492-2.213"/>
	<path fill="none" stroke="#FFFFFF" stroke-linecap="round" stroke-linejoin="round" stroke-miterlimit="10" d="M41.254,221.279
		h-3.281c-1.409,0-2.551-1.142-2.551-2.551v-4.722c0-1.409,1.142-2.551,2.551-2.551h3.281c1.409,0,2.551,1.142,2.551,2.551v4.722
		C43.805,220.137,42.663,221.279,41.254,221.279z"/>
	
		<circle fill="none" stroke="#FFFFFF" stroke-linecap="round" stroke-linejoin="round" stroke-miterlimit="10" cx="39.613" cy="225.317" r="1.338"/>
	<path fill="none" stroke="#FFFFFF" stroke-linecap="round" stroke-linejoin="round" stroke-miterlimit="10" d="M43.054,229.354
		h-6.881c-1.409,0-2.551-1.142-2.551-2.551v-15.498c0-1.409,1.142-2.551,2.551-2.551h6.881c1.409,0,2.551,1.142,2.551,2.551v15.498
		C45.605,228.212,44.463,229.354,43.054,229.354z"/>
	<path fill="none" stroke="#FFFFFF" stroke-linecap="round" stroke-linejoin="round" stroke-miterlimit="10" d="M47.172,217.788
		h-1.568v-2.843h1.568c0.704,0,1.276,0.571,1.276,1.276v0.292C48.448,217.217,47.877,217.788,47.172,217.788z"/>
	<path fill="none" stroke="#FFFFFF" stroke-linecap="round" stroke-linejoin="round" stroke-miterlimit="10" d="M48.448,216.513
		h0.072c1.409,0,2.551,1.142,2.551,2.551v16.341c0,2.395,1.942,4.337,4.337,4.337h0.005"/>
	
		<line fill="none" stroke="#FFFFFF" stroke-linecap="round" stroke-linejoin="round" stroke-miterlimit="10" x1="33.622" y1="226.803" x2="33.622" y2="239.742"/>
	
		<line fill="none" stroke="#FFFFFF" stroke-linecap="round" stroke-linejoin="round" stroke-miterlimit="10" x1="45.605" y1="226.803" x2="45.605" y2="239.742"/>
</g>
<g>
	
		<circle fill="none" stroke="#FFFFFF" stroke-linecap="round" stroke-linejoin="round" stroke-miterlimit="10" cx="149.275" cy="36.835" r="1.836"/>
	<path fill="none" stroke="#FFFFFF" stroke-linecap="round" stroke-linejoin="round" stroke-miterlimit="10" d="M144.869,34.842
		c0.761-1.675,2.449-2.843,4.406-2.843c1.956,0,3.645,1.168,4.405,2.843"/>
	<path fill="none" stroke="#FFFFFF" stroke-linecap="round" stroke-linejoin="round" stroke-miterlimit="10" d="M142.136,33.606
		c1.233-2.714,3.969-4.607,7.139-4.607c3.17,0,5.906,1.892,7.138,4.607"/>
	<path fill="none" stroke="#FFFFFF" stroke-linecap="round" stroke-linejoin="round" stroke-miterlimit="10" d="M139.402,32.369
		c1.705-3.754,5.489-6.37,9.873-6.37c4.384,0,8.167,2.617,9.872,6.37"/>
</g>
<g>
	<path fill="none" stroke="#FFFFFF" stroke-width="2" stroke-linecap="round" stroke-linejoin="round" stroke-miterlimit="10" d="
		M85.971,93.078h1.847c1.567,0,2.837-1.27,2.837-2.837s-1.27-2.837-2.837-2.837h-1.847v9.367"/>
	
		<rect x="79.221" y="82.903" fill="none" stroke="#FFFFFF" stroke-width="2" stroke-linecap="round" stroke-linejoin="round" stroke-miterlimit="10" width="18.185" height="17.265"/>
	
		<line fill="none" stroke="#FFFFFF" stroke-width="2" stroke-linecap="round" stroke-linejoin="round" stroke-miterlimit="10" x1="88.313" y1="100.169" x2="88.313" y2="107.658"/>
	
		<line fill="none" stroke="#FFFFFF" stroke-width="2" stroke-linecap="round" stroke-linejoin="round" stroke-miterlimit="10" x1="85.694" y1="107.658" x2="90.933" y2="107.658"/>
	
		<polyline fill="none" stroke="#FFFFFF" stroke-width="2" stroke-linecap="round" stroke-linejoin="round" stroke-miterlimit="10" points="
		103.032,180.436 103.032,114.408 73.595,114.408 73.595,180.436 	"/>
	
		<rect x="80.345" y="121.158" fill="none" stroke="#FFFFFF" stroke-width="2" stroke-linecap="round" stroke-linejoin="round" stroke-miterlimit="10" width="15.937" height="13.5"/>
	
		<rect x="80.345" y="139.158" fill="none" stroke="#FFFFFF" stroke-width="2" stroke-linecap="round" stroke-linejoin="round" stroke-miterlimit="10" width="15.937" height="18"/>
	
		<rect x="84.845" y="143.658" fill="none" stroke="#FFFFFF" stroke-width="2" stroke-linecap="round" stroke-linejoin="round" stroke-miterlimit="10" width="6.937" height="9"/>
	
		<rect x="80.345" y="161.658" fill="none" stroke="#FFFFFF" stroke-width="2" stroke-linecap="round" stroke-linejoin="round" stroke-miterlimit="10" width="3.335" height="2.84"/>
	
		<rect x="86.646" y="161.658" fill="none" stroke="#FFFFFF" stroke-width="2" stroke-linecap="round" stroke-linejoin="round" stroke-miterlimit="10" width="3.335" height="2.84"/>
	
		<rect x="92.947" y="161.658" fill="none" stroke="#FFFFFF" stroke-width="2" stroke-linecap="round" stroke-linejoin="round" stroke-miterlimit="10" width="3.335" height="2.84"/>
</g>
</svg>
