<?xml version="1.0" encoding="utf-8"?>
<!-- Generator: Adobe Illustrator 24.0.0, SVG Export Plug-In . SVG Version: 6.00 Build 0)  -->
<svg version="1.1" id="Laag_1" xmlns="http://www.w3.org/2000/svg" xmlns:xlink="http://www.w3.org/1999/xlink" x="0px" y="0px"
	 viewBox="0 0 178.583 277.795" enable-background="new 0 0 178.583 277.795" xml:space="preserve">
<path fill="#31B7BC" d="M164.409,277.795H14.173C6.346,277.795,0,271.45,0,263.622V14.173C0,6.346,6.346,0,14.173,0h150.236
	c7.828,0,14.173,6.346,14.173,14.173v249.449C178.583,271.45,172.237,277.795,164.409,277.795z"/>
<g>
	<g>
		<path fill="none" stroke="#FFFFFF" stroke-width="2" stroke-linecap="round" stroke-linejoin="round" stroke-miterlimit="10" d="
			M65.289,146.294c-8.111,0-14.71-6.598-14.71-14.71s6.598-14.71,14.71-14.71s14.71,6.598,14.71,14.71S73.4,146.294,65.289,146.294z
			"/>
		<path fill="none" stroke="#FFFFFF" stroke-width="2" stroke-linecap="round" stroke-linejoin="round" stroke-miterlimit="10" d="
			M113.294,146.294c-8.111,0-14.71-6.598-14.71-14.71s6.598-14.71,14.71-14.71s14.71,6.598,14.71,14.71
			S121.405,146.294,113.294,146.294z"/>
		<path fill="none" stroke="#FFFFFF" stroke-width="2" stroke-linecap="round" stroke-linejoin="round" stroke-miterlimit="10" d="
			M113.294,154.085H65.289c-8.6,0-16.447-4.902-20.219-12.63s-2.81-16.93,2.48-23.711c6.854-8.786,21.899-19.045,41.743-19.045
			c19.842,0,34.887,10.259,41.741,19.045c5.29,6.781,6.252,15.983,2.48,23.711S121.893,154.085,113.294,154.085z M96.186,146.183
			h0.023H96.186z"/>
		
			<polygon fill="none" stroke="#FFFFFF" stroke-width="2" stroke-linecap="round" stroke-linejoin="round" stroke-miterlimit="10" points="
			94.307,114.779 99.05,111.254 94.307,107.73 		"/>
		
			<polygon fill="none" stroke="#FFFFFF" stroke-width="2" stroke-linecap="round" stroke-linejoin="round" stroke-miterlimit="10" points="
			84.276,107.73 79.532,111.254 84.276,114.779 		"/>
		
			<line fill="none" stroke="#FFFFFF" stroke-width="2" stroke-linecap="round" stroke-linejoin="round" stroke-miterlimit="10" x1="82.026" y1="146.294" x2="96.557" y2="146.294"/>
		
			<line fill="none" stroke="#FFFFFF" stroke-width="2" stroke-linecap="round" stroke-linejoin="round" stroke-miterlimit="10" x1="87.651" y1="132.794" x2="90.932" y2="132.794"/>
		
			<line fill="none" stroke="#FFFFFF" stroke-width="2" stroke-linecap="round" stroke-linejoin="round" stroke-miterlimit="10" x1="86.526" y1="137.294" x2="92.057" y2="137.294"/>
		
			<line fill="none" stroke="#FFFFFF" stroke-width="2" stroke-linecap="round" stroke-linejoin="round" stroke-miterlimit="10" x1="84.276" y1="141.794" x2="94.307" y2="141.794"/>
		
			<circle fill="none" stroke="#FFFFFF" stroke-width="2" stroke-linecap="round" stroke-linejoin="round" stroke-miterlimit="10" cx="65.289" cy="131.585" r="1.652"/>
		
			<circle fill="none" stroke="#FFFFFF" stroke-width="2" stroke-linecap="round" stroke-linejoin="round" stroke-miterlimit="10" cx="113.294" cy="131.585" r="1.652"/>
		
			<line fill="none" stroke="#FFFFFF" stroke-width="2" stroke-linecap="round" stroke-linejoin="round" stroke-miterlimit="10" x1="113.294" y1="131.585" x2="110.245" y2="125.139"/>
		
			<line fill="none" stroke="#FFFFFF" stroke-width="2" stroke-linecap="round" stroke-linejoin="round" stroke-miterlimit="10" x1="121.348" y1="131.122" x2="122.974" y2="131.122"/>
		
			<line fill="none" stroke="#FFFFFF" stroke-width="2" stroke-linecap="round" stroke-linejoin="round" stroke-miterlimit="10" x1="101.377" y1="131.122" x2="103.004" y2="131.122"/>
		
			<line fill="none" stroke="#FFFFFF" stroke-width="2" stroke-linecap="round" stroke-linejoin="round" stroke-miterlimit="10" x1="118.661" y1="124.636" x2="119.811" y2="123.486"/>
		
			<line fill="none" stroke="#FFFFFF" stroke-width="2" stroke-linecap="round" stroke-linejoin="round" stroke-miterlimit="10" x1="112.176" y1="121.95" x2="112.176" y2="120.324"/>
		
			<line fill="none" stroke="#FFFFFF" stroke-width="2" stroke-linecap="round" stroke-linejoin="round" stroke-miterlimit="10" x1="112.176" y1="141.92" x2="112.176" y2="140.294"/>
		
			<line fill="none" stroke="#FFFFFF" stroke-width="2" stroke-linecap="round" stroke-linejoin="round" stroke-miterlimit="10" x1="105.69" y1="124.636" x2="104.54" y2="123.486"/>
		
			<line fill="none" stroke="#FFFFFF" stroke-width="2" stroke-linecap="round" stroke-linejoin="round" stroke-miterlimit="10" x1="119.811" y1="138.757" x2="118.661" y2="137.607"/>
		
			<line fill="none" stroke="#FFFFFF" stroke-width="2" stroke-linecap="round" stroke-linejoin="round" stroke-miterlimit="10" x1="65.289" y1="122.413" x2="65.289" y2="120.787"/>
		
			<line fill="none" stroke="#FFFFFF" stroke-width="2" stroke-linecap="round" stroke-linejoin="round" stroke-miterlimit="10" x1="65.289" y1="142.383" x2="65.289" y2="140.757"/>
		
			<line fill="none" stroke="#FFFFFF" stroke-width="2" stroke-linecap="round" stroke-linejoin="round" stroke-miterlimit="10" x1="58.803" y1="125.099" x2="57.653" y2="123.949"/>
		
			<line fill="none" stroke="#FFFFFF" stroke-width="2" stroke-linecap="round" stroke-linejoin="round" stroke-miterlimit="10" x1="56.117" y1="131.585" x2="54.491" y2="131.585"/>
		
			<line fill="none" stroke="#FFFFFF" stroke-width="2" stroke-linecap="round" stroke-linejoin="round" stroke-miterlimit="10" x1="76.087" y1="131.585" x2="74.461" y2="131.585"/>
		
			<line fill="none" stroke="#FFFFFF" stroke-width="2" stroke-linecap="round" stroke-linejoin="round" stroke-miterlimit="10" x1="58.803" y1="138.07" x2="57.653" y2="139.22"/>
		
			<line fill="none" stroke="#FFFFFF" stroke-width="2" stroke-linecap="round" stroke-linejoin="round" stroke-miterlimit="10" x1="72.924" y1="123.949" x2="71.775" y2="125.099"/>
		
			<line fill="none" stroke="#FFFFFF" stroke-width="2" stroke-linecap="round" stroke-linejoin="round" stroke-miterlimit="10" x1="65.289" y1="131.585" x2="68.607" y2="122.889"/>
	</g>
</g>
<text transform="matrix(1 0 0 1 23.1642 37.5056)"><tspan x="0" y="0" fill="#FFFFFF" font-family="'Montserrat-ExtraBold'" font-size="14px" letter-spacing="1">DASHBOARD</tspan><tspan x="0" y="18" fill="#FFFFFF" font-family="'Montserrat-Regular'" font-size="10px">Auto</tspan></text>
<g>
	<text transform="matrix(1 0 0 1 125.5475 252.3286)" fill="#FFFFFF" font-family="'Montserrat-Regular'" font-size="8px">E-bike</text>
</g>
<g>
	<text transform="matrix(1 0 0 1 26.0827 252.3288)" fill="#FFFFFF" font-family="'Montserrat-Regular'" font-size="8px">Scooter</text>
</g>
<g>
	<text transform="matrix(1 0 0 1 81.9749 252.3291)" fill="#FFFFFF" font-family="'Montserrat-Regular'" font-size="8px">Bus</text>
</g>
<g>
	<path fill="none" stroke="#FFFFFF" stroke-linecap="round" stroke-linejoin="round" stroke-miterlimit="10" d="M150.181,36.567
		h5.763c0-5.738-4.652-10.39-10.39-10.39s-10.39,4.652-10.39,10.39h5.763"/>
	
		<line fill="none" stroke="#FFFFFF" stroke-linecap="round" stroke-linejoin="round" stroke-miterlimit="10" x1="149.94" y1="32.182" x2="150.674" y2="31.448"/>
	
		<line fill="none" stroke="#FFFFFF" stroke-linecap="round" stroke-linejoin="round" stroke-miterlimit="10" x1="145.555" y1="30.365" x2="145.555" y2="29.327"/>
	
		<circle fill="none" stroke="#FFFFFF" stroke-linecap="round" stroke-linejoin="round" stroke-miterlimit="10" cx="145.555" cy="36.567" r="1.477"/>
	
		<line fill="none" stroke="#FFFFFF" stroke-linecap="round" stroke-linejoin="round" stroke-miterlimit="10" x1="146.195" y1="35.241" x2="148.705" y2="30.044"/>
	
		<line fill="none" stroke="#FFFFFF" stroke-linecap="round" stroke-linejoin="round" stroke-miterlimit="10" x1="141.169" y1="32.182" x2="140.435" y2="31.448"/>
</g>
<g>
	
		<circle fill="none" stroke="#FFFFFF" stroke-linecap="round" stroke-linejoin="round" stroke-miterlimit="10" cx="38.281" cy="222.863" r="0.661"/>
	
		<circle fill="none" stroke="#FFFFFF" stroke-linecap="round" stroke-linejoin="round" stroke-miterlimit="10" cx="41.383" cy="229.636" r="0.661"/>
	<path fill="none" stroke="#FFFFFF" stroke-linecap="round" stroke-linejoin="round" stroke-miterlimit="10" d="M44.288,225.986
		c0.487-0.935,0.767-1.995,0.767-3.123c0-3.74-3.032-6.773-6.773-6.773s-6.773,3.032-6.773,6.773c0,3.201,2.223,5.876,5.207,6.583
		c-0.003,0.064-0.019,0.124-0.019,0.189c0,2.588,2.098,4.686,4.686,4.686c2.588,0,4.686-2.098,4.686-4.686
		C46.068,228.151,45.364,226.844,44.288,225.986z"/>
	
		<circle fill="none" stroke="#FFFFFF" stroke-linecap="round" stroke-linejoin="round" stroke-miterlimit="10" cx="46.996" cy="215.183" r="2.4"/>
	
		<circle fill="none" stroke="#FFFFFF" stroke-linecap="round" stroke-linejoin="round" stroke-miterlimit="10" cx="50.391" cy="221.953" r="2.4"/>
	<path fill="none" stroke="#FFFFFF" stroke-linecap="round" stroke-linejoin="round" stroke-miterlimit="10" d="M55.771,218.16
		c0-5.25-6.442-9.506-14.389-9.506s-14.389,4.256-14.389,9.506c0,7.947,6.442,20.712,14.389,20.712S55.771,226.107,55.771,218.16z"
		/>
	
		<line fill="none" stroke="#FFFFFF" stroke-linecap="round" stroke-linejoin="round" stroke-miterlimit="10" x1="38.281" y1="222.863" x2="34.041" y2="221.159"/>
	
		<line fill="none" stroke="#FFFFFF" stroke-linecap="round" stroke-linejoin="round" stroke-miterlimit="10" x1="42.328" y1="222.863" x2="43.235" y2="222.863"/>
	
		<line fill="none" stroke="#FFFFFF" stroke-linecap="round" stroke-linejoin="round" stroke-miterlimit="10" x1="33.328" y1="222.863" x2="34.235" y2="222.863"/>
	
		<line fill="none" stroke="#FFFFFF" stroke-linecap="round" stroke-linejoin="round" stroke-miterlimit="10" x1="41.143" y1="220.002" x2="41.784" y2="219.36"/>
	
		<line fill="none" stroke="#FFFFFF" stroke-linecap="round" stroke-linejoin="round" stroke-miterlimit="10" x1="38.281" y1="218.817" x2="38.281" y2="217.91"/>
	
		<line fill="none" stroke="#FFFFFF" stroke-linecap="round" stroke-linejoin="round" stroke-miterlimit="10" x1="35.42" y1="220.002" x2="34.779" y2="219.36"/>
	
		<line fill="none" stroke="#FFFFFF" stroke-linecap="round" stroke-linejoin="round" stroke-miterlimit="10" x1="43.981" y1="229.636" x2="44.631" y2="229.636"/>
	
		<line fill="none" stroke="#FFFFFF" stroke-linecap="round" stroke-linejoin="round" stroke-miterlimit="10" x1="38.134" y1="229.636" x2="38.784" y2="229.636"/>
	
		<line fill="none" stroke="#FFFFFF" stroke-linecap="round" stroke-linejoin="round" stroke-miterlimit="10" x1="43.22" y1="227.798" x2="43.68" y2="227.339"/>
	
		<line fill="none" stroke="#FFFFFF" stroke-linecap="round" stroke-linejoin="round" stroke-miterlimit="10" x1="41.383" y1="227.037" x2="41.383" y2="226.387"/>
	
		<line fill="none" stroke="#FFFFFF" stroke-linecap="round" stroke-linejoin="round" stroke-miterlimit="10" x1="39.545" y1="227.798" x2="39.085" y2="227.339"/>
	
		<line fill="none" stroke="#FFFFFF" stroke-linecap="round" stroke-linejoin="round" stroke-miterlimit="10" x1="41.383" y1="229.636" x2="38.942" y2="228.589"/>
</g>
<g>
	<path fill="none" stroke="#FFFFFF" stroke-linecap="round" stroke-linejoin="round" stroke-miterlimit="10" d="M80.772,231.701
		c-2.741,0-4.97-2.229-4.97-4.97s2.229-4.97,4.97-4.97s4.97,2.229,4.97,4.97S83.513,231.701,80.772,231.701z"/>
	<path fill="none" stroke="#FFFFFF" stroke-linecap="round" stroke-linejoin="round" stroke-miterlimit="10" d="M97.844,231.701
		c-2.741,0-4.97-2.229-4.97-4.97s2.229-4.97,4.97-4.97s4.97,2.229,4.97,4.97S100.585,231.701,97.844,231.701z"/>
	<path fill="none" stroke="#FFFFFF" stroke-linecap="round" stroke-linejoin="round" stroke-miterlimit="10" d="M95.816,219.061
		c-1.622,0-2.942-1.32-2.942-2.942s1.32-2.942,2.942-2.942c1.622,0,2.942,1.32,2.942,2.942S97.438,219.061,95.816,219.061z"/>
	<path fill="none" stroke="#FFFFFF" stroke-linecap="round" stroke-linejoin="round" stroke-miterlimit="10" d="M82.8,219.061
		c-1.622,0-2.942-1.32-2.942-2.942s1.32-2.942,2.942-2.942c1.622,0,2.942,1.32,2.942,2.942S84.422,219.061,82.8,219.061z"/>
	<path fill="none" stroke="#FFFFFF" stroke-linecap="round" stroke-linejoin="round" stroke-miterlimit="10" d="M72.531,228.202
		c-0.811,0-1.471-0.66-1.471-1.471c0-0.811,0.66-1.471,1.471-1.471c0.811,0,1.471,0.66,1.471,1.471
		C74.002,227.542,73.342,228.202,72.531,228.202z"/>
	<path fill="none" stroke="#FFFFFF" stroke-linecap="round" stroke-linejoin="round" stroke-miterlimit="10" d="M73.887,223.46
		c-0.811,0-1.471-0.66-1.471-1.471c0-0.811,0.66-1.471,1.471-1.471s1.471,0.66,1.471,1.471
		C75.358,222.8,74.698,223.46,73.887,223.46z"/>
	<path fill="none" stroke="#FFFFFF" stroke-linecap="round" stroke-linejoin="round" stroke-miterlimit="10" d="M104.615,226.731
		c0-0.811,0.66-1.471,1.471-1.471s1.471,0.66,1.471,1.471c0,0.811-0.66,1.471-1.471,1.471S104.615,227.542,104.615,226.731z"/>
	<path fill="none" stroke="#FFFFFF" stroke-linecap="round" stroke-linejoin="round" stroke-miterlimit="10" d="M103.209,221.989
		c0-0.811,0.66-1.471,1.471-1.471s1.471,0.66,1.471,1.471c0,0.811-0.66,1.471-1.471,1.471S103.209,222.8,103.209,221.989z"/>
	<path fill="none" stroke="#FFFFFF" stroke-linecap="round" stroke-linejoin="round" stroke-miterlimit="10" d="M89.799,218.466
		h-0.981c-0.704,0-1.276,0.571-1.276,1.276v3.914c0,0.704,0.571,1.276,1.276,1.276h0.981c0.704,0,1.276-0.571,1.276-1.276v-3.914
		C91.074,219.037,90.503,218.466,89.799,218.466z"/>
	
		<rect x="74.492" y="210.617" fill="none" stroke="#FFFFFF" stroke-linecap="round" stroke-linejoin="round" stroke-miterlimit="10" width="1.732" height="2.865"/>
	
		<rect x="70.892" y="210.617" fill="none" stroke="#FFFFFF" stroke-linecap="round" stroke-linejoin="round" stroke-miterlimit="10" width="1.732" height="2.865"/>
	
		<rect x="74.492" y="215.282" fill="none" stroke="#FFFFFF" stroke-linecap="round" stroke-linejoin="round" stroke-miterlimit="10" width="1.732" height="2.865"/>
	
		<rect x="70.892" y="215.282" fill="none" stroke="#FFFFFF" stroke-linecap="round" stroke-linejoin="round" stroke-miterlimit="10" width="1.732" height="2.865"/>
	
		<rect x="105.958" y="210.617" fill="none" stroke="#FFFFFF" stroke-linecap="round" stroke-linejoin="round" stroke-miterlimit="10" width="1.732" height="2.865"/>
	
		<rect x="102.358" y="210.617" fill="none" stroke="#FFFFFF" stroke-linecap="round" stroke-linejoin="round" stroke-miterlimit="10" width="1.732" height="2.865"/>
	
		<rect x="105.958" y="215.282" fill="none" stroke="#FFFFFF" stroke-linecap="round" stroke-linejoin="round" stroke-miterlimit="10" width="1.732" height="2.865"/>
	
		<rect x="102.358" y="215.282" fill="none" stroke="#FFFFFF" stroke-linecap="round" stroke-linejoin="round" stroke-miterlimit="10" width="1.732" height="2.865"/>
	
		<line fill="none" stroke="#FFFFFF" stroke-linecap="round" stroke-linejoin="round" stroke-miterlimit="10" x1="88.892" y1="220.798" x2="89.724" y2="220.798"/>
	
		<line fill="none" stroke="#FFFFFF" stroke-linecap="round" stroke-linejoin="round" stroke-miterlimit="10" x1="88.892" y1="222.598" x2="89.724" y2="222.598"/>
	
		<circle fill="none" stroke="#FFFFFF" stroke-linecap="round" stroke-linejoin="round" stroke-miterlimit="10" cx="97.844" cy="226.731" r="0.661"/>
	
		<circle fill="none" stroke="#FFFFFF" stroke-linecap="round" stroke-linejoin="round" stroke-miterlimit="10" cx="80.772" cy="226.731" r="0.661"/>
	
		<line fill="none" stroke="#FFFFFF" stroke-linecap="round" stroke-linejoin="round" stroke-miterlimit="10" x1="83.942" y1="226.731" x2="83.292" y2="226.731"/>
	
		<line fill="none" stroke="#FFFFFF" stroke-linecap="round" stroke-linejoin="round" stroke-miterlimit="10" x1="78.252" y1="226.731" x2="77.602" y2="226.731"/>
	
		<line fill="none" stroke="#FFFFFF" stroke-linecap="round" stroke-linejoin="round" stroke-miterlimit="10" x1="83.014" y1="224.489" x2="82.554" y2="224.949"/>
	
		<line fill="none" stroke="#FFFFFF" stroke-linecap="round" stroke-linejoin="round" stroke-miterlimit="10" x1="78.99" y1="228.512" x2="78.53" y2="228.972"/>
	
		<line fill="none" stroke="#FFFFFF" stroke-linecap="round" stroke-linejoin="round" stroke-miterlimit="10" x1="80.772" y1="223.561" x2="80.772" y2="224.211"/>
	
		<line fill="none" stroke="#FFFFFF" stroke-linecap="round" stroke-linejoin="round" stroke-miterlimit="10" x1="80.772" y1="229.25" x2="80.772" y2="229.901"/>
	
		<line fill="none" stroke="#FFFFFF" stroke-linecap="round" stroke-linejoin="round" stroke-miterlimit="10" x1="78.53" y1="224.489" x2="80.772" y2="226.731"/>
	
		<line fill="none" stroke="#FFFFFF" stroke-linecap="round" stroke-linejoin="round" stroke-miterlimit="10" x1="101.015" y1="226.731" x2="100.364" y2="226.731"/>
	
		<line fill="none" stroke="#FFFFFF" stroke-linecap="round" stroke-linejoin="round" stroke-miterlimit="10" x1="95.325" y1="226.731" x2="94.674" y2="226.731"/>
	
		<line fill="none" stroke="#FFFFFF" stroke-linecap="round" stroke-linejoin="round" stroke-miterlimit="10" x1="100.086" y1="224.489" x2="99.626" y2="224.949"/>
	
		<line fill="none" stroke="#FFFFFF" stroke-linecap="round" stroke-linejoin="round" stroke-miterlimit="10" x1="97.844" y1="223.561" x2="97.844" y2="226.731"/>
	
		<line fill="none" stroke="#FFFFFF" stroke-linecap="round" stroke-linejoin="round" stroke-miterlimit="10" x1="95.603" y1="224.489" x2="96.063" y2="224.949"/>
	
		<line fill="none" stroke="#FFFFFF" stroke-linecap="round" stroke-linejoin="round" stroke-miterlimit="10" x1="82.554" y1="228.512" x2="83.014" y2="228.972"/>
</g>
<g>
	<g>
		<path fill="none" stroke="#FFFFFF" stroke-linecap="round" stroke-linejoin="round" stroke-miterlimit="10" d="M144.626,236.056
			h-12.487c-1.409,0-2.551-1.142-2.551-2.551v-22.161c0-1.409,1.142-2.551,2.551-2.551h12.487c1.409,0,2.551,1.142,2.551,2.551
			v22.161C147.177,234.913,146.035,236.056,144.626,236.056z"/>
		
			<rect x="132.288" y="211.492" fill="none" stroke="#FFFFFF" stroke-linecap="round" stroke-linejoin="round" stroke-miterlimit="10" width="12.19" height="21.864"/>
		
			<line fill="none" stroke="#FFFFFF" stroke-linecap="round" stroke-linejoin="round" stroke-miterlimit="10" x1="140.388" y1="214.192" x2="141.777" y2="214.192"/>
		
			<line fill="none" stroke="#FFFFFF" stroke-linecap="round" stroke-linejoin="round" stroke-miterlimit="10" x1="134.988" y1="214.192" x2="136.377" y2="214.192"/>
		
			<line fill="none" stroke="#FFFFFF" stroke-linecap="round" stroke-linejoin="round" stroke-miterlimit="10" x1="134.988" y1="240.556" x2="134.988" y2="236.056"/>
		
			<line fill="none" stroke="#FFFFFF" stroke-linecap="round" stroke-linejoin="round" stroke-miterlimit="10" x1="141.777" y1="236.056" x2="141.777" y2="240.556"/>
		<path fill="none" stroke="#FFFFFF" stroke-linecap="round" stroke-linejoin="round" stroke-miterlimit="10" d="M147.177,217.792
			h1.424c0.704,0,1.276,0.571,1.276,1.276v6.712c0,0.704-0.571,1.276-1.276,1.276h-1.424"/>
		
			<line fill="none" stroke="#FFFFFF" stroke-linecap="round" stroke-linejoin="round" stroke-miterlimit="10" x1="149.877" y1="219.592" x2="151.302" y2="219.592"/>
		
			<line fill="none" stroke="#FFFFFF" stroke-linecap="round" stroke-linejoin="round" stroke-miterlimit="10" x1="151.302" y1="225.256" x2="149.877" y2="225.256"/>
		
			<line fill="none" stroke="#FFFFFF" stroke-linecap="round" stroke-linejoin="round" stroke-miterlimit="10" x1="125.463" y1="219.592" x2="126.888" y2="219.592"/>
		
			<line fill="none" stroke="#FFFFFF" stroke-linecap="round" stroke-linejoin="round" stroke-miterlimit="10" x1="126.888" y1="225.256" x2="125.463" y2="225.256"/>
		<path fill="none" stroke="#FFFFFF" stroke-linecap="round" stroke-linejoin="round" stroke-miterlimit="10" d="M129.588,217.792
			h-1.424c-0.704,0-1.276,0.571-1.276,1.276v6.712c0,0.704,0.571,1.276,1.276,1.276h1.424"/>
		
			<rect x="136.257" y="228.443" fill="none" stroke="#FFFFFF" stroke-linecap="round" stroke-linejoin="round" stroke-miterlimit="10" width="4.251" height="2.183"/>
		
			<line fill="none" stroke="#FFFFFF" stroke-linecap="round" stroke-linejoin="round" stroke-miterlimit="10" x1="140.508" y1="221.939" x2="141.415" y2="221.939"/>
		
			<line fill="none" stroke="#FFFFFF" stroke-linecap="round" stroke-linejoin="round" stroke-miterlimit="10" x1="135.35" y1="221.939" x2="136.257" y2="221.939"/>
		
			<line fill="none" stroke="#FFFFFF" stroke-linecap="round" stroke-linejoin="round" stroke-miterlimit="10" x1="139.885" y1="220.437" x2="140.527" y2="219.795"/>
		
			<line fill="none" stroke="#FFFFFF" stroke-linecap="round" stroke-linejoin="round" stroke-miterlimit="10" x1="136.238" y1="224.084" x2="136.88" y2="223.442"/>
		
			<line fill="none" stroke="#FFFFFF" stroke-linecap="round" stroke-linejoin="round" stroke-miterlimit="10" x1="138.383" y1="219.814" x2="138.383" y2="218.907"/>
		
			<line fill="none" stroke="#FFFFFF" stroke-linecap="round" stroke-linejoin="round" stroke-miterlimit="10" x1="138.383" y1="224.972" x2="138.383" y2="224.065"/>
		
			<line fill="none" stroke="#FFFFFF" stroke-linecap="round" stroke-linejoin="round" stroke-miterlimit="10" x1="136.88" y1="220.437" x2="136.238" y2="219.795"/>
		
			<line fill="none" stroke="#FFFFFF" stroke-linecap="round" stroke-linejoin="round" stroke-miterlimit="10" x1="140.527" y1="224.084" x2="139.885" y2="223.442"/>
	</g>
</g>
</svg>
