<?xml version="1.0" encoding="utf-8"?>
<!-- Generator: Adobe Illustrator 24.0.0, SVG Export Plug-In . SVG Version: 6.00 Build 0)  -->
<svg version="1.1" id="Laag_1" xmlns="http://www.w3.org/2000/svg" xmlns:xlink="http://www.w3.org/1999/xlink" x="0px" y="0px"
	 viewBox="0 0 178.583 277.795" enable-background="new 0 0 178.583 277.795" xml:space="preserve">
<path fill="#D9328A" d="M164.409,277.795H14.173C6.346,277.795,0,271.45,0,263.622V14.173C0,6.346,6.346,0,14.173,0h150.236
	c7.828,0,14.173,6.346,14.173,14.173v249.449C178.583,271.45,172.237,277.795,164.409,277.795z"/>
<g>
	<text transform="matrix(1 0 0 1 116.6033 252.3286)" fill="#FFFFFF" font-family="'Montserrat-Regular'" font-size="8px">Waaklamp</text>
</g>
<g>
	<text transform="matrix(1 0 0 1 26.9866 252.3288)" fill="#FFFFFF" font-family="'Montserrat-Regular'" font-size="8px">Poortje</text>
</g>
<g>
	<text transform="matrix(1 0 0 1 72.5785 252.3291)" fill="#FFFFFF" font-family="'Montserrat-Regular'" font-size="8px">Flitspaal</text>
</g>
<text transform="matrix(1 0 0 1 23.1642 37.5056)"><tspan x="0" y="0" fill="#FFFFFF" font-family="'Montserrat-ExtraBold'" font-size="14px" letter-spacing="1">MOTION</tspan><tspan x="0" y="18" fill="#FFFFFF" font-family="'Montserrat-Regular'" font-size="10px">Fietssensor</tspan></text>
<g>
	<path fill="none" stroke="#FFFFFF" stroke-linecap="round" stroke-linejoin="round" stroke-miterlimit="10" d="M150.719,39.775
		c-0.278-3.269,2.614-4.316,2.614-4.316l0.371-1.995c0.106-0.947,0.96-1.628,1.907-1.521s1.628,0.96,1.521,1.907l-0.541,2.909
		c0,0-0.728,5.383-3.532,7.022c-2.299,1.343-5.251,0.568-6.594-1.731l-4.084-6.99c-1.195-2.045-0.505-4.672,1.54-5.867
		c2.045-1.195,4.672-0.505,5.867,1.54l0.918,1.571"/>
	<path fill="none" stroke="#FFFFFF" stroke-linecap="round" stroke-linejoin="round" stroke-miterlimit="10" d="M141.897,25.725
		c1.914-1.117,4.148-1.425,6.295-0.861c2.146,0.563,3.944,1.928,5.062,3.844"/>
	<path fill="none" stroke="#FFFFFF" stroke-linecap="round" stroke-linejoin="round" stroke-miterlimit="10" d="M139.875,22.258
		c2.841-1.659,6.158-2.11,9.336-1.277c3.183,0.836,5.85,2.861,7.509,5.702l0.915,1.567"/>
</g>
<g>
	
		<rect x="36.65" y="217.752" fill="none" stroke="#FFFFFF" stroke-linecap="round" stroke-linejoin="round" stroke-miterlimit="10" width="9.44" height="10.322"/>
	<polygon fill="none" stroke="#FFFFFF" stroke-linecap="round" stroke-linejoin="round" stroke-miterlimit="10" points="
		43.85,223.036 41.37,219.698 38.889,223.036 	"/>
	
		<line fill="none" stroke="#FFFFFF" stroke-linecap="round" stroke-linejoin="round" stroke-miterlimit="10" x1="41.37" y1="224.836" x2="41.37" y2="226.208"/>
	<path fill="none" stroke="#FFFFFF" stroke-linecap="round" stroke-linejoin="round" stroke-miterlimit="10" d="M48.79,217.752
		h2.183c1.169,0,2.116,0.947,2.116,2.116v6.09c0,1.169-0.947,2.116-2.116,2.116H48.79"/>
	<polyline fill="none" stroke="#FFFFFF" stroke-linecap="round" stroke-linejoin="round" stroke-miterlimit="10" points="
		33.95,228.074 29.65,228.074 29.65,217.752 33.95,217.752 	"/>
	
		<line fill="none" stroke="#FFFFFF" stroke-linecap="round" stroke-linejoin="round" stroke-miterlimit="10" x1="55.815" y1="237.586" x2="55.815" y2="216.852"/>
	
		<rect x="54.72" y="211.964" fill="none" stroke="#FFFFFF" stroke-linecap="round" stroke-linejoin="round" stroke-miterlimit="10" width="2.189" height="2.189"/>
	
		<line fill="none" stroke="#FFFFFF" stroke-linecap="round" stroke-linejoin="round" stroke-miterlimit="10" x1="26.95" y1="237.586" x2="26.95" y2="216.852"/>
	
		<rect x="25.856" y="211.964" fill="none" stroke="#FFFFFF" stroke-linecap="round" stroke-linejoin="round" stroke-miterlimit="10" width="2.189" height="2.189"/>
</g>
<g>
	<path fill="none" stroke="#FFFFFF" stroke-linecap="round" stroke-linejoin="round" stroke-miterlimit="10" d="M142.522,234.327
		h-8.582c-1.409,0-2.551-1.142-2.551-2.551v-12.007c0-1.409,1.142-2.551,2.551-2.551h8.582c1.409,0,2.551,1.142,2.551,2.551v12.007
		C145.073,233.184,143.931,234.327,142.522,234.327z"/>
	
		<line fill="none" stroke="#FFFFFF" stroke-linecap="round" stroke-linejoin="round" stroke-miterlimit="10" x1="145.973" y1="214.518" x2="130.489" y2="214.518"/>
	
		<line fill="none" stroke="#FFFFFF" stroke-linecap="round" stroke-linejoin="round" stroke-miterlimit="10" x1="140.573" y1="231.627" x2="135.889" y2="231.627"/>
	
		<line fill="none" stroke="#FFFFFF" stroke-linecap="round" stroke-linejoin="round" stroke-miterlimit="10" x1="140.573" y1="237.027" x2="135.889" y2="237.027"/>
	<path fill="none" stroke="#FFFFFF" stroke-linecap="round" stroke-linejoin="round" stroke-miterlimit="10" d="M140.026,227.477
		v1.449h-3.59v-1.447c0-0.628-0.209-1.256-0.652-1.701c-0.806-0.81-1.213-2.013-0.887-3.305c0.303-1.205,1.291-2.174,2.501-2.458
		c2.265-0.531,4.28,1.174,4.28,3.349c0,0.929-0.371,1.767-0.971,2.384C140.26,226.209,140.026,226.835,140.026,227.477z"/>
	<path fill="none" stroke="#FFFFFF" stroke-linecap="round" stroke-linejoin="round" stroke-miterlimit="10" d="M139.252,222.072
		c-0.234-0.185-0.731-0.472-1.444-0.305c-0.557,0.131-1.026,0.592-1.165,1.145c-0.15,0.597,0.002,1.178,0.417,1.595"/>
	<path fill="none" stroke="#FFFFFF" stroke-linecap="round" stroke-linejoin="round" stroke-miterlimit="10" d="M143.668,211.818
		c-1.123-1.827-3.135-3.049-5.437-3.049c-2.302,0-4.313,1.222-5.437,3.049H143.668z"/>
</g>
<g>
	
		<circle fill="none" stroke="#FFFFFF" stroke-linecap="round" stroke-linejoin="round" stroke-miterlimit="10" cx="89.284" cy="218.056" r="4.188"/>
	<path fill="none" stroke="#FFFFFF" stroke-linecap="round" stroke-linejoin="round" stroke-miterlimit="10" d="M89.284,216.117
		c-1.069,0-1.938,0.87-1.938,1.938"/>
	<polygon fill="none" stroke="#FFFFFF" stroke-linecap="round" stroke-linejoin="round" stroke-miterlimit="10" points="
		98.901,224.944 79.71,224.944 79.682,211.167 98.873,211.167 	"/>
	<path fill="none" stroke="#FFFFFF" stroke-linecap="round" stroke-linejoin="round" stroke-miterlimit="10" d="M77.91,218.059
		l-0.028-6.888c-0.001-0.478,0.188-0.936,0.526-1.275c0.338-0.338,0.796-0.529,1.274-0.529h19.191c0.993,0,1.798,0.804,1.8,1.796
		l0.028,6.889"/>
	
		<line fill="none" stroke="#FFFFFF" stroke-linecap="round" stroke-linejoin="round" stroke-miterlimit="10" x1="92.601" y1="227.644" x2="86.01" y2="227.644"/>
	
		<rect x="86.91" y="230.344" fill="none" stroke="#FFFFFF" stroke-linecap="round" stroke-linejoin="round" stroke-miterlimit="10" width="4.791" height="6.084"/>
</g>
<g>
	
		<line fill="none" stroke="#FFFFFF" stroke-width="2" stroke-linecap="round" stroke-linejoin="round" stroke-miterlimit="10" x1="68.25" y1="102.423" x2="68.25" y2="171.208"/>
	
		<line fill="none" stroke="#FFFFFF" stroke-width="2" stroke-linecap="round" stroke-linejoin="round" stroke-miterlimit="10" x1="110.333" y1="102.423" x2="110.333" y2="171.208"/>
	<path fill="none" stroke="#FFFFFF" stroke-width="2" stroke-linecap="round" stroke-linejoin="round" stroke-miterlimit="10" d="
		M94.016,106.031h-9.449c-5.284,0-9.567,4.283-9.567,9.567v33.079c0,3.522,2.856,6.378,6.378,6.378h15.827
		c3.522,0,6.378-2.856,6.378-6.378v-33.079C103.583,110.314,99.3,106.031,94.016,106.031z"/>
	<path fill="none" stroke="#FFFFFF" stroke-width="2" stroke-linecap="round" stroke-linejoin="round" stroke-miterlimit="10" d="
		M110.333,102.423c-5.193-5.75-12.683-9.386-21.042-9.386s-15.849,3.636-21.042,9.386"/>
	<g>
		
			<circle fill="none" stroke="#FFFFFF" stroke-width="2" stroke-linecap="round" stroke-linejoin="round" stroke-miterlimit="10" cx="83.499" cy="139.099" r="3.685"/>
		
			<circle fill="none" stroke="#FFFFFF" stroke-width="2" stroke-linecap="round" stroke-linejoin="round" stroke-miterlimit="10" cx="95.821" cy="139.099" r="3.685"/>
		<path fill="none" stroke="#FFFFFF" stroke-width="2" stroke-linecap="round" stroke-linejoin="round" stroke-miterlimit="10" d="
			M83.499,139.099l2.627-8.01c0.117-0.37,0.461-0.622,0.849-0.622h1.267"/>
		
			<line fill="none" stroke="#FFFFFF" stroke-width="2" stroke-linecap="round" stroke-linejoin="round" stroke-miterlimit="10" x1="92.759" y1="130.777" x2="95.254" y2="130.777"/>
		
			<line fill="none" stroke="#FFFFFF" stroke-width="2" stroke-linecap="round" stroke-linejoin="round" stroke-miterlimit="10" x1="95.821" y1="139.099" x2="90.329" y2="139.099"/>
		
			<polyline fill="none" stroke="#FFFFFF" stroke-width="2" stroke-linecap="round" stroke-linejoin="round" stroke-miterlimit="10" points="
			85.3,133.607 93.159,133.607 94.215,135.787 		"/>
	</g>
	
		<line fill="none" stroke="#FFFFFF" stroke-width="2" stroke-linecap="round" stroke-linejoin="round" stroke-miterlimit="10" x1="75" y1="122.899" x2="103.583" y2="122.899"/>
	
		<circle fill="none" stroke="#FFFFFF" stroke-width="2" stroke-linecap="round" stroke-linejoin="round" stroke-miterlimit="10" cx="83.008" cy="114.654" r="0.481"/>
	
		<circle fill="none" stroke="#FFFFFF" stroke-width="2" stroke-linecap="round" stroke-linejoin="round" stroke-miterlimit="10" cx="89.758" cy="114.654" r="0.481"/>
	
		<circle fill="none" stroke="#FFFFFF" stroke-width="2" stroke-linecap="round" stroke-linejoin="round" stroke-miterlimit="10" cx="96.508" cy="114.654" r="0.481"/>
</g>
</svg>
