<?xml version="1.0" encoding="utf-8"?>
<!-- Generator: Adobe Illustrator 24.0.0, SVG Export Plug-In . SVG Version: 6.00 Build 0)  -->
<svg version="1.1" id="Laag_1" xmlns="http://www.w3.org/2000/svg" xmlns:xlink="http://www.w3.org/1999/xlink" x="0px" y="0px"
	 viewBox="0 0 178.583 277.795" enable-background="new 0 0 178.583 277.795" xml:space="preserve">
<path fill="#8C368C" d="M164.409,277.795H14.173C6.346,277.795,0,271.45,0,263.622V14.173C0,6.346,6.346,0,14.173,0h150.236
	c7.828,0,14.173,6.346,14.173,14.173v249.449C178.583,271.45,172.237,277.795,164.409,277.795z"/>
<g>
	<text transform="matrix(1 0 0 1 124.2233 252.3286)" fill="#FFFFFF" font-family="'Montserrat-Regular'" font-size="8px">iPhone</text>
</g>
<g>
	<text transform="matrix(1 0 0 1 23.1945 252.3288)" fill="#FFFFFF" font-family="'Montserrat-Regular'" font-size="8px">Billboard</text>
</g>
<g>
	<text transform="matrix(1 0 0 1 65.3881 252.3291)" fill="#FFFFFF" font-family="'Montserrat-Regular'" font-size="8px">Parkeerplek</text>
</g>
<text transform="matrix(1 0 0 1 23.1642 37.5056)"><tspan x="0" y="0" fill="#FFFFFF" font-family="'Montserrat-ExtraBold'" font-size="14px" letter-spacing="1">SCHERMEN</tspan><tspan x="0" y="18" fill="#FFFFFF" font-family="'Montserrat-Regular'" font-size="10px">Kaart</tspan></text>
<g>
	
		<line fill="none" stroke="#FFFFFF" stroke-linecap="round" stroke-linejoin="round" stroke-miterlimit="10" x1="85.194" y1="215.649" x2="82.313" y2="215.649"/>
	
		<rect x="73.168" y="210.708" fill="none" stroke="#FFFFFF" stroke-linecap="round" stroke-linejoin="round" stroke-miterlimit="10" width="32.248" height="19.762"/>
	
		<line fill="none" stroke="#FFFFFF" stroke-linecap="round" stroke-linejoin="round" stroke-miterlimit="10" x1="92.815" y1="208.108" x2="85.768" y2="208.108"/>
	
		<line fill="none" stroke="#FFFFFF" stroke-linecap="round" stroke-linejoin="round" stroke-miterlimit="10" x1="92.815" y1="233.17" x2="85.768" y2="233.17"/>
	
		<line fill="none" stroke="#FFFFFF" stroke-linecap="round" stroke-linejoin="round" stroke-miterlimit="10" x1="91.091" y1="233.17" x2="91.091" y2="237.688"/>
	
		<line fill="none" stroke="#FFFFFF" stroke-linecap="round" stroke-linejoin="round" stroke-miterlimit="10" x1="87.491" y1="233.17" x2="87.491" y2="237.688"/>
	
		<line fill="none" stroke="#FFFFFF" stroke-linecap="round" stroke-linejoin="round" stroke-miterlimit="10" x1="75.868" y1="220.589" x2="102.715" y2="220.589"/>
	<polygon fill="none" stroke="#FFFFFF" stroke-linecap="round" stroke-linejoin="round" stroke-miterlimit="10" points="
		79.274,223.511 77.064,225.153 79.274,226.794 	"/>
	<polygon fill="none" stroke="#FFFFFF" stroke-linecap="round" stroke-linejoin="round" stroke-miterlimit="10" points="
		79.811,216.504 78.169,214.294 76.527,216.504 	"/>
	<path fill="none" stroke="#FFFFFF" stroke-linecap="round" stroke-linejoin="round" stroke-miterlimit="10" d="M82.38,225.636
		h0.901c0.764,0,1.384-0.62,1.384-1.384c0-0.764-0.62-1.384-1.384-1.384H82.38v4.569"/>
	
		<rect x="87.754" y="223.289" fill="none" stroke="#FFFFFF" stroke-linecap="round" stroke-linejoin="round" stroke-miterlimit="10" width="14.961" height="4.481"/>
	
		<rect x="87.754" y="213.408" fill="none" stroke="#FFFFFF" stroke-linecap="round" stroke-linejoin="round" stroke-miterlimit="10" width="14.961" height="4.481"/>
</g>
<g>
	<path fill="none" stroke="#FFFFFF" stroke-linecap="round" stroke-linejoin="round" stroke-miterlimit="10" d="M144.214,235.67
		h-9.623c-1.409,0-2.551-1.142-2.551-2.551v-22.969c0-1.409,1.142-2.551,2.551-2.551h9.623c1.409,0,2.551,1.142,2.551,2.551v22.969
		C146.765,234.528,145.623,235.67,144.214,235.67z"/>
	
		<line fill="none" stroke="#FFFFFF" stroke-linecap="round" stroke-linejoin="round" stroke-miterlimit="10" x1="146.765" y1="210.149" x2="132.04" y2="210.149"/>
	
		<line fill="none" stroke="#FFFFFF" stroke-linecap="round" stroke-linejoin="round" stroke-miterlimit="10" x1="146.765" y1="233.119" x2="132.04" y2="233.119"/>
	
		<line fill="none" stroke="#FFFFFF" stroke-linecap="round" stroke-linejoin="round" stroke-miterlimit="10" x1="134.615" y1="226.216" x2="140.054" y2="220.777"/>
	
		<line fill="none" stroke="#FFFFFF" stroke-linecap="round" stroke-linejoin="round" stroke-miterlimit="10" x1="142.917" y1="217.914" x2="141.582" y2="219.249"/>
	
		<line fill="none" stroke="#FFFFFF" stroke-linecap="round" stroke-linejoin="round" stroke-miterlimit="10" x1="136.859" y1="220.372" x2="142.979" y2="214.252"/>
	
		<line fill="none" stroke="#FFFFFF" stroke-linecap="round" stroke-linejoin="round" stroke-miterlimit="10" x1="140.059" y1="228.372" x2="143.412" y2="225.019"/>
</g>
<g>
	
		<rect x="141.167" y="26.193" fill="none" stroke="#FFFFFF" stroke-linecap="round" stroke-linejoin="round" stroke-miterlimit="10" width="16.216" height="11.418"/>
	
		<line fill="none" stroke="#FFFFFF" stroke-linecap="round" stroke-linejoin="round" stroke-miterlimit="10" x1="152.738" y1="40.411" x2="145.811" y2="40.411"/>
	
		<line fill="none" stroke="#FFFFFF" stroke-linecap="round" stroke-linejoin="round" stroke-miterlimit="10" x1="157.383" y1="35.106" x2="141.167" y2="35.106"/>
	
		<line fill="none" stroke="#FFFFFF" stroke-linecap="round" stroke-linejoin="round" stroke-miterlimit="10" x1="144.7" y1="35.106" x2="149.672" y2="30.134"/>
	
		<line fill="none" stroke="#FFFFFF" stroke-linecap="round" stroke-linejoin="round" stroke-miterlimit="10" x1="150.704" y1="31.902" x2="153.872" y2="28.734"/>
</g>
<g>
	
		<rect x="24.259" y="209.638" fill="none" stroke="#FFFFFF" stroke-linecap="round" stroke-linejoin="round" stroke-miterlimit="10" width="32.248" height="22.462"/>
	
		<line fill="none" stroke="#FFFFFF" stroke-linecap="round" stroke-linejoin="round" stroke-miterlimit="10" x1="35.059" y1="234.8" x2="45.707" y2="234.8"/>
	
		<line fill="none" stroke="#FFFFFF" stroke-linecap="round" stroke-linejoin="round" stroke-miterlimit="10" x1="21.559" y1="224" x2="21.559" y2="229.4"/>
	
		<line fill="none" stroke="#FFFFFF" stroke-linecap="round" stroke-linejoin="round" stroke-miterlimit="10" x1="38.583" y1="234.8" x2="38.583" y2="238.4"/>
	
		<line fill="none" stroke="#FFFFFF" stroke-linecap="round" stroke-linejoin="round" stroke-miterlimit="10" x1="42.183" y1="234.8" x2="42.183" y2="238.4"/>
	
		<rect x="26.959" y="212.338" fill="none" stroke="#FFFFFF" stroke-linecap="round" stroke-linejoin="round" stroke-miterlimit="10" width="26.848" height="14.362"/>
	
		<line fill="none" stroke="#FFFFFF" stroke-linecap="round" stroke-linejoin="round" stroke-miterlimit="10" x1="59.207" y1="224" x2="59.207" y2="229.4"/>
	<path fill="none" stroke="#FFFFFF" stroke-linecap="round" stroke-linejoin="round" stroke-miterlimit="10" d="M41.283,226.7
		l-4.821-5.571c-0.509-0.588-1.42-0.588-1.929,0l-4.821,5.571"/>
	<path fill="none" stroke="#FFFFFF" stroke-linecap="round" stroke-linejoin="round" stroke-miterlimit="10" d="M51.053,226.7
		l-6.49-7.5c-0.509-0.588-1.42-0.588-1.929,0l-3.92,4.53"/>
	
		<circle fill="none" stroke="#FFFFFF" stroke-linecap="round" stroke-linejoin="round" stroke-miterlimit="10" cx="31.665" cy="217.045" r="2.006"/>
</g>
<g>
	<path fill="none" stroke="#FFFFFF" stroke-width="2" stroke-linecap="round" stroke-linejoin="round" stroke-miterlimit="10" d="
		M60.232,92.694v65.899c0,3.522,2.856,6.378,6.378,6.378h45.363c3.522,0,6.378-2.856,6.378-6.378V92.694
		c0-3.522-2.856-6.378-6.378-6.378H66.61C63.087,86.316,60.232,89.172,60.232,92.694z"/>
	
		<line fill="none" stroke="#FFFFFF" stroke-width="2" stroke-linecap="round" stroke-linejoin="round" stroke-miterlimit="10" x1="118.351" y1="93.066" x2="60.232" y2="93.066"/>
	
		<line fill="none" stroke="#FFFFFF" stroke-width="2" stroke-linecap="round" stroke-linejoin="round" stroke-miterlimit="10" x1="60.232" y1="158.221" x2="118.351" y2="158.221"/>
	<path fill="none" stroke="#FFFFFF" stroke-width="2" stroke-linecap="round" stroke-linejoin="round" stroke-miterlimit="10" d="
		M103.02,123.394c0,3.403-6.161,10.661-6.161,10.661s-6.161-7.258-6.161-10.661c0-3.403,2.758-6.161,6.161-6.161
		C100.262,117.233,103.02,119.991,103.02,123.394z"/>
	
		<circle fill="none" stroke="#FFFFFF" stroke-width="2" stroke-linecap="round" stroke-linejoin="round" stroke-miterlimit="10" cx="96.859" cy="123.394" r="1.479"/>
	
		<line fill="none" stroke="#FFFFFF" stroke-width="2" stroke-linecap="round" stroke-linejoin="round" stroke-miterlimit="10" x1="86.198" y1="164.971" x2="86.198" y2="173.971"/>
	
		<line fill="none" stroke="#FFFFFF" stroke-width="2" stroke-linecap="round" stroke-linejoin="round" stroke-miterlimit="10" x1="95.198" y1="164.971" x2="95.198" y2="173.971"/>
	
		<line fill="none" stroke="#FFFFFF" stroke-width="2" stroke-linecap="round" stroke-linejoin="round" stroke-miterlimit="10" x1="60.232" y1="137.495" x2="77.058" y2="120.669"/>
	
		<line fill="none" stroke="#FFFFFF" stroke-width="2" stroke-linecap="round" stroke-linejoin="round" stroke-miterlimit="10" x1="77.058" y1="120.669" x2="104.472" y2="93.254"/>
	
		<line fill="none" stroke="#FFFFFF" stroke-width="2" stroke-linecap="round" stroke-linejoin="round" stroke-miterlimit="10" x1="60.232" y1="146.495" x2="72.183" y2="134.544"/>
	
		<line fill="none" stroke="#FFFFFF" stroke-width="2" stroke-linecap="round" stroke-linejoin="round" stroke-miterlimit="10" x1="67.683" y1="130.044" x2="81.183" y2="143.544"/>
	
		<line fill="none" stroke="#FFFFFF" stroke-width="2" stroke-linecap="round" stroke-linejoin="round" stroke-miterlimit="10" x1="66.505" y1="158.221" x2="94.169" y2="130.557"/>
	
		<line fill="none" stroke="#FFFFFF" stroke-width="2" stroke-linecap="round" stroke-linejoin="round" stroke-miterlimit="10" x1="103.02" y1="121.706" x2="118.351" y2="106.376"/>
	
		<line fill="none" stroke="#FFFFFF" stroke-width="2" stroke-linecap="round" stroke-linejoin="round" stroke-miterlimit="10" x1="118.351" y1="149.141" x2="99.64" y2="130.43"/>
	
		<line fill="none" stroke="#FFFFFF" stroke-width="2" stroke-linecap="round" stroke-linejoin="round" stroke-miterlimit="10" x1="118.351" y1="139.43" x2="99.56" y2="158.221"/>
	
		<line fill="none" stroke="#FFFFFF" stroke-width="2" stroke-linecap="round" stroke-linejoin="round" stroke-miterlimit="10" x1="118.351" y1="131.141" x2="92.468" y2="105.258"/>
	
		<line fill="none" stroke="#FFFFFF" stroke-width="2" stroke-linecap="round" stroke-linejoin="round" stroke-miterlimit="10" x1="77.058" y1="120.669" x2="60.232" y2="103.843"/>
	
		<line fill="none" stroke="#FFFFFF" stroke-width="2" stroke-linecap="round" stroke-linejoin="round" stroke-miterlimit="10" x1="60.232" y1="119.495" x2="68.058" y2="111.669"/>
</g>
</svg>
