<?xml version="1.0" encoding="utf-8"?>
<!-- Generator: Adobe Illustrator 24.0.0, SVG Export Plug-In . SVG Version: 6.00 Build 0)  -->
<svg version="1.1" id="Laag_1" xmlns="http://www.w3.org/2000/svg" xmlns:xlink="http://www.w3.org/1999/xlink" x="0px" y="0px"
	 viewBox="0 0 178.583 277.795" enable-background="new 0 0 178.583 277.795" xml:space="preserve">
<path fill="#F07D17" d="M164.409,277.795H14.173C6.346,277.795,0,271.45,0,263.622V14.173C0,6.346,6.346,0,14.173,0h150.236
	c7.828,0,14.173,6.346,14.173,14.173v249.449C178.583,271.45,172.237,277.795,164.409,277.795z"/>
<g>
	<polyline fill="none" stroke="#FFFFFF" stroke-linecap="round" stroke-linejoin="round" stroke-miterlimit="10" points="
		40.583,229.744 40.583,234.244 42.383,234.244 42.383,229.744 	"/>
	<polyline fill="none" stroke="#FFFFFF" stroke-linecap="round" stroke-linejoin="round" stroke-miterlimit="10" points="
		51.383,229.744 51.383,234.244 53.183,234.244 53.183,229.744 	"/>
	<polyline fill="none" stroke="#FFFFFF" stroke-linecap="round" stroke-linejoin="round" stroke-miterlimit="10" points="
		29.783,229.459 29.783,234.244 31.583,234.244 31.583,229.459 	"/>
	<polyline fill="none" stroke="#FFFFFF" stroke-linecap="round" stroke-linejoin="round" stroke-miterlimit="10" points="
		29.783,224.959 29.783,220.459 27.083,220.459 27.083,227.659 55.883,227.659 55.883,220.459 53.183,220.459 53.183,224.959 	"/>
	
		<line fill="none" stroke="#FFFFFF" stroke-linecap="round" stroke-linejoin="round" stroke-miterlimit="10" x1="33.264" y1="224.959" x2="33.264" y2="222.259"/>
	
		<line fill="none" stroke="#FFFFFF" stroke-linecap="round" stroke-linejoin="round" stroke-miterlimit="10" x1="35.964" y1="224.959" x2="35.964" y2="222.259"/>
	
		<line fill="none" stroke="#FFFFFF" stroke-linecap="round" stroke-linejoin="round" stroke-miterlimit="10" x1="38.664" y1="224.959" x2="38.664" y2="222.259"/>
	
		<line fill="none" stroke="#FFFFFF" stroke-linecap="round" stroke-linejoin="round" stroke-miterlimit="10" x1="41.364" y1="224.959" x2="41.364" y2="222.259"/>
	
		<line fill="none" stroke="#FFFFFF" stroke-linecap="round" stroke-linejoin="round" stroke-miterlimit="10" x1="44.064" y1="224.959" x2="44.064" y2="222.259"/>
	
		<line fill="none" stroke="#FFFFFF" stroke-linecap="round" stroke-linejoin="round" stroke-miterlimit="10" x1="46.764" y1="224.959" x2="46.764" y2="222.259"/>
	
		<line fill="none" stroke="#FFFFFF" stroke-linecap="round" stroke-linejoin="round" stroke-miterlimit="10" x1="49.464" y1="224.959" x2="49.464" y2="222.259"/>
	
		<line fill="none" stroke="#FFFFFF" stroke-linecap="round" stroke-linejoin="round" stroke-miterlimit="10" x1="29.783" y1="221.359" x2="29.783" y2="215.059"/>
	
		<line fill="none" stroke="#FFFFFF" stroke-linecap="round" stroke-linejoin="round" stroke-miterlimit="10" x1="29.783" y1="224.959" x2="53.183" y2="224.959"/>
	
		<line fill="none" stroke="#FFFFFF" stroke-linecap="round" stroke-linejoin="round" stroke-miterlimit="10" x1="29.783" y1="222.259" x2="53.183" y2="222.259"/>
	
		<line fill="none" stroke="#FFFFFF" stroke-linecap="round" stroke-linejoin="round" stroke-miterlimit="10" x1="53.183" y1="221.359" x2="53.183" y2="215.059"/>
	
		<line fill="none" stroke="#FFFFFF" stroke-linecap="round" stroke-linejoin="round" stroke-miterlimit="10" x1="28.645" y1="217.759" x2="54.083" y2="217.759"/>
	
		<line fill="none" stroke="#FFFFFF" stroke-linecap="round" stroke-linejoin="round" stroke-miterlimit="10" x1="28.645" y1="215.059" x2="54.083" y2="215.059"/>
</g>
<g>
	
		<circle fill="none" stroke="#FFFFFF" stroke-width="2" stroke-linecap="round" stroke-linejoin="round" stroke-miterlimit="10" cx="80.989" cy="132.623" r="5.821"/>
	<path fill="none" stroke="#FFFFFF" stroke-width="2" stroke-linecap="round" stroke-linejoin="round" stroke-miterlimit="10" d="
		M89.216,142.871l0.311-0.311c1.181-1.181,2.611-2.133,4.23-2.544c1.608-0.409,3.058-1.188,4.232-2.362
		c4.524-4.524,3.26-13.124-2.823-19.208c-6.084-6.084-14.683-7.348-19.208-2.823c-1.174,1.174-1.953,2.624-2.362,4.232
		c-0.411,1.619-1.363,3.049-2.544,4.23l-0.311,0.311c-2.107,2.107-5.023,3.078-8.001,2.963c-4.315-0.166-8.341,1.153-11.264,4.076
		c-6.603,6.603-5.083,18.828,3.395,27.306c8.478,8.478,20.703,9.997,27.306,3.395c2.924-2.924,4.243-6.949,4.076-11.264
		C86.138,147.894,87.109,144.978,89.216,142.871z"/>
	<path fill="none" stroke="#FFFFFF" stroke-width="2" stroke-linecap="round" stroke-linejoin="round" stroke-miterlimit="10" d="
		M55.453,135.413c-4.325,4.325-2.77,13.186,3.395,19.351"/>
	
		<line fill="none" stroke="#FFFFFF" stroke-width="2" stroke-linecap="round" stroke-linejoin="round" stroke-miterlimit="10" x1="61.576" y1="140.53" x2="73.082" y2="152.036"/>
	
		<polyline fill="none" stroke="#FFFFFF" stroke-width="2" stroke-linecap="round" stroke-linejoin="round" stroke-miterlimit="10" points="
		70.696,149.649 67.514,152.831 60.781,146.098 63.963,142.916 	"/>
	
		<polygon fill="none" stroke="#FFFFFF" stroke-width="2" stroke-linecap="round" stroke-linejoin="round" stroke-miterlimit="10" points="
		116.663,104.838 108.774,96.948 122.861,85.58 128.032,90.751 	"/>
	
		<line fill="none" stroke="#FFFFFF" stroke-width="2" stroke-linecap="round" stroke-linejoin="round" stroke-miterlimit="10" x1="126.358" y1="99.949" x2="124.722" y2="102.023"/>
	
		<line fill="none" stroke="#FFFFFF" stroke-width="2" stroke-linecap="round" stroke-linejoin="round" stroke-miterlimit="10" x1="131.214" y1="93.932" x2="129.557" y2="95.986"/>
	
		<line fill="none" stroke="#FFFFFF" stroke-width="2" stroke-linecap="round" stroke-linejoin="round" stroke-miterlimit="10" x1="121.502" y1="105.966" x2="119.845" y2="108.02"/>
	
		<line fill="none" stroke="#FFFFFF" stroke-width="2" stroke-linecap="round" stroke-linejoin="round" stroke-miterlimit="10" x1="113.662" y1="87.254" x2="111.588" y2="88.89"/>
	
		<line fill="none" stroke="#FFFFFF" stroke-width="2" stroke-linecap="round" stroke-linejoin="round" stroke-miterlimit="10" x1="119.679" y1="82.398" x2="117.626" y2="84.055"/>
	
		<line fill="none" stroke="#FFFFFF" stroke-width="2" stroke-linecap="round" stroke-linejoin="round" stroke-miterlimit="10" x1="107.645" y1="92.11" x2="105.592" y2="93.766"/>
	
		<line fill="none" stroke="#FFFFFF" stroke-width="2" stroke-linecap="round" stroke-linejoin="round" stroke-miterlimit="10" x1="67.329" y1="146.283" x2="119.083" y2="94.529"/>
	
		<line fill="none" stroke="#FFFFFF" stroke-width="2" stroke-linecap="round" stroke-linejoin="round" stroke-miterlimit="10" x1="70.511" y1="149.465" x2="115.901" y2="104.075"/>
	
		<line fill="none" stroke="#FFFFFF" stroke-width="2" stroke-linecap="round" stroke-linejoin="round" stroke-miterlimit="10" x1="64.147" y1="143.101" x2="109.537" y2="97.711"/>
</g>
<g>
	<text transform="matrix(1 0 0 1 120.9675 252.3286)" fill="#FFFFFF" font-family="'Montserrat-Regular'" font-size="8px">Trompet</text>
</g>
<g>
	<text transform="matrix(1 0 0 1 30.0588 252.3288)" fill="#FFFFFF" font-family="'Montserrat-Regular'" font-size="8px">Piano</text>
</g>
<g>
	<text transform="matrix(1 0 0 1 67.5189 252.3291)" fill="#FFFFFF" font-family="'Montserrat-Regular'" font-size="8px">Accordeon</text>
</g>
<g>
	
		<circle fill="none" stroke="#FFFFFF" stroke-linecap="round" stroke-linejoin="round" stroke-miterlimit="10" cx="156.427" cy="40.364" r="1.74"/>
	
		<circle fill="none" stroke="#FFFFFF" stroke-linecap="round" stroke-linejoin="round" stroke-miterlimit="10" cx="149.275" cy="36.835" r="1.836"/>
	
		<circle fill="none" stroke="#FFFFFF" stroke-linecap="round" stroke-linejoin="round" stroke-miterlimit="10" cx="143.198" cy="36.835" r="1.836"/>
	<polyline fill="none" stroke="#FFFFFF" stroke-linecap="round" stroke-linejoin="round" stroke-miterlimit="10" points="
		158.043,39.72 155.262,32.744 157.893,33.215 	"/>
	
		<circle fill="none" stroke="#FFFFFF" stroke-linecap="round" stroke-linejoin="round" stroke-miterlimit="10" cx="140.569" cy="26.759" r="1.681"/>
	<polyline fill="none" stroke="#FFFFFF" stroke-linecap="round" stroke-linejoin="round" stroke-miterlimit="10" points="
		142.131,27.38 144.814,20.64 146.347,22.717 	"/>
	<polyline fill="none" stroke="#FFFFFF" stroke-linecap="round" stroke-linejoin="round" stroke-miterlimit="10" points="
		145.033,36.835 145.033,28.182 151.11,28.182 151.11,36.835 	"/>
</g>
<text transform="matrix(1 0 0 1 23.1642 37.5056)"><tspan x="0" y="0" fill="#FFFFFF" font-family="'Montserrat-ExtraBold'" font-size="14px" letter-spacing="1">INSTRUMENT</tspan><tspan x="0" y="18" fill="#FFFFFF" font-family="'Montserrat-Regular'" font-size="10px">Gitaar</tspan></text>
<g>
	
		<line fill="none" stroke="#FFFFFF" stroke-linecap="round" stroke-linejoin="round" stroke-miterlimit="10" x1="82.274" y1="209.918" x2="90.113" y2="231.458"/>
	<path fill="none" stroke="#FFFFFF" stroke-linecap="round" stroke-linejoin="round" stroke-miterlimit="10" d="M95.808,233.85
		l-3.919-1.426l7.84-21.539l3.919,1.426c1.324,0.482,2.007,1.946,1.525,3.27l-6.094,16.744
		C98.596,233.649,97.132,234.332,95.808,233.85z"/>
	
		<line fill="none" stroke="#FFFFFF" stroke-linecap="round" stroke-linejoin="round" stroke-miterlimit="10" x1="90.113" y1="231.458" x2="97.953" y2="209.918"/>
	
		<line fill="none" stroke="#FFFFFF" stroke-linecap="round" stroke-linejoin="round" stroke-miterlimit="10" x1="90.113" y1="231.458" x2="90.113" y2="208.536"/>
	
		<line fill="none" stroke="#FFFFFF" stroke-linecap="round" stroke-linejoin="round" stroke-miterlimit="10" x1="90.113" y1="231.458" x2="94.093" y2="208.884"/>
	
		<line fill="none" stroke="#FFFFFF" stroke-linecap="round" stroke-linejoin="round" stroke-miterlimit="10" x1="90.113" y1="231.458" x2="86.133" y2="208.884"/>
	<polygon fill="none" stroke="#FFFFFF" stroke-linecap="round" stroke-linejoin="round" stroke-miterlimit="10" points="
		78.464,214.423 75.927,215.347 75.003,212.81 80.474,210.818 88.313,232.358 82.843,234.349 81.919,231.811 84.456,230.888 	"/>
	
		<circle fill="none" stroke="#FFFFFF" stroke-linecap="round" stroke-linejoin="round" stroke-miterlimit="10" cx="95.043" cy="230.953" r="0.661"/>
	
		<circle fill="none" stroke="#FFFFFF" stroke-linecap="round" stroke-linejoin="round" stroke-miterlimit="10" cx="97.35" cy="229.877" r="0.661"/>
	
		<circle fill="none" stroke="#FFFFFF" stroke-linecap="round" stroke-linejoin="round" stroke-miterlimit="10" cx="96.274" cy="227.57" r="0.661"/>
	
		<circle fill="none" stroke="#FFFFFF" stroke-linecap="round" stroke-linejoin="round" stroke-miterlimit="10" cx="98.581" cy="226.494" r="0.661"/>
	
		<circle fill="none" stroke="#FFFFFF" stroke-linecap="round" stroke-linejoin="round" stroke-miterlimit="10" cx="97.505" cy="224.187" r="0.661"/>
	
		<circle fill="none" stroke="#FFFFFF" stroke-linecap="round" stroke-linejoin="round" stroke-miterlimit="10" cx="99.813" cy="223.111" r="0.661"/>
	
		<circle fill="none" stroke="#FFFFFF" stroke-linecap="round" stroke-linejoin="round" stroke-miterlimit="10" cx="98.737" cy="220.804" r="0.661"/>
	
		<circle fill="none" stroke="#FFFFFF" stroke-linecap="round" stroke-linejoin="round" stroke-miterlimit="10" cx="101.044" cy="219.728" r="0.661"/>
	
		<circle fill="none" stroke="#FFFFFF" stroke-linecap="round" stroke-linejoin="round" stroke-miterlimit="10" cx="99.968" cy="217.421" r="0.661"/>
	
		<circle fill="none" stroke="#FFFFFF" stroke-linecap="round" stroke-linejoin="round" stroke-miterlimit="10" cx="102.275" cy="216.345" r="0.661"/>
	
		<circle fill="none" stroke="#FFFFFF" stroke-linecap="round" stroke-linejoin="round" stroke-miterlimit="10" cx="101.199" cy="214.038" r="0.661"/>
	
		<line fill="none" stroke="#FFFFFF" stroke-linecap="round" stroke-linejoin="round" stroke-miterlimit="10" x1="75.927" y1="215.347" x2="75.003" y2="212.81"/>
	<polyline fill="none" stroke="#FFFFFF" stroke-linecap="round" stroke-linejoin="round" stroke-miterlimit="10" points="
		82.381,233.08 80.172,233.884 73.256,214.882 75.465,214.078 	"/>
	
		<line fill="none" stroke="#FFFFFF" stroke-linecap="round" stroke-linejoin="round" stroke-miterlimit="10" x1="83.746" y1="229.007" x2="79.023" y2="230.726"/>
	
		<line fill="none" stroke="#FFFFFF" stroke-linecap="round" stroke-linejoin="round" stroke-miterlimit="10" x1="82.823" y1="226.47" x2="78.099" y2="228.189"/>
	
		<line fill="none" stroke="#FFFFFF" stroke-linecap="round" stroke-linejoin="round" stroke-miterlimit="10" x1="81.899" y1="223.932" x2="77.176" y2="225.652"/>
	
		<line fill="none" stroke="#FFFFFF" stroke-linecap="round" stroke-linejoin="round" stroke-miterlimit="10" x1="80.976" y1="221.395" x2="76.252" y2="223.114"/>
	
		<line fill="none" stroke="#FFFFFF" stroke-linecap="round" stroke-linejoin="round" stroke-miterlimit="10" x1="80.053" y1="218.858" x2="75.329" y2="220.577"/>
	
		<line fill="none" stroke="#FFFFFF" stroke-linecap="round" stroke-linejoin="round" stroke-miterlimit="10" x1="79.129" y1="216.321" x2="74.405" y2="218.04"/>
</g>
<g>
	
		<line fill="none" stroke="#FFFFFF" stroke-linecap="round" stroke-linejoin="round" stroke-miterlimit="10" x1="138.767" y1="220.428" x2="138.767" y2="218.369"/>
	
		<line fill="none" stroke="#FFFFFF" stroke-linecap="round" stroke-linejoin="round" stroke-miterlimit="10" x1="136.067" y1="220.428" x2="136.067" y2="218.369"/>
	
		<line fill="none" stroke="#FFFFFF" stroke-linecap="round" stroke-linejoin="round" stroke-miterlimit="10" x1="133.367" y1="220.428" x2="133.367" y2="218.369"/>
	
		<line fill="none" stroke="#FFFFFF" stroke-linecap="round" stroke-linejoin="round" stroke-miterlimit="10" x1="133.946" y1="218.369" x2="132.787" y2="218.369"/>
	
		<line fill="none" stroke="#FFFFFF" stroke-linecap="round" stroke-linejoin="round" stroke-miterlimit="10" x1="136.646" y1="218.369" x2="135.487" y2="218.369"/>
	
		<line fill="none" stroke="#FFFFFF" stroke-linecap="round" stroke-linejoin="round" stroke-miterlimit="10" x1="139.346" y1="218.369" x2="138.187" y2="218.369"/>
	
		<rect x="120.698" y="221.328" fill="none" stroke="#FFFFFF" stroke-linecap="round" stroke-linejoin="round" stroke-miterlimit="10" width="1.8" height="3.6"/>
	<polyline fill="none" stroke="#FFFFFF" stroke-linecap="round" stroke-linejoin="round" stroke-miterlimit="10" points="
		132.017,222.228 132.017,220.428 134.717,220.428 134.717,222.217 	"/>
	<polyline fill="none" stroke="#FFFFFF" stroke-linecap="round" stroke-linejoin="round" stroke-miterlimit="10" points="
		134.717,231.562 132.017,231.562 132.017,224.028 	"/>
	<polyline fill="none" stroke="#FFFFFF" stroke-linecap="round" stroke-linejoin="round" stroke-miterlimit="10" points="
		137.417,231.562 134.717,231.562 134.717,224.028 	"/>
	
		<line fill="none" stroke="#FFFFFF" stroke-linecap="round" stroke-linejoin="round" stroke-miterlimit="10" x1="134.717" y1="220.428" x2="137.417" y2="220.428"/>
	<polyline fill="none" stroke="#FFFFFF" stroke-linecap="round" stroke-linejoin="round" stroke-miterlimit="10" points="
		140.117,224.028 140.117,231.562 137.417,231.562 137.417,224.028 	"/>
	<polyline fill="none" stroke="#FFFFFF" stroke-linecap="round" stroke-linejoin="round" stroke-miterlimit="10" points="
		137.417,222.228 137.417,220.428 140.117,220.428 140.117,222.228 	"/>
	<path fill="none" stroke="#FFFFFF" stroke-linecap="round" stroke-linejoin="round" stroke-miterlimit="10" d="M122.498,224.028
		h24.986c2.706,0,5.302,1.075,7.216,2.989l2.378,2.378v-12.535l-2.378,2.378c-1.914,1.914-4.509,2.989-7.216,2.989h-24.986"/>
	<path fill="none" stroke="#FFFFFF" stroke-linecap="round" stroke-linejoin="round" stroke-miterlimit="10" d="M143.261,228.84
		h-14.388c-1.324,0-2.398-1.074-2.398-2.398v-0.016c0-1.324,1.074-2.398,2.398-2.398h14.388c1.324,0,2.398,1.074,2.398,2.398v0.016
		C145.659,227.766,144.585,228.84,143.261,228.84z"/>
</g>
</svg>
