<?xml version="1.0" encoding="utf-8"?>
<!-- Generator: Adobe Illustrator 24.0.0, SVG Export Plug-In . SVG Version: 6.00 Build 0)  -->
<svg version="1.1" id="Laag_1" xmlns="http://www.w3.org/2000/svg" xmlns:xlink="http://www.w3.org/1999/xlink" x="0px" y="0px"
	 viewBox="0 0 178.583 277.795" enable-background="new 0 0 178.583 277.795" xml:space="preserve">
<path fill="#009E4D" d="M164.409,277.795H14.173C6.346,277.795,0,271.45,0,263.622V14.173C0,6.346,6.346,0,14.173,0h150.236
	c7.828,0,14.173,6.346,14.173,14.173v249.449C178.583,271.45,172.237,277.795,164.409,277.795z"/>
<g>
	<path fill="none" stroke="#FFFFFF" stroke-linecap="round" stroke-linejoin="round" stroke-miterlimit="10" d="M97.11,239.777
		H81.473c-1.409,0-2.551-1.142-2.551-2.551v-30.851c0-1.409,1.142-2.551,2.551-2.551H97.11c1.409,0,2.551,1.142,2.551,2.551v30.851
		C99.661,238.635,98.519,239.777,97.11,239.777z"/>
	
		<line fill="none" stroke="#FFFFFF" stroke-linecap="round" stroke-linejoin="round" stroke-miterlimit="10" x1="84.322" y1="233.477" x2="84.322" y2="213.175"/>
	
		<line fill="none" stroke="#FFFFFF" stroke-linecap="round" stroke-linejoin="round" stroke-miterlimit="10" x1="99.661" y1="236.177" x2="78.922" y2="236.177"/>
	
		<rect x="80.722" y="213.175" fill="none" stroke="#FFFFFF" stroke-linecap="round" stroke-linejoin="round" stroke-miterlimit="10" width="1.8" height="1.814"/>
	
		<rect x="80.681" y="231.076" fill="none" stroke="#FFFFFF" stroke-linecap="round" stroke-linejoin="round" stroke-miterlimit="10" width="1.8" height="1.814"/>
	
		<rect x="80.98" y="226.965" transform="matrix(0.7071 0.7071 -0.7071 0.7071 184.8108 8.9674)" fill="none" stroke="#FFFFFF" stroke-linecap="round" stroke-linejoin="round" stroke-miterlimit="10" width="1.201" height="1.21"/>
	<polygon fill="none" stroke="#FFFFFF" stroke-linecap="round" stroke-linejoin="round" stroke-miterlimit="10" points="
		81.622,222.245 80.722,224.059 82.522,224.059 	"/>
	
		<rect x="80.722" y="206.847" fill="none" stroke="#FFFFFF" stroke-linecap="round" stroke-linejoin="round" stroke-miterlimit="10" width="3.6" height="3.628"/>
	
		<line fill="none" stroke="#FFFFFF" stroke-linecap="round" stroke-linejoin="round" stroke-miterlimit="10" x1="87.022" y1="208.661" x2="94.529" y2="208.661"/>
	
		<circle fill="none" stroke="#FFFFFF" stroke-linecap="round" stroke-linejoin="round" stroke-miterlimit="10" cx="81.622" cy="218.589" r="0.9"/>
	<g>
		<path fill="none" stroke="#FFFFFF" stroke-linecap="round" stroke-linejoin="round" stroke-miterlimit="10" d="M94.345,219.794
			h-4.706c-0.451,0-0.816-0.366-0.816-0.816v-0.016c0-0.451,0.366-0.816,0.816-0.816h4.706c0.451,0,0.816,0.366,0.816,0.816v0.016
			C95.161,219.428,94.795,219.794,94.345,219.794z"/>
		<path fill="none" stroke="#FFFFFF" stroke-linecap="round" stroke-linejoin="round" stroke-miterlimit="10" d="M95.161,223.394
			v0.016c0,0.451-0.366,0.816-0.816,0.816h-4.706c-0.451,0-0.816-0.366-0.816-0.816v-0.016"/>
		
			<line fill="none" stroke="#FFFFFF" stroke-linecap="round" stroke-linejoin="round" stroke-miterlimit="10" x1="96.061" y1="221.594" x2="87.922" y2="221.594"/>
		<path fill="none" stroke="#FFFFFF" stroke-linecap="round" stroke-linejoin="round" stroke-miterlimit="10" d="M91.991,213.175
			c-1.751,0-3.17,1.419-3.17,3.17h6.339C95.161,214.594,93.742,213.175,91.991,213.175z"/>
	</g>
	
		<line fill="none" stroke="#FFFFFF" stroke-linecap="round" stroke-linejoin="round" stroke-miterlimit="10" x1="92.33" y1="229.647" x2="92.33" y2="232.505"/>
	
		<line fill="none" stroke="#FFFFFF" stroke-linecap="round" stroke-linejoin="round" stroke-miterlimit="10" x1="96.009" y1="230.097" x2="96.009" y2="232.055"/>
	
		<line fill="none" stroke="#FFFFFF" stroke-linecap="round" stroke-linejoin="round" stroke-miterlimit="10" x1="95.03" y1="231.076" x2="96.988" y2="231.076"/>
	
		<line fill="none" stroke="#FFFFFF" stroke-linecap="round" stroke-linejoin="round" stroke-miterlimit="10" x1="87.672" y1="231.076" x2="89.63" y2="231.076"/>
</g>
<g>
	
		<line fill="none" stroke="#FFFFFF" stroke-linecap="round" stroke-linejoin="round" stroke-miterlimit="10" x1="149.042" y1="230.641" x2="149.042" y2="232.15"/>
	
		<line fill="none" stroke="#FFFFFF" stroke-linecap="round" stroke-linejoin="round" stroke-miterlimit="10" x1="149.042" y1="226.21" x2="149.042" y2="227.764"/>
	
		<line fill="none" stroke="#FFFFFF" stroke-linecap="round" stroke-linejoin="round" stroke-miterlimit="10" x1="149.042" y1="221.824" x2="149.042" y2="223.379"/>
	<polyline fill="none" stroke="#FFFFFF" stroke-linecap="round" stroke-linejoin="round" stroke-miterlimit="10" points="
		149.042,234.981 149.042,237.313 130.147,237.313 130.147,216.662 149.042,216.662 149.042,218.994 	"/>
	
		<rect x="133.256" y="221.326" fill="none" stroke="#FFFFFF" stroke-linecap="round" stroke-linejoin="round" stroke-miterlimit="10" width="3.109" height="11.323"/>
	
		<line fill="none" stroke="#FFFFFF" stroke-linecap="round" stroke-linejoin="round" stroke-miterlimit="10" x1="127.815" y1="237.313" x2="127.815" y2="216.662"/>
	
		<rect x="143.145" y="218.994" fill="none" stroke="#FFFFFF" stroke-linecap="round" stroke-linejoin="round" stroke-miterlimit="10" width="8.229" height="2.831"/>
	
		<rect x="143.145" y="223.379" fill="none" stroke="#FFFFFF" stroke-linecap="round" stroke-linejoin="round" stroke-miterlimit="10" width="8.229" height="2.831"/>
	
		<rect x="143.145" y="227.764" fill="none" stroke="#FFFFFF" stroke-linecap="round" stroke-linejoin="round" stroke-miterlimit="10" width="8.229" height="2.831"/>
	
		<line fill="none" stroke="#FFFFFF" stroke-linecap="round" stroke-linejoin="round" stroke-miterlimit="10" x1="140.813" y1="221.825" x2="140.813" y2="218.994"/>
	
		<line fill="none" stroke="#FFFFFF" stroke-linecap="round" stroke-linejoin="round" stroke-miterlimit="10" x1="140.813" y1="226.21" x2="140.813" y2="223.379"/>
	
		<line fill="none" stroke="#FFFFFF" stroke-linecap="round" stroke-linejoin="round" stroke-miterlimit="10" x1="140.813" y1="230.595" x2="140.813" y2="227.764"/>
	
		<rect x="143.145" y="232.15" fill="none" stroke="#FFFFFF" stroke-linecap="round" stroke-linejoin="round" stroke-miterlimit="10" width="8.229" height="2.831"/>
	
		<line fill="none" stroke="#FFFFFF" stroke-linecap="round" stroke-linejoin="round" stroke-miterlimit="10" x1="140.813" y1="234.981" x2="140.813" y2="232.15"/>
	<path fill="none" stroke="#FFFFFF" stroke-linecap="round" stroke-linejoin="round" stroke-miterlimit="10" d="M130.147,214.486
		c0-4.725,3.831-8.556,8.556-8.556c4.725,0,8.556,3.831,8.556,8.556"/>
</g>
<g>
	
		<circle fill="none" stroke="#FFFFFF" stroke-linecap="round" stroke-linejoin="round" stroke-miterlimit="10" cx="39.833" cy="221.912" r="0.661"/>
	
		<circle fill="none" stroke="#FFFFFF" stroke-linecap="round" stroke-linejoin="round" stroke-miterlimit="10" cx="43.854" cy="221.912" r="0.661"/>
	
		<circle fill="none" stroke="#FFFFFF" stroke-linecap="round" stroke-linejoin="round" stroke-miterlimit="10" cx="35.811" cy="221.912" r="0.661"/>
	
		<circle fill="none" stroke="#FFFFFF" stroke-linecap="round" stroke-linejoin="round" stroke-miterlimit="10" cx="39.833" cy="225.934" r="0.661"/>
	
		<circle fill="none" stroke="#FFFFFF" stroke-linecap="round" stroke-linejoin="round" stroke-miterlimit="10" cx="43.854" cy="225.934" r="0.661"/>
	
		<circle fill="none" stroke="#FFFFFF" stroke-linecap="round" stroke-linejoin="round" stroke-miterlimit="10" cx="35.811" cy="225.934" r="0.661"/>
	
		<circle fill="none" stroke="#FFFFFF" stroke-linecap="round" stroke-linejoin="round" stroke-miterlimit="10" cx="39.833" cy="229.955" r="0.661"/>
	
		<circle fill="none" stroke="#FFFFFF" stroke-linecap="round" stroke-linejoin="round" stroke-miterlimit="10" cx="39.833" cy="233.977" r="0.661"/>
	
		<circle fill="none" stroke="#FFFFFF" stroke-linecap="round" stroke-linejoin="round" stroke-miterlimit="10" cx="43.854" cy="229.955" r="0.661"/>
	
		<circle fill="none" stroke="#FFFFFF" stroke-linecap="round" stroke-linejoin="round" stroke-miterlimit="10" cx="35.811" cy="229.955" r="0.661"/>
	
		<line fill="none" stroke="#FFFFFF" stroke-linecap="round" stroke-linejoin="round" stroke-miterlimit="10" x1="43.193" y1="233.977" x2="44.515" y2="233.977"/>
	
		<line fill="none" stroke="#FFFFFF" stroke-linecap="round" stroke-linejoin="round" stroke-miterlimit="10" x1="35.15" y1="233.977" x2="36.472" y2="233.977"/>
	
		<rect x="35.15" y="211.351" fill="none" stroke="#FFFFFF" stroke-linecap="round" stroke-linejoin="round" stroke-miterlimit="10" width="9.364" height="7.2"/>
	
		<line fill="none" stroke="#FFFFFF" stroke-linecap="round" stroke-linejoin="round" stroke-miterlimit="10" x1="43.615" y1="209.551" x2="36.05" y2="209.551"/>
	<path fill="none" stroke="#FFFFFF" stroke-linecap="round" stroke-linejoin="round" stroke-miterlimit="10" d="M32.45,210.303
		v24.484c0,1.409,1.142,2.551,2.551,2.551h9.662c1.409,0,2.551-1.142,2.551-2.551v-24.484c0-1.409-1.142-2.551-2.551-2.551h-9.662
		C33.593,207.751,32.45,208.894,32.45,210.303z"/>
	<path fill="none" stroke="#FFFFFF" stroke-linecap="round" stroke-linejoin="round" stroke-miterlimit="10" d="M32.45,212.251
		h-0.149c-1.409,0-2.551,1.142-2.551,2.551v15.484c0,1.409,1.142,2.551,2.551,2.551h0.149"/>
	
		<line fill="none" stroke="#FFFFFF" stroke-linecap="round" stroke-linejoin="round" stroke-miterlimit="10" x1="49.015" y1="235.537" x2="49.015" y2="209.551"/>
</g>
<g>
	<text transform="matrix(1 0 0 1 120.6716 252.3286)" fill="#FFFFFF" font-family="'Montserrat-Regular'" font-size="8px">Cijferslot</text>
</g>
<g>
	<text transform="matrix(1 0 0 1 25.2469 252.3288)" fill="#FFFFFF" font-family="'Montserrat-Regular'" font-size="8px">Pinnen</text>
</g>
<g>
	<text transform="matrix(1 0 0 1 66.9514 252.3291)" fill="#FFFFFF" font-family="'Montserrat-Regular'" font-size="8px">McDonalds</text>
</g>
<g>
	
		<circle fill="none" stroke="#FFFFFF" stroke-width="1.2405" stroke-linecap="round" stroke-linejoin="round" stroke-miterlimit="10" cx="140.594" cy="23.792" r="1.667"/>
	
		<circle fill="none" stroke="#FFFFFF" stroke-width="1.2405" stroke-linecap="round" stroke-linejoin="round" stroke-miterlimit="10" cx="146.728" cy="23.792" r="1.667"/>
	
		<circle fill="none" stroke="#FFFFFF" stroke-width="1.2405" stroke-linecap="round" stroke-linejoin="round" stroke-miterlimit="10" cx="152.862" cy="23.792" r="1.667"/>
	
		<circle fill="none" stroke="#FFFFFF" stroke-width="1.2405" stroke-linecap="round" stroke-linejoin="round" stroke-miterlimit="10" cx="140.594" cy="29.925" r="1.667"/>
	
		<circle fill="none" stroke="#FFFFFF" stroke-width="1.2405" stroke-linecap="round" stroke-linejoin="round" stroke-miterlimit="10" cx="146.728" cy="29.925" r="1.667"/>
	
		<circle fill="none" stroke="#FFFFFF" stroke-width="1.2405" stroke-linecap="round" stroke-linejoin="round" stroke-miterlimit="10" cx="152.862" cy="29.925" r="1.667"/>
	
		<circle fill="none" stroke="#FFFFFF" stroke-width="1.2405" stroke-linecap="round" stroke-linejoin="round" stroke-miterlimit="10" cx="140.594" cy="36.059" r="1.667"/>
	
		<circle fill="none" stroke="#FFFFFF" stroke-width="1.2405" stroke-linecap="round" stroke-linejoin="round" stroke-miterlimit="10" cx="146.728" cy="36.059" r="1.667"/>
	
		<circle fill="none" stroke="#FFFFFF" stroke-width="1.2405" stroke-linecap="round" stroke-linejoin="round" stroke-miterlimit="10" cx="146.728" cy="42.193" r="1.667"/>
	
		<circle fill="none" stroke="#FFFFFF" stroke-width="1.2405" stroke-linecap="round" stroke-linejoin="round" stroke-miterlimit="10" cx="152.862" cy="36.059" r="1.667"/>
	
		<line fill="none" stroke="#FFFFFF" stroke-width="1.2405" stroke-linecap="round" stroke-linejoin="round" stroke-miterlimit="10" x1="151.195" y1="42.193" x2="154.529" y2="42.193"/>
	
		<line fill="none" stroke="#FFFFFF" stroke-width="1.2405" stroke-linecap="round" stroke-linejoin="round" stroke-miterlimit="10" x1="138.928" y1="42.193" x2="142.261" y2="42.193"/>
</g>
<text transform="matrix(1 0 0 1 23.1643 37.5056)"><tspan x="0" y="0" fill="#FFFFFF" font-family="'Montserrat-ExtraBold'" font-size="14px" letter-spacing="1">CIJFERINPUT</tspan><tspan x="0" y="18" fill="#FFFFFF" font-family="'Montserrat-Regular'" font-size="10px">Telefoon</tspan></text>
<g>
	<path fill="none" stroke="#FFFFFF" stroke-width="2" stroke-linecap="round" stroke-linejoin="round" stroke-miterlimit="10" d="
		M110.502,110.866c0,0-1.568-6.658-4.824-7.743s-9.286-1.447-14.35-1.447s-11.094,0.362-14.35,1.447
		c-3.256,1.085-4.824,7.743-4.824,7.743"/>
	<path fill="none" stroke="#FFFFFF" stroke-width="2" stroke-linecap="round" stroke-linejoin="round" stroke-miterlimit="10" d="
		M81.029,115.366h-7.091c-0.985,0-1.784-0.799-1.784-1.784v-2.716h10.659v2.716C82.813,114.567,82.015,115.366,81.029,115.366z"/>
	<path fill="none" stroke="#FFFFFF" stroke-width="2" stroke-linecap="round" stroke-linejoin="round" stroke-miterlimit="10" d="
		M108.718,115.366h-7.091c-0.985,0-1.784-0.799-1.784-1.784v-2.716h10.659v2.716C110.502,114.567,109.704,115.366,108.718,115.366z"
		/>
	<path fill="none" stroke="#FFFFFF" stroke-width="2" stroke-linecap="round" stroke-linejoin="round" stroke-miterlimit="10" d="
		M82.813,110.866c0,0,0.324-4.595,8.515-4.595s8.515,4.595,8.515,4.595"/>
	
		<circle fill="none" stroke="#FFFFFF" stroke-width="2" stroke-linecap="round" stroke-linejoin="round" stroke-miterlimit="10" cx="95.569" cy="125.569" r="1.203"/>
	
		<circle fill="none" stroke="#FFFFFF" stroke-width="2" stroke-linecap="round" stroke-linejoin="round" stroke-miterlimit="10" cx="102.392" cy="125.569" r="1.203"/>
	
		<circle fill="none" stroke="#FFFFFF" stroke-width="2" stroke-linecap="round" stroke-linejoin="round" stroke-miterlimit="10" cx="109.299" cy="125.569" r="1.203"/>
	
		<circle fill="none" stroke="#FFFFFF" stroke-width="2" stroke-linecap="round" stroke-linejoin="round" stroke-miterlimit="10" cx="95.569" cy="132.476" r="1.203"/>
	
		<circle fill="none" stroke="#FFFFFF" stroke-width="2" stroke-linecap="round" stroke-linejoin="round" stroke-miterlimit="10" cx="102.392" cy="132.476" r="1.203"/>
	
		<circle fill="none" stroke="#FFFFFF" stroke-width="2" stroke-linecap="round" stroke-linejoin="round" stroke-miterlimit="10" cx="109.299" cy="132.476" r="1.203"/>
	
		<circle fill="none" stroke="#FFFFFF" stroke-width="2" stroke-linecap="round" stroke-linejoin="round" stroke-miterlimit="10" cx="95.569" cy="139.383" r="1.203"/>
	
		<circle fill="none" stroke="#FFFFFF" stroke-width="2" stroke-linecap="round" stroke-linejoin="round" stroke-miterlimit="10" cx="102.392" cy="139.383" r="1.203"/>
	
		<circle fill="none" stroke="#FFFFFF" stroke-width="2" stroke-linecap="round" stroke-linejoin="round" stroke-miterlimit="10" cx="102.392" cy="146.29" r="1.203"/>
	
		<circle fill="none" stroke="#FFFFFF" stroke-width="2" stroke-linecap="round" stroke-linejoin="round" stroke-miterlimit="10" cx="109.299" cy="139.383" r="1.203"/>
	
		<line fill="none" stroke="#FFFFFF" stroke-width="2" stroke-linecap="round" stroke-linejoin="round" stroke-miterlimit="10" x1="108.095" y1="146.29" x2="110.502" y2="146.29"/>
	
		<line fill="none" stroke="#FFFFFF" stroke-width="2" stroke-linecap="round" stroke-linejoin="round" stroke-miterlimit="10" x1="94.366" y1="146.29" x2="96.773" y2="146.29"/>
	
		<rect x="72.154" y="126.772" fill="none" stroke="#FFFFFF" stroke-width="2" stroke-linecap="round" stroke-linejoin="round" stroke-miterlimit="10" width="15.462" height="16.134"/>
	
		<line fill="none" stroke="#FFFFFF" stroke-width="2" stroke-linecap="round" stroke-linejoin="round" stroke-miterlimit="10" x1="74.404" y1="155.522" x2="85.366" y2="155.522"/>
	<path fill="none" stroke="#FFFFFF" stroke-width="2" stroke-linecap="round" stroke-linejoin="round" stroke-miterlimit="10" d="
		M91.74,166.12H71.782c-3.522,0-6.378-2.855-6.378-6.378v-37.998c0-3.522,2.856-6.378,6.378-6.378h39.092
		c3.522,0,6.378,2.856,6.378,6.378v18.864C117.252,154.698,105.83,166.12,91.74,166.12z"/>
	<path fill="none" stroke="#FFFFFF" stroke-width="2" stroke-linecap="round" stroke-linejoin="round" stroke-miterlimit="10" d="
		M65.404,132.476l-11.864,0c-4.518,0-8.422,3.662-8.201,8.174c0.195,3.993,3.398,7.195,7.391,7.391
		c4.512,0.221,8.174-3.684,8.174-8.201l0-20.102c0-6.728,5.454-12.182,12.182-12.182h0.029"/>
	<path fill="none" stroke="#FFFFFF" stroke-width="2" stroke-linecap="round" stroke-linejoin="round" stroke-miterlimit="10" d="
		M102.392,163.87h6.232c3.522,0,6.378-2.855,6.378-6.378v-6.399"/>
	
		<circle fill="none" stroke="#FFFFFF" stroke-width="2" stroke-linecap="round" stroke-linejoin="round" stroke-miterlimit="10" cx="79.885" cy="155.522" r="3.848"/>
</g>
</svg>
