<?xml version="1.0" encoding="utf-8"?>
<!-- Generator: Adobe Illustrator 24.0.0, SVG Export Plug-In . SVG Version: 6.00 Build 0)  -->
<svg version="1.1" id="Laag_1" xmlns="http://www.w3.org/2000/svg" xmlns:xlink="http://www.w3.org/1999/xlink" x="0px" y="0px"
	 viewBox="0 0 178.583 277.795" enable-background="new 0 0 178.583 277.795" xml:space="preserve">
<path fill="#D73534" d="M164.409,277.795H14.173C6.346,277.795,0,271.45,0,263.622V14.173C0,6.346,6.346,0,14.173,0h150.236
	c7.828,0,14.173,6.346,14.173,14.173v249.449C178.583,271.45,172.237,277.795,164.409,277.795z"/>
<g>
	<text transform="matrix(1 0 0 1 114.491 252.3286)" fill="#FFFFFF" font-family="'Montserrat-Regular'" font-size="8px">Brandalarm</text>
</g>
<g>
	<text transform="matrix(1 0 0 1 21.4426 252.3288)" fill="#FFFFFF" font-family="'Montserrat-Regular'" font-size="8px">SOS-knop</text>
</g>
<g>
	<text transform="matrix(1 0 0 1 70.9105 252.3291)" fill="#FFFFFF" font-family="'Montserrat-Regular'" font-size="8px">AED-kast</text>
</g>
<text transform="matrix(1 0 0 1 23.1643 37.5056)"><tspan x="0" y="0" fill="#FFFFFF" font-family="'Montserrat-ExtraBold'" font-size="14px" letter-spacing="1">NOOD</tspan><tspan x="0" y="18" fill="#FFFFFF" font-family="'Montserrat-Regular'" font-size="10px">Brandslang</tspan></text>
<g>
	
		<circle fill="none" stroke="#FFFFFF" stroke-linecap="round" stroke-linejoin="round" stroke-miterlimit="10" cx="41.383" cy="226.002" r="4.397"/>
	
		<circle fill="none" stroke="#FFFFFF" stroke-linecap="round" stroke-linejoin="round" stroke-miterlimit="10" cx="41.365" cy="216.013" r="0.192"/>
	
		<circle fill="none" stroke="#FFFFFF" stroke-linecap="round" stroke-linejoin="round" stroke-miterlimit="10" cx="44.065" cy="216.013" r="0.192"/>
	
		<circle fill="none" stroke="#FFFFFF" stroke-linecap="round" stroke-linejoin="round" stroke-miterlimit="10" cx="40.015" cy="213.313" r="0.192"/>
	
		<circle fill="none" stroke="#FFFFFF" stroke-linecap="round" stroke-linejoin="round" stroke-miterlimit="10" cx="42.715" cy="213.313" r="0.192"/>
	
		<circle fill="none" stroke="#FFFFFF" stroke-linecap="round" stroke-linejoin="round" stroke-miterlimit="10" cx="40.015" cy="218.713" r="0.192"/>
	
		<circle fill="none" stroke="#FFFFFF" stroke-linecap="round" stroke-linejoin="round" stroke-miterlimit="10" cx="42.715" cy="218.713" r="0.192"/>
	
		<circle fill="none" stroke="#FFFFFF" stroke-linecap="round" stroke-linejoin="round" stroke-miterlimit="10" cx="41.365" cy="227.785" r="0.192"/>
	
		<circle fill="none" stroke="#FFFFFF" stroke-linecap="round" stroke-linejoin="round" stroke-miterlimit="10" cx="38.665" cy="216.013" r="0.192"/>
	<path fill="none" stroke="#FFFFFF" stroke-linecap="round" stroke-linejoin="round" stroke-miterlimit="10" d="M43.378,233.1h-3.99
		c-2.818,0-5.102-2.284-5.102-5.102v-12.475c0-2.818,2.284-5.102,5.102-5.102h3.99c2.818,0,5.102,2.284,5.102,5.102v12.475
		C48.48,230.815,46.196,233.1,43.378,233.1z"/>
	
		<line fill="none" stroke="#FFFFFF" stroke-linecap="round" stroke-linejoin="round" stroke-miterlimit="10" x1="31.585" y1="237.168" x2="31.585" y2="207.72"/>
	
		<line fill="none" stroke="#FFFFFF" stroke-linecap="round" stroke-linejoin="round" stroke-miterlimit="10" x1="51.18" y1="207.72" x2="51.18" y2="237.168"/>
	
		<line fill="none" stroke="#FFFFFF" stroke-linecap="round" stroke-linejoin="round" stroke-miterlimit="10" x1="41.383" y1="225.793" x2="41.383" y2="224.027"/>
</g>
<g>
	<path fill="none" stroke="#FFFFFF" stroke-linecap="round" stroke-linejoin="round" stroke-miterlimit="10" d="M95.199,216.979
		c0.611-1.398,3.233-1.048,3.233,1.049c0,2.098-3.233,3.845-3.233,3.845s-3.235-1.747-3.235-3.845
		C91.965,215.93,94.587,215.581,95.199,216.979z"/>
	<path fill="none" stroke="#FFFFFF" stroke-linecap="round" stroke-linejoin="round" stroke-miterlimit="10" d="M100.791,233.467
		H77.792c-1.409,0-2.551-1.142-2.551-2.551v-14.391c0-2.818,2.284-5.102,5.102-5.102H98.24c2.818,0,5.102,2.284,5.102,5.102v14.391
		C103.342,232.324,102.2,233.467,100.791,233.467z"/>
	
		<rect x="79.027" y="215.022" fill="none" stroke="#FFFFFF" stroke-linecap="round" stroke-linejoin="round" stroke-miterlimit="10" width="7.585" height="14.845"/>
	
		<circle fill="none" stroke="#FFFFFF" stroke-linecap="round" stroke-linejoin="round" stroke-miterlimit="10" cx="82.819" cy="226.039" r="1.633"/>
	
		<circle fill="none" stroke="#FFFFFF" stroke-linecap="round" stroke-linejoin="round" stroke-miterlimit="10" cx="82.819" cy="222.414" r="0.192"/>
	
		<circle fill="none" stroke="#FFFFFF" stroke-linecap="round" stroke-linejoin="round" stroke-miterlimit="10" cx="84.619" cy="222.414" r="0.192"/>
	
		<circle fill="none" stroke="#FFFFFF" stroke-linecap="round" stroke-linejoin="round" stroke-miterlimit="10" cx="81.019" cy="222.414" r="0.192"/>
	
		<circle fill="none" stroke="#FFFFFF" stroke-linecap="round" stroke-linejoin="round" stroke-miterlimit="10" cx="82.819" cy="220.614" r="0.192"/>
	
		<circle fill="none" stroke="#FFFFFF" stroke-linecap="round" stroke-linejoin="round" stroke-miterlimit="10" cx="84.619" cy="220.614" r="0.192"/>
	
		<circle fill="none" stroke="#FFFFFF" stroke-linecap="round" stroke-linejoin="round" stroke-miterlimit="10" cx="81.019" cy="220.614" r="0.192"/>
	
		<circle fill="none" stroke="#FFFFFF" stroke-linecap="round" stroke-linejoin="round" stroke-miterlimit="10" cx="82.819" cy="218.814" r="0.192"/>
	
		<circle fill="none" stroke="#FFFFFF" stroke-linecap="round" stroke-linejoin="round" stroke-miterlimit="10" cx="84.619" cy="218.814" r="0.192"/>
	
		<circle fill="none" stroke="#FFFFFF" stroke-linecap="round" stroke-linejoin="round" stroke-miterlimit="10" cx="81.019" cy="218.814" r="0.192"/>
	
		<circle fill="none" stroke="#FFFFFF" stroke-linecap="round" stroke-linejoin="round" stroke-miterlimit="10" cx="82.819" cy="217.014" r="0.192"/>
	
		<circle fill="none" stroke="#FFFFFF" stroke-linecap="round" stroke-linejoin="round" stroke-miterlimit="10" cx="84.619" cy="217.014" r="0.192"/>
	
		<circle fill="none" stroke="#FFFFFF" stroke-linecap="round" stroke-linejoin="round" stroke-miterlimit="10" cx="81.019" cy="217.014" r="0.192"/>
	
		<line fill="none" stroke="#FFFFFF" stroke-linecap="round" stroke-linejoin="round" stroke-miterlimit="10" x1="91.965" y1="224.944" x2="98.433" y2="224.944"/>
	
		<line fill="none" stroke="#FFFFFF" stroke-linecap="round" stroke-linejoin="round" stroke-miterlimit="10" x1="91.965" y1="227.644" x2="98.433" y2="227.644"/>
</g>
<g>
	
		<circle fill="none" stroke="#FFFFFF" stroke-linecap="round" stroke-linejoin="round" stroke-miterlimit="10" cx="139.929" cy="223.611" r="1.351"/>
	<polygon fill="none" stroke="#FFFFFF" stroke-linecap="round" stroke-linejoin="round" stroke-miterlimit="10" points="
		146.018,222.047 143.757,223.728 146.018,225.408 	"/>
	
		<line fill="none" stroke="#FFFFFF" stroke-linecap="round" stroke-linejoin="round" stroke-miterlimit="10" x1="147.67" y1="223.728" x2="148.599" y2="223.728"/>
	<polygon fill="none" stroke="#FFFFFF" stroke-linecap="round" stroke-linejoin="round" stroke-miterlimit="10" points="
		133.84,225.408 136.101,223.728 133.84,222.047 	"/>
	
		<line fill="none" stroke="#FFFFFF" stroke-linecap="round" stroke-linejoin="round" stroke-miterlimit="10" x1="132.188" y1="223.728" x2="131.259" y2="223.728"/>
	
		<rect x="129.006" y="219.347" fill="none" stroke="#FFFFFF" stroke-linecap="round" stroke-linejoin="round" stroke-miterlimit="10" width="21.847" height="8.314"/>
	<polygon fill="none" stroke="#FFFFFF" stroke-linecap="round" stroke-linejoin="round" stroke-miterlimit="10" points="
		141.366,214.599 139.929,212.948 138.492,214.599 138.492,216.647 141.366,216.647 	"/>
	<path fill="none" stroke="#FFFFFF" stroke-linecap="round" stroke-linejoin="round" stroke-miterlimit="10" d="M141.101,231.941
		h-2.344c-0.436,0-0.789-0.353-0.789-0.789l0,0c0-0.436,0.353-0.789,0.789-0.789h2.344c0.436,0,0.789,0.353,0.789,0.789l0,0
		C141.89,231.587,141.537,231.941,141.101,231.941z"/>
	<path fill="none" stroke="#FFFFFF" stroke-linecap="round" stroke-linejoin="round" stroke-miterlimit="10" d="M151.212,234.641
		h-22.566c-1.293,0-2.34-1.048-2.34-2.34v-19.712c0-1.292,1.048-2.34,2.34-2.34h22.566c1.292,0,2.34,1.048,2.34,2.34V232.3
		C153.552,233.593,152.505,234.641,151.212,234.641z"/>
	
		<line fill="none" stroke="#FFFFFF" stroke-linecap="round" stroke-linejoin="round" stroke-miterlimit="10" x1="128.782" y1="214.798" x2="133.84" y2="214.798"/>
</g>
<g>
	<path fill="none" stroke="#FFFFFF" stroke-linecap="round" stroke-linejoin="round" stroke-miterlimit="10" d="M148.328,23.338
		l-9.87,16.316c-0.626,1.034,0.119,2.355,1.328,2.355h19.741c1.209,0,1.954-1.321,1.328-2.355l-9.87-16.316
		C150.38,22.34,148.932,22.34,148.328,23.338z"/>
	<polygon fill="none" stroke="#FFFFFF" stroke-linecap="round" stroke-linejoin="round" stroke-miterlimit="10" points="
		148.081,29.076 149.656,34.631 151.231,29.076 	"/>
	
		<circle fill="none" stroke="#FFFFFF" stroke-linecap="round" stroke-linejoin="round" stroke-miterlimit="10" cx="149.656" cy="37.87" r="1.125"/>
</g>
<g>
	
		<polyline fill="none" stroke="#FFFFFF" stroke-width="2" stroke-linecap="round" stroke-linejoin="round" stroke-miterlimit="10" points="
		101.895,162.808 101.895,172.722 81.2,172.722 81.2,162.808 	"/>
	<path fill="none" stroke="#FFFFFF" stroke-width="2" stroke-linecap="round" stroke-linejoin="round" stroke-miterlimit="10" d="
		M97.098,103.655h-11.1c-3.522,0-6.378,2.856-6.378,6.378v46.025h23.856v-46.025C103.476,106.51,100.62,103.655,97.098,103.655z"/>
	
		<line fill="none" stroke="#FFFFFF" stroke-width="2" stroke-linecap="round" stroke-linejoin="round" stroke-miterlimit="10" x1="72.869" y1="146.496" x2="72.869" y2="156.058"/>
	
		<polyline fill="none" stroke="#FFFFFF" stroke-width="2" stroke-linecap="round" stroke-linejoin="round" stroke-miterlimit="10" points="
		103.476,121.894 88.163,121.894 88.163,144.808 103.476,144.808 	"/>
	<path fill="none" stroke="#FFFFFF" stroke-width="2" stroke-linecap="round" stroke-linejoin="round" stroke-miterlimit="10" d="
		M72.869,151.277c-15.881,0-28.756-12.874-28.756-28.756s12.874-28.756,28.756-28.756h8.789"/>
	
		<circle fill="none" stroke="#FFFFFF" stroke-width="2" stroke-linecap="round" stroke-linejoin="round" stroke-miterlimit="10" cx="91.547" cy="93.765" r="3.14"/>
	
		<line fill="none" stroke="#FFFFFF" stroke-width="2" stroke-linecap="round" stroke-linejoin="round" stroke-miterlimit="10" x1="100.547" y1="91.436" x2="111.769" y2="86.17"/>
	
		<line fill="none" stroke="#FFFFFF" stroke-width="2" stroke-linecap="round" stroke-linejoin="round" stroke-miterlimit="10" x1="100.547" y1="97.055" x2="112.469" y2="101.361"/>
</g>
</svg>
