<?xml version="1.0" encoding="utf-8"?>
<!-- Generator: Adobe Illustrator 24.0.0, SVG Export Plug-In . SVG Version: 6.00 Build 0)  -->
<svg version="1.1" id="Laag_1" xmlns="http://www.w3.org/2000/svg" xmlns:xlink="http://www.w3.org/1999/xlink" x="0px" y="0px"
	 viewBox="0 0 178.583 277.795" enable-background="new 0 0 178.583 277.795" xml:space="preserve">
<path fill="#90BA1E" d="M164.409,277.795H14.173C6.346,277.795,0,271.45,0,263.622V14.173C0,6.346,6.346,0,14.173,0h150.236
	c7.828,0,14.173,6.346,14.173,14.173v249.449C178.583,271.45,172.237,277.795,164.409,277.795z"/>
<g>
	<text transform="matrix(1 0 0 1 116.739 252.3286)" fill="#FFFFFF" font-family="'Montserrat-Regular'" font-size="8px">WC-review</text>
</g>
<g>
	<text transform="matrix(1 0 0 1 23.0388 252.3288)" fill="#FFFFFF" font-family="'Montserrat-Regular'" font-size="8px">Intercom</text>
</g>
<g>
	<text transform="matrix(1 0 0 1 72.2982 252.3291)" fill="#FFFFFF" font-family="'Montserrat-Regular'" font-size="8px">Tappunt</text>
</g>
<text transform="matrix(1 0 0 1 23.1643 37.5056)"><tspan x="0" y="0" fill="#FFFFFF" font-family="'Montserrat-ExtraBold'" font-size="14px" letter-spacing="1">BUTTONS</tspan><tspan x="0" y="18" fill="#FFFFFF" font-family="'Montserrat-Regular'" font-size="10px">Deurbel</tspan></text>
<g>
	
		<circle fill="none" stroke="#FFFFFF" stroke-linecap="round" stroke-linejoin="round" stroke-miterlimit="10" cx="42.846" cy="224.53" r="1.79"/>
	
		<circle fill="none" stroke="#FFFFFF" stroke-linecap="round" stroke-linejoin="round" stroke-miterlimit="10" cx="42.846" cy="230.81" r="1.79"/>
	
		<circle fill="none" stroke="#FFFFFF" stroke-linecap="round" stroke-linejoin="round" stroke-miterlimit="10" cx="42.846" cy="218.25" r="1.79"/>
	
		<circle fill="none" stroke="#FFFFFF" stroke-linecap="round" stroke-linejoin="round" stroke-miterlimit="10" cx="26.993" cy="224.53" r="0.563"/>
	
		<circle fill="none" stroke="#FFFFFF" stroke-linecap="round" stroke-linejoin="round" stroke-miterlimit="10" cx="30.143" cy="224.53" r="0.563"/>
	
		<circle fill="none" stroke="#FFFFFF" stroke-linecap="round" stroke-linejoin="round" stroke-miterlimit="10" cx="34.643" cy="224.53" r="0.563"/>
	
		<circle fill="none" stroke="#FFFFFF" stroke-linecap="round" stroke-linejoin="round" stroke-miterlimit="10" cx="32.393" cy="226.78" r="0.563"/>
	
		<circle fill="none" stroke="#FFFFFF" stroke-linecap="round" stroke-linejoin="round" stroke-miterlimit="10" cx="32.393" cy="222.28" r="0.563"/>
	
		<circle fill="none" stroke="#FFFFFF" stroke-linecap="round" stroke-linejoin="round" stroke-miterlimit="10" cx="37.793" cy="224.53" r="0.563"/>
	
		<circle fill="none" stroke="#FFFFFF" stroke-linecap="round" stroke-linejoin="round" stroke-miterlimit="10" cx="28.574" cy="228.349" r="0.563"/>
	
		<circle fill="none" stroke="#FFFFFF" stroke-linecap="round" stroke-linejoin="round" stroke-miterlimit="10" cx="36.211" cy="220.712" r="0.563"/>
	
		<circle fill="none" stroke="#FFFFFF" stroke-linecap="round" stroke-linejoin="round" stroke-miterlimit="10" cx="32.393" cy="229.93" r="0.563"/>
	
		<circle fill="none" stroke="#FFFFFF" stroke-linecap="round" stroke-linejoin="round" stroke-miterlimit="10" cx="32.393" cy="219.13" r="0.563"/>
	
		<circle fill="none" stroke="#FFFFFF" stroke-linecap="round" stroke-linejoin="round" stroke-miterlimit="10" cx="36.211" cy="228.349" r="0.563"/>
	
		<circle fill="none" stroke="#FFFFFF" stroke-linecap="round" stroke-linejoin="round" stroke-miterlimit="10" cx="28.574" cy="220.712" r="0.563"/>
	
		<rect x="47.336" y="216.46" fill="none" stroke="#FFFFFF" stroke-linecap="round" stroke-linejoin="round" stroke-miterlimit="10" width="7.2" height="3.579"/>
	
		<line fill="none" stroke="#FFFFFF" stroke-linecap="round" stroke-linejoin="round" stroke-miterlimit="10" x1="26.429" y1="213.76" x2="56.336" y2="213.76"/>
	
		<line fill="none" stroke="#FFFFFF" stroke-linecap="round" stroke-linejoin="round" stroke-miterlimit="10" x1="26.429" y1="235.3" x2="56.336" y2="235.3"/>
	
		<rect x="47.336" y="222.741" fill="none" stroke="#FFFFFF" stroke-linecap="round" stroke-linejoin="round" stroke-miterlimit="10" width="7.2" height="3.579"/>
	
		<rect x="47.336" y="229.02" fill="none" stroke="#FFFFFF" stroke-linecap="round" stroke-linejoin="round" stroke-miterlimit="10" width="7.2" height="3.579"/>
</g>
<g>
	
		<circle fill="none" stroke="#FFFFFF" stroke-linecap="round" stroke-linejoin="round" stroke-miterlimit="10" cx="138.323" cy="214.625" r="3.039"/>
	
		<circle fill="none" stroke="#FFFFFF" stroke-linecap="round" stroke-linejoin="round" stroke-miterlimit="10" cx="138.323" cy="230.969" r="1.866"/>
	
		<circle fill="none" stroke="#FFFFFF" stroke-linecap="round" stroke-linejoin="round" stroke-miterlimit="10" cx="144.756" cy="230.969" r="1.866"/>
	
		<circle fill="none" stroke="#FFFFFF" stroke-linecap="round" stroke-linejoin="round" stroke-miterlimit="10" cx="131.891" cy="230.969" r="1.866"/>
	
		<circle fill="none" stroke="#FFFFFF" stroke-linecap="round" stroke-linejoin="round" stroke-miterlimit="10" cx="130.446" cy="214.625" r="3.039"/>
	
		<circle fill="none" stroke="#FFFFFF" stroke-linecap="round" stroke-linejoin="round" stroke-miterlimit="10" cx="146.201" cy="214.625" r="3.039"/>
	
		<circle fill="none" stroke="#FFFFFF" stroke-linecap="round" stroke-linejoin="round" stroke-miterlimit="10" cx="137.348" cy="213.988" r="0.263"/>
	
		<circle fill="none" stroke="#FFFFFF" stroke-linecap="round" stroke-linejoin="round" stroke-miterlimit="10" cx="139.299" cy="213.988" r="0.263"/>
	
		<circle fill="none" stroke="#FFFFFF" stroke-linecap="round" stroke-linejoin="round" stroke-miterlimit="10" cx="145.225" cy="213.988" r="0.263"/>
	
		<circle fill="none" stroke="#FFFFFF" stroke-linecap="round" stroke-linejoin="round" stroke-miterlimit="10" cx="147.177" cy="213.988" r="0.263"/>
	<path fill="none" stroke="#FFFFFF" stroke-linecap="round" stroke-linejoin="round" stroke-miterlimit="10" d="M147.451,216.266
		c-0.263-0.415-0.723-0.692-1.25-0.692c-0.526,0-0.986,0.278-1.249,0.692"/>
	
		<circle fill="none" stroke="#FFFFFF" stroke-linecap="round" stroke-linejoin="round" stroke-miterlimit="10" cx="129.47" cy="213.988" r="0.263"/>
	
		<circle fill="none" stroke="#FFFFFF" stroke-linecap="round" stroke-linejoin="round" stroke-miterlimit="10" cx="131.422" cy="213.988" r="0.263"/>
	<path fill="none" stroke="#FFFFFF" stroke-linecap="round" stroke-linejoin="round" stroke-miterlimit="10" d="M129.022,215.525
		c0.3,0.472,0.824,0.789,1.424,0.789c0.599,0,1.124-0.316,1.423-0.789"/>
	
		<line fill="none" stroke="#FFFFFF" stroke-linecap="round" stroke-linejoin="round" stroke-miterlimit="10" x1="137.35" y1="215.92" x2="139.297" y2="215.92"/>
	<polygon fill="none" stroke="#FFFFFF" stroke-linecap="round" stroke-linejoin="round" stroke-miterlimit="10" points="
		135.843,220.364 138.324,223.703 140.804,220.364 	"/>
	
		<line fill="none" stroke="#FFFFFF" stroke-linecap="round" stroke-linejoin="round" stroke-miterlimit="10" x1="126.057" y1="208.886" x2="150.59" y2="208.886"/>
	
		<line fill="none" stroke="#FFFFFF" stroke-linecap="round" stroke-linejoin="round" stroke-miterlimit="10" x1="126.057" y1="238.235" x2="150.59" y2="238.235"/>
	<path fill="none" stroke="#FFFFFF" stroke-linecap="round" stroke-linejoin="round" stroke-miterlimit="10" d="M127.325,228.954
		v4.03c0,1.409,1.142,2.551,2.551,2.551h16.895c1.409,0,2.551-1.142,2.551-2.551v-4.03c0-1.409-1.142-2.551-2.551-2.551h-16.895
		C128.467,226.403,127.325,227.545,127.325,228.954z"/>
</g>
<g>
	
		<line fill="none" stroke="#FFFFFF" stroke-linecap="round" stroke-linejoin="round" stroke-miterlimit="10" x1="95.228" y1="213.704" x2="95.228" y2="237.524"/>
	
		<line fill="none" stroke="#FFFFFF" stroke-linecap="round" stroke-linejoin="round" stroke-miterlimit="10" x1="83.355" y1="213.704" x2="83.355" y2="237.524"/>
	
		<rect x="83.355" y="209.055" fill="none" stroke="#FFFFFF" stroke-linecap="round" stroke-linejoin="round" stroke-miterlimit="10" width="11.873" height="4.65"/>
	<path fill="none" stroke="#FFFFFF" stroke-linecap="round" stroke-linejoin="round" stroke-miterlimit="10" d="M91.197,230.326
		h-3.811v-5.506c0-1.052,0.853-1.906,1.906-1.906h0c1.052,0,1.906,0.853,1.906,1.906V230.326z"/>
	
		<circle fill="none" stroke="#FFFFFF" stroke-linecap="round" stroke-linejoin="round" stroke-miterlimit="10" cx="89.291" cy="218.31" r="1.906"/>
	<path fill="none" stroke="#FFFFFF" stroke-linecap="round" stroke-linejoin="round" stroke-miterlimit="10" d="M90.64,236.175
		c0,0.745-0.604,1.349-1.349,1.349c-0.745,0-1.349-0.604-1.349-1.349s1.349-3.149,1.349-3.149S90.64,235.43,90.64,236.175z"/>
	
		<line fill="none" stroke="#FFFFFF" stroke-linecap="round" stroke-linejoin="round" stroke-miterlimit="10" x1="89.291" y1="233.026" x2="89.291" y2="230.326"/>
</g>
<g>
	
		<circle fill="none" stroke="#FFFFFF" stroke-width="2" stroke-linecap="round" stroke-linejoin="round" stroke-miterlimit="10" cx="89.291" cy="153.899" r="8.057"/>
	
		<rect x="81.234" y="107.863" fill="none" stroke="#FFFFFF" stroke-width="2" stroke-linecap="round" stroke-linejoin="round" stroke-miterlimit="10" width="16.115" height="31.229"/>
	
		<line fill="none" stroke="#FFFFFF" stroke-width="2" stroke-linecap="round" stroke-linejoin="round" stroke-miterlimit="10" x1="85.734" y1="101.113" x2="92.849" y2="101.113"/>
	<path fill="none" stroke="#FFFFFF" stroke-width="2" stroke-linecap="round" stroke-linejoin="round" stroke-miterlimit="10" d="
		M74.484,100.741v61.588c0,3.522,2.856,6.378,6.378,6.378h16.859c3.522,0,6.378-2.856,6.378-6.378v-61.588
		c0-3.522-2.856-6.378-6.378-6.378H80.862C77.339,94.363,74.484,97.218,74.484,100.741z"/>
	
		<line fill="none" stroke="#FFFFFF" stroke-width="2" stroke-linecap="round" stroke-linejoin="round" stroke-miterlimit="10" x1="110.849" y1="157.829" x2="110.849" y2="105.241"/>
	
		<line fill="none" stroke="#FFFFFF" stroke-width="2" stroke-linecap="round" stroke-linejoin="round" stroke-miterlimit="10" x1="67.734" y1="157.829" x2="67.734" y2="105.241"/>
</g>
<g>
	<path fill="none" stroke="#FFFFFF" stroke-linecap="round" stroke-linejoin="round" stroke-miterlimit="10" d="M153.795,43.828
		L153.795,43.828c1.746-1.746,2.727-4.114,2.727-6.582v-1.948c0-0.809-0.321-1.584-0.893-2.156l0,0
		c-0.416-0.416-0.98-0.649-1.568-0.649h-0.265l-0.111-0.111c-0.416-0.416-0.98-0.649-1.568-0.649h-1.047l-0.111-0.111
		c-0.416-0.416-0.98-0.649-1.568-0.649h-1.047v-4.305c0-0.849-0.611-1.622-1.455-1.707c-0.971-0.097-1.79,0.663-1.79,1.614v7.488
		l-1.035,1.035c-0.638,0.638-0.826,1.599-0.475,2.431l0.667,1.58c0.556,1.317,1.362,2.514,2.373,3.525l1.164,1.164"/>
	<path fill="none" stroke="#FFFFFF" stroke-linecap="round" stroke-linejoin="round" stroke-miterlimit="10" d="M150.23,29.149
		c0.713-0.822,1.16-1.881,1.16-3.054c0-2.586-2.096-4.682-4.681-4.682c-2.586,0-4.681,2.096-4.681,4.682
		c0,1.173,0.447,2.233,1.16,3.054"/>
</g>
</svg>
