<?xml version="1.0" encoding="utf-8"?>
<!-- Generator: Adobe Illustrator 24.0.0, SVG Export Plug-In . SVG Version: 6.00 Build 0)  -->
<svg version="1.1" id="Laag_1" xmlns="http://www.w3.org/2000/svg" xmlns:xlink="http://www.w3.org/1999/xlink" x="0px" y="0px"
	 viewBox="0 0 200 81.76" enable-background="new 0 0 200 81.76" xml:space="preserve">
<path d="M34.17,59.196c2.962-1.637,8.362-5.856,8.362-14.82c0-8.561-5.561-17.197-17.984-17.197H-0.219v49.399h16.004v-15.08h2.456
	l6.608,15.08h18.229L34.17,59.196z M15.786,41.317h8.084c1.93,0,3.991,0.784,3.991,2.982c0,2.254-2.061,3.058-3.991,3.058h-8.084
	V41.317z"/>
<polygon points="82.832,40.819 82.832,27.178 47.548,27.178 47.548,76.577 82.832,76.577 82.832,62.936 63.715,62.936 
	63.715,58.696 82.832,58.696 82.832,45.06 63.715,45.06 63.715,40.819 "/>
<rect x="88.712" y="27.178" width="16.004" height="49.399"/>
<path d="M180.705,76.659c-11.418,0-18.329-5.277-19.08-5.881l8.598-10.723l-4.299,5.362l4.215-5.429
	c0.161,0.12,3.984,2.925,10.566,2.925c0.534,0,5.219-0.058,5.219-2.046c-0.02-1.135-4.728-1.871-6.427-2.18
	c-5.338-0.963-17.76-3.211-17.76-15.714c0-9.448,7.624-15.793,18.969-15.793c11.415,0,18.327,5.277,19.077,5.881l-8.598,10.723
	c-0.076-0.053-3.899-2.857-10.478-2.857c-0.534,0-5.453,0.131-5.222,2.046c0.164,1.074,4.132,1.715,6.427,2.18
	c5.311,1.077,17.76,3.205,17.76,15.714C199.671,70.314,192.05,76.659,180.705,76.659z"/>
<polygon points="140.699,27.178 140.699,48.016 126.601,27.178 110.596,27.178 110.596,76.577 126.601,76.577 126.601,55.738 
	140.699,76.577 156.704,76.577 156.704,27.178 "/>
<circle cx="96.714" cy="13.104" r="8.002"/>
</svg>
