<?xml version="1.0" encoding="utf-8"?>
<!-- Generator: Adobe Illustrator 24.0.0, SVG Export Plug-In . SVG Version: 6.00 Build 0)  -->
<svg version="1.1" id="Laag_1" xmlns="http://www.w3.org/2000/svg" xmlns:xlink="http://www.w3.org/1999/xlink" x="0px" y="0px"
	 viewBox="0 0 314.145 435.535" enable-background="new 0 0 314.145 435.535" xml:space="preserve">
<rect fill="#D7BA16" width="314.145" height="435.535"/>
<text transform="matrix(1 0 0 1 154.88 133.5115)" fill="#2E1A36" font-family="'Tuschinski-null'" font-size="12px">C</text>
<text transform="matrix(1 0 0 1 152.9298 157.5115)" fill="#2E1A36" font-family="'Tuschinski-null'" font-size="12px">O</text>
<text transform="matrix(1 0 0 1 154.1597 181.5115)" fill="#2E1A36" font-family="'Tuschinski-null'" font-size="12px">N</text>
<text transform="matrix(1 0 0 1 154.1837 205.5115)" fill="#2E1A36" font-family="'Tuschinski-null'" font-size="12px">T</text>
<text transform="matrix(1 0 0 1 155.3419 229.5115)" fill="#2E1A36" font-family="'Tuschinski-null'" font-size="12px">R</text>
<text transform="matrix(1 0 0 1 154.4058 253.5115)" fill="#2E1A36" font-family="'Tuschinski-null'" font-size="12px">A</text>
<text transform="matrix(1 0 0 1 153.17 277.5115)" fill="#2E1A36" font-family="'Tuschinski-null'" font-size="12px">S</text>
<text transform="matrix(1 0 0 1 154.1837 301.5115)" fill="#2E1A36" font-family="'Tuschinski-null'" font-size="12px">T</text>
<rect x="229.48" y="346.056" transform="matrix(0.7071 -0.7071 0.7071 0.7071 -183.9506 279.2338)" fill="#FFFFFF" width="31.219" height="31.219"/>
<text transform="matrix(1 0 0 1 243.2305 361.5115)"><tspan x="0" y="0" fill="#2E1A36" font-family="'Tuschinski-null'" font-size="12px" letter-spacing="1">1</tspan><tspan x="2.399" y="0" fill="#2E1A36" font-family="'Tuschinski-null'" font-size="12px">1</tspan></text>
</svg>
