<?xml version="1.0" encoding="utf-8"?>
<!-- Generator: Adobe Illustrator 24.0.0, SVG Export Plug-In . SVG Version: 6.00 Build 0)  -->
<svg version="1.1" id="Laag_1" xmlns="http://www.w3.org/2000/svg" xmlns:xlink="http://www.w3.org/1999/xlink" x="0px" y="0px"
	 viewBox="0 0 314.646 436.535" enable-background="new 0 0 314.646 436.535" xml:space="preserve">
<polygon fill="#D7BA16" points="46.95,162.425 113.614,95.761 223.228,205.375 156.453,271.842 "/>
<rect x="32.624" y="224.421" transform="matrix(0.7071 -0.7071 0.7071 0.7071 -155.538 103.9065)" fill="#D7BA16" width="30.068" height="30.567"/>
<text transform="matrix(1 0 0 1 113.3858 97.5115)" fill="#D7BA16" font-family="'Tuschinski-null'" font-size="72px">T</text>
<text transform="matrix(1 0 0 1 94.0977 145.5115)" fill="#FFFFFF" font-family="'Tuschinski-null'" font-size="24px">S</text>
<text transform="matrix(1 0 0 1 157.3233 313.5115)" fill="#D7BA16" font-family="'Tuschinski-null'" font-size="48px">S</text>
<text transform="matrix(1 0 0 1 170.0216 121.5115)" fill="#D7BA16" font-family="'Tuschinski-null'" font-size="36px">U</text>
<text transform="matrix(1 0 0 1 93.8844 193.5115)" fill="#FFFFFF" font-family="'Tuschinski-null'" font-size="42px">C</text>
<text transform="matrix(1 0 0 1 77.2848 313.5115)" fill="#D7BA16" font-family="'Tuschinski-null'" font-size="64px">I</text>
<text transform="matrix(1 0 0 1 113.3858 265.5115)" fill="#D7BA16" font-family="'Tuschinski-null'" font-size="20px">N</text>
<text transform="matrix(1 0 0 1 245.1974 397.5115)" fill="#D7BA16" font-family="'Tuschinski-null'" font-size="20px">I</text>
<text transform="matrix(1 0 0 1 125.4029 217.5115)" fill="#FFFFFF" font-family="'Tuschinski-null'" font-size="120px">H</text>
<text transform="matrix(1 0 0 1 201.2599 361.5115)" fill="#D7BA16" font-family="'Tuschinski-null'" font-size="72px">K</text>
<rect x="53.899" y="57.902" transform="matrix(0.7071 -0.7071 0.7071 0.7071 -31.6219 70.6806)" fill="#2E1A36" width="31.219" height="31.219"/>
<text transform="matrix(1 0 0 1 63.0831 73.5115)"><tspan x="0" y="0" fill="#FFFFFF" font-family="'Tuschinski-null'" font-size="12px" letter-spacing="1">0</tspan><tspan x="6.924" y="0" fill="#FFFFFF" font-family="'Tuschinski-null'" font-size="12px">8</tspan></text>
<g>
	<defs>
		<rect id="SVGID_1_" width="314.646" height="436.535"/>
	</defs>
	<clipPath id="SVGID_2_">
		<use xlink:href="#SVGID_1_"  overflow="visible"/>
	</clipPath>
	<line clip-path="url(#SVGID_2_)" fill="none" stroke="#2E1A36" x1="91.427" y1="73.355" x2="-7.431" y2="172.213"/>
	<line clip-path="url(#SVGID_2_)" fill="none" stroke="#2E1A36" x1="113.303" y1="96.114" x2="-8.849" y2="218.266"/>
	<line clip-path="url(#SVGID_2_)" fill="none" stroke="#2E1A36" x1="315.141" y1="112.463" x2="-7.431" y2="435.035"/>
	<line clip-path="url(#SVGID_2_)" fill="none" stroke="#2E1A36" x1="121.075" y1="-0.249" x2="47.304" y2="73.523"/>
</g>
<rect x="44.879" y="31.23" transform="matrix(0.7071 -0.7071 0.7071 0.7071 -10.0159 43.4827)" fill="#2E1A36" width="5.204" height="5.204"/>
<line fill="none" stroke="#2E1A36" x1="47.95" y1="30.533" x2="265.244" y2="247.827"/>
<g>
	<defs>
		<rect id="SVGID_3_" width="314.646" height="436.535"/>
	</defs>
	<clipPath id="SVGID_4_">
		<use xlink:href="#SVGID_3_"  overflow="visible"/>
	</clipPath>
	<line clip-path="url(#SVGID_4_)" fill="none" stroke="#2E1A36" x1="-0.327" y1="69.492" x2="47.649" y2="117.468"/>
</g>
<line fill="none" stroke="#2E1A36" x1="21.923" y1="136.978" x2="156.1" y2="271.155"/>
<g>
	<defs>
		<rect id="SVGID_5_" width="314.646" height="436.535"/>
	</defs>
	<clipPath id="SVGID_6_">
		<use xlink:href="#SVGID_5_"  overflow="visible"/>
	</clipPath>
	<line clip-path="url(#SVGID_6_)" fill="none" stroke="#2E1A36" x1="47.433" y1="-0.563" x2="47.433" y2="34.582"/>
	<line clip-path="url(#SVGID_6_)" fill="none" stroke="#2E1A36" x1="254.339" y1="-1.347" x2="135.708" y2="117.284"/>
</g>
<rect x="107.002" y="93.533" transform="matrix(0.7071 -0.7071 0.7071 0.7071 -35.8752 105.6581)" fill="#2E1A36" width="5.204" height="5.204"/>
<rect x="32.354" y="224.547" transform="matrix(0.7071 -0.7071 0.7071 0.7071 -155.6318 103.9255)" fill="none" stroke="#C71E33" width="30.559" height="30.559"/>
<g>
	<defs>
		<rect id="SVGID_7_" width="314.646" height="436.535"/>
	</defs>
	<clipPath id="SVGID_8_">
		<use xlink:href="#SVGID_7_"  overflow="visible"/>
	</clipPath>
	<line clip-path="url(#SVGID_8_)" fill="none" stroke="#2E1A36" x1="266.588" y1="437.466" x2="69.302" y2="240.18"/>
	<line clip-path="url(#SVGID_8_)" fill="none" stroke="#2E1A36" x1="189.15" y1="438.724" x2="29.524" y2="279.098"/>
	<line clip-path="url(#SVGID_8_)" fill="none" stroke="#2E1A36" x1="315.807" y1="196.043" x2="149.468" y2="362.382"/>
</g>
</svg>
