<?xml version="1.0" encoding="utf-8"?>
<!-- Generator: Adobe Illustrator 24.0.0, SVG Export Plug-In . SVG Version: 6.00 Build 0)  -->
<svg version="1.1" id="Laag_1" xmlns="http://www.w3.org/2000/svg" xmlns:xlink="http://www.w3.org/1999/xlink" x="0px" y="0px"
	 viewBox="0 0 314.645 436.535" enable-background="new 0 0 314.645 436.535" xml:space="preserve">
<rect fill="#2E1A36" width="314.645" height="436.535"/>
<text transform="matrix(1 0 0 1 47.9385 277.5125)"><tspan x="0" y="0" fill="#FFFFFF" font-family="'Tuschinski-null'" font-size="48px" letter-spacing="8">R</tspan><tspan x="24.479" y="0" fill="#FFFFFF" font-family="'Tuschinski-null'" font-size="48px" letter-spacing="8">U</tspan><tspan x="57.792" y="0" fill="#FFFFFF" font-family="'Tuschinski-null'" font-size="48px" letter-spacing="8">IMT</tspan><tspan x="141.502" y="0" fill="#FFFFFF" font-family="'Tuschinski-null'" font-size="48px">E</tspan></text>
<line fill="none" stroke="#D7BA16" x1="113.385" y1="289.012" x2="47.479" y2="289.012"/>
<text transform="matrix(1 0 0 1 47.5201 313.5125)"><tspan x="0" y="0" fill="#D7BA16" font-family="'Tuschinski-null'" font-size="8px">SP</tspan><tspan x="9.424" y="0" fill="#D7BA16" font-family="'Tuschinski-null'" font-size="8px">AT</tspan><tspan x="18.76" y="0" fill="#D7BA16" font-family="'Tuschinski-null'" font-size="8px">IËRI</tspan><tspan x="28.703" y="0" fill="#D7BA16" font-family="'Tuschinski-null'" font-size="8px">N</tspan><tspan x="33.551" y="0" fill="#D7BA16" font-family="'Tuschinski-null'" font-size="8px">G</tspan></text>
<text transform="matrix(1 0 0 1 47.5201 325.5125)"><tspan x="0" y="0" fill="#D7BA16" font-family="'Tuschinski-null'" font-size="8px">K</tspan><tspan x="4.6" y="0" fill="#D7BA16" font-family="'Tuschinski-null'" font-size="8px">A</tspan><tspan x="9.12" y="0" fill="#D7BA16" font-family="'Tuschinski-null'" font-size="8px">PI</tspan><tspan x="13.808" y="0" fill="#D7BA16" font-family="'Tuschinski-null'" font-size="8px">TA</tspan><tspan x="23.144" y="0" fill="#D7BA16" font-family="'Tuschinski-null'" font-size="8px">LE</tspan><tspan x="30.759" y="0" fill="#D7BA16" font-family="'Tuschinski-null'" font-size="8px">N</tspan></text>
<text transform="matrix(1 0 0 1 47.5201 337.5125)"><tspan x="0" y="0" fill="#D7BA16" font-family="'Tuschinski-null'" font-size="8px">LIJ</tspan><tspan x="7.76" y="0" fill="#D7BA16" font-family="'Tuschinski-null'" font-size="8px">N</tspan><tspan x="12.607" y="0" fill="#D7BA16" font-family="'Tuschinski-null'" font-size="8px">E</tspan><tspan x="16.392" y="0" fill="#D7BA16" font-family="'Tuschinski-null'" font-size="8px">N</tspan></text>
<text transform="matrix(1 0 0 1 47.5201 349.5125)"><tspan x="0" y="0" fill="#D7BA16" font-family="'Tuschinski-null'" font-size="8px">M</tspan><tspan x="5.288" y="0" fill="#D7BA16" font-family="'Tuschinski-null'" font-size="8px">OZA</tspan><tspan x="20.752" y="0" fill="#D7BA16" font-family="'Tuschinski-null'" font-size="8px">ÏE</tspan><tspan x="25.976" y="0" fill="#D7BA16" font-family="'Tuschinski-null'" font-size="8px">K</tspan></text>
<text transform="matrix(1 0 0 1 47.5201 361.5125)"><tspan x="0" y="0" fill="#D7BA16" font-family="'Tuschinski-null'" font-size="8px">GR</tspan><tspan x="9.4" y="0" fill="#D7BA16" font-family="'Tuschinski-null'" font-size="8px">OOT</tspan><tspan x="27.192" y="0" fill="#D7BA16" font-family="'Tuschinski-null'" font-size="8px">S</tspan></text>
<rect x="229.48" y="346.057" transform="matrix(0.7071 -0.7071 0.7071 0.7071 -183.9513 279.2341)" fill="#D7BA16" width="31.219" height="31.219"/>
<text transform="matrix(1 0 0 1 239.7989 361.5125)"><tspan x="0" y="0" fill="#2E1A36" font-family="'Tuschinski-null'" font-size="12px" letter-spacing="1">0</tspan><tspan x="6.936" y="0" fill="#2E1A36" font-family="'Tuschinski-null'" font-size="12px">3</tspan></text>
<g>
	<defs>
		<rect id="SVGID_1_" x="-0.001" y="0.001" width="314.646" height="436.535"/>
	</defs>
	<clipPath id="SVGID_2_">
		<use xlink:href="#SVGID_1_"  overflow="visible"/>
	</clipPath>
	<line clip-path="url(#SVGID_2_)" fill="none" stroke="#D7BA16" x1="317.656" y1="267.201" x2="223.209" y2="361.648"/>
	<line clip-path="url(#SVGID_2_)" fill="none" stroke="#D7BA16" x1="266.811" y1="361.866" x2="192.448" y2="436.229"/>
</g>
<line fill="none" stroke="#D7BA16" x1="223.015" y1="361.512" x2="223.015" y2="405.355"/>
<rect x="264.563" y="405.451" transform="matrix(0.7071 -0.7071 0.7071 0.7071 -210.2864 308.4294)" fill="#D7BA16" width="5.204" height="5.204"/>
<line fill="none" stroke="#D7BA16" x1="223.209" y1="361.204" x2="267.262" y2="405.257"/>
<g>
	<defs>
		<rect id="SVGID_3_" x="-0.001" y="0.001" width="314.646" height="436.535"/>
	</defs>
	<clipPath id="SVGID_4_">
		<use xlink:href="#SVGID_3_"  overflow="visible"/>
	</clipPath>
	<line clip-path="url(#SVGID_4_)" fill="none" stroke="#D7BA16" x1="267.164" y1="361.512" x2="314.644" y2="361.512"/>
</g>
</svg>
