<?xml version="1.0" encoding="utf-8"?>
<!-- Generator: Adobe Illustrator 24.0.0, SVG Export Plug-In . SVG Version: 6.00 Build 0)  -->
<svg version="1.1" id="Laag_1" xmlns="http://www.w3.org/2000/svg" xmlns:xlink="http://www.w3.org/1999/xlink" x="0px" y="0px"
	 viewBox="0 0 314.146 436.535" enable-background="new 0 0 314.146 436.535" xml:space="preserve">
<rect fill="#D7BA16" width="314.146" height="435.535"/>
<text transform="matrix(1 0 0 1 46.1051 313.5115)" fill="#2E1A36" font-family="'Tuschinski-null'" font-size="320px">S</text>
<rect x="53.399" y="57.902" transform="matrix(0.7071 -0.7071 0.7071 0.7071 -31.7683 70.327)" fill="#FFFFFF" width="31.219" height="31.219"/>
<text transform="matrix(1 0 0 1 62.7989 73.5115)"><tspan x="0" y="0" fill="#2E1A36" font-family="'Tuschinski-null'" font-size="12px" letter-spacing="1">0</tspan><tspan x="6.924" y="0" fill="#2E1A36" font-family="'Tuschinski-null'" font-size="12px">4</tspan></text>
<g>
	<defs>
		<rect id="SVGID_1_" x="-0.5" width="314.646" height="436.535"/>
	</defs>
	<clipPath id="SVGID_2_">
		<use xlink:href="#SVGID_1_"  overflow="visible"/>
	</clipPath>
	<line clip-path="url(#SVGID_2_)" fill="none" stroke="#FFFFFF" x1="90.927" y1="73.355" x2="-7.931" y2="172.213"/>
	<line clip-path="url(#SVGID_2_)" fill="none" stroke="#FFFFFF" x1="120.575" y1="-0.249" x2="46.804" y2="73.523"/>
</g>
<rect x="44.379" y="31.23" transform="matrix(0.7071 -0.7071 0.7071 0.7071 -10.1624 43.1291)" fill="#FFFFFF" width="5.204" height="5.204"/>
<line fill="none" stroke="#FFFFFF" x1="47.45" y1="30.533" x2="90.927" y2="74.01"/>
<g>
	<defs>
		<rect id="SVGID_3_" x="-0.5" width="314.646" height="436.535"/>
	</defs>
	<clipPath id="SVGID_4_">
		<use xlink:href="#SVGID_3_"  overflow="visible"/>
	</clipPath>
	<line clip-path="url(#SVGID_4_)" fill="none" stroke="#FFFFFF" x1="46.933" y1="-0.563" x2="46.933" y2="34.582"/>
</g>
<text transform="matrix(1 0 0 1 50.9762 253.5115)" fill="#FFFFFF" font-family="'Tuschinski-null'" font-size="15px">T</text>
<text transform="matrix(1 0 0 1 50.9762 277.5115)" fill="#FFFFFF" font-family="'Tuschinski-null'" font-size="15px">U</text>
<text transform="matrix(1 0 0 1 244.5284 133.5115)" fill="#FFFFFF" font-family="'Tuschinski-null'" font-size="15px">C</text>
<text transform="matrix(1 0 0 1 244.5284 157.5115)" fill="#FFFFFF" font-family="'Tuschinski-null'" font-size="15px">H</text>
<text transform="matrix(1 0 0 1 244.5284 181.5115)" fill="#FFFFFF" font-family="'Tuschinski-null'" font-size="15px">I</text>
<text transform="matrix(1 0 0 1 244.5284 205.5115)" fill="#FFFFFF" font-family="'Tuschinski-null'" font-size="15px">N</text>
<text transform="matrix(1 0 0 1 244.5284 229.5115)" fill="#FFFFFF" font-family="'Tuschinski-null'" font-size="15px">S</text>
<text transform="matrix(1 0 0 1 244.5284 253.5115)" fill="#FFFFFF" font-family="'Tuschinski-null'" font-size="15px">K</text>
<text transform="matrix(1 0 0 1 244.5284 277.5115)" fill="#FFFFFF" font-family="'Tuschinski-null'" font-size="15px">I</text>
</svg>
