<?xml version="1.0" encoding="utf-8"?>
<!-- Generator: Adobe Illustrator 24.0.0, SVG Export Plug-In . SVG Version: 6.00 Build 0)  -->
<svg version="1.1" id="Laag_1" xmlns="http://www.w3.org/2000/svg" xmlns:xlink="http://www.w3.org/1999/xlink" x="0px" y="0px"
	 viewBox="0 0 314.646 436.535" enable-background="new 0 0 314.646 436.535" xml:space="preserve">
<rect x="0.001" fill="#D7BA16" width="314.645" height="435.535"/>
<rect x="51.175" y="59.448" transform="matrix(0.7071 -0.7071 0.7071 0.7071 -43.3734 93.0139)" fill="#2E1A36" width="78.831" height="78.831"/>
<text transform="matrix(1 0 0 1 81.4132 117.9797)" fill="#FFFFFF" font-family="'Tuschinski-null'" font-size="48px">L</text>
<rect x="123.95" y="174.719" transform="matrix(0.7071 -0.7071 0.7071 0.7071 -113.1126 201.2805)" fill="#FFFFFF" width="124.921" height="124.921"/>
<text transform="matrix(1 0 0 1 162.0147 258.1677)" fill="#2E1A36" font-family="'Tuschinski-null'" font-size="72px">Q</text>
<rect x="229.481" y="346.056" transform="matrix(0.7071 -0.7071 0.7071 0.7071 -183.9503 279.2345)" fill="#FFFFFF" width="31.219" height="31.219"/>
<text transform="matrix(1 0 0 1 242.0675 361.5115)"><tspan x="0" y="0" fill="#2E1A36" font-family="'Tuschinski-null'" font-size="12px" letter-spacing="1">1</tspan><tspan x="2.399" y="0" fill="#2E1A36" font-family="'Tuschinski-null'" font-size="12px">3</tspan></text>
<g>
	<defs>
		<rect id="SVGID_1_" width="314.646" height="436.535"/>
	</defs>
	<clipPath id="SVGID_2_">
		<use xlink:href="#SVGID_1_"  overflow="visible"/>
	</clipPath>
	<line clip-path="url(#SVGID_2_)" fill="none" stroke="#FFFFFF" x1="-31.429" y1="293.633" x2="62.112" y2="200.092"/>
</g>
<line fill="none" stroke="#FFFFFF" x1="244.843" y1="383.598" x2="61.429" y2="200.184"/>
<rect x="59.046" y="201.345" transform="matrix(0.7071 -0.7071 0.7071 0.7071 -126.1556 103.3262)" fill="#FFFFFF" width="5.204" height="5.204"/>
<g>
	<defs>
		<rect id="SVGID_3_" width="314.646" height="436.535"/>
	</defs>
	<clipPath id="SVGID_4_">
		<use xlink:href="#SVGID_3_"  overflow="visible"/>
	</clipPath>
	<line clip-path="url(#SVGID_4_)" fill="none" stroke="#FFFFFF" x1="81.735" y1="163.461" x2="-40.172" y2="41.554"/>
</g>
<rect x="53.657" y="273.745" transform="matrix(0.7071 -0.7071 0.7071 0.7071 -184.0931 133.2677)" fill="none" stroke="#FFFFFF" width="30.33" height="30.219"/>
<line fill="none" stroke="#FFFFFF" x1="186.861" y1="149.293" x2="38.392" y2="297.762"/>
<g>
	<defs>
		<rect id="SVGID_5_" width="314.646" height="436.535"/>
	</defs>
	<clipPath id="SVGID_6_">
		<use xlink:href="#SVGID_5_"  overflow="visible"/>
	</clipPath>
	<line clip-path="url(#SVGID_6_)" fill="none" stroke="#FFFFFF" x1="206.11" y1="447.73" x2="47.062" y2="288.682"/>
</g>
<rect x="24.587" y="328.479" transform="matrix(0.7071 -0.7071 0.7071 0.7071 -226.1457 116.1969)" fill="#FFFFFF" width="5.204" height="5.204"/>
<g>
	<defs>
		<rect id="SVGID_7_" width="314.646" height="436.535"/>
	</defs>
	<clipPath id="SVGID_8_">
		<use xlink:href="#SVGID_7_"  overflow="visible"/>
	</clipPath>
	<line clip-path="url(#SVGID_8_)" fill="none" stroke="#FFFFFF" x1="134.59" y1="377.332" x2="316.765" y2="195.157"/>
</g>
<rect x="119.336" y="338.906" transform="matrix(0.7071 -0.7071 0.7071 0.7071 -211.1553 199.2556)" fill="#FFFFFF" width="31.219" height="31.219"/>
<text transform="matrix(1 0 0 1 133.7452 362.6667)" fill="#2E1A36" font-family="'Tuschinski-null'" font-size="24px">I</text>
<rect x="196.933" y="87.399" transform="matrix(0.7071 -0.7071 0.7071 0.7071 -10.362 179.9998)" fill="none" stroke="#FFFFFF" width="30.33" height="30.219"/>
<line fill="none" stroke="#FFFFFF" x1="98.432" y1="237.665" x2="233.9" y2="102.197"/>
<line fill="none" stroke="#FFFFFF" x1="267.093" y1="136.276" x2="178.652" y2="47.835"/>
<rect x="184.942" y="31.977" transform="matrix(0.7071 -0.7071 0.7071 0.7071 25.0916 155.7488)" fill="#FFFFFF" width="31.219" height="31.219"/>
<text transform="matrix(1 0 0 1 191.7677 55.738)" fill="#2E1A36" font-family="'Tuschinski-null'" font-size="24px">O</text>
<line fill="none" stroke="#FFFFFF" x1="212.883" y1="124.406" x2="134.876" y2="46.399"/>
<rect x="135.6" y="44.199" transform="matrix(0.7071 -0.7071 0.7071 0.7071 7.3851 111.4309)" fill="#FFFFFF" width="5.204" height="5.204"/>
<g>
	<defs>
		<rect id="SVGID_9_" width="314.646" height="436.535"/>
	</defs>
	<clipPath id="SVGID_10_">
		<use xlink:href="#SVGID_9_"  overflow="visible"/>
	</clipPath>
	<line clip-path="url(#SVGID_10_)" fill="none" stroke="#FFFFFF" x1="181.995" y1="0.01" x2="134.877" y2="47.128"/>
</g>
<rect x="264.564" y="130.348" transform="matrix(0.7071 -0.7071 0.7071 0.7071 -15.7596 227.8537)" fill="#FFFFFF" width="5.204" height="5.204"/>
<g>
	<defs>
		<rect id="SVGID_11_" width="314.646" height="436.535"/>
	</defs>
	<clipPath id="SVGID_12_">
		<use xlink:href="#SVGID_11_"  overflow="visible"/>
	</clipPath>
	<line clip-path="url(#SVGID_12_)" fill="none" stroke="#FFFFFF" x1="135.067" y1="-0.642" x2="35.202" y2="99.223"/>
	<line clip-path="url(#SVGID_12_)" fill="none" stroke="#FFFFFF" x1="145.985" y1="98.654" x2="45.102" y2="-2.229"/>
	<line clip-path="url(#SVGID_12_)" fill="none" stroke="#FFFFFF" x1="189.102" y1="447.73" x2="38.372" y2="297"/>
	<line clip-path="url(#SVGID_12_)" fill="none" stroke="#FFFFFF" x1="316.42" y1="80.577" x2="263.839" y2="133.158"/>
</g>
<line fill="none" stroke="#FFFFFF" x1="267.621" y1="25.686" x2="211.743" y2="81.564"/>
<rect x="252.282" y="32.337" transform="matrix(0.7071 -0.7071 0.7071 0.7071 44.7834 203.01)" fill="none" stroke="#FFFFFF" width="30.33" height="30.219"/>
<g>
	<defs>
		<rect id="SVGID_13_" width="314.646" height="436.535"/>
	</defs>
	<clipPath id="SVGID_14_">
		<use xlink:href="#SVGID_13_"  overflow="visible"/>
	</clipPath>
	<line clip-path="url(#SVGID_14_)" fill="none" stroke="#FFFFFF" x1="316.968" y1="262.397" x2="195.061" y2="140.49"/>
</g>
<line fill="none" stroke="#FFFFFF" x1="90.607" y1="154.152" x2="34.865" y2="98.411"/>
</svg>
