<?xml version="1.0" encoding="utf-8"?>
<!-- Generator: Adobe Illustrator 24.0.0, SVG Export Plug-In . SVG Version: 6.00 Build 0)  -->
<svg version="1.1" id="Laag_1" xmlns="http://www.w3.org/2000/svg" xmlns:xlink="http://www.w3.org/1999/xlink" x="0px" y="0px"
	 viewBox="0 0 314.645 435.535" enable-background="new 0 0 314.645 435.535" xml:space="preserve">
<rect fill="#2E1A36" width="314.645" height="435.535"/>
<text transform="matrix(1 0 0 1 113.3848 61.5115)"><tspan x="0" y="0" fill="#FFFFFF" font-family="'Tuschinski-null'" font-size="10px" letter-spacing="1">“ALLEEN HET MOOIST</tspan><tspan x="98.288" y="0" fill="#FFFFFF" font-family="'Tuschinski-null'" font-size="10px">E </tspan></text>
<text transform="matrix(1 0 0 1 220.1729 61.5115)" fill="#FFFFFF" font-family="'Tuschinski-null'" font-size="10px"> </text>
<text transform="matrix(1 0 0 1 113.3848 73.5115)"><tspan x="0" y="0" fill="#FFFFFF" font-family="'Tuschinski-null'" font-size="10px" letter-spacing="1">VAN HET MOOISTE</tspan><tspan x="87.509" y="0" fill="#FFFFFF" font-family="'Tuschinski-null'" font-size="10px">”</tspan></text>
<text transform="matrix(1 0 0 1 113.3848 109.5115)"><tspan x="0" y="0" fill="#FFFFFF" font-family="'Tuschinski-null'" font-size="10px" letter-spacing="1">“HIER RIJKER DAN THUIS</tspan><tspan x="101.448" y="0" fill="#FFFFFF" font-family="'Tuschinski-null'" font-size="10px">”</tspan></text>
<text transform="matrix(1 0 0 1 113.3848 145.5115)"><tspan x="0" y="0" fill="#FFFFFF" font-family="'Tuschinski-null'" font-size="10px" letter-spacing="1">“KOSTEN NOCH MOEITE GESPAARD</tspan><tspan x="158.157" y="0" fill="#FFFFFF" font-family="'Tuschinski-null'" font-size="10px">”</tspan></text>
<text transform="matrix(1 0 0 1 113.3848 181.5115)"><tspan x="0" y="0" fill="#FFFFFF" font-family="'Tuschinski-null'" font-size="10px" letter-spacing="1">“WELKOM IN HET FILMPALEIS</tspan><tspan x="127.578" y="0" fill="#FFFFFF" font-family="'Tuschinski-null'" font-size="10px">”</tspan></text>
<text transform="matrix(1 0 0 1 113.3848 217.5115)"><tspan x="0" y="0" fill="#FFFFFF" font-family="'Tuschinski-null'" font-size="10px" letter-spacing="1">“MAGNIFIEKE LICH</tspan><tspan x="75.579" y="0" fill="#FFFFFF" font-family="'Tuschinski-null'" font-size="10px">T</tspan><tspan x="81.799" y="0" fill="#FFFFFF" font-family="'Tuschinski-null'" font-size="10px" letter-spacing="1">SCHAKERING</tspan><tspan x="138.268" y="0" fill="#FFFFFF" font-family="'Tuschinski-null'" font-size="10px">”</tspan></text>
<text transform="matrix(1 0 0 1 113.3848 253.5115)"><tspan x="0" y="0" fill="#FFFFFF" font-family="'Tuschinski-null'" font-size="10px" letter-spacing="1">“EEN ZEER GROOTSCHEN INDRUK</tspan><tspan x="144.628" y="0" fill="#FFFFFF" font-family="'Tuschinski-null'" font-size="10px">”</tspan></text>
<text transform="matrix(1 0 0 1 113.3848 289.5115)"><tspan x="0" y="0" fill="#FFFFFF" font-family="'Tuschinski-null'" font-size="10px" letter-spacing="1">“RIJK EN DECORATIEVE INVENTARIS</tspan><tspan x="149.927" y="0" fill="#FFFFFF" font-family="'Tuschinski-null'" font-size="10px">”</tspan></text>
<rect x="89.577" y="56.395" transform="matrix(0.7071 -0.7071 0.7071 0.7071 -14.3897 81.6918)" fill="none" stroke="#D7BA16" width="3.679" height="3.643"/>
<rect x="89.577" y="104.395" transform="matrix(0.7071 -0.7071 0.7071 0.7071 -48.3306 95.7505)" fill="none" stroke="#D7BA16" width="3.679" height="3.643"/>
<rect x="89.577" y="140.395" transform="matrix(0.7071 -0.7071 0.7071 0.7071 -73.7864 106.2946)" fill="none" stroke="#D7BA16" width="3.679" height="3.643"/>
<rect x="89.577" y="176.395" transform="matrix(0.7071 -0.7071 0.7071 0.7071 -99.2421 116.8386)" fill="none" stroke="#D7BA16" width="3.679" height="3.643"/>
<rect x="89.577" y="212.65" transform="matrix(0.7071 -0.7071 0.7071 0.7071 -124.879 127.4582)" fill="none" stroke="#D7BA16" width="3.679" height="3.643"/>
<rect x="89.577" y="248.395" transform="matrix(0.7071 -0.7071 0.7071 0.7071 -150.1539 137.9274)" fill="none" stroke="#D7BA16" width="3.679" height="3.643"/>
<rect x="89.577" y="284.395" transform="matrix(0.7071 -0.7071 0.7071 0.7071 -175.6097 148.4715)" fill="none" stroke="#D7BA16" width="3.679" height="3.643"/>
<rect x="229.48" y="346.056" transform="matrix(0.7071 -0.7071 0.7071 0.7071 -183.9506 279.2338)" fill="#D7BA16" width="31.219" height="31.219"/>
<text transform="matrix(1 0 0 1 238.7364 361.5115)"><tspan x="0" y="0" fill="#2E1A36" font-family="'Tuschinski-null'" font-size="12px" letter-spacing="1">0</tspan><tspan x="6.924" y="0" fill="#2E1A36" font-family="'Tuschinski-null'" font-size="12px">9</tspan></text>
<g>
	<defs>
		<rect id="SVGID_1_" x="-0.001" width="314.646" height="436.535"/>
	</defs>
	<clipPath id="SVGID_2_">
		<use xlink:href="#SVGID_1_"  overflow="visible"/>
	</clipPath>
	<line clip-path="url(#SVGID_2_)" fill="none" stroke="#D7BA16" x1="317.656" y1="267.2" x2="223.209" y2="361.647"/>
	<line clip-path="url(#SVGID_2_)" fill="none" stroke="#D7BA16" x1="266.811" y1="361.865" x2="192.448" y2="436.228"/>
</g>
<line fill="none" stroke="#D7BA16" x1="223.015" y1="361.511" x2="223.015" y2="405.354"/>
<rect x="264.563" y="405.45" transform="matrix(0.7071 -0.7071 0.7071 0.7071 -210.2857 308.4291)" fill="#D7BA16" width="5.204" height="5.204"/>
<line fill="none" stroke="#D7BA16" x1="223.209" y1="361.203" x2="267.262" y2="405.256"/>
<g>
	<defs>
		<rect id="SVGID_3_" x="-0.001" width="314.646" height="436.535"/>
	</defs>
	<clipPath id="SVGID_4_">
		<use xlink:href="#SVGID_3_"  overflow="visible"/>
	</clipPath>
	<line clip-path="url(#SVGID_4_)" fill="none" stroke="#D7BA16" x1="267.164" y1="361.511" x2="314.644" y2="361.511"/>
</g>
<line fill="none" stroke="#D7BA16" x1="8.503" y1="361.511" x2="223.223" y2="361.511"/>
</svg>
