<?xml version="1.0" encoding="utf-8"?>
<!-- Generator: Adobe Illustrator 24.0.0, SVG Export Plug-In . SVG Version: 6.00 Build 0)  -->
<svg version="1.1" id="Laag_1" xmlns="http://www.w3.org/2000/svg" xmlns:xlink="http://www.w3.org/1999/xlink" x="0px" y="0px"
	 viewBox="0 0 314.645 436.535" enable-background="new 0 0 314.645 436.535" xml:space="preserve">
<rect fill="#D7BA16" width="314.645" height="435.535"/>
<rect x="141.004" y="348.536" transform="matrix(0.7071 -0.7071 0.7071 0.7071 -211.6185 217.398)" fill="#2E1A36" width="31.219" height="31.219"/>
<text transform="matrix(1 0 0 1 150.6734 372.2976)" fill="#FFFFFF" font-family="'Tuschinski-null'" font-size="24px">K</text>
<rect x="110.53" y="101.647" transform="matrix(0.7071 -0.7071 0.7071 0.7071 -49.7834 132.7511)" fill="#FFFFFF" width="49.646" height="49.646"/>
<rect x="220.373" y="61.719" transform="matrix(0.7071 -0.7071 0.7071 0.7071 10.6222 198.7268)" fill="#FFFFFF" width="49.646" height="49.646"/>
<rect x="84.555" y="214.991" transform="matrix(0.7071 -0.7071 0.7071 0.7071 -143.5824 162.1745)" fill="#FFFFFF" width="78.831" height="78.831"/>
<rect x="53.898" y="57.902" transform="matrix(0.7071 -0.7071 0.7071 0.7071 -31.6222 70.6799)" fill="#FFFFFF" width="31.219" height="31.219"/>
<rect x="133.81" y="39.63" transform="matrix(0.7071 -0.7071 0.7071 0.7071 4.7036 121.8346)" fill="#2E1A36" width="31.219" height="31.219"/>
<text transform="matrix(1 0 0 1 66.0821 73.5115)"><tspan x="0" y="0" fill="#2E1A36" font-family="'Tuschinski-null'" font-size="12px" letter-spacing="1">1</tspan><tspan x="2.4" y="0" fill="#2E1A36" font-family="'Tuschinski-null'" font-size="12px">2</tspan></text>
<g>
	<defs>
		<rect id="SVGID_1_" x="-0.001" width="314.646" height="436.535"/>
	</defs>
	<clipPath id="SVGID_2_">
		<use xlink:href="#SVGID_1_"  overflow="visible"/>
	</clipPath>
	<line clip-path="url(#SVGID_2_)" fill="none" stroke="#FFFFFF" x1="47.833" y1="73.865" x2="327.141" y2="353.173"/>
</g>
<text transform="matrix(1 0 0 1 129.4137 138.7434)" fill="#2E1A36" font-family="'Tuschinski-null'" font-size="36px">R</text>
<text transform="matrix(1 0 0 1 235.7823 99.5759)" fill="#2E1A36" font-family="'Tuschinski-null'" font-size="36px">T</text>
<text transform="matrix(1 0 0 1 110.4254 273.5232)" fill="#2E1A36" font-family="'Tuschinski-null'" font-size="48px">M</text>
<line fill="none" stroke="#FFFFFF" x1="38.739" y1="83.149" x2="304.954" y2="349.364"/>
<line fill="none" stroke="#FFFFFF" x1="135.707" y1="161.221" x2="295.74" y2="1.188"/>
<g>
	<defs>
		<rect id="SVGID_3_" x="-0.001" width="314.646" height="436.535"/>
	</defs>
	<clipPath id="SVGID_4_">
		<use xlink:href="#SVGID_3_"  overflow="visible"/>
	</clipPath>
	<line clip-path="url(#SVGID_4_)" fill="none" stroke="#FFFFFF" x1="170.289" y1="98.289" x2="268.402" y2="0.175"/>
	<line clip-path="url(#SVGID_4_)" fill="none" stroke="#FFFFFF" x1="38.28" y1="83.72" x2="122.37" y2="-0.37"/>
</g>
<line fill="none" stroke="#FFFFFF" x1="170.105" y1="98.289" x2="97.278" y2="25.462"/>
<rect x="167.856" y="91.842" transform="matrix(0.7071 -0.7071 0.7071 0.7071 -16.8558 148.1933)" fill="#FFFFFF" width="5.204" height="5.204"/>
<rect x="189.722" y="144.794" transform="matrix(0.7071 -0.7071 0.7071 0.7071 -47.894 179.1641)" fill="#FFFFFF" width="5.204" height="5.204"/>
<line fill="none" stroke="#FFFFFF" x1="20.385" y1="206.333" x2="189.363" y2="37.355"/>
<rect x="189.297" y="34.909" transform="matrix(0.7071 -0.7071 0.7071 0.7071 29.681 146.6794)" fill="#FFFFFF" width="5.204" height="5.204"/>
<g>
	<defs>
		<rect id="SVGID_5_" x="-0.001" width="314.646" height="436.535"/>
	</defs>
	<clipPath id="SVGID_6_">
		<use xlink:href="#SVGID_5_"  overflow="visible"/>
	</clipPath>
	<line clip-path="url(#SVGID_6_)" fill="none" stroke="#FFFFFF" x1="-0.71" y1="165.118" x2="91.062" y2="73.346"/>
</g>
<rect x="21.355" y="203.155" transform="matrix(0.7071 -0.7071 0.7071 0.7071 -138.4748 77.205)" fill="#FFFFFF" width="5.204" height="5.204"/>
<line fill="none" stroke="#FFFFFF" x1="178.806" y1="364.308" x2="20.608" y2="206.11"/>
<rect x="76.105" y="173.257" transform="matrix(0.7071 -0.7071 0.7071 0.7071 -106.4624 119.7089)" fill="none" stroke="#FFFFFF" width="30.33" height="30.219"/>
<line fill="none" stroke="#FFFFFF" x1="179.36" y1="254.976" x2="112.713" y2="188.329"/>
<text transform="matrix(1 0 0 1 143.4791 63.3918)" fill="#FFFFFF" font-family="'Tuschinski-null'" font-size="24px">K</text>
<rect x="231.569" y="168.175" transform="matrix(0.7071 -0.7071 0.7071 0.7071 -57.3347 228.1502)" fill="none" stroke="#FFFFFF" width="30.33" height="30.219"/>
<rect x="66.846" y="359.231" transform="matrix(0.7071 -0.7071 0.7071 0.7071 -235.5133 155.0852)" fill="#FFFFFF" width="5.204" height="5.204"/>
<line fill="none" stroke="#FFFFFF" x1="69.359" y1="365.057" x2="179.656" y2="254.76"/>
<g>
	<defs>
		<rect id="SVGID_7_" x="-0.001" width="314.646" height="436.535"/>
	</defs>
	<clipPath id="SVGID_8_">
		<use xlink:href="#SVGID_7_"  overflow="visible"/>
	</clipPath>
	<line clip-path="url(#SVGID_8_)" fill="none" stroke="#FFFFFF" x1="140.553" y1="436.296" x2="66.122" y2="361.865"/>
</g>
<line fill="none" stroke="#FFFFFF" x1="77.46" y1="373.964" x2="268.495" y2="182.929"/>
<g>
	<defs>
		<rect id="SVGID_9_" x="-0.001" width="314.646" height="436.535"/>
	</defs>
	<clipPath id="SVGID_10_">
		<use xlink:href="#SVGID_9_"  overflow="visible"/>
	</clipPath>
	<line clip-path="url(#SVGID_10_)" fill="none" stroke="#FFFFFF" x1="156.613" y1="386.22" x2="315.353" y2="227.48"/>
</g>
<rect x="209.648" y="310.096" transform="matrix(0.7071 -0.7071 0.7071 0.7071 -174.1929 278.4842)" fill="#FFFFFF" width="78.831" height="78.831"/>
<text transform="matrix(1 0 0 1 240.0303 368.6277)" fill="#2E1A36" font-family="'Tuschinski-null'" font-size="48px">E</text>
<line fill="none" stroke="#FFFFFF" x1="247.086" y1="205.045" x2="191.126" y2="149.085"/>
<line fill="none" stroke="#FFFFFF" x1="266.518" y1="142.6" x2="246.653" y2="162.465"/>
<rect x="266.932" y="139.821" transform="matrix(0.7071 -0.7071 0.7071 0.7071 -21.7639 232.3027)" fill="#FFFFFF" width="5.204" height="5.204"/>
<g>
	<defs>
		<rect id="SVGID_11_" x="-0.001" width="314.646" height="436.535"/>
	</defs>
	<clipPath id="SVGID_12_">
		<use xlink:href="#SVGID_11_"  overflow="visible"/>
	</clipPath>
	<line clip-path="url(#SVGID_12_)" fill="none" stroke="#FFFFFF" x1="248.635" y1="404.42" x2="322.987" y2="330.067"/>
</g>
</svg>
