<?xml version="1.0" encoding="utf-8"?>
<!-- Generator: Adobe Illustrator 24.0.0, SVG Export Plug-In . SVG Version: 6.00 Build 0)  -->
<svg version="1.1" id="Laag_1" xmlns="http://www.w3.org/2000/svg" xmlns:xlink="http://www.w3.org/1999/xlink" x="0px" y="0px"
	 viewBox="0 0 314.645 436.535" enable-background="new 0 0 314.645 436.535" xml:space="preserve">
<rect fill="#2E1A36" width="314.645" height="436.535"/>
<rect x="113.385" y="241.768" fill="#D7BA16" width="87.703" height="17.508"/>
<text transform="matrix(1 0 0 1 129.1822 193.5125)"><tspan x="0" y="0" fill="#FFFFFF" font-family="'Tuschinski-null'" font-size="14px" letter-spacing="1">T</tspan><tspan x="9.282" y="0" fill="#FFFFFF" font-family="'Tuschinski-null'" font-size="14px" letter-spacing="1">H</tspan><tspan x="18.676" y="0" fill="#FFFFFF" font-family="'Tuschinski-null'" font-size="14px" letter-spacing="1">E</tspan><tspan x="26.138" y="0" fill="#FFFFFF" font-family="'Tuschinski-null'" font-size="14px" letter-spacing="1">A</tspan><tspan x="34.887" y="0" fill="#FFFFFF" font-family="'Tuschinski-null'" font-size="14px" letter-spacing="1">TE</tspan><tspan x="51.631" y="0" fill="#FFFFFF" font-family="'Tuschinski-null'" font-size="14px">R</tspan></text>
<text transform="matrix(1 0 0 1 140.0289 253.5125)" fill="#2E1A36" font-family="'Tuschinski-null'" font-size="7px">H. L. DE JONG</text>
<text transform="matrix(1 0 0 1 58.0748 229.5125)"><tspan x="0" y="0" fill="#FFFFFF" font-family="'Tuschinski-null'" font-size="32px" letter-spacing="5">T</tspan><tspan x="22.496" y="0" fill="#FFFFFF" font-family="'Tuschinski-null'" font-size="32px" letter-spacing="5">U</tspan><tspan x="44.704" y="0" fill="#FFFFFF" font-family="'Tuschinski-null'" font-size="32px" letter-spacing="5">SCHI</tspan><tspan x="123.135" y="0" fill="#FFFFFF" font-family="'Tuschinski-null'" font-size="32px" letter-spacing="5">N</tspan><tspan x="145.727" y="0" fill="#FFFFFF" font-family="'Tuschinski-null'" font-size="32px" letter-spacing="5">S</tspan><tspan x="173.63" y="0" fill="#FFFFFF" font-family="'Tuschinski-null'" font-size="32px" letter-spacing="5">K</tspan><tspan x="195.198" y="0" fill="#FFFFFF" font-family="'Tuschinski-null'" font-size="32px">I</tspan></text>
<line fill="none" stroke="#D7BA16" x1="289.133" y1="193.06" x2="201.088" y2="193.06"/>
<line fill="none" stroke="#D7BA16" x1="289.133" y1="205.512" x2="267.164" y2="205.512"/>
<line fill="none" stroke="#D7BA16" x1="46.979" y1="205.512" x2="25.01" y2="205.512"/>
<line fill="none" stroke="#D7BA16" x1="289.133" y1="218.268" x2="267.164" y2="218.268"/>
<line fill="none" stroke="#D7BA16" x1="46.979" y1="218.268" x2="25.01" y2="218.268"/>
<line fill="none" stroke="#D7BA16" x1="289.133" y1="229.512" x2="267.164" y2="229.512"/>
<line fill="none" stroke="#D7BA16" x1="46.979" y1="229.512" x2="25.01" y2="229.512"/>
<line fill="none" stroke="#D7BA16" x1="289.133" y1="25.512" x2="25.511" y2="25.512"/>
<line fill="none" stroke="#D7BA16" x1="289.133" y1="410.524" x2="25.511" y2="410.524"/>
<line fill="none" stroke="#D7BA16" x1="114.385" y1="193.06" x2="26.011" y2="193.06"/>
<line fill="none" stroke="#D7BA16" x1="288.633" y1="241.768" x2="26.011" y2="241.768"/>
<line fill="none" stroke="#D7BA16" x1="200.759" y1="156.304" x2="200.759" y2="193.56"/>
<line fill="none" stroke="#D7BA16" x1="223.227" y1="78.52" x2="223.227" y2="193.559"/>
<line fill="none" stroke="#D7BA16" x1="91.416" y1="78.52" x2="91.416" y2="193.559"/>
<line fill="none" stroke="#D7BA16" x1="245.196" y1="26.012" x2="245.196" y2="193.559"/>
<line fill="none" stroke="#D7BA16" x1="267.164" y1="26.012" x2="267.164" y2="193.559"/>
<line fill="none" stroke="#D7BA16" x1="113.885" y1="156.304" x2="113.885" y2="193.56"/>
<g>
	<defs>
		<rect id="SVGID_1_" x="-0.001" y="0.001" width="314.646" height="436.535"/>
	</defs>
	<clipPath id="SVGID_2_">
		<use xlink:href="#SVGID_1_"  overflow="visible"/>
	</clipPath>
	<path clip-path="url(#SVGID_2_)" fill="none" stroke="#D7BA16" d="M200.759,156.304c0-23.32-19.447-42.225-43.437-42.225
		s-43.437,18.905-43.437,42.225"/>
	<path clip-path="url(#SVGID_2_)" fill="none" stroke="#D7BA16" d="M157.332,112.643c0,24.713-19.475,44.747-43.499,44.747"/>
	<path clip-path="url(#SVGID_2_)" fill="none" stroke="#D7BA16" d="M157.312,112.643c0,24.713,19.475,44.747,43.499,44.747"/>
	<path clip-path="url(#SVGID_2_)" fill="none" stroke="#D7BA16" d="M168.973,115.598c1.698,16.018,14.4,28.634,30.164,29.68"/>
	<path clip-path="url(#SVGID_2_)" fill="none" stroke="#D7BA16" d="M145.84,115.598c-1.698,16.018-14.4,28.634-30.164,29.68"/>
</g>
<line fill="none" stroke="#D7BA16" x1="157.312" y1="85.512" x2="157.312" y2="113.933"/>
<line fill="none" stroke="#D7BA16" x1="229.503" y1="25.91" x2="157.165" y2="98.247"/>
<line fill="none" stroke="#D7BA16" x1="85.141" y1="25.91" x2="157.478" y2="98.247"/>
<line fill="none" stroke="#D7BA16" x1="91.152" y1="325.248" x2="157.479" y2="258.921"/>
<g>
	<defs>
		<rect id="SVGID_3_" x="-0.001" y="0.001" width="314.646" height="436.535"/>
	</defs>
	<clipPath id="SVGID_4_">
		<use xlink:href="#SVGID_3_"  overflow="visible"/>
	</clipPath>
	<path clip-path="url(#SVGID_4_)" fill="#D7BA16" d="M200.632,192.765v-21.721c0,0,3.325,19.707,22.095,21.982L200.632,192.765z"/>
	<path clip-path="url(#SVGID_4_)" fill="#D7BA16" d="M113.624,193.083H91.903c0,0,19.707-3.325,21.982-22.095L113.624,193.083z"/>
	<path clip-path="url(#SVGID_4_)" fill="none" stroke="#D7BA16" d="M200.759,171.044c0,12.133,9.836,21.968,21.968,21.968"/>
	<path clip-path="url(#SVGID_4_)" fill="none" stroke="#D7BA16" d="M91.903,193.012c12.133,0,21.968-9.836,21.968-21.969"/>
</g>
<line fill="none" stroke="#D7BA16" x1="289.133" y1="25.012" x2="289.133" y2="411.024"/>
<line fill="none" stroke="#D7BA16" x1="25.511" y1="25.012" x2="25.511" y2="411.024"/>
<line fill="none" stroke="#D7BA16" x1="47.479" y1="192.56" x2="47.479" y2="242.269"/>
<line fill="none" stroke="#D7BA16" x1="267.164" y1="192.56" x2="267.164" y2="242.269"/>
<rect x="135.954" y="34.326" transform="matrix(0.7071 -0.7071 0.7071 0.7071 6.8223 127.4954)" fill="#D7BA16" width="42.715" height="42.374"/>
<rect x="135.954" y="302.988" transform="matrix(0.7071 -0.7071 0.7071 0.7071 -183.1506 206.1847)" fill="none" stroke="#D7BA16" width="42.715" height="42.374"/>
<text transform="matrix(1 0 0 1 147.002 61.5125)" fill="#2E1A36" font-family="'Tuschinski-null'" font-size="20px">1921</text>
<line fill="none" stroke="#D7BA16" x1="170.323" y1="25.767" x2="244.487" y2="99.931"/>
<rect x="218.597" y="132.705" transform="matrix(0.7071 -0.7071 0.7071 0.7071 -31.7031 198.0591)" fill="#D7BA16" width="9.261" height="9.187"/>
<rect x="86.786" y="132.705" transform="matrix(0.7071 -0.7071 0.7071 0.7071 -70.3095 104.8548)" fill="#D7BA16" width="9.261" height="9.187"/>
<line fill="none" stroke="#D7BA16" x1="91.416" y1="241.268" x2="91.416" y2="410.024"/>
<line fill="none" stroke="#D7BA16" x1="69.427" y1="314.93" x2="69.427" y2="410.024"/>
<line fill="none" stroke="#D7BA16" x1="113.385" y1="241.268" x2="113.385" y2="302.599"/>
<rect x="86.786" y="294.603" transform="matrix(0.7071 -0.7071 0.7071 0.7071 -184.7884 152.2735)" fill="#D7BA16" width="9.261" height="9.187"/>
<text transform="matrix(1 0 0 1 155.1939 145.5125)" fill="#FFFFFF" font-family="'Tuschinski-null'" font-size="8px">X</text>
<text transform="matrix(1 0 0 1 155.1939 157.5125)" fill="#FFFFFF" font-family="'Tuschinski-null'" font-size="8px">X</text>
<text transform="matrix(1 0 0 1 155.1939 169.5125)" fill="#FFFFFF" font-family="'Tuschinski-null'" font-size="8px">X</text>
<line fill="none" stroke="#D7BA16" x1="69.427" y1="26.012" x2="69.427" y2="193.559"/>
<line fill="none" stroke="#D7BA16" x1="47.479" y1="26.012" x2="47.479" y2="193.559"/>
<line fill="none" stroke="#D7BA16" x1="144.301" y1="25.767" x2="70.137" y2="99.931"/>
<line fill="none" stroke="#D7BA16" x1="223.435" y1="325.248" x2="157.108" y2="258.921"/>
<line fill="none" stroke="#D7BA16" x1="223.171" y1="241.268" x2="223.171" y2="410.024"/>
<line fill="none" stroke="#D7BA16" x1="201.202" y1="241.268" x2="201.202" y2="302.599"/>
<rect x="218.577" y="294.566" transform="matrix(0.7071 -0.7071 0.7071 0.7071 -146.1985 245.4381)" fill="#D7BA16" width="9.187" height="9.261"/>
<rect x="152.728" y="319.544" transform="matrix(0.7071 -0.7071 0.7071 0.7071 -183.1474 206.192)" fill="#D7BA16" width="9.187" height="9.261"/>
<line fill="none" stroke="#D7BA16" x1="157.332" y1="352.914" x2="157.332" y2="410.024"/>
<line fill="none" stroke="#D7BA16" x1="127.021" y1="323.777" x2="127.021" y2="410.024"/>
<line fill="none" stroke="#D7BA16" x1="187.602" y1="323.777" x2="187.602" y2="410.024"/>
<line fill="none" stroke="#D7BA16" x1="91.563" y1="293.027" x2="25.155" y2="359.435"/>
<line fill="none" stroke="#D7BA16" x1="245.142" y1="314.93" x2="245.142" y2="410.024"/>
<line fill="none" stroke="#D7BA16" x1="223.007" y1="293.027" x2="289.415" y2="359.435"/>
</svg>
