<?xml version="1.0" encoding="utf-8"?>
<!-- Generator: Adobe Illustrator 24.0.0, SVG Export Plug-In . SVG Version: 6.00 Build 0)  -->
<svg version="1.1" id="Laag_1" xmlns="http://www.w3.org/2000/svg" xmlns:xlink="http://www.w3.org/1999/xlink" x="0px" y="0px"
	 viewBox="0 0 314.645 435.535" enable-background="new 0 0 314.645 435.535" xml:space="preserve">
<rect fill="#2E1A36" width="314.645" height="435.535"/>
<text transform="matrix(1 0 0 1 154.3521 121.5115)" fill="#D7BA16" font-family="'Tuschinski-null'" font-size="12px">K</text>
<text transform="matrix(1 0 0 1 154.9278 145.5115)" fill="#D7BA16" font-family="'Tuschinski-null'" font-size="12px">L</text>
<text transform="matrix(1 0 0 1 154.9639 169.5115)" fill="#D7BA16" font-family="'Tuschinski-null'" font-size="12px">E</text>
<text transform="matrix(1 0 0 1 154.232 193.5115)" fill="#D7BA16" font-family="'Tuschinski-null'" font-size="12px">U</text>
<text transform="matrix(1 0 0 1 155.3419 217.5115)" fill="#D7BA16" font-family="'Tuschinski-null'" font-size="12px">R</text>
<text transform="matrix(1 0 0 1 155.3419 241.5115)" fill="#D7BA16" font-family="'Tuschinski-null'" font-size="12px">R</text>
<text transform="matrix(1 0 0 1 156.7218 265.5115)" fill="#D7BA16" font-family="'Tuschinski-null'" font-size="12px">I</text>
<text transform="matrix(1 0 0 1 155.9361 289.5115)" fill="#D7BA16" font-family="'Tuschinski-null'" font-size="12px">J</text>
<text transform="matrix(1 0 0 1 154.3521 313.5115)" fill="#D7BA16" font-family="'Tuschinski-null'" font-size="12px">K</text>
<rect x="135.853" y="97.798" fill="none" stroke="#D7BA16" width="42.937" height="227.213"/>
<rect x="124.869" y="86.011" fill="none" stroke="#D7BA16" width="64.906" height="251"/>
<rect x="53.898" y="57.902" transform="matrix(0.7071 -0.7071 0.7071 0.7071 -31.6222 70.6799)" fill="#D7BA16" width="31.219" height="31.219"/>
<text transform="matrix(1 0 0 1 65.38 73.5115)"><tspan x="0" y="0" fill="#2E1A36" font-family="'Tuschinski-null'" font-size="12px" letter-spacing="1">1</tspan><tspan x="2.4" y="0" fill="#2E1A36" font-family="'Tuschinski-null'" font-size="12px">0</tspan></text>
<line fill="none" stroke="#D7BA16" x1="289.133" y1="26.011" x2="25.511" y2="26.011"/>
<line fill="none" stroke="#D7BA16" x1="289.133" y1="411.023" x2="25.511" y2="411.023"/>
<line fill="none" stroke="#D7BA16" x1="289.133" y1="25.511" x2="289.133" y2="411.523"/>
<line fill="none" stroke="#D7BA16" x1="25.511" y1="25.511" x2="25.511" y2="411.523"/>
<line fill="none" stroke="#D7BA16" x1="267.176" y1="210.059" x2="190.274" y2="286.961"/>
<line fill="none" stroke="#D7BA16" x1="190.275" y1="133.865" x2="267.177" y2="210.767"/>
<line fill="none" stroke="#D7BA16" x1="259.133" y1="202.512" x2="190.275" y2="271.37"/>
<line fill="none" stroke="#D7BA16" x1="190.275" y1="150.873" x2="258.378" y2="218.976"/>
<line fill="none" stroke="#D7BA16" x1="47.833" y1="210.766" x2="124.735" y2="133.864"/>
<line fill="none" stroke="#D7BA16" x1="124.735" y1="286.96" x2="47.833" y2="210.058"/>
<line fill="none" stroke="#D7BA16" x1="55.876" y1="218.314" x2="124.734" y2="149.456"/>
<line fill="none" stroke="#D7BA16" x1="124.735" y1="269.952" x2="56.632" y2="201.849"/>
<line fill="none" stroke="#D7BA16" x1="43.926" y1="26.021" x2="91.063" y2="73.158"/>
<line fill="none" stroke="#D7BA16" x1="263.9" y1="410.535" x2="189.867" y2="336.502"/>
</svg>
