<?xml version="1.0" encoding="utf-8"?>
<!-- Generator: Adobe Illustrator 24.0.0, SVG Export Plug-In . SVG Version: 6.00 Build 0)  -->
<svg version="1.1" id="Laag_1" xmlns="http://www.w3.org/2000/svg" xmlns:xlink="http://www.w3.org/1999/xlink" x="0px" y="0px"
	 viewBox="0 0 314.645 435.535" enable-background="new 0 0 314.645 435.535" xml:space="preserve">
<rect fill="#2E1A36" width="314.645" height="435.535"/>
<text transform="matrix(1 0 0 1 120.2012 73.4666)"><tspan x="0" y="0" fill="#FFFFFF" font-family="'Tuschinski-null'" font-size="14px" letter-spacing="1">T</tspan><tspan x="8.428" y="0" fill="#FFFFFF" font-family="'Tuschinski-null'" font-size="14px" letter-spacing="1">US</tspan><tspan x="27.566" y="0" fill="#FFFFFF" font-family="'Tuschinski-null'" font-size="14px" letter-spacing="1">C</tspan><tspan x="34.37" y="0" fill="#FFFFFF" font-family="'Tuschinski-null'" font-size="14px" letter-spacing="1">HI</tspan><tspan x="45.458" y="0" fill="#FFFFFF" font-family="'Tuschinski-null'" font-size="14px" letter-spacing="1">N</tspan><tspan x="53.941" y="0" fill="#FFFFFF" font-family="'Tuschinski-null'" font-size="14px" letter-spacing="1">S</tspan><tspan x="64.749" y="0" fill="#FFFFFF" font-family="'Tuschinski-null'" font-size="14px" letter-spacing="1">K</tspan><tspan x="72.785" y="0" fill="#FFFFFF" font-family="'Tuschinski-null'" font-size="14px">I</tspan></text>
<text transform="matrix(1 0 0 1 114.8985 90.5632)"><tspan x="0" y="0" fill="#FFFFFF" font-family="'Tuschinski-null'" font-size="16px" letter-spacing="1">TU</tspan><tspan x="19.136" y="0" fill="#FFFFFF" font-family="'Tuschinski-null'" font-size="16px" letter-spacing="1">S</tspan><tspan x="31.488" y="0" fill="#FFFFFF" font-family="'Tuschinski-null'" font-size="16px" letter-spacing="1">CH</tspan><tspan x="49.04" y="0" fill="#FFFFFF" font-family="'Tuschinski-null'" font-size="16px" letter-spacing="1">I</tspan><tspan x="51.92" y="0" fill="#FFFFFF" font-family="'Tuschinski-null'" font-size="16px" letter-spacing="1">N</tspan><tspan x="61.615" y="0" fill="#FFFFFF" font-family="'Tuschinski-null'" font-size="16px" letter-spacing="1">S</tspan><tspan x="73.967" y="0" fill="#FFFFFF" font-family="'Tuschinski-null'" font-size="16px" letter-spacing="1">K</tspan><tspan x="83.151" y="0" fill="#FFFFFF" font-family="'Tuschinski-null'" font-size="16px">I</tspan></text>
<text transform="matrix(1 0 0 1 109.5953 109.8484)"><tspan x="0" y="0" fill="#FFFFFF" font-family="'Tuschinski-null'" font-size="18px" letter-spacing="1">TUS</tspan><tspan x="35.459" y="0" fill="#FFFFFF" font-family="'Tuschinski-null'" font-size="18px" letter-spacing="1">C</tspan><tspan x="44.208" y="0" fill="#FFFFFF" font-family="'Tuschinski-null'" font-size="18px" letter-spacing="1">HI</tspan><tspan x="58.463" y="0" fill="#FFFFFF" font-family="'Tuschinski-null'" font-size="18px" letter-spacing="1">N</tspan><tspan x="69.372" y="0" fill="#FFFFFF" font-family="'Tuschinski-null'" font-size="18px" letter-spacing="1">SK</tspan><tspan x="93.617" y="0" fill="#FFFFFF" font-family="'Tuschinski-null'" font-size="18px">I</tspan></text>
<text transform="matrix(1 0 0 1 104.2925 130.1003)"><tspan x="0" y="0" fill="#FFFFFF" font-family="'Tuschinski-null'" font-size="20px" letter-spacing="1">T</tspan><tspan x="12.06" y="0" fill="#FFFFFF" font-family="'Tuschinski-null'" font-size="20px" letter-spacing="1">U</tspan><tspan x="23.94" y="0" fill="#FFFFFF" font-family="'Tuschinski-null'" font-size="20px" letter-spacing="1">S</tspan><tspan x="39.379" y="0" fill="#FFFFFF" font-family="'Tuschinski-null'" font-size="20px" letter-spacing="1">C</tspan><tspan x="49.1" y="0" fill="#FFFFFF" font-family="'Tuschinski-null'" font-size="20px" letter-spacing="1">HINS</tspan><tspan x="92.519" y="0" fill="#FFFFFF" font-family="'Tuschinski-null'" font-size="20px" letter-spacing="1">K</tspan><tspan x="103.999" y="0" fill="#FFFFFF" font-family="'Tuschinski-null'" font-size="20px">I</tspan></text>
<text transform="matrix(1 0 0 1 98.9898 151.9519)"><tspan x="0" y="0" fill="#FFFFFF" font-family="'Tuschinski-null'" font-size="22px" letter-spacing="1">TUS</tspan><tspan x="43.339" y="0" fill="#FFFFFF" font-family="'Tuschinski-null'" font-size="22px" letter-spacing="1">CH</tspan><tspan x="67.473" y="0" fill="#FFFFFF" font-family="'Tuschinski-null'" font-size="22px" letter-spacing="1">I</tspan><tspan x="71.433" y="0" fill="#FFFFFF" font-family="'Tuschinski-null'" font-size="22px" letter-spacing="1">N</tspan><tspan x="84.765" y="0" fill="#FFFFFF" font-family="'Tuschinski-null'" font-size="22px" letter-spacing="1">SK</tspan><tspan x="114.399" y="0" fill="#FFFFFF" font-family="'Tuschinski-null'" font-size="22px">I</tspan></text>
<text transform="matrix(1 0 0 1 93.6866 175.4036)"><tspan x="0" y="0" fill="#FFFFFF" font-family="'Tuschinski-null'" font-size="24px" letter-spacing="1">TU</tspan><tspan x="28.704" y="0" fill="#FFFFFF" font-family="'Tuschinski-null'" font-size="24px" letter-spacing="1">SC</tspan><tspan x="58.919" y="0" fill="#FFFFFF" font-family="'Tuschinski-null'" font-size="24px" letter-spacing="1">H</tspan><tspan x="73.583" y="0" fill="#FFFFFF" font-family="'Tuschinski-null'" font-size="24px" letter-spacing="1">I</tspan><tspan x="77.903" y="0" fill="#FFFFFF" font-family="'Tuschinski-null'" font-size="24px" letter-spacing="1">N</tspan><tspan x="92.447" y="0" fill="#FFFFFF" font-family="'Tuschinski-null'" font-size="24px" letter-spacing="1">S</tspan><tspan x="110.975" y="0" fill="#FFFFFF" font-family="'Tuschinski-null'" font-size="24px" letter-spacing="1">K</tspan><tspan x="124.751" y="0" fill="#FFFFFF" font-family="'Tuschinski-null'" font-size="24px">I</tspan></text>
<text transform="matrix(1 0 0 1 88.3839 200.4553)"><tspan x="0" y="0" fill="#FFFFFF" font-family="'Tuschinski-null'" font-size="26px" letter-spacing="2">TUSC</tspan><tspan x="63.881" y="0" fill="#FFFFFF" font-family="'Tuschinski-null'" font-size="26px" letter-spacing="2">H</tspan><tspan x="79.768" y="0" fill="#FFFFFF" font-family="'Tuschinski-null'" font-size="26px" letter-spacing="2">INSK</tspan><tspan x="135.25" y="0" fill="#FFFFFF" font-family="'Tuschinski-null'" font-size="26px">I</tspan></text>
<text transform="matrix(1 0 0 1 83.0811 227.1072)"><tspan x="0" y="0" fill="#FFFFFF" font-family="'Tuschinski-null'" font-size="28px" letter-spacing="2">T</tspan><tspan x="16.856" y="0" fill="#FFFFFF" font-family="'Tuschinski-null'" font-size="28px" letter-spacing="2">US</tspan><tspan x="55.131" y="0" fill="#FFFFFF" font-family="'Tuschinski-null'" font-size="28px" letter-spacing="2">CH</tspan><tspan x="85.848" y="0" fill="#FFFFFF" font-family="'Tuschinski-null'" font-size="28px" letter-spacing="2">INS</tspan><tspan x="129.498" y="0" fill="#FFFFFF" font-family="'Tuschinski-null'" font-size="28px" letter-spacing="2">K</tspan><tspan x="145.57" y="0" fill="#FFFFFF" font-family="'Tuschinski-null'" font-size="28px">I</tspan></text>
<text transform="matrix(1 0 0 1 77.7779 255.3582)"><tspan x="0" y="0" fill="#FFFFFF" font-family="'Tuschinski-null'" font-size="30px" letter-spacing="2">TUSC</tspan><tspan x="73.709" y="0" fill="#FFFFFF" font-family="'Tuschinski-null'" font-size="30px" letter-spacing="2">H</tspan><tspan x="92.04" y="0" fill="#FFFFFF" font-family="'Tuschinski-null'" font-size="30px" letter-spacing="2">I</tspan><tspan x="97.439" y="0" fill="#FFFFFF" font-family="'Tuschinski-null'" font-size="30px" letter-spacing="2">N</tspan><tspan x="115.619" y="0" fill="#FFFFFF" font-family="'Tuschinski-null'" font-size="30px" letter-spacing="2">S</tspan><tspan x="138.779" y="0" fill="#FFFFFF" font-family="'Tuschinski-null'" font-size="30px" letter-spacing="2">K</tspan><tspan x="155.999" y="0" fill="#FFFFFF" font-family="'Tuschinski-null'" font-size="30px">I</tspan></text>
<text transform="matrix(1 0 0 1 72.4752 285.2097)"><tspan x="0" y="0" fill="#D7BA16" font-family="'Tuschinski-null'" font-size="32px" letter-spacing="2">TU</tspan><tspan x="38.272" y="0" fill="#D7BA16" font-family="'Tuschinski-null'" font-size="32px" letter-spacing="2">S</tspan><tspan x="62.976" y="0" fill="#D7BA16" font-family="'Tuschinski-null'" font-size="32px" letter-spacing="2">CH</tspan><tspan x="98.08" y="0" fill="#D7BA16" font-family="'Tuschinski-null'" font-size="32px" letter-spacing="2">I</tspan><tspan x="103.839" y="0" fill="#D7BA16" font-family="'Tuschinski-null'" font-size="32px" letter-spacing="2">N</tspan><tspan x="123.231" y="0" fill="#D7BA16" font-family="'Tuschinski-null'" font-size="32px" letter-spacing="2">S</tspan><tspan x="147.934" y="0" fill="#D7BA16" font-family="'Tuschinski-null'" font-size="32px" letter-spacing="2">K</tspan><tspan x="166.302" y="0" fill="#D7BA16" font-family="'Tuschinski-null'" font-size="32px">I</tspan></text>
<text transform="matrix(1 0 0 1 67.1719 316.6619)"><tspan x="0" y="0" fill="#FFFFFF" font-family="'Tuschinski-null'" font-size="34px" letter-spacing="2">TUSCHINS</tspan><tspan x="157.351" y="0" fill="#FFFFFF" font-family="'Tuschinski-null'" font-size="34px" letter-spacing="2">K</tspan><tspan x="176.866" y="0" fill="#FFFFFF" font-family="'Tuschinski-null'" font-size="34px">I</tspan></text>
<text transform="matrix(1 0 0 1 61.8692 349.7126)"><tspan x="0" y="0" fill="#FFFFFF" font-family="'Tuschinski-null'" font-size="36px" letter-spacing="2">T</tspan><tspan x="21.672" y="0" fill="#FFFFFF" font-family="'Tuschinski-null'" font-size="36px" letter-spacing="2">US</tspan><tspan x="70.883" y="0" fill="#FFFFFF" font-family="'Tuschinski-null'" font-size="36px" letter-spacing="2">CH</tspan><tspan x="110.375" y="0" fill="#FFFFFF" font-family="'Tuschinski-null'" font-size="36px" letter-spacing="2">INSK</tspan><tspan x="187.198" y="0" fill="#FFFFFF" font-family="'Tuschinski-null'" font-size="36px">I</tspan></text>
<text transform="matrix(1 0 0 1 56.566 384.365)"><tspan x="0" y="0" fill="#FFFFFF" font-family="'Tuschinski-null'" font-size="38px" letter-spacing="3">TUSC</tspan><tspan x="93.365" y="0" fill="#FFFFFF" font-family="'Tuschinski-null'" font-size="38px" letter-spacing="3">H</tspan><tspan x="116.583" y="0" fill="#FFFFFF" font-family="'Tuschinski-null'" font-size="38px" letter-spacing="3">I</tspan><tspan x="123.422" y="0" fill="#FFFFFF" font-family="'Tuschinski-null'" font-size="38px" letter-spacing="3">N</tspan><tspan x="146.451" y="0" fill="#FFFFFF" font-family="'Tuschinski-null'" font-size="38px" letter-spacing="3">S</tspan><tspan x="175.786" y="0" fill="#FFFFFF" font-family="'Tuschinski-null'" font-size="38px" letter-spacing="3">K</tspan><tspan x="197.598" y="0" fill="#FFFFFF" font-family="'Tuschinski-null'" font-size="38px">I</tspan></text>
<text transform="matrix(1 0 0 1 125.5045 58.0149)"><tspan x="0" y="0" fill="#FFFFFF" font-family="'Tuschinski-null'" font-size="12px">T</tspan><tspan x="7.236" y="0" fill="#FFFFFF" font-family="'Tuschinski-null'" font-size="12px">U</tspan><tspan x="14.364" y="0" fill="#FFFFFF" font-family="'Tuschinski-null'" font-size="12px">S</tspan><tspan x="23.628" y="0" fill="#FFFFFF" font-family="'Tuschinski-null'" font-size="12px">C</tspan><tspan x="29.46" y="0" fill="#FFFFFF" font-family="'Tuschinski-null'" font-size="12px">HINS</tspan><tspan x="55.511" y="0" fill="#FFFFFF" font-family="'Tuschinski-null'" font-size="12px">K</tspan><tspan x="62.399" y="0" fill="#FFFFFF" font-family="'Tuschinski-null'" font-size="12px">I</tspan></text>
<text transform="matrix(1 0 0 1 130.8072 44.1633)"><tspan x="0" y="0" fill="#FFFFFF" font-family="'Tuschinski-null'" font-size="10px">TUSCHINSK</tspan><tspan x="52.03" y="0" fill="#FFFFFF" font-family="'Tuschinski-null'" font-size="10px">I</tspan></text>
<text transform="matrix(1 0 0 1 136.1104 31.9114)"><tspan x="0" y="0" fill="#FFFFFF" font-family="'Tuschinski-null'" font-size="8px">TU</tspan><tspan x="9.568" y="0" fill="#FFFFFF" font-family="'Tuschinski-null'" font-size="8px">S</tspan><tspan x="15.744" y="0" fill="#FFFFFF" font-family="'Tuschinski-null'" font-size="8px">CH</tspan><tspan x="24.52" y="0" fill="#FFFFFF" font-family="'Tuschinski-null'" font-size="8px">I</tspan><tspan x="25.96" y="0" fill="#FFFFFF" font-family="'Tuschinski-null'" font-size="8px">N</tspan><tspan x="30.808" y="0" fill="#FFFFFF" font-family="'Tuschinski-null'" font-size="8px">S</tspan><tspan x="36.983" y="0" fill="#FFFFFF" font-family="'Tuschinski-null'" font-size="8px">K</tspan><tspan x="41.575" y="0" fill="#FFFFFF" font-family="'Tuschinski-null'" font-size="8px">I</tspan></text>
<rect x="53.898" y="57.902" transform="matrix(0.7071 -0.7071 0.7071 0.7071 -31.6222 70.6799)" fill="#D7BA16" width="31.219" height="31.219"/>
<text transform="matrix(1 0 0 1 63.088 73.5115)"><tspan x="0" y="0" fill="#2E1A36" font-family="'Tuschinski-null'" font-size="12px" letter-spacing="1">0</tspan><tspan x="6.924" y="0" fill="#2E1A36" font-family="'Tuschinski-null'" font-size="12px">6</tspan></text>
<g>
	<defs>
		<rect id="SVGID_1_" x="-0.001" width="314.646" height="436.535"/>
	</defs>
	<clipPath id="SVGID_2_">
		<use xlink:href="#SVGID_1_"  overflow="visible"/>
	</clipPath>
	<line clip-path="url(#SVGID_2_)" fill="none" stroke="#D7BA16" x1="-2.097" y1="22.937" x2="70.061" y2="95.095"/>
</g>
</svg>
