<?xml version="1.0" encoding="utf-8"?>
<!-- Generator: Adobe Illustrator 24.0.0, SVG Export Plug-In . SVG Version: 6.00 Build 0)  -->
<svg version="1.1" id="Laag_1" xmlns="http://www.w3.org/2000/svg" xmlns:xlink="http://www.w3.org/1999/xlink" x="0px" y="0px"
	 viewBox="0 0 314.645 435.535" enable-background="new 0 0 314.645 435.535" xml:space="preserve">
<rect fill="#2E1A36" width="314.645" height="435.535"/>
<rect x="123.875" y="170.246" transform="matrix(0.7071 -0.7071 0.7071 0.7071 -98.1245 170.9625)" fill="#FFFFFF" width="66.866" height="67.364"/>
<rect x="229.48" y="346.056" transform="matrix(0.7071 -0.7071 0.7071 0.7071 -183.9506 279.2338)" fill="#FFFFFF" width="31.219" height="31.219"/>
<line fill="none" stroke="#FFFFFF" x1="109.062" y1="203.315" x2="267.058" y2="361.311"/>
<line fill="none" stroke="#FFFFFF" x1="91.275" y1="215.999" x2="201.332" y2="326.056"/>
<line fill="none" stroke="#FFFFFF" x1="109.062" y1="204.053" x2="201.307" y2="111.808"/>
<text transform="matrix(1 0 0 1 148.6099 217.5115)" fill="#D7BA16" font-family="'Tuschinski-null'" font-size="48px">B</text>
<text transform="matrix(1 0 0 1 154.6617 49.5115)" fill="#D7BA16" font-family="'Tuschinski-null'" font-size="10px">X</text>
<text transform="matrix(1 0 0 1 154.6617 61.5115)" fill="#D7BA16" font-family="'Tuschinski-null'" font-size="10px">X</text>
<text transform="matrix(1 0 0 1 154.6617 73.5115)" fill="#D7BA16" font-family="'Tuschinski-null'" font-size="10px">X</text>
<g>
	<defs>
		<rect id="SVGID_1_" x="-0.001" width="314.646" height="436.535"/>
	</defs>
	<clipPath id="SVGID_2_">
		<use xlink:href="#SVGID_1_"  overflow="visible"/>
	</clipPath>
	<line clip-path="url(#SVGID_2_)" fill="none" stroke="#FFFFFF" x1="201.467" y1="111.968" x2="201.467" y2="-0.567"/>
</g>
<line fill="none" stroke="#FFFFFF" x1="223.288" y1="138.047" x2="223.288" y2="25.512"/>
<g>
	<defs>
		<rect id="SVGID_3_" x="-0.001" width="314.646" height="436.535"/>
	</defs>
	<clipPath id="SVGID_4_">
		<use xlink:href="#SVGID_3_"  overflow="visible"/>
	</clipPath>
	<line clip-path="url(#SVGID_4_)" fill="none" stroke="#FFFFFF" x1="179.29" y1="110.409" x2="179.29" y2="-0.567"/>
	<line clip-path="url(#SVGID_4_)" fill="none" stroke="#FFFFFF" x1="113.002" y1="112.96" x2="113.002" y2="-0.001"/>
	<line clip-path="url(#SVGID_4_)" fill="none" stroke="#FFFFFF" x1="135.179" y1="110.409" x2="135.179" y2="-0.567"/>
</g>
<line fill="none" stroke="#FFFFFF" x1="112.856" y1="112.497" x2="204.412" y2="204.053"/>
<line fill="none" stroke="#FFFFFF" x1="135.159" y1="110.036" x2="157.376" y2="132.254"/>
<line fill="none" stroke="#FFFFFF" x1="179.437" y1="110.036" x2="157.22" y2="132.254"/>
<rect x="198.866" y="153.869" transform="matrix(0.7071 -0.7071 0.7071 0.7071 -51.633 188.2873)" fill="#FFFFFF" width="5.204" height="5.204"/>
<rect x="110.783" y="153.869" transform="matrix(0.7071 -0.7071 0.7071 0.7071 -77.4316 126.0037)" fill="#FFFFFF" width="5.204" height="5.204"/>
<line fill="none" stroke="#FFFFFF" x1="201.331" y1="159.797" x2="289.414" y2="71.714"/>
<line fill="none" stroke="#FFFFFF" x1="198.142" y1="156.012" x2="223.435" y2="181.305"/>
<line fill="none" stroke="#FFFFFF" x1="223.227" y1="181.158" x2="289.133" y2="181.158"/>
<line fill="none" stroke="#FFFFFF" x1="223.227" y1="217.35" x2="289.133" y2="217.35"/>
<line fill="none" stroke="#FFFFFF" x1="201.968" y1="26.011" x2="289.133" y2="26.011"/>
<line fill="none" stroke="#FFFFFF" x1="262.771" y1="98.011" x2="289.133" y2="98.011"/>
<line fill="none" stroke="#FFFFFF" x1="26.011" y1="26.011" x2="113.176" y2="26.011"/>
<line fill="none" stroke="#FFFFFF" x1="26.011" y1="49.511" x2="113.176" y2="49.511"/>
<line fill="none" stroke="#FFFFFF" x1="26.011" y1="134.011" x2="91.417" y2="134.011"/>
<line fill="none" stroke="#FFFFFF" x1="26.011" y1="410.523" x2="288.633" y2="410.523"/>
<line fill="none" stroke="#FFFFFF" x1="223.788" y1="217.511" x2="173.594" y2="267.704"/>
<line fill="none" stroke="#FFFFFF" x1="201.259" y1="411.023" x2="201.259" y2="295.157"/>
<line fill="none" stroke="#FFFFFF" x1="266.912" y1="411.023" x2="266.912" y2="217.511"/>
<line fill="none" stroke="#FFFFFF" x1="223.515" y1="411.023" x2="223.515" y2="361.665"/>
<line fill="none" stroke="#FFFFFF" x1="288.633" y1="411.023" x2="288.633" y2="25.511"/>
<line fill="none" stroke="#FFFFFF" x1="26.011" y1="411.023" x2="26.011" y2="25.511"/>
<rect x="155.127" y="283.391" transform="matrix(0.7071 -0.7071 0.7071 0.7071 -156.0294 195.296)" fill="#FFFFFF" width="5.204" height="5.204"/>
<line fill="none" stroke="#FFFFFF" x1="135.353" y1="411.023" x2="135.353" y2="311.209"/>
<line fill="none" stroke="#FFFFFF" x1="113.385" y1="333.637" x2="113.385" y2="237.697"/>
<line fill="none" stroke="#FFFFFF" x1="157.229" y1="411.023" x2="157.229" y2="286.455"/>
<line fill="none" stroke="#FFFFFF" x1="91.416" y1="313.511" x2="91.416" y2="181.158"/>
<line fill="none" stroke="#FFFFFF" x1="91.416" y1="134.832" x2="91.416" y2="26.511"/>
<line fill="none" stroke="#FFFFFF" x1="47.479" y1="134.011" x2="47.479" y2="49.511"/>
<rect x="209.139" y="252.579" transform="matrix(0.7071 -0.7071 0.7071 0.7071 -123.7876 237.1306)" fill="none" stroke="#FFFFFF" width="30.419" height="30.823"/>
<text transform="matrix(1 0 0 1 239.5645 361.5115)"><tspan x="0" y="0" fill="#2E1A36" font-family="'Tuschinski-null'" font-size="12px" letter-spacing="1">0</tspan><tspan x="6.924" y="0" fill="#2E1A36" font-family="'Tuschinski-null'" font-size="12px">5</tspan></text>
<line fill="none" stroke="#FFFFFF" x1="25.918" y1="246.805" x2="116.711" y2="156.012"/>
<line fill="none" stroke="#FFFFFF" x1="26.41" y1="199.457" x2="91.282" y2="134.585"/>
<line fill="none" stroke="#FFFFFF" x1="161.055" y1="285.358" x2="35.411" y2="411.002"/>
<rect x="66.846" y="244.556" transform="matrix(0.7071 -0.7071 0.7071 0.7071 -154.4261 121.4977)" fill="#FFFFFF" width="5.204" height="5.204"/>
<line fill="none" stroke="#FFFFFF" x1="26.364" y1="247.512" x2="135.161" y2="356.309"/>
<line fill="none" stroke="#FFFFFF" x1="47.351" y1="355.451" x2="102.412" y2="410.512"/>
<rect x="221.746" y="265.456" transform="matrix(0.7071 -0.7071 0.7071 0.7071 -123.8357 237.15)" fill="#FFFFFF" width="5.204" height="5.204"/>
<line fill="none" stroke="#FFFFFF" x1="91.916" y1="313.011" x2="26.51" y2="313.011"/>
<line fill="none" stroke="#FFFFFF" x1="69.448" y1="247.158" x2="26.511" y2="247.158"/>
<rect x="44.596" y="349.817" transform="matrix(0.7071 -0.7071 0.7071 0.7071 -235.3735 136.5953)" fill="#FFFFFF" width="5.204" height="5.204"/>
<rect x="242.948" y="49.419" transform="matrix(0.7071 -0.7071 0.7071 0.7071 35.1353 188.866)" fill="#FFFFFF" width="5.204" height="5.204"/>
<line fill="none" stroke="#FFFFFF" x1="223.141" y1="26.178" x2="249.284" y2="52.321"/>
</svg>
