<?xml version="1.0" encoding="utf-8"?>
<!-- Generator: Adobe Illustrator 24.0.0, SVG Export Plug-In . SVG Version: 6.00 Build 0)  -->
<svg version="1.1" id="Laag_1" xmlns="http://www.w3.org/2000/svg" xmlns:xlink="http://www.w3.org/1999/xlink" x="0px" y="0px"
	 viewBox="0 0 314.645 435.535" enable-background="new 0 0 314.645 435.535" xml:space="preserve">
<rect x="89.743" y="103.942" transform="matrix(0.7071 -0.7071 0.7071 0.7071 -47.9624 95.7353)" fill="#D7BA16" width="3.679" height="3.643"/>
<rect x="89.578" y="127.942" transform="matrix(0.7071 -0.7071 0.7071 0.7071 -64.9813 102.6478)" fill="#D7BA16" width="3.679" height="3.643"/>
<rect x="89.578" y="151.942" transform="matrix(0.7071 -0.7071 0.7071 0.7071 -81.9518 109.6772)" fill="#D7BA16" width="3.679" height="3.643"/>
<rect x="89.578" y="175.942" transform="matrix(0.7071 -0.7071 0.7071 0.7071 -98.9223 116.7065)" fill="#D7BA16" width="3.679" height="3.643"/>
<rect x="89.578" y="199.942" transform="matrix(0.7071 -0.7071 0.7071 0.7071 -115.893 123.7365)" fill="#D7BA16" width="3.679" height="3.643"/>
<rect x="89.578" y="223.895" transform="matrix(0.7071 -0.7071 0.7071 0.7071 -132.83 130.752)" fill="#D7BA16" width="3.679" height="3.643"/>
<rect x="89.578" y="247.895" transform="matrix(0.7071 -0.7071 0.7071 0.7071 -149.8006 137.7814)" fill="#D7BA16" width="3.679" height="3.643"/>
<rect x="89.578" y="271.895" transform="matrix(0.7071 -0.7071 0.7071 0.7071 -166.7711 144.8109)" fill="#D7BA16" width="3.679" height="3.643"/>
<text transform="matrix(1 0 0 1 113.3853 109.012)"><tspan x="0" y="0" fill="#2E1A36" font-family="'Tuschinski-null'" font-size="10px">FL</tspan><tspan x="9.52" y="0" fill="#2E1A36" font-family="'Tuschinski-null'" font-size="10px">A</tspan><tspan x="15.17" y="0" fill="#2E1A36" font-family="'Tuschinski-null'" font-size="10px">MBOY</tspan><tspan x="40.379" y="0" fill="#2E1A36" font-family="'Tuschinski-null'" font-size="10px">A</tspan><tspan x="46.029" y="0" fill="#2E1A36" font-family="'Tuschinski-null'" font-size="10px">N</tspan><tspan x="52.1" y="0" fill="#2E1A36" font-family="'Tuschinski-null'" font-size="10px">T</tspan></text>
<text transform="matrix(1 0 0 1 113.3853 133.012)"><tspan x="0" y="0" fill="#2E1A36" font-family="'Tuschinski-null'" font-size="10px">WEELDERI</tspan><tspan x="39.359" y="0" fill="#2E1A36" font-family="'Tuschinski-null'" font-size="10px">G</tspan></text>
<text transform="matrix(1 0 0 1 113.3853 157.012)"><tspan x="0" y="0" fill="#2E1A36" font-family="'Tuschinski-null'" font-size="10px">EX</tspan><tspan x="10.85" y="0" fill="#2E1A36" font-family="'Tuschinski-null'" font-size="10px">T</tspan><tspan x="16.87" y="0" fill="#2E1A36" font-family="'Tuschinski-null'" font-size="10px">RAVA</tspan><tspan x="38.319" y="0" fill="#2E1A36" font-family="'Tuschinski-null'" font-size="10px">G</tspan><tspan x="45.959" y="0" fill="#2E1A36" font-family="'Tuschinski-null'" font-size="10px">AN</tspan><tspan x="57.689" y="0" fill="#2E1A36" font-family="'Tuschinski-null'" font-size="10px">T</tspan></text>
<text transform="matrix(1 0 0 1 113.3853 181.012)"><tspan x="0" y="0" fill="#2E1A36" font-family="'Tuschinski-null'" font-size="10px">AMBITIE</tspan><tspan x="31.06" y="0" fill="#2E1A36" font-family="'Tuschinski-null'" font-size="10px">U</tspan><tspan x="37" y="0" fill="#2E1A36" font-family="'Tuschinski-null'" font-size="10px">S</tspan></text>
<text transform="matrix(1 0 0 1 113.3853 205.012)"><tspan x="0" y="0" fill="#2E1A36" font-family="'Tuschinski-null'" font-size="10px">VORSTELIJ</tspan><tspan x="46.429" y="0" fill="#2E1A36" font-family="'Tuschinski-null'" font-size="10px">K</tspan></text>
<text transform="matrix(1 0 0 1 113.3853 229.012)"><tspan x="0" y="0" fill="#2E1A36" font-family="'Tuschinski-null'" font-size="10px">OVERDADI</tspan><tspan x="41.139" y="0" fill="#2E1A36" font-family="'Tuschinski-null'" font-size="10px">G</tspan></text>
<text transform="matrix(1 0 0 1 113.3853 253.012)"><tspan x="0" y="0" fill="#2E1A36" font-family="'Tuschinski-null'" font-size="10px">LU</tspan><tspan x="10.74" y="0" fill="#2E1A36" font-family="'Tuschinski-null'" font-size="10px">X</tspan><tspan x="16.85" y="0" fill="#2E1A36" font-family="'Tuschinski-null'" font-size="10px">UEU</tspan><tspan x="33.479" y="0" fill="#2E1A36" font-family="'Tuschinski-null'" font-size="10px">S</tspan></text>
<text transform="matrix(1 0 0 1 113.3853 277.012)"><tspan x="0" y="0" fill="#2E1A36" font-family="'Tuschinski-null'" font-size="10px">RIJ</tspan><tspan x="9.01" y="0" fill="#2E1A36" font-family="'Tuschinski-null'" font-size="10px">K</tspan></text>
<line fill="none" stroke="#D7BA16" x1="289.133" y1="24.762" x2="289.133" y2="410.774"/>
<line fill="none" stroke="#D7BA16" x1="289.633" y1="25.012" x2="25.3" y2="25.012"/>
<line fill="none" stroke="#D7BA16" x1="126.992" y1="37.012" x2="25.301" y2="37.012"/>
<line fill="none" stroke="#D7BA16" x1="289.633" y1="410.274" x2="25.3" y2="410.274"/>
<rect x="53.898" y="57.402" transform="matrix(0.7071 -0.7071 0.7071 0.7071 -31.2688 70.5339)" fill="#D7BA16" width="31.219" height="31.219"/>
<line fill="none" stroke="#D7BA16" x1="139.651" y1="24.631" x2="25.131" y2="139.151"/>
<line fill="none" stroke="#D7BA16" x1="25.511" y1="24.762" x2="25.511" y2="410.774"/>
<line fill="none" stroke="#D7BA16" x1="47.48" y1="71.784" x2="47.48" y2="116.855"/>
<text transform="matrix(1 0 0 1 63.8145 73.012)"><tspan x="0" y="0" fill="#2E1A36" font-family="'Tuschinski-null'" font-size="12px" letter-spacing="1">0</tspan><tspan x="6.924" y="0" fill="#2E1A36" font-family="'Tuschinski-null'" font-size="12px">2</tspan></text>
<line fill="none" stroke="#D7BA16" x1="55.303" y1="37.268" x2="91.232" y2="73.197"/>
<line fill="none" stroke="#D7BA16" x1="25.654" y1="50.381" x2="69.851" y2="94.578"/>
<rect x="44.878" y="50.089" transform="matrix(0.7071 -0.7071 0.7071 0.7071 -23.3519 49.0062)" fill="#D7BA16" width="5.204" height="5.204"/>
</svg>
