<?xml version="1.0" encoding="utf-8"?>
<!-- Generator: Adobe Illustrator 24.0.0, SVG Export Plug-In . SVG Version: 6.00 Build 0)  -->
<svg version="1.1" id="Laag_1" xmlns="http://www.w3.org/2000/svg" xmlns:xlink="http://www.w3.org/1999/xlink" x="0px" y="0px"
	 viewBox="0 0 314.645 436.535" enable-background="new 0 0 314.645 436.535" xml:space="preserve">
<rect fill="#2E1A36" width="314.645" height="436.535"/>
<rect x="229.48" y="346.057" transform="matrix(0.7071 -0.7071 0.7071 0.7071 -183.9513 279.2341)" fill="#D7BA16" width="31.219" height="31.219"/>
<text transform="matrix(1 0 0 1 241.8331 361.5125)"><tspan x="0" y="0" fill="#2E1A36" font-family="'Tuschinski-null'" font-size="12px" letter-spacing="1">1</tspan><tspan x="2.399" y="0" fill="#2E1A36" font-family="'Tuschinski-null'" font-size="12px">5</tspan></text>
<text transform="matrix(1 0 0 1 69.4478 97.5125)"><tspan x="0" y="0" fill="#D7BA16" font-family="'Tuschinski-null'" font-size="10px" letter-spacing="1">BOUWSTIJLE</tspan><tspan x="57.809" y="0" fill="#D7BA16" font-family="'Tuschinski-null'" font-size="10px">N</tspan></text>
<text transform="matrix(1 0 0 1 69.4478 121.5125)"><tspan x="0" y="0" fill="#FFFFFF" font-family="'Tuschinski-null'" font-size="10px" letter-spacing="1">ART DEC</tspan><tspan x="35.509" y="0" fill="#FFFFFF" font-family="'Tuschinski-null'" font-size="10px">O</tspan></text>
<text transform="matrix(1 0 0 1 69.4478 133.5125)"><tspan x="0" y="0" fill="#FFFFFF" font-family="'Tuschinski-null'" font-size="10px" letter-spacing="1">ART NOUVEA</tspan><tspan x="57.719" y="0" fill="#FFFFFF" font-family="'Tuschinski-null'" font-size="10px">U</tspan></text>
<text transform="matrix(1 0 0 1 69.4478 145.5125)"><tspan x="0" y="0" fill="#FFFFFF" font-family="'Tuschinski-null'" font-size="10px" letter-spacing="1">AMSTERDAMSE SCHOO</tspan><tspan x="106.638" y="0" fill="#FFFFFF" font-family="'Tuschinski-null'" font-size="10px">L</tspan></text>
<text transform="matrix(1 0 0 1 69.4478 157.5125)"><tspan x="0" y="0" fill="#FFFFFF" font-family="'Tuschinski-null'" font-size="10px" letter-spacing="1">JUGENDSTI</tspan><tspan x="50.209" y="0" fill="#FFFFFF" font-family="'Tuschinski-null'" font-size="10px">L</tspan></text>
<text transform="matrix(1 0 0 1 69.4478 193.5125)"><tspan x="0" y="0" fill="#D7BA16" font-family="'Tuschinski-null'" font-size="10px" letter-spacing="1">INTERIEU</tspan><tspan x="36.81" y="0" fill="#D7BA16" font-family="'Tuschinski-null'" font-size="10px">R</tspan></text>
<text transform="matrix(1 0 0 1 69.4478 217.5125)"><tspan x="0" y="0" fill="#FFFFFF" font-family="'Tuschinski-null'" font-size="10px" letter-spacing="1">MAHONI</tspan><tspan x="35.58" y="0" fill="#FFFFFF" font-family="'Tuschinski-null'" font-size="10px">E</tspan></text>
<text transform="matrix(1 0 0 1 69.4478 229.5125)"><tspan x="0" y="0" fill="#FFFFFF" font-family="'Tuschinski-null'" font-size="10px" letter-spacing="1">ZIJD</tspan><tspan x="16.64" y="0" fill="#FFFFFF" font-family="'Tuschinski-null'" font-size="10px">E</tspan></text>
<text transform="matrix(1 0 0 1 69.4478 241.5125)"><tspan x="0" y="0" fill="#FFFFFF" font-family="'Tuschinski-null'" font-size="10px" letter-spacing="1">MARME</tspan><tspan x="28.709" y="0" fill="#FFFFFF" font-family="'Tuschinski-null'" font-size="10px">R</tspan></text>
<text transform="matrix(1 0 0 1 69.4478 253.5125)"><tspan x="0" y="0" fill="#FFFFFF" font-family="'Tuschinski-null'" font-size="10px" letter-spacing="1">BRON</tspan><tspan x="23.52" y="0" fill="#FFFFFF" font-family="'Tuschinski-null'" font-size="10px">S</tspan></text>
<text transform="matrix(1 0 0 1 69.4478 289.5125)"><tspan x="0" y="0" fill="#D7BA16" font-family="'Tuschinski-null'" font-size="10px" letter-spacing="1">GEVOE</tspan><tspan x="32.26" y="0" fill="#D7BA16" font-family="'Tuschinski-null'" font-size="10px">L</tspan></text>
<text transform="matrix(1 0 0 1 69.4478 313.5125)"><tspan x="0" y="0" fill="#FFFFFF" font-family="'Tuschinski-null'" font-size="10px" letter-spacing="1">STATE OF T</tspan><tspan x="57.789" y="0" fill="#FFFFFF" font-family="'Tuschinski-null'" font-size="10px">H</tspan><tspan x="64.099" y="0" fill="#FFFFFF" font-family="'Tuschinski-null'" font-size="10px" letter-spacing="1">E AR</tspan><tspan x="82.759" y="0" fill="#FFFFFF" font-family="'Tuschinski-null'" font-size="10px">T</tspan></text>
<text transform="matrix(1 0 0 1 69.4478 325.5125)"><tspan x="0" y="0" fill="#FFFFFF" font-family="'Tuschinski-null'" font-size="10px" letter-spacing="1">MORE IS BE</tspan><tspan x="50.979" y="0" fill="#FFFFFF" font-family="'Tuschinski-null'" font-size="10px">T</tspan><tspan x="57.199" y="0" fill="#FFFFFF" font-family="'Tuschinski-null'" font-size="10px" letter-spacing="1">TE</tspan><tspan x="68.359" y="0" fill="#FFFFFF" font-family="'Tuschinski-null'" font-size="10px">R</tspan></text>
<text transform="matrix(1 0 0 1 69.4478 337.5125)"><tspan x="0" y="0" fill="#FFFFFF" font-family="'Tuschinski-null'" font-size="10px" letter-spacing="1">OVER THE T</tspan><tspan x="54.629" y="0" fill="#FFFFFF" font-family="'Tuschinski-null'" font-size="10px">O</tspan><tspan x="62.939" y="0" fill="#FFFFFF" font-family="'Tuschinski-null'" font-size="10px">P</tspan></text>
<line fill="none" stroke="#D7BA16" x1="288.633" y1="26.012" x2="25.011" y2="26.012"/>
<line fill="none" stroke="#D7BA16" x1="288.633" y1="411.024" x2="25.011" y2="411.024"/>
<line fill="none" stroke="#D7BA16" x1="288.633" y1="25.512" x2="288.633" y2="411.524"/>
<line fill="none" stroke="#D7BA16" x1="25.011" y1="25.512" x2="25.011" y2="411.524"/>
</svg>
