<?xml version="1.0" encoding="utf-8"?>
<!-- Generator: Adobe Illustrator 24.0.0, SVG Export Plug-In . SVG Version: 6.00 Build 0)  -->
<svg version="1.1" id="Laag_1" xmlns="http://www.w3.org/2000/svg" xmlns:xlink="http://www.w3.org/1999/xlink" x="0px" y="0px"
	 viewBox="0 0 314.646 436.535" enable-background="new 0 0 314.646 436.535" xml:space="preserve">
<text transform="matrix(1 0 0 1 131.1153 217.5115)"><tspan x="0" y="0" fill="#2E1A36" font-family="'Tuschinski-null'" font-size="36px" letter-spacing="3">AB</tspan><tspan x="37.764" y="0" fill="#2E1A36" font-family="'Tuschinski-null'" font-size="36px">C</tspan></text>
<rect x="113.886" y="182.011" fill="none" stroke="#D7BA16" width="86.874" height="47"/>
<rect x="110.343" y="178.468" fill="none" stroke="#D7BA16" width="93.961" height="54.087"/>
<rect x="106.799" y="174.925" fill="none" stroke="#D7BA16" width="101.047" height="61.173"/>
<rect x="103.256" y="171.381" fill="none" stroke="#D7BA16" width="108.134" height="68.26"/>
<rect x="99.713" y="167.838" fill="none" stroke="#D7BA16" width="115.22" height="75.347"/>
<rect x="96.169" y="164.295" fill="none" stroke="#D7BA16" width="122.307" height="82.433"/>
<rect x="229.481" y="346.056" transform="matrix(0.7071 -0.7071 0.7071 0.7071 -183.9503 279.2345)" fill="#D7BA16" width="31.219" height="31.219"/>
<text transform="matrix(1 0 0 1 239.044 361.5115)"><tspan x="0" y="0" fill="#2E1A36" font-family="'Tuschinski-null'" font-size="12px" letter-spacing="1">0</tspan><tspan x="6.924" y="0" fill="#2E1A36" font-family="'Tuschinski-null'" font-size="12px">7</tspan></text>
<rect x="92.626" y="160.751" fill="none" stroke="#D7BA16" width="129.394" height="89.52"/>
<rect x="89.083" y="157.209" fill="none" stroke="#D7BA16" width="136.48" height="96.606"/>
<g>
	<defs>
		<rect id="SVGID_1_" width="314.646" height="436.535"/>
	</defs>
	<clipPath id="SVGID_2_">
		<use xlink:href="#SVGID_1_"  overflow="visible"/>
	</clipPath>
	<line clip-path="url(#SVGID_2_)" fill="none" stroke="#D7BA16" x1="157.323" y1="254.314" x2="157.323" y2="436.534"/>
	<line clip-path="url(#SVGID_2_)" fill="none" stroke="#D7BA16" x1="160.866" y1="254.314" x2="160.866" y2="436.534"/>
	<line clip-path="url(#SVGID_2_)" fill="none" stroke="#D7BA16" x1="164.41" y1="254.314" x2="164.41" y2="436.534"/>
	<line clip-path="url(#SVGID_2_)" fill="none" stroke="#D7BA16" x1="167.953" y1="254.314" x2="167.953" y2="436.534"/>
	<line clip-path="url(#SVGID_2_)" fill="none" stroke="#D7BA16" x1="146.693" y1="254.314" x2="146.693" y2="436.534"/>
	<line clip-path="url(#SVGID_2_)" fill="none" stroke="#D7BA16" x1="150.236" y1="254.314" x2="150.236" y2="436.534"/>
	<line clip-path="url(#SVGID_2_)" fill="none" stroke="#D7BA16" x1="153.78" y1="254.314" x2="153.78" y2="436.534"/>
	<line clip-path="url(#SVGID_2_)" fill="none" stroke="#D7BA16" x1="157.323" y1="0" x2="157.323" y2="156.709"/>
	<line clip-path="url(#SVGID_2_)" fill="none" stroke="#D7BA16" x1="160.866" y1="0" x2="160.866" y2="156.709"/>
	<line clip-path="url(#SVGID_2_)" fill="none" stroke="#D7BA16" x1="164.41" y1="0" x2="164.41" y2="156.709"/>
	<line clip-path="url(#SVGID_2_)" fill="none" stroke="#D7BA16" x1="167.953" y1="0" x2="167.953" y2="156.709"/>
	<line clip-path="url(#SVGID_2_)" fill="none" stroke="#D7BA16" x1="146.693" y1="0" x2="146.693" y2="156.709"/>
	<line clip-path="url(#SVGID_2_)" fill="none" stroke="#D7BA16" x1="150.236" y1="0" x2="150.236" y2="156.709"/>
	<line clip-path="url(#SVGID_2_)" fill="none" stroke="#D7BA16" x1="153.78" y1="0" x2="153.78" y2="156.709"/>
	<line clip-path="url(#SVGID_2_)" fill="none" stroke="#D7BA16" x1="245.385" y1="339.944" x2="319.748" y2="414.307"/>
</g>
</svg>
